%TF.GenerationSoftware,KiCad,Pcbnew,9.0.0-rc3*%
%TF.CreationDate,2025-02-11T14:32:45-05:00*%
%TF.ProjectId,melonHD,6d656c6f-6e48-4442-9e6b-696361645f70,rev?*%
%TF.SameCoordinates,PX7459280PY6422c40*%
%TF.FileFunction,Copper,L3,Inr*%
%TF.FilePolarity,Positive*%
%FSLAX46Y46*%
G04 Gerber Fmt 4.6, Leading zero omitted, Abs format (unit mm)*
G04 Created by KiCad (PCBNEW 9.0.0-rc3) date 2025-02-11 14:32:45*
%MOMM*%
%LPD*%
G01*
G04 APERTURE LIST*
%TA.AperFunction,ComponentPad*%
%ADD10O,1.600000X0.600000*%
%TD*%
%TA.AperFunction,ComponentPad*%
%ADD11O,1.690000X0.600000*%
%TD*%
%TA.AperFunction,ComponentPad*%
%ADD12O,0.600000X1.200000*%
%TD*%
%TA.AperFunction,ViaPad*%
%ADD13C,0.350000*%
%TD*%
%TA.AperFunction,ViaPad*%
%ADD14C,2.250000*%
%TD*%
G04 APERTURE END LIST*
%TA.AperFunction,ComponentPad*%
G36*
G01*
X5500000Y14905000D02*
X6550000Y14905000D01*
G75*
G02*
X7025000Y14430000I0J-475000D01*
G01*
X7025000Y14430000D01*
G75*
G02*
X6550000Y13955000I-475000J0D01*
G01*
X5500000Y13955000D01*
G75*
G02*
X5025000Y14430000I0J475000D01*
G01*
X5025000Y14430000D01*
G75*
G02*
X5500000Y14905000I475000J0D01*
G01*
G37*
%TD.AperFunction*%
%TA.AperFunction,ComponentPad*%
G36*
G01*
X5500000Y4045000D02*
X6550000Y4045000D01*
G75*
G02*
X7025000Y3570000I0J-475000D01*
G01*
X7025000Y3570000D01*
G75*
G02*
X6550000Y3095000I-475000J0D01*
G01*
X5500000Y3095000D01*
G75*
G02*
X5025000Y3570000I0J475000D01*
G01*
X5025000Y3570000D01*
G75*
G02*
X5500000Y4045000I475000J0D01*
G01*
G37*
%TD.AperFunction*%
%TA.AperFunction,ComponentPad*%
G36*
G01*
X1100000Y14905000D02*
X1950000Y14905000D01*
G75*
G02*
X2425000Y14430000I0J-475000D01*
G01*
X2425000Y14430000D01*
G75*
G02*
X1950000Y13955000I-475000J0D01*
G01*
X1100000Y13955000D01*
G75*
G02*
X625000Y14430000I0J475000D01*
G01*
X625000Y14430000D01*
G75*
G02*
X1100000Y14905000I475000J0D01*
G01*
G37*
%TD.AperFunction*%
%TA.AperFunction,ComponentPad*%
G36*
G01*
X1100000Y4045000D02*
X1950000Y4045000D01*
G75*
G02*
X2425000Y3570000I0J-475000D01*
G01*
X2425000Y3570000D01*
G75*
G02*
X1950000Y3095000I-475000J0D01*
G01*
X1100000Y3095000D01*
G75*
G02*
X625000Y3570000I0J475000D01*
G01*
X625000Y3570000D01*
G75*
G02*
X1100000Y4045000I475000J0D01*
G01*
G37*
%TD.AperFunction*%
D10*
X32925000Y4680000D03*
D11*
X37475000Y4680000D03*
D12*
X33425000Y4990000D03*
X33425000Y13010000D03*
D10*
X32925000Y13320000D03*
D11*
X37475000Y13320000D03*
%TA.AperFunction,ComponentPad*%
G36*
X31921004Y4706192D02*
G01*
X31921015Y4706383D01*
X31923015Y4732383D01*
X31923033Y4732573D01*
X31926033Y4758573D01*
X31926090Y4758944D01*
X31931090Y4784944D01*
X31931138Y4785167D01*
X31937138Y4810167D01*
X31937172Y4810300D01*
X31944172Y4836300D01*
X31944318Y4836756D01*
X31953318Y4860756D01*
X31953385Y4860923D01*
X31963385Y4884923D01*
X31963455Y4885083D01*
X31974455Y4909083D01*
X31974647Y4909460D01*
X31987647Y4932460D01*
X31987782Y4932684D01*
X32015782Y4976684D01*
X32016023Y4977030D01*
X32032023Y4998030D01*
X32032190Y4998238D01*
X32049190Y5018238D01*
X32049370Y5018439D01*
X32067370Y5037439D01*
X32067561Y5037630D01*
X32086561Y5055630D01*
X32086762Y5055810D01*
X32106762Y5072810D01*
X32106970Y5072977D01*
X32127970Y5088977D01*
X32128316Y5089218D01*
X32172316Y5117218D01*
X32172540Y5117353D01*
X32195540Y5130353D01*
X32195917Y5130545D01*
X32219917Y5141545D01*
X32220077Y5141615D01*
X32244077Y5151615D01*
X32244244Y5151682D01*
X32268244Y5160682D01*
X32268700Y5160828D01*
X32294700Y5167828D01*
X32294833Y5167862D01*
X32319833Y5173862D01*
X32320056Y5173910D01*
X32346056Y5178910D01*
X32346427Y5178967D01*
X32372427Y5181967D01*
X32372617Y5181985D01*
X32398617Y5183985D01*
X32398808Y5183996D01*
X32424808Y5184996D01*
X32425000Y5185000D01*
X32929820Y5185000D01*
X32930764Y5185472D01*
X32933000Y5186000D01*
X32933820Y5186000D01*
X32936764Y5187472D01*
X32939000Y5188000D01*
X32939820Y5188000D01*
X32944036Y5190108D01*
X32946464Y5192536D01*
X32947764Y5193472D01*
X32948273Y5193726D01*
X32948528Y5194236D01*
X32950764Y5196472D01*
X32951273Y5196726D01*
X32951528Y5197236D01*
X32952464Y5198536D01*
X32954892Y5200964D01*
X32957000Y5205180D01*
X32957000Y5206000D01*
X32957528Y5208236D01*
X32959000Y5211180D01*
X32959000Y5212000D01*
X32959528Y5214236D01*
X32960000Y5215180D01*
X32960000Y5260000D01*
X32960004Y5260208D01*
X32961004Y5284208D01*
X32961017Y5284415D01*
X32963017Y5308415D01*
X32963039Y5308620D01*
X32966039Y5332620D01*
X32966068Y5332822D01*
X32970068Y5356822D01*
X32970162Y5357262D01*
X32976162Y5380262D01*
X32976217Y5380456D01*
X32983217Y5403456D01*
X32983278Y5403643D01*
X32991278Y5426643D01*
X32991372Y5426893D01*
X33000372Y5448893D01*
X33000448Y5449069D01*
X33010448Y5471069D01*
X33010659Y5471481D01*
X33034659Y5513481D01*
X33034975Y5513966D01*
X33048975Y5532966D01*
X33049076Y5533098D01*
X33079076Y5571098D01*
X33079464Y5571536D01*
X33113464Y5605536D01*
X33113902Y5605924D01*
X33151902Y5635924D01*
X33152034Y5636025D01*
X33171034Y5650025D01*
X33171519Y5650341D01*
X33213519Y5674341D01*
X33213931Y5674552D01*
X33235931Y5684552D01*
X33236107Y5684628D01*
X33258107Y5693628D01*
X33258357Y5693722D01*
X33281357Y5701722D01*
X33281544Y5701783D01*
X33304544Y5708783D01*
X33304738Y5708838D01*
X33327738Y5714838D01*
X33328178Y5714932D01*
X33352178Y5718932D01*
X33352380Y5718961D01*
X33376380Y5721961D01*
X33376585Y5721983D01*
X33400585Y5723983D01*
X33400792Y5723996D01*
X33424792Y5724996D01*
X33425192Y5724996D01*
X33451192Y5723996D01*
X33451383Y5723985D01*
X33477383Y5721985D01*
X33477573Y5721967D01*
X33503573Y5718967D01*
X33503944Y5718910D01*
X33529944Y5713910D01*
X33530167Y5713862D01*
X33555167Y5707862D01*
X33555300Y5707828D01*
X33581300Y5700828D01*
X33581756Y5700682D01*
X33605756Y5691682D01*
X33605923Y5691615D01*
X33629923Y5681615D01*
X33630083Y5681545D01*
X33654083Y5670545D01*
X33654460Y5670353D01*
X33677460Y5657353D01*
X33677684Y5657218D01*
X33721684Y5629218D01*
X33722030Y5628977D01*
X33743030Y5612977D01*
X33743238Y5612810D01*
X33763238Y5595810D01*
X33763439Y5595630D01*
X33782439Y5577630D01*
X33782630Y5577439D01*
X33800630Y5558439D01*
X33800810Y5558238D01*
X33817810Y5538238D01*
X33817977Y5538030D01*
X33833977Y5517030D01*
X33834218Y5516684D01*
X33862218Y5472684D01*
X33862353Y5472460D01*
X33875353Y5449460D01*
X33875545Y5449083D01*
X33886545Y5425083D01*
X33886615Y5424923D01*
X33896615Y5400923D01*
X33896682Y5400756D01*
X33905682Y5376756D01*
X33905828Y5376300D01*
X33912828Y5350300D01*
X33912862Y5350167D01*
X33918862Y5325167D01*
X33918910Y5324944D01*
X33923910Y5298944D01*
X33923967Y5298573D01*
X33926967Y5272573D01*
X33926985Y5272383D01*
X33928985Y5246383D01*
X33928996Y5246192D01*
X33929996Y5220192D01*
X33930000Y5220000D01*
X33930000Y4680000D01*
X33929996Y4679808D01*
X33928996Y4653808D01*
X33928985Y4653617D01*
X33926985Y4627617D01*
X33926967Y4627427D01*
X33923967Y4601427D01*
X33923910Y4601056D01*
X33918910Y4575056D01*
X33918862Y4574833D01*
X33912862Y4549833D01*
X33912828Y4549700D01*
X33905828Y4523700D01*
X33905682Y4523244D01*
X33896682Y4499244D01*
X33896615Y4499077D01*
X33886615Y4475077D01*
X33886545Y4474917D01*
X33875545Y4450917D01*
X33875353Y4450540D01*
X33862353Y4427540D01*
X33862218Y4427316D01*
X33834218Y4383316D01*
X33833977Y4382970D01*
X33817977Y4361970D01*
X33817810Y4361762D01*
X33800810Y4341762D01*
X33800630Y4341561D01*
X33782630Y4322561D01*
X33782439Y4322370D01*
X33763439Y4304370D01*
X33763238Y4304190D01*
X33743238Y4287190D01*
X33743030Y4287023D01*
X33722030Y4271023D01*
X33721684Y4270782D01*
X33677684Y4242782D01*
X33677460Y4242647D01*
X33654460Y4229647D01*
X33654083Y4229455D01*
X33630083Y4218455D01*
X33629923Y4218385D01*
X33605923Y4208385D01*
X33605756Y4208318D01*
X33581756Y4199318D01*
X33581300Y4199172D01*
X33555300Y4192172D01*
X33555167Y4192138D01*
X33530167Y4186138D01*
X33529944Y4186090D01*
X33503944Y4181090D01*
X33503573Y4181033D01*
X33477573Y4178033D01*
X33477383Y4178015D01*
X33451383Y4176015D01*
X33451192Y4176004D01*
X33425192Y4175004D01*
X33425000Y4175000D01*
X32425000Y4175000D01*
X32424808Y4175004D01*
X32398808Y4176004D01*
X32398617Y4176015D01*
X32372617Y4178015D01*
X32372427Y4178033D01*
X32346427Y4181033D01*
X32346056Y4181090D01*
X32320056Y4186090D01*
X32319833Y4186138D01*
X32294833Y4192138D01*
X32294700Y4192172D01*
X32268700Y4199172D01*
X32268244Y4199318D01*
X32244244Y4208318D01*
X32244077Y4208385D01*
X32220077Y4218385D01*
X32219917Y4218455D01*
X32195917Y4229455D01*
X32195540Y4229647D01*
X32172540Y4242647D01*
X32172316Y4242782D01*
X32128316Y4270782D01*
X32127970Y4271023D01*
X32106970Y4287023D01*
X32106762Y4287190D01*
X32086762Y4304190D01*
X32086561Y4304370D01*
X32067561Y4322370D01*
X32067370Y4322561D01*
X32049370Y4341561D01*
X32049190Y4341762D01*
X32032190Y4361762D01*
X32032023Y4361970D01*
X32016023Y4382970D01*
X32015782Y4383316D01*
X31987782Y4427316D01*
X31987647Y4427540D01*
X31974647Y4450540D01*
X31974455Y4450917D01*
X31963455Y4474917D01*
X31963385Y4475077D01*
X31953385Y4499077D01*
X31953318Y4499244D01*
X31944318Y4523244D01*
X31944172Y4523700D01*
X31937172Y4549700D01*
X31937138Y4549833D01*
X31931138Y4574833D01*
X31931090Y4575056D01*
X31926090Y4601056D01*
X31926033Y4601427D01*
X31923033Y4627427D01*
X31923015Y4627617D01*
X31921015Y4653617D01*
X31921004Y4653808D01*
X31920004Y4679808D01*
X31920004Y4680192D01*
X31921004Y4706192D01*
G37*
%TD.AperFunction*%
%TA.AperFunction,ComponentPad*%
G36*
X31931004Y13346192D02*
G01*
X31931015Y13346383D01*
X31933015Y13372383D01*
X31933033Y13372573D01*
X31936033Y13398573D01*
X31936090Y13398944D01*
X31941090Y13424944D01*
X31941138Y13425167D01*
X31947138Y13450167D01*
X31947172Y13450300D01*
X31954172Y13476300D01*
X31954318Y13476756D01*
X31963318Y13500756D01*
X31963385Y13500923D01*
X31973385Y13524923D01*
X31973455Y13525083D01*
X31984455Y13549083D01*
X31984647Y13549460D01*
X31997647Y13572460D01*
X31997782Y13572684D01*
X32025782Y13616684D01*
X32026023Y13617030D01*
X32042023Y13638030D01*
X32042190Y13638238D01*
X32059190Y13658238D01*
X32059370Y13658439D01*
X32077370Y13677439D01*
X32077561Y13677630D01*
X32096561Y13695630D01*
X32096762Y13695810D01*
X32116762Y13712810D01*
X32116970Y13712977D01*
X32137970Y13728977D01*
X32138316Y13729218D01*
X32182316Y13757218D01*
X32182540Y13757353D01*
X32205540Y13770353D01*
X32205917Y13770545D01*
X32229917Y13781545D01*
X32230077Y13781615D01*
X32254077Y13791615D01*
X32254244Y13791682D01*
X32278244Y13800682D01*
X32278700Y13800828D01*
X32304700Y13807828D01*
X32304833Y13807862D01*
X32329833Y13813862D01*
X32330056Y13813910D01*
X32356056Y13818910D01*
X32356427Y13818967D01*
X32382427Y13821967D01*
X32382617Y13821985D01*
X32408617Y13823985D01*
X32408808Y13823996D01*
X32434808Y13824996D01*
X32435000Y13825000D01*
X33425000Y13825000D01*
X33425192Y13824996D01*
X33451192Y13823996D01*
X33451383Y13823985D01*
X33477383Y13821985D01*
X33477573Y13821967D01*
X33503573Y13818967D01*
X33503944Y13818910D01*
X33529944Y13813910D01*
X33530167Y13813862D01*
X33555167Y13807862D01*
X33555300Y13807828D01*
X33581300Y13800828D01*
X33581756Y13800682D01*
X33605756Y13791682D01*
X33605923Y13791615D01*
X33629923Y13781615D01*
X33630083Y13781545D01*
X33654083Y13770545D01*
X33654460Y13770353D01*
X33677460Y13757353D01*
X33677684Y13757218D01*
X33721684Y13729218D01*
X33722030Y13728977D01*
X33743030Y13712977D01*
X33743238Y13712810D01*
X33763238Y13695810D01*
X33763439Y13695630D01*
X33782439Y13677630D01*
X33782630Y13677439D01*
X33800630Y13658439D01*
X33800810Y13658238D01*
X33817810Y13638238D01*
X33817977Y13638030D01*
X33833977Y13617030D01*
X33834218Y13616684D01*
X33862218Y13572684D01*
X33862353Y13572460D01*
X33875353Y13549460D01*
X33875545Y13549083D01*
X33886545Y13525083D01*
X33886615Y13524923D01*
X33896615Y13500923D01*
X33896682Y13500756D01*
X33905682Y13476756D01*
X33905828Y13476300D01*
X33912828Y13450300D01*
X33912862Y13450167D01*
X33918862Y13425167D01*
X33918910Y13424944D01*
X33923910Y13398944D01*
X33923967Y13398573D01*
X33926967Y13372573D01*
X33926985Y13372383D01*
X33928985Y13346383D01*
X33928996Y13346192D01*
X33929996Y13320192D01*
X33930000Y13320000D01*
X33930000Y12780000D01*
X33929996Y12779808D01*
X33928996Y12753808D01*
X33928985Y12753617D01*
X33926985Y12727617D01*
X33926967Y12727427D01*
X33923967Y12701427D01*
X33923910Y12701056D01*
X33918910Y12675056D01*
X33918862Y12674833D01*
X33912862Y12649833D01*
X33912828Y12649700D01*
X33905828Y12623700D01*
X33905682Y12623244D01*
X33896682Y12599244D01*
X33896615Y12599077D01*
X33886615Y12575077D01*
X33886545Y12574917D01*
X33875545Y12550917D01*
X33875353Y12550540D01*
X33862353Y12527540D01*
X33862218Y12527316D01*
X33834218Y12483316D01*
X33833977Y12482970D01*
X33817977Y12461970D01*
X33817810Y12461762D01*
X33800810Y12441762D01*
X33800630Y12441561D01*
X33782630Y12422561D01*
X33782439Y12422370D01*
X33763439Y12404370D01*
X33763238Y12404190D01*
X33743238Y12387190D01*
X33743030Y12387023D01*
X33722030Y12371023D01*
X33721684Y12370782D01*
X33677684Y12342782D01*
X33677460Y12342647D01*
X33654460Y12329647D01*
X33654083Y12329455D01*
X33630083Y12318455D01*
X33629923Y12318385D01*
X33605923Y12308385D01*
X33605756Y12308318D01*
X33581756Y12299318D01*
X33581300Y12299172D01*
X33555300Y12292172D01*
X33555167Y12292138D01*
X33530167Y12286138D01*
X33529944Y12286090D01*
X33503944Y12281090D01*
X33503573Y12281033D01*
X33477573Y12278033D01*
X33477383Y12278015D01*
X33451383Y12276015D01*
X33451192Y12276004D01*
X33425192Y12275004D01*
X33424815Y12275003D01*
X33397815Y12276003D01*
X33397567Y12276019D01*
X33374567Y12278019D01*
X33374178Y12278068D01*
X33350178Y12282068D01*
X33349938Y12282114D01*
X33326938Y12287114D01*
X33326738Y12287162D01*
X33303738Y12293162D01*
X33303544Y12293217D01*
X33280544Y12300217D01*
X33280291Y12300301D01*
X33258291Y12308301D01*
X33257931Y12308448D01*
X33213931Y12328448D01*
X33213428Y12328713D01*
X33193428Y12340713D01*
X33193275Y12340808D01*
X33173275Y12353808D01*
X33173133Y12353904D01*
X33153133Y12367904D01*
X33152930Y12368053D01*
X33134930Y12382053D01*
X33134678Y12382263D01*
X33116678Y12398263D01*
X33116464Y12398464D01*
X33099464Y12415464D01*
X33099359Y12415573D01*
X33083359Y12432573D01*
X33083175Y12432779D01*
X33067175Y12451779D01*
X33066975Y12452034D01*
X33052975Y12471034D01*
X33052808Y12471275D01*
X33039808Y12491275D01*
X33039713Y12491428D01*
X33027713Y12511428D01*
X33027528Y12511764D01*
X33016528Y12533764D01*
X33016486Y12533850D01*
X33006486Y12554850D01*
X33006372Y12555107D01*
X32997372Y12577107D01*
X32997217Y12577544D01*
X32983217Y12623544D01*
X32983114Y12623938D01*
X32978114Y12646938D01*
X32978068Y12647178D01*
X32974068Y12671178D01*
X32974019Y12671567D01*
X32972017Y12694585D01*
X32970017Y12718585D01*
X32970000Y12719000D01*
X32970000Y12784820D01*
X32969528Y12785764D01*
X32969000Y12788000D01*
X32969000Y12788820D01*
X32967528Y12791764D01*
X32967000Y12794000D01*
X32967000Y12794820D01*
X32964892Y12799036D01*
X32962464Y12801464D01*
X32961528Y12802764D01*
X32961273Y12803274D01*
X32960764Y12803528D01*
X32958528Y12805764D01*
X32958273Y12806274D01*
X32957764Y12806528D01*
X32956464Y12807464D01*
X32954036Y12809892D01*
X32949820Y12812000D01*
X32949000Y12812000D01*
X32946764Y12812528D01*
X32943820Y12814000D01*
X32943000Y12814000D01*
X32940764Y12814528D01*
X32939820Y12815000D01*
X32435000Y12815000D01*
X32434808Y12815004D01*
X32408808Y12816004D01*
X32408617Y12816015D01*
X32382617Y12818015D01*
X32382427Y12818033D01*
X32356427Y12821033D01*
X32356056Y12821090D01*
X32330056Y12826090D01*
X32329833Y12826138D01*
X32304833Y12832138D01*
X32304700Y12832172D01*
X32278700Y12839172D01*
X32278244Y12839318D01*
X32254244Y12848318D01*
X32254077Y12848385D01*
X32230077Y12858385D01*
X32229917Y12858455D01*
X32205917Y12869455D01*
X32205540Y12869647D01*
X32182540Y12882647D01*
X32182316Y12882782D01*
X32138316Y12910782D01*
X32137970Y12911023D01*
X32116970Y12927023D01*
X32116762Y12927190D01*
X32096762Y12944190D01*
X32096561Y12944370D01*
X32077561Y12962370D01*
X32077370Y12962561D01*
X32059370Y12981561D01*
X32059190Y12981762D01*
X32042190Y13001762D01*
X32042023Y13001970D01*
X32026023Y13022970D01*
X32025782Y13023316D01*
X31997782Y13067316D01*
X31997647Y13067540D01*
X31984647Y13090540D01*
X31984455Y13090917D01*
X31973455Y13114917D01*
X31973385Y13115077D01*
X31963385Y13139077D01*
X31963318Y13139244D01*
X31954318Y13163244D01*
X31954172Y13163700D01*
X31947172Y13189700D01*
X31947138Y13189833D01*
X31941138Y13214833D01*
X31941090Y13215056D01*
X31936090Y13241056D01*
X31936033Y13241427D01*
X31933033Y13267427D01*
X31933015Y13267617D01*
X31931015Y13293617D01*
X31931004Y13293808D01*
X31930004Y13319808D01*
X31930004Y13320192D01*
X31931004Y13346192D01*
G37*
%TD.AperFunction*%
%TA.AperFunction,ComponentPad*%
G36*
X36320015Y4943383D02*
G01*
X36321015Y4956383D01*
X36321058Y4956760D01*
X36325058Y4982760D01*
X36325221Y4983470D01*
X36329180Y4996335D01*
X36332149Y5008213D01*
X36332333Y5008795D01*
X36337333Y5021795D01*
X36337385Y5021923D01*
X36342385Y5033923D01*
X36342448Y5034069D01*
X36347448Y5045069D01*
X36347528Y5045236D01*
X36353528Y5057236D01*
X36353782Y5057684D01*
X36360782Y5068684D01*
X36360956Y5068941D01*
X36368956Y5079941D01*
X36369096Y5080123D01*
X36385096Y5100123D01*
X36385284Y5100345D01*
X36394284Y5110345D01*
X36394655Y5110716D01*
X36404655Y5119716D01*
X36404877Y5119904D01*
X36424877Y5135904D01*
X36425059Y5136044D01*
X36436059Y5144044D01*
X36436316Y5144218D01*
X36447316Y5151218D01*
X36447764Y5151472D01*
X36459764Y5157472D01*
X36459931Y5157552D01*
X36470931Y5162552D01*
X36471077Y5162615D01*
X36483077Y5167615D01*
X36483205Y5167667D01*
X36496205Y5172667D01*
X36496787Y5172851D01*
X36508665Y5175820D01*
X36521530Y5179779D01*
X36522240Y5179942D01*
X36548240Y5183942D01*
X36548617Y5183985D01*
X36561617Y5184985D01*
X36562000Y5185000D01*
X38388000Y5185000D01*
X38388383Y5184985D01*
X38401383Y5183985D01*
X38401760Y5183942D01*
X38427760Y5179942D01*
X38428470Y5179779D01*
X38441335Y5175820D01*
X38453213Y5172851D01*
X38453795Y5172667D01*
X38466795Y5167667D01*
X38466923Y5167615D01*
X38478923Y5162615D01*
X38479069Y5162552D01*
X38490069Y5157552D01*
X38490236Y5157472D01*
X38502236Y5151472D01*
X38502684Y5151218D01*
X38513684Y5144218D01*
X38513941Y5144044D01*
X38524941Y5136044D01*
X38525123Y5135904D01*
X38545123Y5119904D01*
X38545345Y5119716D01*
X38555345Y5110716D01*
X38555716Y5110345D01*
X38564716Y5100345D01*
X38564904Y5100123D01*
X38580904Y5080123D01*
X38581044Y5079941D01*
X38589044Y5068941D01*
X38589218Y5068684D01*
X38596218Y5057684D01*
X38596472Y5057236D01*
X38602472Y5045236D01*
X38602552Y5045069D01*
X38607552Y5034069D01*
X38607615Y5033923D01*
X38612615Y5021923D01*
X38612667Y5021795D01*
X38617667Y5008795D01*
X38617851Y5008213D01*
X38620820Y4996335D01*
X38624779Y4983470D01*
X38624942Y4982760D01*
X38628942Y4956760D01*
X38628985Y4956383D01*
X38629985Y4943383D01*
X38630000Y4943000D01*
X38630000Y4417000D01*
X38629985Y4416617D01*
X38628985Y4403617D01*
X38628942Y4403240D01*
X38624942Y4377240D01*
X38624779Y4376530D01*
X38620820Y4363665D01*
X38617851Y4351787D01*
X38617667Y4351205D01*
X38612667Y4338205D01*
X38612615Y4338077D01*
X38607615Y4326077D01*
X38607552Y4325931D01*
X38602552Y4314931D01*
X38602472Y4314764D01*
X38596472Y4302764D01*
X38596218Y4302316D01*
X38589218Y4291316D01*
X38589044Y4291059D01*
X38581044Y4280059D01*
X38580904Y4279877D01*
X38564904Y4259877D01*
X38564716Y4259655D01*
X38555716Y4249655D01*
X38555345Y4249284D01*
X38545345Y4240284D01*
X38545123Y4240096D01*
X38525123Y4224096D01*
X38524941Y4223956D01*
X38513941Y4215956D01*
X38513684Y4215782D01*
X38502684Y4208782D01*
X38502236Y4208528D01*
X38490236Y4202528D01*
X38490069Y4202448D01*
X38479069Y4197448D01*
X38478923Y4197385D01*
X38466923Y4192385D01*
X38466795Y4192333D01*
X38453795Y4187333D01*
X38453213Y4187149D01*
X38441335Y4184180D01*
X38428470Y4180221D01*
X38427760Y4180058D01*
X38401760Y4176058D01*
X38401383Y4176015D01*
X38388383Y4175015D01*
X38388000Y4175000D01*
X36562000Y4175000D01*
X36561617Y4175015D01*
X36548617Y4176015D01*
X36548240Y4176058D01*
X36522240Y4180058D01*
X36521530Y4180221D01*
X36508665Y4184180D01*
X36496787Y4187149D01*
X36496205Y4187333D01*
X36483205Y4192333D01*
X36483077Y4192385D01*
X36471077Y4197385D01*
X36470931Y4197448D01*
X36459931Y4202448D01*
X36459764Y4202528D01*
X36447764Y4208528D01*
X36447316Y4208782D01*
X36436316Y4215782D01*
X36436059Y4215956D01*
X36425059Y4223956D01*
X36424877Y4224096D01*
X36404877Y4240096D01*
X36404655Y4240284D01*
X36394655Y4249284D01*
X36394284Y4249655D01*
X36385284Y4259655D01*
X36385096Y4259877D01*
X36369096Y4279877D01*
X36368956Y4280059D01*
X36360956Y4291059D01*
X36360782Y4291316D01*
X36353782Y4302316D01*
X36353528Y4302764D01*
X36347528Y4314764D01*
X36347448Y4314931D01*
X36342448Y4325931D01*
X36342385Y4326077D01*
X36337385Y4338077D01*
X36337333Y4338205D01*
X36332333Y4351205D01*
X36332149Y4351787D01*
X36329180Y4363665D01*
X36325221Y4376530D01*
X36325058Y4377240D01*
X36321058Y4403240D01*
X36321015Y4403617D01*
X36320015Y4416617D01*
X36320000Y4417000D01*
X36320000Y4943000D01*
X36320015Y4943383D01*
G37*
%TD.AperFunction*%
%TA.AperFunction,ComponentPad*%
G36*
X36320015Y13583383D02*
G01*
X36321015Y13596383D01*
X36321058Y13596760D01*
X36325058Y13622760D01*
X36325221Y13623470D01*
X36329180Y13636335D01*
X36332149Y13648213D01*
X36332333Y13648795D01*
X36337333Y13661795D01*
X36337385Y13661923D01*
X36342385Y13673923D01*
X36342448Y13674069D01*
X36347448Y13685069D01*
X36347528Y13685236D01*
X36353528Y13697236D01*
X36353782Y13697684D01*
X36360782Y13708684D01*
X36360956Y13708941D01*
X36368956Y13719941D01*
X36369096Y13720123D01*
X36385096Y13740123D01*
X36385284Y13740345D01*
X36394284Y13750345D01*
X36394655Y13750716D01*
X36404655Y13759716D01*
X36404877Y13759904D01*
X36424877Y13775904D01*
X36425059Y13776044D01*
X36436059Y13784044D01*
X36436316Y13784218D01*
X36447316Y13791218D01*
X36447764Y13791472D01*
X36459764Y13797472D01*
X36459931Y13797552D01*
X36470931Y13802552D01*
X36471077Y13802615D01*
X36483077Y13807615D01*
X36483205Y13807667D01*
X36496205Y13812667D01*
X36496787Y13812851D01*
X36508665Y13815820D01*
X36521530Y13819779D01*
X36522240Y13819942D01*
X36548240Y13823942D01*
X36548617Y13823985D01*
X36561617Y13824985D01*
X36562000Y13825000D01*
X38388000Y13825000D01*
X38388383Y13824985D01*
X38401383Y13823985D01*
X38401760Y13823942D01*
X38427760Y13819942D01*
X38428470Y13819779D01*
X38441335Y13815820D01*
X38453213Y13812851D01*
X38453795Y13812667D01*
X38466795Y13807667D01*
X38466923Y13807615D01*
X38478923Y13802615D01*
X38479069Y13802552D01*
X38490069Y13797552D01*
X38490236Y13797472D01*
X38502236Y13791472D01*
X38502684Y13791218D01*
X38513684Y13784218D01*
X38513941Y13784044D01*
X38524941Y13776044D01*
X38525123Y13775904D01*
X38545123Y13759904D01*
X38545345Y13759716D01*
X38555345Y13750716D01*
X38555716Y13750345D01*
X38564716Y13740345D01*
X38564904Y13740123D01*
X38580904Y13720123D01*
X38581044Y13719941D01*
X38589044Y13708941D01*
X38589218Y13708684D01*
X38596218Y13697684D01*
X38596472Y13697236D01*
X38602472Y13685236D01*
X38602552Y13685069D01*
X38607552Y13674069D01*
X38607615Y13673923D01*
X38612615Y13661923D01*
X38612667Y13661795D01*
X38617667Y13648795D01*
X38617851Y13648213D01*
X38620820Y13636335D01*
X38624779Y13623470D01*
X38624942Y13622760D01*
X38628942Y13596760D01*
X38628985Y13596383D01*
X38629985Y13583383D01*
X38630000Y13583000D01*
X38630000Y13057000D01*
X38629985Y13056617D01*
X38628985Y13043617D01*
X38628942Y13043240D01*
X38624942Y13017240D01*
X38624779Y13016530D01*
X38620820Y13003665D01*
X38617851Y12991787D01*
X38617667Y12991205D01*
X38612667Y12978205D01*
X38612615Y12978077D01*
X38607615Y12966077D01*
X38607552Y12965931D01*
X38602552Y12954931D01*
X38602472Y12954764D01*
X38596472Y12942764D01*
X38596218Y12942316D01*
X38589218Y12931316D01*
X38589044Y12931059D01*
X38581044Y12920059D01*
X38580904Y12919877D01*
X38564904Y12899877D01*
X38564716Y12899655D01*
X38555716Y12889655D01*
X38555345Y12889284D01*
X38545345Y12880284D01*
X38545123Y12880096D01*
X38525123Y12864096D01*
X38524941Y12863956D01*
X38513941Y12855956D01*
X38513684Y12855782D01*
X38502684Y12848782D01*
X38502236Y12848528D01*
X38490236Y12842528D01*
X38490069Y12842448D01*
X38479069Y12837448D01*
X38478923Y12837385D01*
X38466923Y12832385D01*
X38466795Y12832333D01*
X38453795Y12827333D01*
X38453213Y12827149D01*
X38441335Y12824180D01*
X38428470Y12820221D01*
X38427760Y12820058D01*
X38401760Y12816058D01*
X38401383Y12816015D01*
X38388383Y12815015D01*
X38388000Y12815000D01*
X36562000Y12815000D01*
X36561617Y12815015D01*
X36548617Y12816015D01*
X36548240Y12816058D01*
X36522240Y12820058D01*
X36521530Y12820221D01*
X36508665Y12824180D01*
X36496787Y12827149D01*
X36496205Y12827333D01*
X36483205Y12832333D01*
X36483077Y12832385D01*
X36471077Y12837385D01*
X36470931Y12837448D01*
X36459931Y12842448D01*
X36459764Y12842528D01*
X36447764Y12848528D01*
X36447316Y12848782D01*
X36436316Y12855782D01*
X36436059Y12855956D01*
X36425059Y12863956D01*
X36424877Y12864096D01*
X36404877Y12880096D01*
X36404655Y12880284D01*
X36394655Y12889284D01*
X36394284Y12889655D01*
X36385284Y12899655D01*
X36385096Y12899877D01*
X36369096Y12919877D01*
X36368956Y12920059D01*
X36360956Y12931059D01*
X36360782Y12931316D01*
X36353782Y12942316D01*
X36353528Y12942764D01*
X36347528Y12954764D01*
X36347448Y12954931D01*
X36342448Y12965931D01*
X36342385Y12966077D01*
X36337385Y12978077D01*
X36337333Y12978205D01*
X36332333Y12991205D01*
X36332149Y12991787D01*
X36329180Y13003665D01*
X36325221Y13016530D01*
X36325058Y13017240D01*
X36321058Y13043240D01*
X36321015Y13043617D01*
X36320015Y13056617D01*
X36320000Y13057000D01*
X36320000Y13583000D01*
X36320015Y13583383D01*
G37*
%TD.AperFunction*%
D13*
X17974872Y15960080D03*
X17574872Y15960080D03*
X32933614Y10242001D03*
X17574872Y16360080D03*
X17574872Y16760080D03*
X31568865Y10379061D03*
X31567638Y7880268D03*
X17974872Y16360080D03*
X32933614Y7742001D03*
X34453087Y10121782D03*
X17974872Y16760080D03*
X34233614Y1892001D03*
X20733614Y5442001D03*
X13333614Y10392001D03*
X35533614Y-307999D03*
X14923614Y3612001D03*
D14*
X37500000Y500000D03*
D13*
X13533614Y17492001D03*
X5150000Y11392001D03*
X10533614Y8992001D03*
X3550000Y9100000D03*
X3600000Y13150000D03*
X3600000Y5150000D03*
X20733614Y7442001D03*
X29402011Y-351520D03*
X21020762Y18203468D03*
X21733614Y5442001D03*
X6550000Y6000000D03*
X10533614Y7492001D03*
X26553614Y912001D03*
X32166541Y12362369D03*
X13033614Y12792001D03*
X25033614Y16792001D03*
X13083614Y6322001D03*
X28633614Y1862001D03*
X31545115Y12705493D03*
X31700000Y6000000D03*
X10533614Y5992001D03*
X30863643Y12047490D03*
X17783614Y10452001D03*
X2633614Y2192001D03*
X9933614Y4292001D03*
X6550000Y9600000D03*
X32163878Y5851436D03*
X32638799Y5596478D03*
X14733614Y1992001D03*
D14*
X37500000Y17500000D03*
D13*
X34405946Y13082119D03*
X10603499Y10473800D03*
X36145065Y14050067D03*
X31838932Y5451502D03*
X19733614Y6442001D03*
X19733614Y5442001D03*
X21733614Y7442001D03*
X32633614Y16712001D03*
X21133614Y15992001D03*
X32873760Y6046404D03*
X6550000Y7200000D03*
X38050000Y11700000D03*
X35850000Y3000000D03*
X23049963Y13872856D03*
X10504039Y12020917D03*
X19733614Y7442001D03*
X9400000Y6000000D03*
X28483614Y8252001D03*
X13203614Y15322001D03*
X31610777Y4983076D03*
X30473614Y5272001D03*
X13333614Y1992001D03*
X34233614Y492001D03*
X38133614Y2792001D03*
X34908423Y6016409D03*
X34841757Y15124890D03*
X14733614Y10392001D03*
X28463614Y6432001D03*
X14923614Y5442001D03*
X6550000Y11200000D03*
X25233614Y-407999D03*
X21793614Y1682001D03*
X13733614Y-307999D03*
X27433614Y18292001D03*
X10263614Y14212001D03*
X1600000Y6900000D03*
X16133614Y17092001D03*
X28833614Y13502001D03*
X13043614Y8132001D03*
X28133614Y10392001D03*
X20006162Y2885475D03*
X29873614Y11542001D03*
X26543614Y7332001D03*
X26543614Y3702001D03*
X33009002Y11984714D03*
X7633614Y4992001D03*
X34469751Y11547903D03*
X25033614Y18292001D03*
X26553614Y9102001D03*
X23923614Y10752001D03*
X4203614Y612001D03*
X14913614Y7212001D03*
X34273876Y13604893D03*
X32650714Y12309110D03*
X16633614Y16892001D03*
X18433614Y-407999D03*
X35488327Y6711294D03*
X37500000Y9000000D03*
X36154029Y11432432D03*
X16633614Y18292001D03*
X16133614Y18092001D03*
X3358614Y17292001D03*
X21223614Y11912001D03*
X20733614Y6442001D03*
D14*
X1500000Y500000D03*
D13*
X26543614Y5482001D03*
X19333614Y13592001D03*
X30513614Y9242001D03*
X6450000Y2000000D03*
X37850000Y6200000D03*
X26733614Y10392001D03*
X38133614Y15492001D03*
X17533614Y1592001D03*
X9933614Y16442001D03*
X5000000Y7050000D03*
X35701691Y9329107D03*
X30933614Y10142001D03*
X21733614Y6442001D03*
X9400000Y9000000D03*
X13093614Y4532001D03*
X28473614Y4622001D03*
X7483614Y15392001D03*
X1500000Y10950000D03*
X35833614Y16692001D03*
X3450000Y15250000D03*
X15833614Y13592001D03*
X36659566Y10284935D03*
X30023614Y2952001D03*
X6535717Y-374813D03*
X6550000Y8400000D03*
X16133614Y17592001D03*
X14913614Y9042001D03*
D14*
X1500000Y17500000D03*
D13*
X34449191Y9628541D03*
X21533614Y1042001D03*
X22033614Y1042001D03*
X31568106Y8373844D03*
X26673614Y11292001D03*
X12333614Y2492001D03*
X26633614Y1712001D03*
X31545365Y9483372D03*
X32938896Y8296087D03*
X26633614Y2150904D03*
X34466897Y11092001D03*
X36345175Y9945175D03*
X36034825Y9634825D03*
X34462781Y10653118D03*
%TA.AperFunction,Conductor*%
G36*
X37501918Y18872349D02*
G01*
X37521328Y18870822D01*
X37710867Y18855905D01*
X37718450Y18854704D01*
X37920380Y18806225D01*
X37927686Y18803851D01*
X38119546Y18724379D01*
X38126386Y18720894D01*
X38303448Y18612390D01*
X38309659Y18607879D01*
X38460594Y18478968D01*
X38467571Y18473009D01*
X38473008Y18467572D01*
X38594300Y18325557D01*
X38607874Y18309665D01*
X38612391Y18303447D01*
X38720587Y18126886D01*
X38720889Y18126394D01*
X38724380Y18119543D01*
X38803849Y17927688D01*
X38806225Y17920376D01*
X38854701Y17718458D01*
X38855904Y17710864D01*
X38872349Y17501919D01*
X38872500Y17498074D01*
X38872500Y501927D01*
X38872349Y498082D01*
X38855904Y289137D01*
X38854701Y281543D01*
X38806225Y79625D01*
X38803849Y72313D01*
X38724380Y-119542D01*
X38720889Y-126393D01*
X38612393Y-303443D01*
X38607874Y-309664D01*
X38473008Y-467571D01*
X38467571Y-473008D01*
X38309664Y-607874D01*
X38303443Y-612393D01*
X38126393Y-720889D01*
X38119542Y-724380D01*
X37927687Y-803849D01*
X37920375Y-806225D01*
X37718457Y-854701D01*
X37710863Y-855904D01*
X37501919Y-872349D01*
X37498074Y-872500D01*
X1501926Y-872500D01*
X1498081Y-872349D01*
X1289136Y-855904D01*
X1281542Y-854701D01*
X1079624Y-806225D01*
X1072312Y-803849D01*
X880457Y-724380D01*
X873609Y-720890D01*
X696553Y-612391D01*
X690338Y-607876D01*
X532428Y-473008D01*
X526991Y-467571D01*
X498965Y-434757D01*
X392121Y-309659D01*
X387610Y-303448D01*
X279106Y-126386D01*
X275619Y-119542D01*
X274965Y-117964D01*
X196149Y72314D01*
X193774Y79625D01*
X145296Y281550D01*
X144095Y289133D01*
X130968Y455940D01*
X127651Y498083D01*
X127500Y501927D01*
X127500Y596449D01*
X274500Y596449D01*
X274500Y403552D01*
X304675Y213031D01*
X304676Y213028D01*
X364285Y29571D01*
X451859Y-142302D01*
X564049Y-296718D01*
X565242Y-298360D01*
X565246Y-298365D01*
X701635Y-434754D01*
X701639Y-434757D01*
X701641Y-434759D01*
X857698Y-548141D01*
X1029571Y-635715D01*
X1213028Y-695324D01*
X1403551Y-725500D01*
X1403552Y-725500D01*
X1596448Y-725500D01*
X1596449Y-725500D01*
X1786972Y-695324D01*
X1970429Y-635715D01*
X2142302Y-548141D01*
X2298359Y-434759D01*
X2298362Y-434755D01*
X2298365Y-434754D01*
X2413107Y-320011D01*
X6260217Y-320011D01*
X6260217Y-429614D01*
X6273962Y-462796D01*
X6302160Y-530871D01*
X6302161Y-530872D01*
X6302162Y-530874D01*
X6379656Y-608368D01*
X6379657Y-608368D01*
X6379659Y-608370D01*
X6480917Y-650313D01*
X6480919Y-650313D01*
X6590515Y-650313D01*
X6590517Y-650313D01*
X6691775Y-608370D01*
X6691777Y-608368D01*
X6691778Y-608368D01*
X6769272Y-530874D01*
X6769272Y-530873D01*
X6769274Y-530871D01*
X6811217Y-429613D01*
X6811217Y-320013D01*
X6783540Y-253197D01*
X13458114Y-253197D01*
X13458114Y-253199D01*
X13458114Y-362799D01*
X13500057Y-464057D01*
X13500058Y-464058D01*
X13500059Y-464060D01*
X13577553Y-541554D01*
X13577554Y-541554D01*
X13577556Y-541556D01*
X13678814Y-583499D01*
X13678816Y-583499D01*
X13788412Y-583499D01*
X13788414Y-583499D01*
X13889672Y-541556D01*
X13889674Y-541554D01*
X13889675Y-541554D01*
X13967169Y-464060D01*
X13967169Y-464059D01*
X13967171Y-464057D01*
X14009114Y-362799D01*
X14009114Y-353197D01*
X18158114Y-353197D01*
X18158114Y-462800D01*
X18164334Y-477816D01*
X18200057Y-564057D01*
X18200058Y-564058D01*
X18200059Y-564060D01*
X18277553Y-641554D01*
X18277554Y-641554D01*
X18277556Y-641556D01*
X18378814Y-683499D01*
X18378816Y-683499D01*
X18488412Y-683499D01*
X18488414Y-683499D01*
X18589672Y-641556D01*
X18589674Y-641554D01*
X18589675Y-641554D01*
X18667169Y-564060D01*
X18667169Y-564059D01*
X18667171Y-564057D01*
X18709114Y-462799D01*
X18709114Y-353199D01*
X18709113Y-353197D01*
X24958114Y-353197D01*
X24958114Y-462800D01*
X24964334Y-477816D01*
X25000057Y-564057D01*
X25000058Y-564058D01*
X25000059Y-564060D01*
X25077553Y-641554D01*
X25077554Y-641554D01*
X25077556Y-641556D01*
X25178814Y-683499D01*
X25178816Y-683499D01*
X25288412Y-683499D01*
X25288414Y-683499D01*
X25389672Y-641556D01*
X25389674Y-641554D01*
X25389675Y-641554D01*
X25467169Y-564060D01*
X25467169Y-564059D01*
X25467171Y-564057D01*
X25509114Y-462799D01*
X25509114Y-353199D01*
X25495367Y-320011D01*
X25491488Y-310645D01*
X25485719Y-296718D01*
X29126511Y-296718D01*
X29126511Y-296720D01*
X29126511Y-406320D01*
X29168454Y-507578D01*
X29168455Y-507579D01*
X29168456Y-507581D01*
X29245950Y-585075D01*
X29245951Y-585075D01*
X29245953Y-585077D01*
X29347211Y-627020D01*
X29347213Y-627020D01*
X29456809Y-627020D01*
X29456811Y-627020D01*
X29558069Y-585077D01*
X29558071Y-585075D01*
X29558072Y-585075D01*
X29635566Y-507581D01*
X29635566Y-507580D01*
X29635568Y-507578D01*
X29677511Y-406320D01*
X29677511Y-296720D01*
X29659483Y-253197D01*
X35258114Y-253197D01*
X35258114Y-253199D01*
X35258114Y-362799D01*
X35300057Y-464057D01*
X35300058Y-464058D01*
X35300059Y-464060D01*
X35377553Y-541554D01*
X35377554Y-541554D01*
X35377556Y-541556D01*
X35478814Y-583499D01*
X35478816Y-583499D01*
X35588412Y-583499D01*
X35588414Y-583499D01*
X35689672Y-541556D01*
X35689674Y-541554D01*
X35689675Y-541554D01*
X35767169Y-464060D01*
X35767169Y-464059D01*
X35767171Y-464057D01*
X35809114Y-362799D01*
X35809114Y-253199D01*
X35767171Y-151941D01*
X35767169Y-151939D01*
X35767169Y-151938D01*
X35689675Y-74444D01*
X35689673Y-74443D01*
X35689672Y-74442D01*
X35630358Y-49873D01*
X35588415Y-32499D01*
X35588414Y-32499D01*
X35478814Y-32499D01*
X35478812Y-32499D01*
X35394926Y-67247D01*
X35387783Y-70206D01*
X35377554Y-74443D01*
X35300058Y-151939D01*
X35258114Y-253197D01*
X29659483Y-253197D01*
X29635568Y-195462D01*
X29635566Y-195460D01*
X29635566Y-195459D01*
X29558072Y-117965D01*
X29558070Y-117964D01*
X29558069Y-117963D01*
X29498755Y-93394D01*
X29456812Y-76020D01*
X29456811Y-76020D01*
X29347211Y-76020D01*
X29347209Y-76020D01*
X29245951Y-117964D01*
X29168455Y-195460D01*
X29126511Y-296718D01*
X25485719Y-296718D01*
X25467170Y-251939D01*
X25389675Y-174444D01*
X25389673Y-174443D01*
X25389672Y-174442D01*
X25330358Y-149873D01*
X25288415Y-132499D01*
X25288414Y-132499D01*
X25178814Y-132499D01*
X25178812Y-132499D01*
X25077554Y-174443D01*
X25000058Y-251939D01*
X25000057Y-251940D01*
X25000057Y-251941D01*
X24992862Y-269311D01*
X24958114Y-353197D01*
X18709113Y-353197D01*
X18667171Y-251941D01*
X18667169Y-251939D01*
X18667169Y-251938D01*
X18589675Y-174444D01*
X18589673Y-174443D01*
X18589672Y-174442D01*
X18530358Y-149873D01*
X18488415Y-132499D01*
X18488414Y-132499D01*
X18378814Y-132499D01*
X18378812Y-132499D01*
X18277554Y-174443D01*
X18200058Y-251939D01*
X18200057Y-251940D01*
X18200057Y-251941D01*
X18192862Y-269311D01*
X18158114Y-353197D01*
X14009114Y-353197D01*
X14009114Y-253199D01*
X13967171Y-151941D01*
X13967169Y-151939D01*
X13967169Y-151938D01*
X13889675Y-74444D01*
X13889673Y-74443D01*
X13889672Y-74442D01*
X13830358Y-49873D01*
X13788415Y-32499D01*
X13788414Y-32499D01*
X13678814Y-32499D01*
X13678812Y-32499D01*
X13594926Y-67247D01*
X13587783Y-70206D01*
X13577554Y-74443D01*
X13500058Y-151939D01*
X13458114Y-253197D01*
X6783540Y-253197D01*
X6783019Y-251939D01*
X6769273Y-218753D01*
X6691778Y-141258D01*
X6691776Y-141257D01*
X6691775Y-141256D01*
X6632461Y-116687D01*
X6590518Y-99313D01*
X6590517Y-99313D01*
X6480917Y-99313D01*
X6480915Y-99313D01*
X6379657Y-141257D01*
X6302161Y-218753D01*
X6260217Y-320011D01*
X2413107Y-320011D01*
X2434753Y-298365D01*
X2434759Y-298359D01*
X2548141Y-142302D01*
X2635715Y29571D01*
X2695324Y213028D01*
X2725500Y403551D01*
X2725500Y596449D01*
X2714357Y666803D01*
X3928114Y666803D01*
X3928114Y557200D01*
X3945488Y515257D01*
X3970057Y455943D01*
X3970058Y455942D01*
X3970059Y455940D01*
X4047553Y378446D01*
X4047554Y378446D01*
X4047556Y378444D01*
X4148814Y336501D01*
X4148816Y336501D01*
X4258412Y336501D01*
X4258414Y336501D01*
X4359672Y378444D01*
X4359674Y378446D01*
X4359675Y378446D01*
X4437169Y455940D01*
X4437169Y455941D01*
X4437171Y455943D01*
X4474807Y546803D01*
X33958114Y546803D01*
X33958114Y546801D01*
X33958114Y437201D01*
X34000057Y335943D01*
X34000058Y335942D01*
X34000059Y335940D01*
X34077553Y258446D01*
X34077554Y258446D01*
X34077556Y258444D01*
X34178814Y216501D01*
X34178816Y216501D01*
X34288412Y216501D01*
X34288414Y216501D01*
X34389672Y258444D01*
X34389674Y258446D01*
X34389675Y258446D01*
X34467169Y335940D01*
X34467169Y335941D01*
X34467171Y335943D01*
X34509114Y437201D01*
X34509114Y546801D01*
X34488549Y596449D01*
X36274500Y596449D01*
X36274500Y403552D01*
X36304675Y213031D01*
X36304676Y213028D01*
X36364285Y29571D01*
X36451859Y-142302D01*
X36564049Y-296718D01*
X36565242Y-298360D01*
X36565246Y-298365D01*
X36701635Y-434754D01*
X36701639Y-434757D01*
X36701641Y-434759D01*
X36857698Y-548141D01*
X37029571Y-635715D01*
X37213028Y-695324D01*
X37403551Y-725500D01*
X37403552Y-725500D01*
X37596448Y-725500D01*
X37596449Y-725500D01*
X37786972Y-695324D01*
X37970429Y-635715D01*
X38142302Y-548141D01*
X38298359Y-434759D01*
X38298362Y-434755D01*
X38298365Y-434754D01*
X38434754Y-298365D01*
X38434755Y-298362D01*
X38434759Y-298359D01*
X38548141Y-142302D01*
X38635715Y29571D01*
X38695324Y213028D01*
X38725500Y403551D01*
X38725500Y596449D01*
X38695324Y786972D01*
X38635715Y970429D01*
X38548141Y1142302D01*
X38434759Y1298359D01*
X38434757Y1298361D01*
X38434754Y1298365D01*
X38298365Y1434754D01*
X38298360Y1434758D01*
X38296733Y1435940D01*
X38142302Y1548141D01*
X37970429Y1635715D01*
X37970428Y1635716D01*
X37970427Y1635716D01*
X37786972Y1695324D01*
X37786969Y1695325D01*
X37640614Y1718505D01*
X37596449Y1725500D01*
X37403551Y1725500D01*
X37367697Y1719822D01*
X37213030Y1695325D01*
X37213027Y1695324D01*
X37029572Y1635716D01*
X36857698Y1548141D01*
X36701639Y1434758D01*
X36565242Y1298361D01*
X36451859Y1142302D01*
X36364284Y970428D01*
X36304676Y786973D01*
X36304675Y786970D01*
X36274500Y596449D01*
X34488549Y596449D01*
X34467171Y648059D01*
X34467169Y648061D01*
X34467169Y648062D01*
X34389675Y725556D01*
X34389673Y725557D01*
X34389672Y725558D01*
X34330358Y750127D01*
X34288415Y767501D01*
X34288414Y767501D01*
X34178814Y767501D01*
X34178812Y767501D01*
X34077554Y725557D01*
X34000058Y648061D01*
X34000057Y648060D01*
X34000057Y648059D01*
X33992862Y630689D01*
X33958114Y546803D01*
X4474807Y546803D01*
X4479114Y557201D01*
X4479114Y666801D01*
X4437171Y768059D01*
X4437169Y768061D01*
X4437169Y768062D01*
X4359675Y845556D01*
X4359673Y845557D01*
X4359672Y845558D01*
X4262183Y885940D01*
X4258415Y887501D01*
X4258414Y887501D01*
X4148814Y887501D01*
X4148812Y887501D01*
X4047554Y845557D01*
X3970058Y768061D01*
X3928114Y666803D01*
X2714357Y666803D01*
X2695324Y786972D01*
X2635715Y970429D01*
X2571324Y1096803D01*
X21258114Y1096803D01*
X21258114Y987200D01*
X21266563Y966803D01*
X21300057Y885943D01*
X21300058Y885942D01*
X21300059Y885940D01*
X21377553Y808446D01*
X21377554Y808446D01*
X21377556Y808444D01*
X21478814Y766501D01*
X21478816Y766501D01*
X21588412Y766501D01*
X21588414Y766501D01*
X21689672Y808444D01*
X21689674Y808446D01*
X21689675Y808446D01*
X21748966Y867737D01*
X21783614Y882089D01*
X21818262Y867737D01*
X21877553Y808446D01*
X21877554Y808446D01*
X21877556Y808444D01*
X21978814Y766501D01*
X21978816Y766501D01*
X22088412Y766501D01*
X22088414Y766501D01*
X22189672Y808444D01*
X22189674Y808446D01*
X22189675Y808446D01*
X22267169Y885940D01*
X22267169Y885941D01*
X22267171Y885943D01*
X22300665Y966803D01*
X26278114Y966803D01*
X26278114Y857200D01*
X26295488Y815257D01*
X26320057Y755943D01*
X26320058Y755942D01*
X26320059Y755940D01*
X26397553Y678446D01*
X26397554Y678446D01*
X26397556Y678444D01*
X26498814Y636501D01*
X26498816Y636501D01*
X26608412Y636501D01*
X26608414Y636501D01*
X26709672Y678444D01*
X26709674Y678446D01*
X26709675Y678446D01*
X26787169Y755940D01*
X26787169Y755941D01*
X26787171Y755943D01*
X26829114Y857201D01*
X26829114Y966801D01*
X26787171Y1068059D01*
X26787169Y1068061D01*
X26787169Y1068062D01*
X26709675Y1145556D01*
X26709673Y1145557D01*
X26709672Y1145558D01*
X26650358Y1170127D01*
X26608415Y1187501D01*
X26608414Y1187501D01*
X26498814Y1187501D01*
X26498812Y1187501D01*
X26397554Y1145557D01*
X26320058Y1068061D01*
X26278114Y966803D01*
X22300665Y966803D01*
X22309114Y987201D01*
X22309114Y1096801D01*
X22267171Y1198059D01*
X22267169Y1198061D01*
X22267169Y1198062D01*
X22189675Y1275556D01*
X22189673Y1275557D01*
X22189672Y1275558D01*
X22130358Y1300127D01*
X22088415Y1317501D01*
X22088414Y1317501D01*
X21978814Y1317501D01*
X21978812Y1317501D01*
X21877554Y1275557D01*
X21818262Y1216265D01*
X21783614Y1201913D01*
X21748966Y1216265D01*
X21689675Y1275556D01*
X21689673Y1275557D01*
X21689672Y1275558D01*
X21630358Y1300127D01*
X21588415Y1317501D01*
X21588414Y1317501D01*
X21478814Y1317501D01*
X21478812Y1317501D01*
X21377554Y1275557D01*
X21300058Y1198061D01*
X21258114Y1096803D01*
X2571324Y1096803D01*
X2548141Y1142302D01*
X2434759Y1298359D01*
X2434757Y1298361D01*
X2434754Y1298365D01*
X2298365Y1434754D01*
X2298360Y1434758D01*
X2296733Y1435940D01*
X2142302Y1548141D01*
X2024884Y1607969D01*
X1970430Y1635715D01*
X1936305Y1646803D01*
X17258114Y1646803D01*
X17258114Y1537200D01*
X17275488Y1495257D01*
X17300057Y1435943D01*
X17300058Y1435942D01*
X17300059Y1435940D01*
X17377553Y1358446D01*
X17377554Y1358446D01*
X17377556Y1358444D01*
X17478814Y1316501D01*
X17478816Y1316501D01*
X17588412Y1316501D01*
X17588414Y1316501D01*
X17689672Y1358444D01*
X17689674Y1358446D01*
X17689675Y1358446D01*
X17767169Y1435940D01*
X17767169Y1435941D01*
X17767171Y1435943D01*
X17809114Y1537201D01*
X17809114Y1646801D01*
X17771833Y1736803D01*
X21518114Y1736803D01*
X21518114Y1627200D01*
X21534972Y1586502D01*
X21560057Y1525943D01*
X21560058Y1525942D01*
X21560059Y1525940D01*
X21637553Y1448446D01*
X21637554Y1448446D01*
X21637556Y1448444D01*
X21738814Y1406501D01*
X21738816Y1406501D01*
X21848412Y1406501D01*
X21848414Y1406501D01*
X21949672Y1448444D01*
X21949674Y1448446D01*
X21949675Y1448446D01*
X22027169Y1525940D01*
X22027169Y1525941D01*
X22027171Y1525943D01*
X22069114Y1627201D01*
X22069114Y1736801D01*
X22027171Y1838059D01*
X22027169Y1838061D01*
X22027169Y1838062D01*
X21949675Y1915556D01*
X21949673Y1915557D01*
X21949672Y1915558D01*
X21890358Y1940127D01*
X21848415Y1957501D01*
X21848414Y1957501D01*
X21738814Y1957501D01*
X21738812Y1957501D01*
X21637554Y1915557D01*
X21560058Y1838061D01*
X21518114Y1736803D01*
X17771833Y1736803D01*
X17767171Y1748059D01*
X17767170Y1748060D01*
X17767169Y1748062D01*
X17689675Y1825556D01*
X17689673Y1825557D01*
X17689672Y1825558D01*
X17630358Y1850127D01*
X17588415Y1867501D01*
X17588414Y1867501D01*
X17478814Y1867501D01*
X17478812Y1867501D01*
X17377554Y1825557D01*
X17300058Y1748061D01*
X17258114Y1646803D01*
X1936305Y1646803D01*
X1786972Y1695324D01*
X1786969Y1695325D01*
X1640614Y1718505D01*
X1596449Y1725500D01*
X1403551Y1725500D01*
X1367697Y1719822D01*
X1213030Y1695325D01*
X1213027Y1695324D01*
X1029572Y1635716D01*
X857698Y1548141D01*
X701639Y1434758D01*
X565242Y1298361D01*
X451859Y1142302D01*
X364284Y970428D01*
X304676Y786973D01*
X304675Y786970D01*
X274500Y596449D01*
X127500Y596449D01*
X127500Y2246803D01*
X2358114Y2246803D01*
X2358114Y2246801D01*
X2358114Y2137201D01*
X2400057Y2035943D01*
X2400058Y2035942D01*
X2400059Y2035940D01*
X2477553Y1958446D01*
X2477554Y1958446D01*
X2477556Y1958444D01*
X2578814Y1916501D01*
X2578816Y1916501D01*
X2688412Y1916501D01*
X2688414Y1916501D01*
X2789672Y1958444D01*
X2789674Y1958446D01*
X2789675Y1958446D01*
X2867169Y2035940D01*
X2867169Y2035941D01*
X2867171Y2035943D01*
X2874983Y2054802D01*
X6174500Y2054802D01*
X6174500Y1945199D01*
X6186263Y1916801D01*
X6216443Y1843942D01*
X6216444Y1843941D01*
X6216445Y1843939D01*
X6293939Y1766445D01*
X6293940Y1766445D01*
X6293942Y1766443D01*
X6395200Y1724500D01*
X6395202Y1724500D01*
X6504798Y1724500D01*
X6504800Y1724500D01*
X6606058Y1766443D01*
X6606060Y1766445D01*
X6606061Y1766445D01*
X6683555Y1843939D01*
X6683555Y1843940D01*
X6683557Y1843942D01*
X6725500Y1945200D01*
X6725500Y2046803D01*
X13058114Y2046803D01*
X13058114Y2046801D01*
X13058114Y1937201D01*
X13100057Y1835943D01*
X13100058Y1835942D01*
X13100059Y1835940D01*
X13177553Y1758446D01*
X13177554Y1758446D01*
X13177556Y1758444D01*
X13278814Y1716501D01*
X13278816Y1716501D01*
X13388412Y1716501D01*
X13388414Y1716501D01*
X13489672Y1758444D01*
X13489674Y1758446D01*
X13489675Y1758446D01*
X13567169Y1835940D01*
X13567169Y1835941D01*
X13567171Y1835943D01*
X13609114Y1937201D01*
X13609114Y2046801D01*
X13609113Y2046803D01*
X14458114Y2046803D01*
X14458114Y2046801D01*
X14458114Y1937201D01*
X14500057Y1835943D01*
X14500058Y1835942D01*
X14500059Y1835940D01*
X14577553Y1758446D01*
X14577554Y1758446D01*
X14577556Y1758444D01*
X14678814Y1716501D01*
X14678816Y1716501D01*
X14788412Y1716501D01*
X14788414Y1716501D01*
X14889672Y1758444D01*
X14889674Y1758446D01*
X14889675Y1758446D01*
X14967169Y1835940D01*
X14967169Y1835941D01*
X14967171Y1835943D01*
X15009114Y1937201D01*
X15009114Y2046801D01*
X14967171Y2148059D01*
X14967169Y2148061D01*
X14967169Y2148062D01*
X14909525Y2205706D01*
X26358114Y2205706D01*
X26358114Y2096103D01*
X26358341Y2095556D01*
X26400057Y1994846D01*
X26400058Y1994845D01*
X26400059Y1994843D01*
X26428801Y1966101D01*
X26443153Y1931453D01*
X26428802Y1896806D01*
X26400057Y1868061D01*
X26358114Y1766803D01*
X26358114Y1657200D01*
X26370541Y1627200D01*
X26400057Y1555943D01*
X26400058Y1555942D01*
X26400059Y1555940D01*
X26477553Y1478446D01*
X26477554Y1478446D01*
X26477556Y1478444D01*
X26578814Y1436501D01*
X26578816Y1436501D01*
X26688412Y1436501D01*
X26688414Y1436501D01*
X26789672Y1478444D01*
X26789674Y1478446D01*
X26789675Y1478446D01*
X26867169Y1555940D01*
X26867169Y1555941D01*
X26867171Y1555943D01*
X26909114Y1657201D01*
X26909114Y1766801D01*
X26867171Y1868059D01*
X26867169Y1868061D01*
X26867169Y1868062D01*
X26838426Y1896805D01*
X26830142Y1916803D01*
X28358114Y1916803D01*
X28358114Y1916801D01*
X28358114Y1807201D01*
X28400057Y1705943D01*
X28400058Y1705942D01*
X28400059Y1705940D01*
X28477553Y1628446D01*
X28477554Y1628446D01*
X28477556Y1628444D01*
X28578814Y1586501D01*
X28578816Y1586501D01*
X28688412Y1586501D01*
X28688414Y1586501D01*
X28789672Y1628444D01*
X28789674Y1628446D01*
X28789675Y1628446D01*
X28867169Y1705940D01*
X28867169Y1705941D01*
X28867171Y1705943D01*
X28909114Y1807201D01*
X28909114Y1916801D01*
X28867171Y2018059D01*
X28867169Y2018061D01*
X28867169Y2018062D01*
X28789675Y2095556D01*
X28789673Y2095557D01*
X28789672Y2095558D01*
X28730358Y2120127D01*
X28688415Y2137501D01*
X28688414Y2137501D01*
X28578814Y2137501D01*
X28578812Y2137501D01*
X28494926Y2102753D01*
X28478875Y2096104D01*
X28477554Y2095557D01*
X28400058Y2018061D01*
X28358114Y1916803D01*
X26830142Y1916803D01*
X26824074Y1931453D01*
X26838426Y1966101D01*
X26838426Y1966102D01*
X26867171Y1994846D01*
X26909114Y2096104D01*
X26909114Y2205704D01*
X26867171Y2306962D01*
X26867169Y2306964D01*
X26867169Y2306965D01*
X26789675Y2384459D01*
X26789673Y2384460D01*
X26789672Y2384461D01*
X26730358Y2409030D01*
X26688415Y2426404D01*
X26688414Y2426404D01*
X26578814Y2426404D01*
X26578812Y2426404D01*
X26477554Y2384460D01*
X26400058Y2306964D01*
X26358114Y2205706D01*
X14909525Y2205706D01*
X14889675Y2225556D01*
X14889673Y2225557D01*
X14889672Y2225558D01*
X14830358Y2250127D01*
X14788415Y2267501D01*
X14788414Y2267501D01*
X14678814Y2267501D01*
X14678812Y2267501D01*
X14577554Y2225557D01*
X14500058Y2148061D01*
X14458114Y2046803D01*
X13609113Y2046803D01*
X13567171Y2148059D01*
X13567169Y2148061D01*
X13567169Y2148062D01*
X13489675Y2225556D01*
X13489673Y2225557D01*
X13489672Y2225558D01*
X13430358Y2250127D01*
X13388415Y2267501D01*
X13388414Y2267501D01*
X13278814Y2267501D01*
X13278812Y2267501D01*
X13177554Y2225557D01*
X13100058Y2148061D01*
X13058114Y2046803D01*
X6725500Y2046803D01*
X6725500Y2054800D01*
X6683557Y2156058D01*
X6683555Y2156060D01*
X6683555Y2156061D01*
X6606061Y2233555D01*
X6606059Y2233556D01*
X6606058Y2233557D01*
X6545971Y2258446D01*
X6504801Y2275500D01*
X6504800Y2275500D01*
X6395200Y2275500D01*
X6395198Y2275500D01*
X6293940Y2233556D01*
X6216444Y2156060D01*
X6216443Y2156059D01*
X6216443Y2156058D01*
X6213130Y2148059D01*
X6174500Y2054802D01*
X2874983Y2054802D01*
X2909114Y2137201D01*
X2909114Y2246801D01*
X2867171Y2348059D01*
X2867169Y2348061D01*
X2867169Y2348062D01*
X2789675Y2425556D01*
X2789673Y2425557D01*
X2789672Y2425558D01*
X2730358Y2450127D01*
X2688415Y2467501D01*
X2688414Y2467501D01*
X2578814Y2467501D01*
X2578812Y2467501D01*
X2505664Y2437201D01*
X2479599Y2426404D01*
X2477554Y2425557D01*
X2400058Y2348061D01*
X2358114Y2246803D01*
X127500Y2246803D01*
X127500Y2546803D01*
X12058114Y2546803D01*
X12058114Y2437200D01*
X12075488Y2395257D01*
X12100057Y2335943D01*
X12100058Y2335942D01*
X12100059Y2335940D01*
X12177553Y2258446D01*
X12177554Y2258446D01*
X12177556Y2258444D01*
X12278814Y2216501D01*
X12278816Y2216501D01*
X12388412Y2216501D01*
X12388414Y2216501D01*
X12489672Y2258444D01*
X12489674Y2258446D01*
X12489675Y2258446D01*
X12567169Y2335940D01*
X12567169Y2335941D01*
X12567171Y2335943D01*
X12609114Y2437201D01*
X12609114Y2546801D01*
X12567171Y2648059D01*
X12567169Y2648061D01*
X12567169Y2648062D01*
X12489675Y2725556D01*
X12489673Y2725557D01*
X12489672Y2725558D01*
X12430358Y2750127D01*
X12388415Y2767501D01*
X12388414Y2767501D01*
X12278814Y2767501D01*
X12278812Y2767501D01*
X12205664Y2737201D01*
X12186873Y2729417D01*
X12177554Y2725557D01*
X12100058Y2648061D01*
X12058114Y2546803D01*
X127500Y2546803D01*
X127500Y2940277D01*
X19730662Y2940277D01*
X19730662Y2940275D01*
X19730662Y2830675D01*
X19772605Y2729417D01*
X19772606Y2729416D01*
X19772607Y2729414D01*
X19850101Y2651920D01*
X19850102Y2651920D01*
X19850104Y2651918D01*
X19951362Y2609975D01*
X19951364Y2609975D01*
X20060960Y2609975D01*
X20060962Y2609975D01*
X20162220Y2651918D01*
X20162222Y2651920D01*
X20162223Y2651920D01*
X20239717Y2729414D01*
X20239717Y2729415D01*
X20239719Y2729417D01*
X20281662Y2830675D01*
X20281662Y2940275D01*
X20254105Y3006803D01*
X29748114Y3006803D01*
X29748114Y2897200D01*
X29765488Y2855257D01*
X29790057Y2795943D01*
X29790058Y2795942D01*
X29790059Y2795940D01*
X29867553Y2718446D01*
X29867554Y2718446D01*
X29867556Y2718444D01*
X29968814Y2676501D01*
X29968816Y2676501D01*
X30078412Y2676501D01*
X30078414Y2676501D01*
X30179672Y2718444D01*
X30179674Y2718446D01*
X30179675Y2718446D01*
X30257169Y2795940D01*
X30257169Y2795941D01*
X30257171Y2795943D01*
X30299114Y2897201D01*
X30299114Y3006801D01*
X30279231Y3054802D01*
X35574500Y3054802D01*
X35574500Y2945199D01*
X35591874Y2903256D01*
X35616443Y2843942D01*
X35616444Y2843941D01*
X35616445Y2843939D01*
X35693939Y2766445D01*
X35693940Y2766445D01*
X35693942Y2766443D01*
X35795200Y2724500D01*
X35795202Y2724500D01*
X35904798Y2724500D01*
X35904800Y2724500D01*
X36006058Y2766443D01*
X36006060Y2766445D01*
X36006061Y2766445D01*
X36083555Y2843939D01*
X36083555Y2843941D01*
X36083557Y2843942D01*
X36084742Y2846803D01*
X37858114Y2846803D01*
X37858114Y2737200D01*
X37875488Y2695257D01*
X37900057Y2635943D01*
X37900058Y2635942D01*
X37900059Y2635940D01*
X37977553Y2558446D01*
X37977554Y2558446D01*
X37977556Y2558444D01*
X38078814Y2516501D01*
X38078816Y2516501D01*
X38188412Y2516501D01*
X38188414Y2516501D01*
X38289672Y2558444D01*
X38289674Y2558446D01*
X38289675Y2558446D01*
X38367169Y2635940D01*
X38367169Y2635941D01*
X38367171Y2635943D01*
X38409114Y2737201D01*
X38409114Y2846801D01*
X38367171Y2948059D01*
X38367169Y2948061D01*
X38367169Y2948062D01*
X38289675Y3025556D01*
X38289673Y3025557D01*
X38289672Y3025558D01*
X38230358Y3050127D01*
X38188415Y3067501D01*
X38188414Y3067501D01*
X38078814Y3067501D01*
X38078812Y3067501D01*
X37977554Y3025557D01*
X37900058Y2948061D01*
X37858114Y2846803D01*
X36084742Y2846803D01*
X36125500Y2945200D01*
X36125500Y3054800D01*
X36083557Y3156058D01*
X36083555Y3156060D01*
X36083555Y3156061D01*
X36006061Y3233555D01*
X36006059Y3233556D01*
X36006058Y3233557D01*
X35946744Y3258126D01*
X35904801Y3275500D01*
X35904800Y3275500D01*
X35795200Y3275500D01*
X35795198Y3275500D01*
X35693940Y3233556D01*
X35616444Y3156060D01*
X35574500Y3054802D01*
X30279231Y3054802D01*
X30257171Y3108059D01*
X30257169Y3108061D01*
X30257169Y3108062D01*
X30179675Y3185556D01*
X30179673Y3185557D01*
X30179672Y3185558D01*
X30120358Y3210127D01*
X30078415Y3227501D01*
X30078414Y3227501D01*
X29968814Y3227501D01*
X29968812Y3227501D01*
X29867554Y3185557D01*
X29790058Y3108061D01*
X29748114Y3006803D01*
X20254105Y3006803D01*
X20239719Y3041533D01*
X20239717Y3041535D01*
X20239717Y3041536D01*
X20162223Y3119030D01*
X20162221Y3119031D01*
X20162220Y3119032D01*
X20072828Y3156060D01*
X20060963Y3160975D01*
X20060962Y3160975D01*
X19951362Y3160975D01*
X19951360Y3160975D01*
X19850102Y3119031D01*
X19772606Y3041535D01*
X19730662Y2940277D01*
X127500Y2940277D01*
X127500Y3607720D01*
X524500Y3607720D01*
X524500Y3532280D01*
X530091Y3489808D01*
X539312Y3419765D01*
X597299Y3279772D01*
X597302Y3279767D01*
X689549Y3159549D01*
X809767Y3067302D01*
X809769Y3067302D01*
X809771Y3067300D01*
X873569Y3040874D01*
X949764Y3009313D01*
X1062280Y2994500D01*
X1062284Y2994500D01*
X1987716Y2994500D01*
X1987720Y2994500D01*
X2100236Y3009313D01*
X2240233Y3067302D01*
X2360451Y3159549D01*
X2452698Y3279767D01*
X2510687Y3419764D01*
X2525500Y3532280D01*
X2525500Y3607720D01*
X4924500Y3607720D01*
X4924500Y3532280D01*
X4930091Y3489808D01*
X4939312Y3419765D01*
X4997299Y3279772D01*
X4997302Y3279767D01*
X5089549Y3159549D01*
X5209767Y3067302D01*
X5209769Y3067302D01*
X5209771Y3067300D01*
X5273569Y3040874D01*
X5349764Y3009313D01*
X5462280Y2994500D01*
X5462284Y2994500D01*
X6587716Y2994500D01*
X6587720Y2994500D01*
X6700236Y3009313D01*
X6840233Y3067302D01*
X6960451Y3159549D01*
X7052698Y3279767D01*
X7110687Y3419764D01*
X7125500Y3532280D01*
X7125500Y3607720D01*
X7117722Y3666803D01*
X14648114Y3666803D01*
X14648114Y3557200D01*
X14658435Y3532284D01*
X14690057Y3455943D01*
X14690058Y3455942D01*
X14690059Y3455940D01*
X14767553Y3378446D01*
X14767554Y3378446D01*
X14767556Y3378444D01*
X14868814Y3336501D01*
X14868816Y3336501D01*
X14978412Y3336501D01*
X14978414Y3336501D01*
X15079672Y3378444D01*
X15079674Y3378446D01*
X15079675Y3378446D01*
X15157169Y3455940D01*
X15157169Y3455941D01*
X15157171Y3455943D01*
X15199114Y3557201D01*
X15199114Y3666801D01*
X15161833Y3756803D01*
X26268114Y3756803D01*
X26268114Y3756801D01*
X26268114Y3647201D01*
X26310057Y3545943D01*
X26310058Y3545942D01*
X26310059Y3545940D01*
X26387553Y3468446D01*
X26387554Y3468446D01*
X26387556Y3468444D01*
X26488814Y3426501D01*
X26488816Y3426501D01*
X26598412Y3426501D01*
X26598414Y3426501D01*
X26699672Y3468444D01*
X26699674Y3468446D01*
X26699675Y3468446D01*
X26777169Y3545940D01*
X26777169Y3545941D01*
X26777171Y3545943D01*
X26819114Y3647201D01*
X26819114Y3756801D01*
X26777171Y3858059D01*
X26777169Y3858061D01*
X26777169Y3858062D01*
X26699675Y3935556D01*
X26699673Y3935557D01*
X26699672Y3935558D01*
X26640358Y3960127D01*
X26598415Y3977501D01*
X26598414Y3977501D01*
X26488814Y3977501D01*
X26488812Y3977501D01*
X26387554Y3935557D01*
X26310058Y3858061D01*
X26268114Y3756803D01*
X15161833Y3756803D01*
X15157171Y3768059D01*
X15157170Y3768060D01*
X15157169Y3768062D01*
X15079675Y3845556D01*
X15079673Y3845557D01*
X15079672Y3845558D01*
X15020358Y3870127D01*
X14978415Y3887501D01*
X14978414Y3887501D01*
X14868814Y3887501D01*
X14868812Y3887501D01*
X14767554Y3845557D01*
X14690058Y3768061D01*
X14648114Y3666803D01*
X7117722Y3666803D01*
X7110687Y3720236D01*
X7090877Y3768062D01*
X7052700Y3860229D01*
X7052697Y3860234D01*
X6994899Y3935557D01*
X6960451Y3980451D01*
X6858806Y4058446D01*
X6840233Y4072698D01*
X6840228Y4072701D01*
X6700235Y4130688D01*
X6622894Y4140870D01*
X6587720Y4145500D01*
X5462280Y4145500D01*
X5430425Y4141307D01*
X5349764Y4130688D01*
X5209771Y4072701D01*
X5209766Y4072698D01*
X5089549Y3980452D01*
X5089548Y3980451D01*
X4997302Y3860234D01*
X4997299Y3860229D01*
X4939312Y3720236D01*
X4932071Y3665231D01*
X4924500Y3607720D01*
X2525500Y3607720D01*
X2510687Y3720236D01*
X2490877Y3768062D01*
X2452700Y3860229D01*
X2452697Y3860234D01*
X2394899Y3935557D01*
X2360451Y3980451D01*
X2258806Y4058446D01*
X2240233Y4072698D01*
X2240228Y4072701D01*
X2100235Y4130688D01*
X2022894Y4140870D01*
X1987720Y4145500D01*
X1062280Y4145500D01*
X1030425Y4141307D01*
X949764Y4130688D01*
X809771Y4072701D01*
X809766Y4072698D01*
X689549Y3980452D01*
X689548Y3980451D01*
X597302Y3860234D01*
X597299Y3860229D01*
X539312Y3720236D01*
X532071Y3665231D01*
X524500Y3607720D01*
X127500Y3607720D01*
X127500Y4346803D01*
X9658114Y4346803D01*
X9658114Y4237200D01*
X9669023Y4210864D01*
X9700057Y4135943D01*
X9700058Y4135942D01*
X9700059Y4135940D01*
X9777553Y4058446D01*
X9777554Y4058446D01*
X9777556Y4058444D01*
X9878814Y4016501D01*
X9878816Y4016501D01*
X9988412Y4016501D01*
X9988414Y4016501D01*
X10089672Y4058444D01*
X10089674Y4058446D01*
X10089675Y4058446D01*
X10167169Y4135940D01*
X10167169Y4135941D01*
X10167171Y4135943D01*
X10209114Y4237201D01*
X10209114Y4346801D01*
X10167171Y4448059D01*
X10167169Y4448061D01*
X10167169Y4448062D01*
X10089675Y4525556D01*
X10089673Y4525557D01*
X10089672Y4525558D01*
X10020552Y4554189D01*
X9988415Y4567501D01*
X9988414Y4567501D01*
X9878814Y4567501D01*
X9878812Y4567501D01*
X9777554Y4525557D01*
X9700058Y4448061D01*
X9658114Y4346803D01*
X127500Y4346803D01*
X127500Y4586803D01*
X12818114Y4586803D01*
X12818114Y4477200D01*
X12825865Y4458488D01*
X12860057Y4375943D01*
X12860058Y4375942D01*
X12860059Y4375940D01*
X12937553Y4298446D01*
X12937554Y4298446D01*
X12937556Y4298444D01*
X13038814Y4256501D01*
X13038816Y4256501D01*
X13148412Y4256501D01*
X13148414Y4256501D01*
X13249672Y4298444D01*
X13249674Y4298446D01*
X13249675Y4298446D01*
X13327169Y4375940D01*
X13327169Y4375941D01*
X13327171Y4375943D01*
X13369114Y4477201D01*
X13369114Y4586801D01*
X13331833Y4676803D01*
X28198114Y4676803D01*
X28198114Y4567200D01*
X28205645Y4549020D01*
X28240057Y4465943D01*
X28240058Y4465942D01*
X28240059Y4465940D01*
X28317553Y4388446D01*
X28317554Y4388446D01*
X28317556Y4388444D01*
X28418814Y4346501D01*
X28418816Y4346501D01*
X28528412Y4346501D01*
X28528414Y4346501D01*
X28629672Y4388444D01*
X28629674Y4388446D01*
X28629675Y4388446D01*
X28707169Y4465940D01*
X28707169Y4465941D01*
X28707171Y4465943D01*
X28749114Y4567201D01*
X28749114Y4676801D01*
X28707171Y4778059D01*
X28707169Y4778061D01*
X28707169Y4778062D01*
X28629675Y4855556D01*
X28629673Y4855557D01*
X28629672Y4855558D01*
X28570358Y4880127D01*
X28528415Y4897501D01*
X28528414Y4897501D01*
X28418814Y4897501D01*
X28418812Y4897501D01*
X28317554Y4855557D01*
X28240058Y4778061D01*
X28240057Y4778060D01*
X28240057Y4778059D01*
X28238859Y4775167D01*
X28198114Y4676803D01*
X13331833Y4676803D01*
X13327171Y4688059D01*
X13327170Y4688060D01*
X13327169Y4688062D01*
X13249675Y4765556D01*
X13249673Y4765557D01*
X13249672Y4765558D01*
X13190358Y4790127D01*
X13148415Y4807501D01*
X13148414Y4807501D01*
X13038814Y4807501D01*
X13038812Y4807501D01*
X12937554Y4765557D01*
X12860058Y4688061D01*
X12860057Y4688060D01*
X12860057Y4688059D01*
X12855763Y4677693D01*
X12818114Y4586803D01*
X127500Y4586803D01*
X127500Y5204802D01*
X3324500Y5204802D01*
X3324500Y5095199D01*
X3331656Y5077924D01*
X3366443Y4993942D01*
X3366444Y4993941D01*
X3366445Y4993939D01*
X3443939Y4916445D01*
X3443940Y4916445D01*
X3443942Y4916443D01*
X3545200Y4874500D01*
X3545202Y4874500D01*
X3654798Y4874500D01*
X3654800Y4874500D01*
X3756058Y4916443D01*
X3756060Y4916445D01*
X3756061Y4916445D01*
X3833555Y4993939D01*
X3833555Y4993940D01*
X3833557Y4993942D01*
X3875500Y5095200D01*
X3875500Y5204800D01*
X3833557Y5306058D01*
X3833555Y5306060D01*
X3833555Y5306061D01*
X3813583Y5326033D01*
X4797500Y5326033D01*
X4797500Y5173968D01*
X4836855Y5027095D01*
X4836856Y5027091D01*
X4900739Y4916445D01*
X4912885Y4895407D01*
X5020407Y4787885D01*
X5059080Y4765557D01*
X5152090Y4711857D01*
X5152092Y4711857D01*
X5152093Y4711856D01*
X5254414Y4684439D01*
X5298967Y4672501D01*
X5298968Y4672500D01*
X5298971Y4672500D01*
X5451032Y4672500D01*
X5451032Y4672501D01*
X5597907Y4711856D01*
X5599572Y4712817D01*
X5645443Y4739301D01*
X5729593Y4787885D01*
X5837115Y4895407D01*
X5913144Y5027093D01*
X5918425Y5046803D01*
X7358114Y5046803D01*
X7358114Y4937200D01*
X7366712Y4916443D01*
X7400057Y4835943D01*
X7400058Y4835942D01*
X7400059Y4835940D01*
X7477553Y4758446D01*
X7477554Y4758446D01*
X7477556Y4758444D01*
X7578814Y4716501D01*
X7578816Y4716501D01*
X7688412Y4716501D01*
X7688414Y4716501D01*
X7789672Y4758444D01*
X7789674Y4758446D01*
X7789675Y4758446D01*
X7867169Y4835940D01*
X7867169Y4835941D01*
X7867171Y4835943D01*
X7909114Y4937201D01*
X7909114Y5046801D01*
X7867171Y5148059D01*
X7867169Y5148061D01*
X7867169Y5148062D01*
X7789675Y5225556D01*
X7789673Y5225557D01*
X7789672Y5225558D01*
X7729605Y5250439D01*
X7688415Y5267501D01*
X7688414Y5267501D01*
X7578814Y5267501D01*
X7578812Y5267501D01*
X7506239Y5237439D01*
X7479966Y5226556D01*
X7477554Y5225557D01*
X7400058Y5148061D01*
X7400057Y5148060D01*
X7400057Y5148059D01*
X7396361Y5139136D01*
X7358114Y5046803D01*
X5918425Y5046803D01*
X5952500Y5173971D01*
X5952500Y5326029D01*
X5952500Y5326032D01*
X5952499Y5326033D01*
X5921849Y5440420D01*
X5913144Y5472907D01*
X5913143Y5472908D01*
X5913143Y5472910D01*
X5910708Y5477127D01*
X5899348Y5496803D01*
X14648114Y5496803D01*
X14648114Y5387200D01*
X14653173Y5374988D01*
X14690057Y5285943D01*
X14690058Y5285942D01*
X14690059Y5285940D01*
X14767553Y5208446D01*
X14767554Y5208446D01*
X14767556Y5208444D01*
X14868814Y5166501D01*
X14868816Y5166501D01*
X14978412Y5166501D01*
X14978414Y5166501D01*
X15079672Y5208444D01*
X15079674Y5208446D01*
X15079675Y5208446D01*
X15157169Y5285940D01*
X15157169Y5285941D01*
X15157171Y5285943D01*
X15199114Y5387201D01*
X15199114Y5496801D01*
X15199113Y5496803D01*
X19458114Y5496803D01*
X19458114Y5387200D01*
X19463173Y5374988D01*
X19500057Y5285943D01*
X19500058Y5285942D01*
X19500059Y5285940D01*
X19577553Y5208446D01*
X19577554Y5208446D01*
X19577556Y5208444D01*
X19678814Y5166501D01*
X19678816Y5166501D01*
X19788412Y5166501D01*
X19788414Y5166501D01*
X19889672Y5208444D01*
X19889674Y5208446D01*
X19889675Y5208446D01*
X19967169Y5285940D01*
X19967169Y5285941D01*
X19967171Y5285943D01*
X20009114Y5387201D01*
X20009114Y5496801D01*
X20009113Y5496803D01*
X20458114Y5496803D01*
X20458114Y5387200D01*
X20463173Y5374988D01*
X20500057Y5285943D01*
X20500058Y5285942D01*
X20500059Y5285940D01*
X20577553Y5208446D01*
X20577554Y5208446D01*
X20577556Y5208444D01*
X20678814Y5166501D01*
X20678816Y5166501D01*
X20788412Y5166501D01*
X20788414Y5166501D01*
X20889672Y5208444D01*
X20889674Y5208446D01*
X20889675Y5208446D01*
X20967169Y5285940D01*
X20967169Y5285941D01*
X20967171Y5285943D01*
X21009114Y5387201D01*
X21009114Y5496801D01*
X21009113Y5496803D01*
X21458114Y5496803D01*
X21458114Y5387200D01*
X21463173Y5374988D01*
X21500057Y5285943D01*
X21500058Y5285942D01*
X21500059Y5285940D01*
X21577553Y5208446D01*
X21577554Y5208446D01*
X21577556Y5208444D01*
X21678814Y5166501D01*
X21678816Y5166501D01*
X21788412Y5166501D01*
X21788414Y5166501D01*
X21889672Y5208444D01*
X21889674Y5208446D01*
X21889675Y5208446D01*
X21967169Y5285940D01*
X21967169Y5285941D01*
X21967171Y5285943D01*
X22009114Y5387201D01*
X22009114Y5496801D01*
X22005487Y5505558D01*
X21998314Y5522876D01*
X21992545Y5536803D01*
X26268114Y5536803D01*
X26268114Y5427200D01*
X26275215Y5410057D01*
X26310057Y5325943D01*
X26310058Y5325942D01*
X26310059Y5325940D01*
X26387553Y5248446D01*
X26387554Y5248446D01*
X26387556Y5248444D01*
X26488814Y5206501D01*
X26488816Y5206501D01*
X26598412Y5206501D01*
X26598414Y5206501D01*
X26699672Y5248444D01*
X26699674Y5248446D01*
X26699675Y5248446D01*
X26777169Y5325940D01*
X26777170Y5325942D01*
X26777171Y5325943D01*
X26777527Y5326803D01*
X30198114Y5326803D01*
X30198114Y5217200D01*
X30209782Y5189033D01*
X30240057Y5115943D01*
X30240058Y5115942D01*
X30240059Y5115940D01*
X30317553Y5038446D01*
X30317554Y5038446D01*
X30317556Y5038444D01*
X30418814Y4996501D01*
X30418816Y4996501D01*
X30528412Y4996501D01*
X30528414Y4996501D01*
X30628306Y5037878D01*
X31335277Y5037878D01*
X31335277Y4928275D01*
X31348892Y4895407D01*
X31377220Y4827018D01*
X31377221Y4827017D01*
X31377222Y4827015D01*
X31454716Y4749521D01*
X31454717Y4749521D01*
X31454719Y4749519D01*
X31555977Y4707576D01*
X31555979Y4707576D01*
X31665575Y4707576D01*
X31665577Y4707576D01*
X31742167Y4739301D01*
X31779668Y4739301D01*
X31806187Y4712783D01*
X31809881Y4692151D01*
X31809584Y4684440D01*
X31809507Y4680383D01*
X31809507Y4679618D01*
X31809584Y4675569D01*
X31810584Y4649579D01*
X31810685Y4647483D01*
X31810700Y4647220D01*
X31810839Y4645152D01*
X31812840Y4619132D01*
X31813031Y4616942D01*
X31813062Y4616633D01*
X31813260Y4614763D01*
X31816261Y4588751D01*
X31816787Y4584851D01*
X31816907Y4584069D01*
X31817576Y4580197D01*
X31822573Y4554211D01*
X31823040Y4551918D01*
X31823134Y4551482D01*
X31823695Y4549020D01*
X31829692Y4524027D01*
X31830055Y4522564D01*
X31830133Y4522259D01*
X31830459Y4521017D01*
X31837474Y4494965D01*
X31838907Y4490108D01*
X31839199Y4489202D01*
X31840858Y4484432D01*
X31849866Y4460412D01*
X31850467Y4458849D01*
X31850610Y4458488D01*
X31851381Y4456584D01*
X31861376Y4432595D01*
X31862076Y4430952D01*
X31862181Y4430712D01*
X31862206Y4430657D01*
X31863003Y4428876D01*
X31874003Y4404876D01*
X31875949Y4400856D01*
X31876334Y4400102D01*
X31876342Y4400087D01*
X31878457Y4396153D01*
X31889883Y4375940D01*
X31891450Y4373167D01*
X31892846Y4370770D01*
X31892860Y4370746D01*
X31893105Y4370338D01*
X31894565Y4367977D01*
X31922556Y4323992D01*
X31925079Y4320209D01*
X31925395Y4319758D01*
X31925576Y4319499D01*
X31926957Y4317607D01*
X31928158Y4315961D01*
X31944083Y4295060D01*
X31944112Y4295023D01*
X31944128Y4295002D01*
X31945877Y4292770D01*
X31945897Y4292745D01*
X31945923Y4292712D01*
X31946216Y4292349D01*
X31947969Y4290229D01*
X31947988Y4290206D01*
X31947996Y4290197D01*
X31964996Y4270197D01*
X31965822Y4269251D01*
X31966799Y4268131D01*
X31967136Y4267755D01*
X31969160Y4265557D01*
X31977739Y4256502D01*
X31987152Y4246566D01*
X31988656Y4245020D01*
X31989168Y4244494D01*
X31989493Y4244169D01*
X31989523Y4244140D01*
X31991566Y4242152D01*
X31991578Y4242141D01*
X32010556Y4224161D01*
X32012754Y4222137D01*
X32013130Y4221800D01*
X32013151Y4221782D01*
X32013154Y4221779D01*
X32015197Y4219996D01*
X32035197Y4202996D01*
X32035228Y4202970D01*
X32037348Y4201217D01*
X32037711Y4200924D01*
X32037734Y4200906D01*
X32037770Y4200877D01*
X32040002Y4199128D01*
X32040032Y4199105D01*
X32040059Y4199084D01*
X32060960Y4183159D01*
X32060990Y4183137D01*
X32061002Y4183128D01*
X32064499Y4180576D01*
X32064945Y4180264D01*
X32065208Y4180080D01*
X32068991Y4177557D01*
X32112976Y4149566D01*
X32112991Y4149557D01*
X32115322Y4148115D01*
X32115770Y4147846D01*
X32118167Y4146450D01*
X32119848Y4145500D01*
X32141152Y4133458D01*
X32141167Y4133450D01*
X32145102Y4131334D01*
X32145856Y4130949D01*
X32149876Y4129003D01*
X32173876Y4118003D01*
X32175657Y4117206D01*
X32175711Y4117182D01*
X32175951Y4117077D01*
X32177056Y4116606D01*
X32177577Y4116384D01*
X32201577Y4106384D01*
X32203478Y4105614D01*
X32203748Y4105508D01*
X32203848Y4105468D01*
X32205411Y4104867D01*
X32205445Y4104854D01*
X32213504Y4101832D01*
X32229431Y4095859D01*
X32229440Y4095856D01*
X32229445Y4095854D01*
X32234187Y4094204D01*
X32234950Y4093959D01*
X32235107Y4093908D01*
X32237535Y4093192D01*
X32239973Y4092472D01*
X32250418Y4089660D01*
X32266016Y4085460D01*
X32267258Y4085134D01*
X32267563Y4085056D01*
X32269026Y4084693D01*
X32279629Y4082149D01*
X32294045Y4078689D01*
X32296466Y4078138D01*
X32296912Y4078042D01*
X32299189Y4077578D01*
X32325189Y4072578D01*
X32329091Y4071904D01*
X32329833Y4071790D01*
X32331314Y4071591D01*
X32333750Y4071262D01*
X32351958Y4069162D01*
X32359761Y4068261D01*
X32361603Y4068065D01*
X32361982Y4068028D01*
X32364142Y4067840D01*
X32390142Y4065840D01*
X32392183Y4065703D01*
X32392566Y4065681D01*
X32394561Y4065585D01*
X32413931Y4064840D01*
X32420583Y4064584D01*
X32421468Y4064560D01*
X32422693Y4064525D01*
X32423077Y4064518D01*
X32425000Y4064500D01*
X32425011Y4064500D01*
X33424989Y4064500D01*
X33425000Y4064500D01*
X33426923Y4064518D01*
X33427307Y4064525D01*
X33428595Y4064562D01*
X33429416Y4064584D01*
X33434005Y4064761D01*
X33455439Y4065585D01*
X33457434Y4065681D01*
X33457817Y4065703D01*
X33459858Y4065840D01*
X33485858Y4067840D01*
X33488018Y4068028D01*
X33488397Y4068065D01*
X33490239Y4068261D01*
X33505844Y4070062D01*
X33516249Y4071262D01*
X33518003Y4071499D01*
X33520167Y4071790D01*
X33520909Y4071904D01*
X33524811Y4072578D01*
X33550811Y4077578D01*
X33553088Y4078042D01*
X33553534Y4078138D01*
X33555955Y4078689D01*
X33574914Y4083240D01*
X33580973Y4084693D01*
X33582436Y4085056D01*
X33582443Y4085058D01*
X33582464Y4085063D01*
X33582730Y4085131D01*
X33582989Y4085200D01*
X33583983Y4085460D01*
X33587991Y4086540D01*
X33610027Y4092472D01*
X33614902Y4093911D01*
X33615813Y4094204D01*
X33620555Y4095854D01*
X33644555Y4104854D01*
X33646187Y4105482D01*
X33646522Y4105614D01*
X33648423Y4106384D01*
X33672423Y4116384D01*
X33674022Y4117066D01*
X33674048Y4117077D01*
X33674288Y4117182D01*
X33674289Y4117183D01*
X33674343Y4117206D01*
X33676124Y4118003D01*
X33700124Y4129003D01*
X33704144Y4130949D01*
X33704898Y4131334D01*
X33708833Y4133450D01*
X33731833Y4146450D01*
X33734230Y4147846D01*
X33734678Y4148115D01*
X33737009Y4149557D01*
X33781009Y4177557D01*
X33784810Y4180093D01*
X33785501Y4180576D01*
X33788998Y4183128D01*
X33792415Y4185731D01*
X33809940Y4199084D01*
X33809998Y4199128D01*
X33812230Y4200877D01*
X33812646Y4201212D01*
X33814803Y4202996D01*
X33834803Y4219996D01*
X33836846Y4221779D01*
X33837247Y4222138D01*
X33839434Y4224152D01*
X33858434Y4242152D01*
X33860477Y4244140D01*
X33860860Y4244523D01*
X33862848Y4246566D01*
X33880848Y4265566D01*
X33882862Y4267753D01*
X33883221Y4268154D01*
X33885004Y4270197D01*
X33902004Y4290197D01*
X33903788Y4292354D01*
X33904123Y4292770D01*
X33905872Y4295002D01*
X33921872Y4316002D01*
X33924424Y4319499D01*
X33924907Y4320190D01*
X33927443Y4323991D01*
X33955443Y4367991D01*
X33956885Y4370322D01*
X33957154Y4370770D01*
X33958550Y4373167D01*
X33971550Y4396167D01*
X33973666Y4400102D01*
X33974051Y4400856D01*
X33975997Y4404876D01*
X33986997Y4428876D01*
X33987794Y4430657D01*
X33987934Y4430978D01*
X33988616Y4432577D01*
X33998616Y4456577D01*
X33999386Y4458478D01*
X33999518Y4458813D01*
X34000146Y4460445D01*
X34009146Y4484445D01*
X34010796Y4489187D01*
X34011089Y4490098D01*
X34012528Y4494973D01*
X34019528Y4520973D01*
X34019869Y4522270D01*
X34019937Y4522536D01*
X34020311Y4524045D01*
X34026311Y4549045D01*
X34026862Y4551466D01*
X34026958Y4551912D01*
X34027422Y4554189D01*
X34032422Y4580189D01*
X34033096Y4584091D01*
X34033210Y4584833D01*
X34033739Y4588761D01*
X34036739Y4614761D01*
X34036935Y4616603D01*
X34036972Y4616982D01*
X34037160Y4619142D01*
X34039160Y4645142D01*
X34039297Y4647183D01*
X34039319Y4647566D01*
X34039415Y4649561D01*
X34040415Y4675561D01*
X34040475Y4677693D01*
X34040482Y4678077D01*
X34040500Y4680000D01*
X34040500Y4943000D01*
X36209500Y4943000D01*
X36209500Y4939648D01*
X36209500Y4416977D01*
X36209573Y4413051D01*
X36209604Y4412231D01*
X36209838Y4408170D01*
X36209840Y4408142D01*
X36210460Y4400087D01*
X36210842Y4395116D01*
X36211225Y4391127D01*
X36211306Y4390419D01*
X36211846Y4386412D01*
X36215844Y4360429D01*
X36217290Y4352875D01*
X36217614Y4351462D01*
X36219609Y4344025D01*
X36222318Y4335221D01*
X36223022Y4332696D01*
X36224951Y4324976D01*
X36226695Y4318811D01*
X36227075Y4317607D01*
X36229194Y4311551D01*
X36234181Y4298583D01*
X36234676Y4297318D01*
X36234714Y4297224D01*
X36234762Y4297104D01*
X36235295Y4295796D01*
X36235392Y4295557D01*
X36240376Y4283596D01*
X36241038Y4282040D01*
X36241157Y4281767D01*
X36241851Y4280207D01*
X36246831Y4269251D01*
X36246850Y4269209D01*
X36246852Y4269206D01*
X36247750Y4267283D01*
X36247910Y4266949D01*
X36248694Y4265347D01*
X36248711Y4265313D01*
X36254689Y4253356D01*
X36257216Y4248608D01*
X36257709Y4247736D01*
X36257719Y4247719D01*
X36260557Y4242991D01*
X36260571Y4242968D01*
X36267561Y4231984D01*
X36269384Y4229217D01*
X36269768Y4228654D01*
X36271607Y4226043D01*
X36279587Y4215070D01*
X36280950Y4213239D01*
X36280971Y4213212D01*
X36280984Y4213194D01*
X36281262Y4212829D01*
X36282809Y4210848D01*
X36290514Y4201217D01*
X36298786Y4190876D01*
X36298806Y4190851D01*
X36298809Y4190848D01*
X36300757Y4188484D01*
X36301133Y4188041D01*
X36303149Y4185734D01*
X36303152Y4185731D01*
X36312149Y4175733D01*
X36314473Y4173284D01*
X36315967Y4171710D01*
X36316710Y4170967D01*
X36318414Y4169350D01*
X36320732Y4167150D01*
X36327397Y4161152D01*
X36330734Y4158149D01*
X36333041Y4156133D01*
X36333484Y4155757D01*
X36333500Y4155744D01*
X36335875Y4153787D01*
X36341152Y4149566D01*
X36355848Y4137809D01*
X36357829Y4136262D01*
X36358194Y4135984D01*
X36358223Y4135962D01*
X36358238Y4135951D01*
X36360069Y4134588D01*
X36371042Y4126608D01*
X36373653Y4124769D01*
X36374216Y4124385D01*
X36376983Y4122562D01*
X36385619Y4117066D01*
X36387991Y4115557D01*
X36392719Y4112719D01*
X36393616Y4112212D01*
X36398347Y4109694D01*
X36410347Y4103694D01*
X36411949Y4102910D01*
X36412283Y4102750D01*
X36414206Y4101852D01*
X36414250Y4101832D01*
X36425206Y4096852D01*
X36426766Y4096158D01*
X36427020Y4096047D01*
X36427057Y4096032D01*
X36427076Y4096023D01*
X36428577Y4095384D01*
X36440577Y4090384D01*
X36442104Y4089762D01*
X36442360Y4089660D01*
X36443538Y4089199D01*
X36456538Y4084199D01*
X36462632Y4082067D01*
X36463797Y4081699D01*
X36469994Y4079947D01*
X36477714Y4078018D01*
X36480213Y4077322D01*
X36489027Y4074609D01*
X36496453Y4072617D01*
X36497873Y4072291D01*
X36505437Y4070843D01*
X36531437Y4066843D01*
X36535386Y4066311D01*
X36535402Y4066310D01*
X36535418Y4066307D01*
X36536118Y4066226D01*
X36536970Y4066145D01*
X36540142Y4065840D01*
X36553142Y4064840D01*
X36557247Y4064604D01*
X36558014Y4064575D01*
X36558033Y4064575D01*
X36558050Y4064574D01*
X36561976Y4064500D01*
X36562000Y4064500D01*
X38388024Y4064500D01*
X38391949Y4064574D01*
X38391964Y4064575D01*
X38391986Y4064575D01*
X38392753Y4064604D01*
X38396858Y4064840D01*
X38409858Y4065840D01*
X38413860Y4066224D01*
X38413859Y4066224D01*
X38413881Y4066226D01*
X38414581Y4066307D01*
X38414590Y4066309D01*
X38414614Y4066311D01*
X38418563Y4066843D01*
X38444563Y4070843D01*
X38452127Y4072291D01*
X38453547Y4072617D01*
X38460973Y4074609D01*
X38469771Y4077318D01*
X38472286Y4078018D01*
X38472818Y4078151D01*
X38480006Y4079947D01*
X38484789Y4081300D01*
X38486179Y4081692D01*
X38486185Y4081695D01*
X38486203Y4081699D01*
X38487368Y4082067D01*
X38493462Y4084199D01*
X38506462Y4089199D01*
X38507640Y4089660D01*
X38507896Y4089762D01*
X38509423Y4090384D01*
X38521423Y4095384D01*
X38522924Y4096023D01*
X38522943Y4096032D01*
X38522980Y4096047D01*
X38523073Y4096089D01*
X38523216Y4096150D01*
X38524794Y4096852D01*
X38535794Y4101852D01*
X38537717Y4102750D01*
X38538051Y4102910D01*
X38539653Y4103694D01*
X38551653Y4109694D01*
X38556384Y4112212D01*
X38557281Y4112719D01*
X38562009Y4115557D01*
X38573009Y4122557D01*
X38575827Y4124414D01*
X38576340Y4124764D01*
X38578934Y4126591D01*
X38589934Y4134591D01*
X38591806Y4135984D01*
X38592171Y4136262D01*
X38594152Y4137809D01*
X38614152Y4153809D01*
X38616516Y4155757D01*
X38616959Y4156133D01*
X38619266Y4158149D01*
X38629266Y4167149D01*
X38633290Y4170967D01*
X38634033Y4171710D01*
X38637851Y4175734D01*
X38646851Y4185734D01*
X38648867Y4188041D01*
X38649243Y4188484D01*
X38651191Y4190848D01*
X38667191Y4210848D01*
X38668738Y4212829D01*
X38669016Y4213194D01*
X38670409Y4215066D01*
X38678409Y4226066D01*
X38680236Y4228660D01*
X38680586Y4229173D01*
X38682443Y4231991D01*
X38689443Y4242991D01*
X38692281Y4247719D01*
X38692788Y4248616D01*
X38695306Y4253347D01*
X38701306Y4265347D01*
X38702090Y4266949D01*
X38702250Y4267283D01*
X38703148Y4269206D01*
X38708148Y4280206D01*
X38708850Y4281784D01*
X38708977Y4282076D01*
X38709616Y4283577D01*
X38714616Y4295577D01*
X38715238Y4297104D01*
X38715340Y4297360D01*
X38715801Y4298538D01*
X38720801Y4311538D01*
X38722933Y4317632D01*
X38723301Y4318797D01*
X38723500Y4319499D01*
X38724769Y4323991D01*
X38725053Y4324994D01*
X38726849Y4332182D01*
X38726982Y4332714D01*
X38727682Y4335229D01*
X38730391Y4344027D01*
X38732383Y4351453D01*
X38732709Y4352873D01*
X38734157Y4360437D01*
X38738157Y4386437D01*
X38738689Y4390386D01*
X38738776Y4391140D01*
X38739160Y4395142D01*
X38740160Y4408142D01*
X38740396Y4412247D01*
X38740425Y4413014D01*
X38740500Y4417000D01*
X38740500Y4943000D01*
X38740425Y4946986D01*
X38740396Y4947753D01*
X38740160Y4951858D01*
X38739160Y4964858D01*
X38738776Y4968860D01*
X38738774Y4968882D01*
X38738693Y4969582D01*
X38738153Y4973589D01*
X38736115Y4986833D01*
X38734157Y4999563D01*
X38732709Y5007127D01*
X38732383Y5008547D01*
X38730391Y5015973D01*
X38727678Y5024787D01*
X38726982Y5027286D01*
X38725053Y5035006D01*
X38723301Y5041203D01*
X38722933Y5042368D01*
X38720801Y5048462D01*
X38715801Y5061462D01*
X38715340Y5062640D01*
X38715303Y5062735D01*
X38715263Y5062832D01*
X38715238Y5062896D01*
X38714616Y5064423D01*
X38709616Y5076423D01*
X38708977Y5077924D01*
X38708850Y5078216D01*
X38708148Y5079794D01*
X38703148Y5090794D01*
X38702250Y5092717D01*
X38702090Y5093051D01*
X38701306Y5094653D01*
X38695306Y5106653D01*
X38692788Y5111384D01*
X38692281Y5112281D01*
X38689443Y5117009D01*
X38682443Y5128009D01*
X38682438Y5128017D01*
X38680615Y5130784D01*
X38680231Y5131347D01*
X38678392Y5133958D01*
X38670412Y5144931D01*
X38669049Y5146762D01*
X38669038Y5146777D01*
X38669016Y5146806D01*
X38668738Y5147171D01*
X38667191Y5149152D01*
X38651191Y5169152D01*
X38649243Y5171516D01*
X38648867Y5171959D01*
X38646851Y5174266D01*
X38641774Y5179907D01*
X38637850Y5184268D01*
X38635650Y5186586D01*
X38634033Y5188290D01*
X38633290Y5189033D01*
X38631716Y5190527D01*
X38629267Y5192851D01*
X38619269Y5201848D01*
X38619266Y5201851D01*
X38616959Y5203867D01*
X38616516Y5204243D01*
X38614152Y5206191D01*
X38614149Y5206194D01*
X38614124Y5206214D01*
X38603607Y5214627D01*
X38594152Y5222191D01*
X38592981Y5223106D01*
X38592206Y5223711D01*
X38591761Y5224050D01*
X38589930Y5225413D01*
X38578957Y5233393D01*
X38576346Y5235232D01*
X38575783Y5235616D01*
X38573016Y5237439D01*
X38562032Y5244429D01*
X38557264Y5247291D01*
X38556392Y5247784D01*
X38551644Y5250311D01*
X38539701Y5256282D01*
X38539653Y5256306D01*
X38538051Y5257090D01*
X38537717Y5257250D01*
X38535794Y5258148D01*
X38535791Y5258150D01*
X38535749Y5258169D01*
X38524793Y5263149D01*
X38523233Y5263843D01*
X38522960Y5263962D01*
X38521404Y5264624D01*
X38509443Y5269608D01*
X38509152Y5269727D01*
X38507896Y5270238D01*
X38507820Y5270269D01*
X38507774Y5270287D01*
X38507682Y5270324D01*
X38506417Y5270819D01*
X38493449Y5275806D01*
X38487393Y5277925D01*
X38487368Y5277933D01*
X38486203Y5278301D01*
X38486189Y5278305D01*
X38480024Y5280049D01*
X38474973Y5281311D01*
X38472294Y5281981D01*
X38469779Y5282682D01*
X38460975Y5285391D01*
X38453538Y5287386D01*
X38452125Y5287710D01*
X38444571Y5289156D01*
X38418588Y5293154D01*
X38414581Y5293694D01*
X38413881Y5293775D01*
X38409884Y5294158D01*
X38407791Y5294319D01*
X38396858Y5295160D01*
X38396850Y5295161D01*
X38396830Y5295162D01*
X38392769Y5295396D01*
X38391949Y5295427D01*
X38388024Y5295500D01*
X38388000Y5295500D01*
X36562000Y5295500D01*
X36561976Y5295500D01*
X36558050Y5295427D01*
X36557230Y5295396D01*
X36553169Y5295162D01*
X36553145Y5295161D01*
X36553142Y5295160D01*
X36546642Y5294660D01*
X36540115Y5294158D01*
X36536118Y5293775D01*
X36535418Y5293694D01*
X36531411Y5293154D01*
X36505428Y5289156D01*
X36497874Y5287710D01*
X36496458Y5287385D01*
X36489026Y5285392D01*
X36480229Y5282685D01*
X36477714Y5281984D01*
X36471551Y5280443D01*
X36469994Y5280053D01*
X36465313Y5278730D01*
X36463789Y5278299D01*
X36462606Y5277925D01*
X36456550Y5275806D01*
X36443582Y5270819D01*
X36442317Y5270324D01*
X36442226Y5270287D01*
X36442178Y5270268D01*
X36442104Y5270238D01*
X36441296Y5269910D01*
X36440556Y5269608D01*
X36428595Y5264624D01*
X36427039Y5263962D01*
X36426766Y5263843D01*
X36425206Y5263149D01*
X36414250Y5258169D01*
X36412232Y5257226D01*
X36412006Y5257118D01*
X36411949Y5257090D01*
X36410347Y5256306D01*
X36410299Y5256282D01*
X36398355Y5250311D01*
X36393607Y5247784D01*
X36392735Y5247291D01*
X36387967Y5244429D01*
X36376983Y5237439D01*
X36374216Y5235616D01*
X36373653Y5235232D01*
X36371042Y5233393D01*
X36360069Y5225413D01*
X36358238Y5224050D01*
X36357794Y5223711D01*
X36355863Y5222203D01*
X36335875Y5206214D01*
X36333500Y5204257D01*
X36333042Y5203868D01*
X36330730Y5201848D01*
X36320732Y5192851D01*
X36316697Y5189021D01*
X36315979Y5188303D01*
X36312149Y5184268D01*
X36303152Y5174270D01*
X36301132Y5171958D01*
X36300743Y5171500D01*
X36298786Y5169125D01*
X36282797Y5149137D01*
X36281300Y5147221D01*
X36280950Y5146762D01*
X36279587Y5144931D01*
X36271607Y5133958D01*
X36269768Y5131347D01*
X36269384Y5130784D01*
X36267561Y5128017D01*
X36260571Y5117033D01*
X36257709Y5112265D01*
X36257216Y5111393D01*
X36254689Y5106645D01*
X36248718Y5094701D01*
X36247882Y5092994D01*
X36247774Y5092768D01*
X36246831Y5090750D01*
X36241851Y5079794D01*
X36241157Y5078234D01*
X36241038Y5077961D01*
X36240376Y5076405D01*
X36235392Y5064444D01*
X36234697Y5062735D01*
X36234181Y5061418D01*
X36229194Y5048450D01*
X36227075Y5042394D01*
X36226701Y5041211D01*
X36226305Y5039810D01*
X36224947Y5035006D01*
X36224943Y5034989D01*
X36223551Y5029429D01*
X36223548Y5029411D01*
X36222701Y5026022D01*
X36219609Y5015973D01*
X36217617Y5008547D01*
X36217291Y5007127D01*
X36215843Y4999563D01*
X36211843Y4973563D01*
X36211311Y4969614D01*
X36211224Y4968860D01*
X36210840Y4964858D01*
X36209840Y4951858D01*
X36209604Y4947753D01*
X36209575Y4946986D01*
X36209500Y4943000D01*
X34040500Y4943000D01*
X34040500Y5179979D01*
X34054852Y5214627D01*
X34089500Y5228979D01*
X34114001Y5222413D01*
X34117709Y5220272D01*
X34117711Y5220271D01*
X34221350Y5192500D01*
X34221352Y5192500D01*
X34328650Y5192500D01*
X34371073Y5203868D01*
X34432289Y5220271D01*
X34435151Y5221923D01*
X34525204Y5273915D01*
X34525203Y5273915D01*
X34525211Y5273919D01*
X34601081Y5349789D01*
X34645774Y5427200D01*
X34654728Y5442709D01*
X34654728Y5442710D01*
X34654729Y5442711D01*
X34679941Y5536803D01*
X34682500Y5546351D01*
X34682500Y5653650D01*
X34666834Y5712114D01*
X34656965Y5748944D01*
X34661859Y5786124D01*
X34691612Y5808955D01*
X34728794Y5804061D01*
X34738943Y5796273D01*
X34752362Y5782854D01*
X34752363Y5782854D01*
X34752365Y5782852D01*
X34853623Y5740909D01*
X34853625Y5740909D01*
X34963221Y5740909D01*
X34963223Y5740909D01*
X35064481Y5782852D01*
X35064483Y5782854D01*
X35064484Y5782854D01*
X35141978Y5860348D01*
X35141978Y5860349D01*
X35141980Y5860351D01*
X35183923Y5961609D01*
X35183923Y6071209D01*
X35141980Y6172467D01*
X35141978Y6172469D01*
X35141978Y6172470D01*
X35064484Y6249964D01*
X35064482Y6249965D01*
X35064481Y6249966D01*
X35052806Y6254802D01*
X37574500Y6254802D01*
X37574500Y6254800D01*
X37574500Y6145200D01*
X37616443Y6043942D01*
X37616444Y6043941D01*
X37616445Y6043939D01*
X37693939Y5966445D01*
X37693940Y5966445D01*
X37693942Y5966443D01*
X37795200Y5924500D01*
X37795202Y5924500D01*
X37904798Y5924500D01*
X37904800Y5924500D01*
X38006058Y5966443D01*
X38006060Y5966445D01*
X38006061Y5966445D01*
X38083555Y6043939D01*
X38083555Y6043940D01*
X38083557Y6043942D01*
X38125500Y6145200D01*
X38125500Y6254800D01*
X38083557Y6356058D01*
X38083555Y6356060D01*
X38083555Y6356061D01*
X38006061Y6433555D01*
X38006059Y6433556D01*
X38006058Y6433557D01*
X37946744Y6458126D01*
X37904801Y6475500D01*
X37904800Y6475500D01*
X37795200Y6475500D01*
X37795198Y6475500D01*
X37693940Y6433556D01*
X37616444Y6356060D01*
X37574500Y6254802D01*
X35052806Y6254802D01*
X35001768Y6275943D01*
X34963224Y6291909D01*
X34963223Y6291909D01*
X34853623Y6291909D01*
X34853621Y6291909D01*
X34752363Y6249965D01*
X34674867Y6172469D01*
X34674866Y6172468D01*
X34674866Y6172467D01*
X34668069Y6156058D01*
X34632923Y6071211D01*
X34632923Y5961608D01*
X34639939Y5944671D01*
X34639939Y5907168D01*
X34613421Y5880649D01*
X34575918Y5880649D01*
X34560021Y5891271D01*
X34525213Y5926079D01*
X34525211Y5926081D01*
X34525208Y5926083D01*
X34525204Y5926086D01*
X34432290Y5979729D01*
X34328650Y6007500D01*
X34328648Y6007500D01*
X34221352Y6007500D01*
X34221350Y6007500D01*
X34117710Y5979729D01*
X34117708Y5979729D01*
X34024795Y5926086D01*
X34024786Y5926079D01*
X33948921Y5850214D01*
X33948914Y5850205D01*
X33895271Y5757292D01*
X33895271Y5757290D01*
X33887169Y5727055D01*
X33864338Y5697302D01*
X33827156Y5692408D01*
X33810143Y5700762D01*
X33789032Y5716847D01*
X33788136Y5717501D01*
X33785501Y5719424D01*
X33785242Y5719605D01*
X33784791Y5719921D01*
X33781008Y5722444D01*
X33737023Y5750435D01*
X33734662Y5751895D01*
X33734254Y5752140D01*
X33733574Y5752536D01*
X33731833Y5753550D01*
X33724843Y5757501D01*
X33708847Y5766543D01*
X33704913Y5768658D01*
X33704910Y5768660D01*
X33704898Y5768666D01*
X33704144Y5769051D01*
X33700124Y5770997D01*
X33676124Y5781997D01*
X33675779Y5782152D01*
X33674288Y5782819D01*
X33674048Y5782924D01*
X33672405Y5783624D01*
X33648416Y5793619D01*
X33646512Y5794390D01*
X33646151Y5794533D01*
X33644588Y5795134D01*
X33620568Y5804142D01*
X33617206Y5805312D01*
X33615813Y5805796D01*
X33615804Y5805799D01*
X33615798Y5805801D01*
X33614892Y5806093D01*
X33610035Y5807526D01*
X33583983Y5814541D01*
X33582741Y5814867D01*
X33582436Y5814945D01*
X33580973Y5815308D01*
X33555980Y5821305D01*
X33555955Y5821311D01*
X33554837Y5821566D01*
X33553518Y5821866D01*
X33553082Y5821960D01*
X33550789Y5822427D01*
X33524803Y5827424D01*
X33520931Y5828093D01*
X33520149Y5828213D01*
X33516249Y5828739D01*
X33490237Y5831740D01*
X33488733Y5831900D01*
X33488397Y5831935D01*
X33488375Y5831938D01*
X33488367Y5831938D01*
X33488058Y5831969D01*
X33485868Y5832160D01*
X33459848Y5834161D01*
X33457780Y5834300D01*
X33457517Y5834315D01*
X33455421Y5834416D01*
X33429428Y5835416D01*
X33425121Y5835493D01*
X33425120Y5835493D01*
X33425119Y5835493D01*
X33424301Y5835492D01*
X33420171Y5835401D01*
X33396218Y5834402D01*
X33393962Y5834284D01*
X33393608Y5834262D01*
X33392597Y5834188D01*
X33391409Y5834101D01*
X33367409Y5832101D01*
X33365419Y5831916D01*
X33365276Y5831902D01*
X33365004Y5831874D01*
X33362685Y5831610D01*
X33338608Y5828600D01*
X33336565Y5828323D01*
X33336540Y5828320D01*
X33336515Y5828316D01*
X33336313Y5828287D01*
X33336061Y5828250D01*
X33333998Y5827928D01*
X33310040Y5823935D01*
X33305303Y5823034D01*
X33304412Y5822844D01*
X33299851Y5821762D01*
X33276840Y5815759D01*
X33274984Y5815256D01*
X33274514Y5815124D01*
X33272413Y5814510D01*
X33249334Y5807485D01*
X33247319Y5806850D01*
X33246851Y5806697D01*
X33245153Y5806122D01*
X33245129Y5806114D01*
X33245056Y5806089D01*
X33232029Y5801559D01*
X33221994Y5798068D01*
X33219357Y5797109D01*
X33218751Y5796879D01*
X33216272Y5795903D01*
X33194281Y5786907D01*
X33192591Y5786199D01*
X33192314Y5786080D01*
X33190161Y5785129D01*
X33168221Y5775156D01*
X33163723Y5772981D01*
X33162888Y5772554D01*
X33158712Y5770292D01*
X33116687Y5746278D01*
X33111558Y5743148D01*
X33110563Y5742502D01*
X33105487Y5738986D01*
X33086549Y5725032D01*
X33084902Y5723796D01*
X33084781Y5723703D01*
X33084745Y5723676D01*
X33084694Y5723636D01*
X33083938Y5723049D01*
X33083380Y5722614D01*
X33045432Y5692654D01*
X33040704Y5688693D01*
X33039809Y5687897D01*
X33035331Y5683675D01*
X33001325Y5649669D01*
X32997103Y5645191D01*
X32996289Y5644277D01*
X32995255Y5643042D01*
X32984797Y5637593D01*
X32976459Y5629254D01*
X32968794Y5629254D01*
X32961997Y5625712D01*
X32950748Y5629254D01*
X32938956Y5629254D01*
X32933535Y5634674D01*
X32926225Y5636976D01*
X32912437Y5655772D01*
X32911577Y5657848D01*
X32892454Y5704016D01*
X32892454Y5741518D01*
X32918972Y5768037D01*
X32928167Y5770826D01*
X32928555Y5770904D01*
X32928560Y5770904D01*
X33029818Y5812847D01*
X33029820Y5812849D01*
X33029821Y5812849D01*
X33107315Y5890343D01*
X33107315Y5890344D01*
X33107317Y5890346D01*
X33149260Y5991604D01*
X33149260Y6101204D01*
X33107317Y6202462D01*
X33107315Y6202464D01*
X33107315Y6202465D01*
X33029821Y6279959D01*
X33029819Y6279960D01*
X33029818Y6279961D01*
X32970504Y6304530D01*
X32928561Y6321904D01*
X32928560Y6321904D01*
X32818960Y6321904D01*
X32818958Y6321904D01*
X32717700Y6279960D01*
X32640204Y6202464D01*
X32640203Y6202463D01*
X32640203Y6202462D01*
X32638539Y6198444D01*
X32598260Y6101206D01*
X32598260Y5991603D01*
X32620104Y5938868D01*
X32620104Y5901365D01*
X32593586Y5874846D01*
X32593089Y5874643D01*
X32586451Y5871978D01*
X32583999Y5871978D01*
X32506905Y5840045D01*
X32506633Y5839935D01*
X32488111Y5840138D01*
X32469626Y5840138D01*
X32469421Y5840343D01*
X32469132Y5840346D01*
X32456176Y5853589D01*
X32443108Y5866657D01*
X32443035Y5867020D01*
X32442905Y5867153D01*
X32442910Y5867651D01*
X32439378Y5885408D01*
X32439378Y5906234D01*
X32439377Y5906238D01*
X32438992Y5907168D01*
X32397435Y6007494D01*
X32397433Y6007496D01*
X32397433Y6007497D01*
X32319939Y6084991D01*
X32319937Y6084992D01*
X32319936Y6084993D01*
X32260622Y6109562D01*
X32218679Y6126936D01*
X32218678Y6126936D01*
X32109078Y6126936D01*
X32109076Y6126936D01*
X32014828Y6087896D01*
X31977325Y6087896D01*
X31950807Y6114413D01*
X31933557Y6156058D01*
X31933556Y6156059D01*
X31933555Y6156061D01*
X31856061Y6233555D01*
X31856059Y6233556D01*
X31856058Y6233557D01*
X31774838Y6267200D01*
X31754801Y6275500D01*
X31754800Y6275500D01*
X31645200Y6275500D01*
X31645198Y6275500D01*
X31543940Y6233556D01*
X31466444Y6156060D01*
X31466443Y6156059D01*
X31466443Y6156058D01*
X31463130Y6148059D01*
X31424500Y6054802D01*
X31424500Y5945199D01*
X31432417Y5926086D01*
X31466443Y5843942D01*
X31466444Y5843941D01*
X31466445Y5843939D01*
X31543939Y5766445D01*
X31543940Y5766445D01*
X31543942Y5766443D01*
X31631978Y5729977D01*
X31658495Y5703459D01*
X31658495Y5665956D01*
X31647874Y5650060D01*
X31605375Y5607561D01*
X31563432Y5506304D01*
X31563432Y5396701D01*
X31592874Y5325623D01*
X31592874Y5288120D01*
X31566356Y5261601D01*
X31557167Y5258813D01*
X31555978Y5258577D01*
X31478675Y5226556D01*
X31456091Y5217201D01*
X31454717Y5216632D01*
X31377221Y5139136D01*
X31377220Y5139135D01*
X31377220Y5139134D01*
X31373992Y5131340D01*
X31335277Y5037878D01*
X30628306Y5037878D01*
X30629672Y5038444D01*
X30629674Y5038446D01*
X30629675Y5038446D01*
X30707169Y5115940D01*
X30707169Y5115941D01*
X30707171Y5115943D01*
X30749114Y5217201D01*
X30749114Y5326801D01*
X30707171Y5428059D01*
X30707169Y5428061D01*
X30707169Y5428062D01*
X30629675Y5505556D01*
X30629673Y5505557D01*
X30629672Y5505558D01*
X30554241Y5536803D01*
X30528415Y5547501D01*
X30528414Y5547501D01*
X30418814Y5547501D01*
X30418812Y5547501D01*
X30344682Y5516794D01*
X30318276Y5505856D01*
X30317554Y5505557D01*
X30240058Y5428061D01*
X30198114Y5326803D01*
X26777527Y5326803D01*
X26787048Y5349787D01*
X26787293Y5350379D01*
X26797486Y5374988D01*
X26819114Y5427201D01*
X26819114Y5536801D01*
X26777171Y5638059D01*
X26777169Y5638061D01*
X26777169Y5638062D01*
X26699675Y5715556D01*
X26699673Y5715557D01*
X26699672Y5715558D01*
X26634598Y5742513D01*
X26598415Y5757501D01*
X26598414Y5757501D01*
X26488814Y5757501D01*
X26488812Y5757501D01*
X26407058Y5723636D01*
X26390729Y5716872D01*
X26387554Y5715557D01*
X26310058Y5638061D01*
X26310057Y5638060D01*
X26310057Y5638059D01*
X26308655Y5634674D01*
X26268114Y5536803D01*
X21992545Y5536803D01*
X21967170Y5598061D01*
X21889675Y5675556D01*
X21889673Y5675557D01*
X21889672Y5675558D01*
X21820972Y5704015D01*
X21788415Y5717501D01*
X21788414Y5717501D01*
X21678814Y5717501D01*
X21678812Y5717501D01*
X21600493Y5685059D01*
X21578257Y5675848D01*
X21577554Y5675557D01*
X21500058Y5598061D01*
X21458114Y5496803D01*
X21009113Y5496803D01*
X20967171Y5598059D01*
X20967169Y5598061D01*
X20967169Y5598062D01*
X20889675Y5675556D01*
X20889673Y5675557D01*
X20889672Y5675558D01*
X20820972Y5704015D01*
X20788415Y5717501D01*
X20788414Y5717501D01*
X20678814Y5717501D01*
X20678812Y5717501D01*
X20600493Y5685059D01*
X20578257Y5675848D01*
X20577554Y5675557D01*
X20500058Y5598061D01*
X20458114Y5496803D01*
X20009113Y5496803D01*
X19967171Y5598059D01*
X19967169Y5598061D01*
X19967169Y5598062D01*
X19889675Y5675556D01*
X19889673Y5675557D01*
X19889672Y5675558D01*
X19820972Y5704015D01*
X19788415Y5717501D01*
X19788414Y5717501D01*
X19678814Y5717501D01*
X19678812Y5717501D01*
X19600493Y5685059D01*
X19578257Y5675848D01*
X19577554Y5675557D01*
X19500058Y5598061D01*
X19458114Y5496803D01*
X15199113Y5496803D01*
X15157171Y5598059D01*
X15157169Y5598061D01*
X15157169Y5598062D01*
X15079675Y5675556D01*
X15079673Y5675557D01*
X15079672Y5675558D01*
X15010972Y5704015D01*
X14978415Y5717501D01*
X14978414Y5717501D01*
X14868814Y5717501D01*
X14868812Y5717501D01*
X14790493Y5685059D01*
X14768257Y5675848D01*
X14767554Y5675557D01*
X14690058Y5598061D01*
X14648114Y5496803D01*
X5899348Y5496803D01*
X5857237Y5569741D01*
X5837115Y5604593D01*
X5729593Y5712115D01*
X5721996Y5716501D01*
X5597909Y5788144D01*
X5597905Y5788145D01*
X5451032Y5827500D01*
X5451029Y5827500D01*
X5298971Y5827500D01*
X5298968Y5827500D01*
X5152094Y5788145D01*
X5152090Y5788144D01*
X5020406Y5712115D01*
X5020406Y5712114D01*
X4912886Y5604594D01*
X4912885Y5604594D01*
X4836856Y5472910D01*
X4836855Y5472906D01*
X4797500Y5326033D01*
X3813583Y5326033D01*
X3756061Y5383555D01*
X3756059Y5383556D01*
X3756058Y5383557D01*
X3692082Y5410057D01*
X3654801Y5425500D01*
X3654800Y5425500D01*
X3545200Y5425500D01*
X3545198Y5425500D01*
X3443940Y5383556D01*
X3366444Y5306060D01*
X3366443Y5306059D01*
X3366443Y5306058D01*
X3361579Y5294315D01*
X3324500Y5204802D01*
X127500Y5204802D01*
X127500Y6054802D01*
X6274500Y6054802D01*
X6274500Y5945199D01*
X6282417Y5926086D01*
X6316443Y5843942D01*
X6316444Y5843941D01*
X6316445Y5843939D01*
X6393939Y5766445D01*
X6393940Y5766445D01*
X6393942Y5766443D01*
X6495200Y5724500D01*
X6495202Y5724500D01*
X6604798Y5724500D01*
X6604800Y5724500D01*
X6706058Y5766443D01*
X6706060Y5766445D01*
X6706061Y5766445D01*
X6783555Y5843939D01*
X6783555Y5843940D01*
X6783557Y5843942D01*
X6825500Y5945200D01*
X6825500Y6054800D01*
X6825499Y6054802D01*
X9124500Y6054802D01*
X9124500Y5945199D01*
X9132417Y5926086D01*
X9166443Y5843942D01*
X9166444Y5843941D01*
X9166445Y5843939D01*
X9243939Y5766445D01*
X9243940Y5766445D01*
X9243942Y5766443D01*
X9345200Y5724500D01*
X9345202Y5724500D01*
X9454798Y5724500D01*
X9454800Y5724500D01*
X9556058Y5766443D01*
X9556060Y5766445D01*
X9556061Y5766445D01*
X9633555Y5843939D01*
X9633555Y5843940D01*
X9633557Y5843942D01*
X9675500Y5945200D01*
X9675500Y6046803D01*
X10258114Y6046803D01*
X10258114Y5937200D01*
X10263375Y5924500D01*
X10300057Y5835943D01*
X10300058Y5835942D01*
X10300059Y5835940D01*
X10377553Y5758446D01*
X10377554Y5758446D01*
X10377556Y5758444D01*
X10478814Y5716501D01*
X10478816Y5716501D01*
X10588412Y5716501D01*
X10588414Y5716501D01*
X10689672Y5758444D01*
X10689674Y5758446D01*
X10689675Y5758446D01*
X10767169Y5835940D01*
X10767169Y5835941D01*
X10767171Y5835943D01*
X10809114Y5937201D01*
X10809114Y6046801D01*
X10767171Y6148059D01*
X10767169Y6148061D01*
X10767169Y6148062D01*
X10689675Y6225556D01*
X10689673Y6225557D01*
X10689672Y6225558D01*
X10630358Y6250127D01*
X10588415Y6267501D01*
X10588414Y6267501D01*
X10478814Y6267501D01*
X10478812Y6267501D01*
X10377554Y6225557D01*
X10300058Y6148061D01*
X10258114Y6046803D01*
X9675500Y6046803D01*
X9675500Y6054800D01*
X9633557Y6156058D01*
X9633555Y6156060D01*
X9633555Y6156061D01*
X9556061Y6233555D01*
X9556059Y6233556D01*
X9556058Y6233557D01*
X9474838Y6267200D01*
X9454801Y6275500D01*
X9454800Y6275500D01*
X9345200Y6275500D01*
X9345198Y6275500D01*
X9243940Y6233556D01*
X9166444Y6156060D01*
X9166443Y6156059D01*
X9166443Y6156058D01*
X9163130Y6148059D01*
X9124500Y6054802D01*
X6825499Y6054802D01*
X6783557Y6156058D01*
X6783555Y6156060D01*
X6783555Y6156061D01*
X6706061Y6233555D01*
X6706059Y6233556D01*
X6706058Y6233557D01*
X6624838Y6267200D01*
X6604801Y6275500D01*
X6604800Y6275500D01*
X6495200Y6275500D01*
X6495198Y6275500D01*
X6393940Y6233556D01*
X6316444Y6156060D01*
X6316443Y6156059D01*
X6316443Y6156058D01*
X6313130Y6148059D01*
X6274500Y6054802D01*
X127500Y6054802D01*
X127500Y6376803D01*
X12808114Y6376803D01*
X12808114Y6267200D01*
X12815253Y6249966D01*
X12850057Y6165943D01*
X12850058Y6165942D01*
X12850059Y6165940D01*
X12927553Y6088446D01*
X12927554Y6088446D01*
X12927556Y6088444D01*
X13028814Y6046501D01*
X13028816Y6046501D01*
X13138412Y6046501D01*
X13138414Y6046501D01*
X13239672Y6088444D01*
X13239674Y6088446D01*
X13239675Y6088446D01*
X13317169Y6165940D01*
X13317169Y6165941D01*
X13317171Y6165943D01*
X13359114Y6267201D01*
X13359114Y6376801D01*
X13317171Y6478059D01*
X13317169Y6478061D01*
X13317169Y6478062D01*
X13298428Y6496803D01*
X19458114Y6496803D01*
X19458114Y6387200D01*
X19471013Y6356061D01*
X19500057Y6285943D01*
X19500058Y6285942D01*
X19500059Y6285940D01*
X19577553Y6208446D01*
X19577554Y6208446D01*
X19577556Y6208444D01*
X19678814Y6166501D01*
X19678816Y6166501D01*
X19788412Y6166501D01*
X19788414Y6166501D01*
X19889672Y6208444D01*
X19889674Y6208446D01*
X19889675Y6208446D01*
X19967169Y6285940D01*
X19967169Y6285941D01*
X19967171Y6285943D01*
X20009114Y6387201D01*
X20009114Y6496801D01*
X20009113Y6496803D01*
X20458114Y6496803D01*
X20458114Y6387200D01*
X20471013Y6356061D01*
X20500057Y6285943D01*
X20500058Y6285942D01*
X20500059Y6285940D01*
X20577553Y6208446D01*
X20577554Y6208446D01*
X20577556Y6208444D01*
X20678814Y6166501D01*
X20678816Y6166501D01*
X20788412Y6166501D01*
X20788414Y6166501D01*
X20889672Y6208444D01*
X20889674Y6208446D01*
X20889675Y6208446D01*
X20967169Y6285940D01*
X20967169Y6285941D01*
X20967171Y6285943D01*
X21009114Y6387201D01*
X21009114Y6496801D01*
X21009113Y6496803D01*
X21458114Y6496803D01*
X21458114Y6387200D01*
X21471013Y6356061D01*
X21500057Y6285943D01*
X21500058Y6285942D01*
X21500059Y6285940D01*
X21577553Y6208446D01*
X21577554Y6208446D01*
X21577556Y6208444D01*
X21678814Y6166501D01*
X21678816Y6166501D01*
X21788412Y6166501D01*
X21788414Y6166501D01*
X21889672Y6208444D01*
X21889674Y6208446D01*
X21889675Y6208446D01*
X21967169Y6285940D01*
X21967169Y6285941D01*
X21967171Y6285943D01*
X22009114Y6387201D01*
X22009114Y6486803D01*
X28188114Y6486803D01*
X28188114Y6377200D01*
X28196871Y6356060D01*
X28230057Y6275943D01*
X28230058Y6275942D01*
X28230059Y6275940D01*
X28307553Y6198446D01*
X28307554Y6198446D01*
X28307556Y6198444D01*
X28408814Y6156501D01*
X28408816Y6156501D01*
X28518412Y6156501D01*
X28518414Y6156501D01*
X28619672Y6198444D01*
X28619674Y6198446D01*
X28619675Y6198446D01*
X28697169Y6275940D01*
X28697169Y6275941D01*
X28697171Y6275943D01*
X28739114Y6377201D01*
X28739114Y6486801D01*
X28697171Y6588059D01*
X28697169Y6588061D01*
X28697169Y6588062D01*
X28619675Y6665556D01*
X28619673Y6665557D01*
X28619672Y6665558D01*
X28560358Y6690127D01*
X28518415Y6707501D01*
X28518414Y6707501D01*
X28408814Y6707501D01*
X28408812Y6707501D01*
X28331698Y6675558D01*
X28309698Y6666445D01*
X28307554Y6665557D01*
X28230058Y6588061D01*
X28188114Y6486803D01*
X22009114Y6486803D01*
X22009114Y6496801D01*
X21967171Y6598059D01*
X21967169Y6598061D01*
X21967169Y6598062D01*
X21889675Y6675556D01*
X21889673Y6675557D01*
X21889672Y6675558D01*
X21812556Y6707501D01*
X21788415Y6717501D01*
X21788414Y6717501D01*
X21678814Y6717501D01*
X21678812Y6717501D01*
X21577554Y6675557D01*
X21500058Y6598061D01*
X21458114Y6496803D01*
X21009113Y6496803D01*
X20967171Y6598059D01*
X20967169Y6598061D01*
X20967169Y6598062D01*
X20889675Y6675556D01*
X20889673Y6675557D01*
X20889672Y6675558D01*
X20812556Y6707501D01*
X20788415Y6717501D01*
X20788414Y6717501D01*
X20678814Y6717501D01*
X20678812Y6717501D01*
X20577554Y6675557D01*
X20500058Y6598061D01*
X20458114Y6496803D01*
X20009113Y6496803D01*
X19967171Y6598059D01*
X19967169Y6598061D01*
X19967169Y6598062D01*
X19889675Y6675556D01*
X19889673Y6675557D01*
X19889672Y6675558D01*
X19812556Y6707501D01*
X19788415Y6717501D01*
X19788414Y6717501D01*
X19678814Y6717501D01*
X19678812Y6717501D01*
X19577554Y6675557D01*
X19500058Y6598061D01*
X19458114Y6496803D01*
X13298428Y6496803D01*
X13239675Y6555556D01*
X13239673Y6555557D01*
X13239672Y6555558D01*
X13161204Y6588061D01*
X13138415Y6597501D01*
X13138414Y6597501D01*
X13028814Y6597501D01*
X13028812Y6597501D01*
X12927554Y6555557D01*
X12850058Y6478061D01*
X12850057Y6478060D01*
X12850057Y6478059D01*
X12849924Y6477737D01*
X12808114Y6376803D01*
X127500Y6376803D01*
X127500Y6954802D01*
X1324500Y6954802D01*
X1324500Y6954800D01*
X1324500Y6845200D01*
X1366443Y6743942D01*
X1366444Y6743941D01*
X1366445Y6743939D01*
X1443939Y6666445D01*
X1443940Y6666445D01*
X1443942Y6666443D01*
X1545200Y6624500D01*
X1545202Y6624500D01*
X1654798Y6624500D01*
X1654800Y6624500D01*
X1756058Y6666443D01*
X1756060Y6666445D01*
X1756061Y6666445D01*
X1833555Y6743939D01*
X1833555Y6743940D01*
X1833557Y6743942D01*
X1842734Y6766096D01*
X35212827Y6766096D01*
X35212827Y6656493D01*
X35230201Y6614550D01*
X35254770Y6555236D01*
X35254771Y6555235D01*
X35254772Y6555233D01*
X35332266Y6477739D01*
X35332267Y6477739D01*
X35332269Y6477737D01*
X35433527Y6435794D01*
X35433529Y6435794D01*
X35543125Y6435794D01*
X35543127Y6435794D01*
X35644385Y6477737D01*
X35644387Y6477739D01*
X35644388Y6477739D01*
X35721882Y6555233D01*
X35721882Y6555234D01*
X35721884Y6555236D01*
X35763827Y6656494D01*
X35763827Y6766094D01*
X35721884Y6867352D01*
X35721882Y6867354D01*
X35721882Y6867355D01*
X35644388Y6944849D01*
X35644386Y6944850D01*
X35644385Y6944851D01*
X35585071Y6969420D01*
X35543128Y6986794D01*
X35543127Y6986794D01*
X35433527Y6986794D01*
X35433525Y6986794D01*
X35332267Y6944850D01*
X35254771Y6867354D01*
X35212827Y6766096D01*
X1842734Y6766096D01*
X1875500Y6845200D01*
X1875500Y6954800D01*
X1833557Y7056058D01*
X1833555Y7056060D01*
X1833555Y7056061D01*
X1784814Y7104802D01*
X4724500Y7104802D01*
X4724500Y6995199D01*
X4736411Y6966445D01*
X4766443Y6893942D01*
X4766444Y6893941D01*
X4766445Y6893939D01*
X4843939Y6816445D01*
X4843940Y6816445D01*
X4843942Y6816443D01*
X4945200Y6774500D01*
X4945202Y6774500D01*
X5054798Y6774500D01*
X5054800Y6774500D01*
X5156058Y6816443D01*
X5156059Y6816445D01*
X5156061Y6816445D01*
X5233555Y6893939D01*
X5233555Y6893940D01*
X5233557Y6893942D01*
X5275500Y6995200D01*
X5275500Y7104800D01*
X5233557Y7206058D01*
X5233555Y7206060D01*
X5233555Y7206061D01*
X5184814Y7254802D01*
X6274500Y7254802D01*
X6274500Y7145199D01*
X6291234Y7104802D01*
X6316443Y7043942D01*
X6316444Y7043941D01*
X6316445Y7043939D01*
X6393939Y6966445D01*
X6393940Y6966445D01*
X6393942Y6966443D01*
X6495200Y6924500D01*
X6495202Y6924500D01*
X6604798Y6924500D01*
X6604800Y6924500D01*
X6706058Y6966443D01*
X6706060Y6966445D01*
X6706061Y6966445D01*
X6783555Y7043939D01*
X6783555Y7043940D01*
X6783557Y7043942D01*
X6825500Y7145200D01*
X6825500Y7254800D01*
X6783557Y7356058D01*
X6783555Y7356060D01*
X6783555Y7356061D01*
X6706061Y7433555D01*
X6706059Y7433556D01*
X6706058Y7433557D01*
X6646744Y7458126D01*
X6604801Y7475500D01*
X6604800Y7475500D01*
X6495200Y7475500D01*
X6495198Y7475500D01*
X6393940Y7433556D01*
X6316444Y7356060D01*
X6274500Y7254802D01*
X5184814Y7254802D01*
X5156061Y7283555D01*
X5156059Y7283556D01*
X5156058Y7283557D01*
X5096744Y7308126D01*
X5054801Y7325500D01*
X5054800Y7325500D01*
X4945200Y7325500D01*
X4945198Y7325500D01*
X4861312Y7290752D01*
X4849703Y7285943D01*
X4843940Y7283556D01*
X4766444Y7206060D01*
X4724500Y7104802D01*
X1784814Y7104802D01*
X1756061Y7133555D01*
X1756059Y7133556D01*
X1756058Y7133557D01*
X1696744Y7158126D01*
X1654801Y7175500D01*
X1654800Y7175500D01*
X1545200Y7175500D01*
X1545198Y7175500D01*
X1443940Y7133556D01*
X1366444Y7056060D01*
X1366443Y7056059D01*
X1366443Y7056058D01*
X1366395Y7055942D01*
X1324500Y6954802D01*
X127500Y6954802D01*
X127500Y7546803D01*
X10258114Y7546803D01*
X10258114Y7437200D01*
X10259624Y7433555D01*
X10300057Y7335943D01*
X10300058Y7335942D01*
X10300059Y7335940D01*
X10377553Y7258446D01*
X10377554Y7258446D01*
X10377556Y7258444D01*
X10478814Y7216501D01*
X10478816Y7216501D01*
X10588412Y7216501D01*
X10588414Y7216501D01*
X10689672Y7258444D01*
X10689674Y7258446D01*
X10689675Y7258446D01*
X10698032Y7266803D01*
X14638114Y7266803D01*
X14638114Y7157200D01*
X14655488Y7115257D01*
X14680057Y7055943D01*
X14680058Y7055942D01*
X14680059Y7055940D01*
X14757553Y6978446D01*
X14757554Y6978446D01*
X14757556Y6978444D01*
X14858814Y6936501D01*
X14858816Y6936501D01*
X14968412Y6936501D01*
X14968414Y6936501D01*
X15069672Y6978444D01*
X15069674Y6978446D01*
X15069675Y6978446D01*
X15147169Y7055940D01*
X15147169Y7055941D01*
X15147171Y7055943D01*
X15189114Y7157201D01*
X15189114Y7266801D01*
X15147171Y7368059D01*
X15147169Y7368061D01*
X15147169Y7368062D01*
X15069673Y7445558D01*
X15043601Y7456357D01*
X14968415Y7487501D01*
X14968414Y7487501D01*
X14858814Y7487501D01*
X14858812Y7487501D01*
X14757554Y7445557D01*
X14680058Y7368061D01*
X14638114Y7266803D01*
X10698032Y7266803D01*
X10767169Y7335940D01*
X10767169Y7335941D01*
X10767171Y7335943D01*
X10809114Y7437201D01*
X10809114Y7496803D01*
X19458114Y7496803D01*
X19458114Y7387200D01*
X19466042Y7368062D01*
X19500057Y7285943D01*
X19500058Y7285942D01*
X19500059Y7285940D01*
X19577553Y7208446D01*
X19577554Y7208446D01*
X19577556Y7208444D01*
X19678814Y7166501D01*
X19678816Y7166501D01*
X19788412Y7166501D01*
X19788414Y7166501D01*
X19889672Y7208444D01*
X19889674Y7208446D01*
X19889675Y7208446D01*
X19967169Y7285940D01*
X19967169Y7285941D01*
X19967171Y7285943D01*
X20009114Y7387201D01*
X20009114Y7496801D01*
X20009113Y7496803D01*
X20458114Y7496803D01*
X20458114Y7387200D01*
X20466042Y7368062D01*
X20500057Y7285943D01*
X20500058Y7285942D01*
X20500059Y7285940D01*
X20577553Y7208446D01*
X20577554Y7208446D01*
X20577556Y7208444D01*
X20678814Y7166501D01*
X20678816Y7166501D01*
X20788412Y7166501D01*
X20788414Y7166501D01*
X20889672Y7208444D01*
X20889674Y7208446D01*
X20889675Y7208446D01*
X20967169Y7285940D01*
X20967169Y7285941D01*
X20967171Y7285943D01*
X21009114Y7387201D01*
X21009114Y7496801D01*
X21009113Y7496803D01*
X21458114Y7496803D01*
X21458114Y7387200D01*
X21466042Y7368062D01*
X21500057Y7285943D01*
X21500058Y7285942D01*
X21500059Y7285940D01*
X21577553Y7208446D01*
X21577554Y7208446D01*
X21577556Y7208444D01*
X21678814Y7166501D01*
X21678816Y7166501D01*
X21788412Y7166501D01*
X21788414Y7166501D01*
X21889672Y7208444D01*
X21889674Y7208446D01*
X21889675Y7208446D01*
X21967169Y7285940D01*
X21967169Y7285941D01*
X21967171Y7285943D01*
X22008949Y7386803D01*
X26268114Y7386803D01*
X26268114Y7277200D01*
X26277392Y7254802D01*
X26310057Y7175943D01*
X26310058Y7175942D01*
X26310059Y7175940D01*
X26387553Y7098446D01*
X26387554Y7098446D01*
X26387556Y7098444D01*
X26488814Y7056501D01*
X26488816Y7056501D01*
X26598412Y7056501D01*
X26598414Y7056501D01*
X26699672Y7098444D01*
X26699674Y7098446D01*
X26699675Y7098446D01*
X26777169Y7175940D01*
X26777169Y7175941D01*
X26777171Y7175943D01*
X26819114Y7277201D01*
X26819114Y7386801D01*
X26777171Y7488059D01*
X26777169Y7488061D01*
X26777169Y7488062D01*
X26699675Y7565556D01*
X26699673Y7565557D01*
X26699672Y7565558D01*
X26621204Y7598061D01*
X26598415Y7607501D01*
X26598414Y7607501D01*
X26488814Y7607501D01*
X26488812Y7607501D01*
X26387554Y7565557D01*
X26310058Y7488061D01*
X26268114Y7386803D01*
X22008949Y7386803D01*
X22009114Y7387201D01*
X22009114Y7496801D01*
X21967171Y7598059D01*
X21967169Y7598061D01*
X21967169Y7598062D01*
X21889675Y7675556D01*
X21889673Y7675557D01*
X21889672Y7675558D01*
X21830358Y7700127D01*
X21788415Y7717501D01*
X21788414Y7717501D01*
X21678814Y7717501D01*
X21678812Y7717501D01*
X21577554Y7675557D01*
X21500058Y7598061D01*
X21458114Y7496803D01*
X21009113Y7496803D01*
X20967171Y7598059D01*
X20967169Y7598061D01*
X20967169Y7598062D01*
X20889675Y7675556D01*
X20889673Y7675557D01*
X20889672Y7675558D01*
X20830358Y7700127D01*
X20788415Y7717501D01*
X20788414Y7717501D01*
X20678814Y7717501D01*
X20678812Y7717501D01*
X20577554Y7675557D01*
X20500058Y7598061D01*
X20458114Y7496803D01*
X20009113Y7496803D01*
X19967171Y7598059D01*
X19967169Y7598061D01*
X19967169Y7598062D01*
X19889675Y7675556D01*
X19889673Y7675557D01*
X19889672Y7675558D01*
X19830358Y7700127D01*
X19788415Y7717501D01*
X19788414Y7717501D01*
X19678814Y7717501D01*
X19678812Y7717501D01*
X19577554Y7675557D01*
X19500058Y7598061D01*
X19458114Y7496803D01*
X10809114Y7496803D01*
X10809114Y7546801D01*
X10767171Y7648059D01*
X10767169Y7648061D01*
X10767169Y7648062D01*
X10689675Y7725556D01*
X10689673Y7725557D01*
X10689672Y7725558D01*
X10630358Y7750127D01*
X10588415Y7767501D01*
X10588414Y7767501D01*
X10478814Y7767501D01*
X10478812Y7767501D01*
X10377554Y7725557D01*
X10300058Y7648061D01*
X10258114Y7546803D01*
X127500Y7546803D01*
X127500Y8454802D01*
X6274500Y8454802D01*
X6274500Y8454800D01*
X6274500Y8345200D01*
X6316443Y8243942D01*
X6316444Y8243941D01*
X6316445Y8243939D01*
X6393939Y8166445D01*
X6393940Y8166445D01*
X6393942Y8166443D01*
X6495200Y8124500D01*
X6495202Y8124500D01*
X6604798Y8124500D01*
X6604800Y8124500D01*
X6706058Y8166443D01*
X6706060Y8166445D01*
X6706061Y8166445D01*
X6726419Y8186803D01*
X12768114Y8186803D01*
X12768114Y8186801D01*
X12768114Y8077201D01*
X12810057Y7975943D01*
X12810058Y7975942D01*
X12810059Y7975940D01*
X12887553Y7898446D01*
X12887554Y7898446D01*
X12887556Y7898444D01*
X12988814Y7856501D01*
X12988816Y7856501D01*
X13098412Y7856501D01*
X13098414Y7856501D01*
X13199672Y7898444D01*
X13199674Y7898446D01*
X13199675Y7898446D01*
X13277169Y7975940D01*
X13277169Y7975941D01*
X13277171Y7975943D01*
X13319114Y8077201D01*
X13319114Y8186801D01*
X13277171Y8288059D01*
X13277169Y8288061D01*
X13277169Y8288062D01*
X13258428Y8306803D01*
X28208114Y8306803D01*
X28208114Y8197200D01*
X28225488Y8155257D01*
X28250057Y8095943D01*
X28250058Y8095942D01*
X28250059Y8095940D01*
X28327553Y8018446D01*
X28327554Y8018446D01*
X28327556Y8018444D01*
X28428814Y7976501D01*
X28428816Y7976501D01*
X28538412Y7976501D01*
X28538414Y7976501D01*
X28639672Y8018444D01*
X28639674Y8018446D01*
X28639675Y8018446D01*
X28717169Y8095940D01*
X28717169Y8095941D01*
X28717171Y8095943D01*
X28759114Y8197201D01*
X28759114Y8306801D01*
X28717171Y8408059D01*
X28717169Y8408061D01*
X28717169Y8408062D01*
X28696585Y8428646D01*
X31292606Y8428646D01*
X31292606Y8319043D01*
X31309980Y8277100D01*
X31334549Y8217786D01*
X31334550Y8217785D01*
X31334551Y8217783D01*
X31412045Y8140289D01*
X31412046Y8140289D01*
X31412048Y8140287D01*
X31513306Y8098344D01*
X31513308Y8098344D01*
X31622904Y8098344D01*
X31622906Y8098344D01*
X31724164Y8140287D01*
X31724166Y8140289D01*
X31724167Y8140289D01*
X31801661Y8217783D01*
X31801661Y8217784D01*
X31801663Y8217786D01*
X31843606Y8319044D01*
X31843606Y8350889D01*
X32663396Y8350889D01*
X32663396Y8241286D01*
X32673131Y8217785D01*
X32705339Y8140029D01*
X32705340Y8140028D01*
X32705341Y8140026D01*
X32782835Y8062532D01*
X32782836Y8062532D01*
X32782838Y8062530D01*
X32884096Y8020587D01*
X32884098Y8020587D01*
X32993694Y8020587D01*
X32993696Y8020587D01*
X33094954Y8062530D01*
X33094956Y8062532D01*
X33094957Y8062532D01*
X33172451Y8140026D01*
X33172451Y8140027D01*
X33172453Y8140029D01*
X33214396Y8241287D01*
X33214396Y8350887D01*
X33172453Y8452145D01*
X33172451Y8452147D01*
X33172451Y8452148D01*
X33094957Y8529642D01*
X33094955Y8529643D01*
X33094954Y8529644D01*
X33031179Y8556061D01*
X32993697Y8571587D01*
X32993696Y8571587D01*
X32884096Y8571587D01*
X32884094Y8571587D01*
X32800208Y8536839D01*
X32783469Y8529905D01*
X32782836Y8529643D01*
X32705340Y8452147D01*
X32663396Y8350889D01*
X31843606Y8350889D01*
X31843606Y8428644D01*
X31801663Y8529902D01*
X31801661Y8529904D01*
X31801661Y8529905D01*
X31724167Y8607399D01*
X31724165Y8607400D01*
X31724164Y8607401D01*
X31661019Y8633557D01*
X31622907Y8649344D01*
X31622906Y8649344D01*
X31513306Y8649344D01*
X31513304Y8649344D01*
X31412046Y8607400D01*
X31334550Y8529904D01*
X31334549Y8529903D01*
X31334549Y8529902D01*
X31327354Y8512532D01*
X31292606Y8428646D01*
X28696585Y8428646D01*
X28639675Y8485556D01*
X28639673Y8485557D01*
X28639672Y8485558D01*
X28580358Y8510127D01*
X28538415Y8527501D01*
X28538414Y8527501D01*
X28428814Y8527501D01*
X28428812Y8527501D01*
X28327554Y8485557D01*
X28250058Y8408061D01*
X28208114Y8306803D01*
X13258428Y8306803D01*
X13199675Y8365556D01*
X13199673Y8365557D01*
X13199672Y8365558D01*
X13140358Y8390127D01*
X13098415Y8407501D01*
X13098414Y8407501D01*
X12988814Y8407501D01*
X12988812Y8407501D01*
X12887554Y8365557D01*
X12810058Y8288061D01*
X12768114Y8186803D01*
X6726419Y8186803D01*
X6783555Y8243939D01*
X6783555Y8243940D01*
X6783557Y8243942D01*
X6825500Y8345200D01*
X6825500Y8454800D01*
X6783557Y8556058D01*
X6783555Y8556060D01*
X6783555Y8556061D01*
X6706061Y8633555D01*
X6706059Y8633556D01*
X6706058Y8633557D01*
X6646744Y8658126D01*
X6604801Y8675500D01*
X6604800Y8675500D01*
X6495200Y8675500D01*
X6495198Y8675500D01*
X6393940Y8633556D01*
X6316444Y8556060D01*
X6274500Y8454802D01*
X127500Y8454802D01*
X127500Y9154802D01*
X3274500Y9154802D01*
X3274500Y9154800D01*
X3274500Y9045200D01*
X3316443Y8943942D01*
X3316444Y8943941D01*
X3316445Y8943939D01*
X3393939Y8866445D01*
X3393940Y8866445D01*
X3393942Y8866443D01*
X3495200Y8824500D01*
X3495202Y8824500D01*
X3604798Y8824500D01*
X3604800Y8824500D01*
X3706058Y8866443D01*
X3706060Y8866445D01*
X3706061Y8866445D01*
X3783555Y8943939D01*
X3783555Y8943940D01*
X3783557Y8943942D01*
X3825500Y9045200D01*
X3825500Y9054802D01*
X9124500Y9054802D01*
X9124500Y8945199D01*
X9141874Y8903256D01*
X9166443Y8843942D01*
X9166444Y8843941D01*
X9166445Y8843939D01*
X9243939Y8766445D01*
X9243940Y8766445D01*
X9243942Y8766443D01*
X9345200Y8724500D01*
X9345202Y8724500D01*
X9454798Y8724500D01*
X9454800Y8724500D01*
X9556058Y8766443D01*
X9556060Y8766445D01*
X9556061Y8766445D01*
X9633555Y8843939D01*
X9633555Y8843940D01*
X9633557Y8843942D01*
X9675500Y8945200D01*
X9675500Y9046803D01*
X10258114Y9046803D01*
X10258114Y9046801D01*
X10258114Y8937201D01*
X10300057Y8835943D01*
X10300058Y8835942D01*
X10300059Y8835940D01*
X10377553Y8758446D01*
X10377554Y8758446D01*
X10377556Y8758444D01*
X10478814Y8716501D01*
X10478816Y8716501D01*
X10588412Y8716501D01*
X10588414Y8716501D01*
X10689672Y8758444D01*
X10689674Y8758446D01*
X10689675Y8758446D01*
X10767169Y8835940D01*
X10767169Y8835941D01*
X10767171Y8835943D01*
X10809114Y8937201D01*
X10809114Y9046801D01*
X10788402Y9096803D01*
X14638114Y9096803D01*
X14638114Y9096801D01*
X14638114Y8987201D01*
X14680057Y8885943D01*
X14680058Y8885942D01*
X14680059Y8885940D01*
X14757553Y8808446D01*
X14757554Y8808446D01*
X14757556Y8808444D01*
X14858814Y8766501D01*
X14858816Y8766501D01*
X14968412Y8766501D01*
X14968414Y8766501D01*
X15069672Y8808444D01*
X15069674Y8808446D01*
X15069675Y8808446D01*
X15147169Y8885940D01*
X15147169Y8885941D01*
X15147171Y8885943D01*
X15189114Y8987201D01*
X15189114Y9096801D01*
X15164260Y9156803D01*
X26278114Y9156803D01*
X26278114Y9047200D01*
X26278943Y9045199D01*
X26320057Y8945943D01*
X26320058Y8945942D01*
X26320059Y8945940D01*
X26397553Y8868446D01*
X26397554Y8868446D01*
X26397556Y8868444D01*
X26498814Y8826501D01*
X26498816Y8826501D01*
X26608412Y8826501D01*
X26608414Y8826501D01*
X26709672Y8868444D01*
X26709674Y8868446D01*
X26709675Y8868446D01*
X26787169Y8945940D01*
X26787169Y8945941D01*
X26787171Y8945943D01*
X26829114Y9047201D01*
X26829114Y9156801D01*
X26787171Y9258059D01*
X26787169Y9258061D01*
X26787169Y9258062D01*
X26748428Y9296803D01*
X30238114Y9296803D01*
X30238114Y9296801D01*
X30238114Y9187201D01*
X30280057Y9085943D01*
X30280058Y9085942D01*
X30280059Y9085940D01*
X30357553Y9008446D01*
X30357554Y9008446D01*
X30357556Y9008444D01*
X30458814Y8966501D01*
X30458816Y8966501D01*
X30568412Y8966501D01*
X30568414Y8966501D01*
X30669672Y9008444D01*
X30669674Y9008446D01*
X30669675Y9008446D01*
X30747169Y9085940D01*
X30747169Y9085941D01*
X30747171Y9085943D01*
X30789114Y9187201D01*
X30789114Y9296801D01*
X30747171Y9398059D01*
X30747169Y9398061D01*
X30747169Y9398062D01*
X30669675Y9475556D01*
X30669673Y9475557D01*
X30669672Y9475558D01*
X30598176Y9505173D01*
X30568415Y9517501D01*
X30568414Y9517501D01*
X30458814Y9517501D01*
X30458812Y9517501D01*
X30357554Y9475557D01*
X30280058Y9398061D01*
X30238114Y9296803D01*
X26748428Y9296803D01*
X26709675Y9335556D01*
X26709673Y9335557D01*
X26709672Y9335558D01*
X26635110Y9366443D01*
X26608415Y9377501D01*
X26608414Y9377501D01*
X26498814Y9377501D01*
X26498812Y9377501D01*
X26397554Y9335557D01*
X26320058Y9258061D01*
X26320057Y9258060D01*
X26320057Y9258059D01*
X26319229Y9256060D01*
X26278114Y9156803D01*
X15164260Y9156803D01*
X15147171Y9198059D01*
X15147169Y9198061D01*
X15147169Y9198062D01*
X15069675Y9275556D01*
X15069673Y9275557D01*
X15069672Y9275558D01*
X15010358Y9300127D01*
X14968415Y9317501D01*
X14968414Y9317501D01*
X14858814Y9317501D01*
X14858812Y9317501D01*
X14757554Y9275557D01*
X14680058Y9198061D01*
X14638114Y9096803D01*
X10788402Y9096803D01*
X10767171Y9148059D01*
X10767169Y9148061D01*
X10767169Y9148062D01*
X10689675Y9225556D01*
X10689673Y9225557D01*
X10689672Y9225558D01*
X10630358Y9250127D01*
X10588415Y9267501D01*
X10588414Y9267501D01*
X10478814Y9267501D01*
X10478812Y9267501D01*
X10377554Y9225557D01*
X10300058Y9148061D01*
X10258114Y9046803D01*
X9675500Y9046803D01*
X9675500Y9054800D01*
X9633557Y9156058D01*
X9633555Y9156060D01*
X9633555Y9156061D01*
X9556061Y9233555D01*
X9556059Y9233556D01*
X9556058Y9233557D01*
X9496744Y9258126D01*
X9454801Y9275500D01*
X9454800Y9275500D01*
X9345200Y9275500D01*
X9345198Y9275500D01*
X9243940Y9233556D01*
X9166444Y9156060D01*
X9166443Y9156059D01*
X9166443Y9156058D01*
X9163130Y9148059D01*
X9124500Y9054802D01*
X3825500Y9054802D01*
X3825500Y9154800D01*
X3783557Y9256058D01*
X3783555Y9256060D01*
X3783555Y9256061D01*
X3706061Y9333555D01*
X3706059Y9333556D01*
X3706058Y9333557D01*
X3641015Y9360499D01*
X3604801Y9375500D01*
X3604800Y9375500D01*
X3495200Y9375500D01*
X3495198Y9375500D01*
X3421502Y9344973D01*
X3398771Y9335557D01*
X3393940Y9333556D01*
X3316444Y9256060D01*
X3274500Y9154802D01*
X127500Y9154802D01*
X127500Y9654802D01*
X6274500Y9654802D01*
X6274500Y9654800D01*
X6274500Y9545200D01*
X6316443Y9443942D01*
X6316444Y9443941D01*
X6316445Y9443939D01*
X6393939Y9366445D01*
X6393940Y9366445D01*
X6393942Y9366443D01*
X6495200Y9324500D01*
X6495202Y9324500D01*
X6604798Y9324500D01*
X6604800Y9324500D01*
X6706058Y9366443D01*
X6706060Y9366445D01*
X6706061Y9366445D01*
X6783555Y9443939D01*
X6783555Y9443940D01*
X6783557Y9443942D01*
X6822590Y9538174D01*
X31269865Y9538174D01*
X31269865Y9538172D01*
X31269865Y9428572D01*
X31311808Y9327314D01*
X31311809Y9327313D01*
X31311810Y9327311D01*
X31389304Y9249817D01*
X31389305Y9249817D01*
X31389307Y9249815D01*
X31490565Y9207872D01*
X31490567Y9207872D01*
X31600163Y9207872D01*
X31600165Y9207872D01*
X31701423Y9249815D01*
X31701425Y9249817D01*
X31701426Y9249817D01*
X31778920Y9327311D01*
X31778920Y9327312D01*
X31778922Y9327314D01*
X31820865Y9428572D01*
X31820865Y9538172D01*
X31778922Y9639430D01*
X31778920Y9639432D01*
X31778920Y9639433D01*
X31735010Y9683343D01*
X34173691Y9683343D01*
X34173691Y9573740D01*
X34188424Y9538172D01*
X34215634Y9472483D01*
X34215635Y9472482D01*
X34215636Y9472480D01*
X34293130Y9394986D01*
X34293131Y9394986D01*
X34293133Y9394984D01*
X34394391Y9353041D01*
X34394393Y9353041D01*
X34503989Y9353041D01*
X34503991Y9353041D01*
X34578512Y9383909D01*
X35426191Y9383909D01*
X35426191Y9383907D01*
X35426191Y9274307D01*
X35468134Y9173049D01*
X35468135Y9173048D01*
X35468136Y9173046D01*
X35545630Y9095552D01*
X35545631Y9095552D01*
X35545633Y9095550D01*
X35646891Y9053607D01*
X35646893Y9053607D01*
X35756489Y9053607D01*
X35756491Y9053607D01*
X35759376Y9054802D01*
X37224500Y9054802D01*
X37224500Y8945199D01*
X37241874Y8903256D01*
X37266443Y8843942D01*
X37266444Y8843941D01*
X37266445Y8843939D01*
X37343939Y8766445D01*
X37343940Y8766445D01*
X37343942Y8766443D01*
X37445200Y8724500D01*
X37445202Y8724500D01*
X37554798Y8724500D01*
X37554800Y8724500D01*
X37656058Y8766443D01*
X37656060Y8766445D01*
X37656061Y8766445D01*
X37733555Y8843939D01*
X37733555Y8843940D01*
X37733557Y8843942D01*
X37775500Y8945200D01*
X37775500Y9054800D01*
X37733557Y9156058D01*
X37733555Y9156060D01*
X37733555Y9156061D01*
X37656061Y9233555D01*
X37656059Y9233556D01*
X37656058Y9233557D01*
X37596744Y9258126D01*
X37554801Y9275500D01*
X37554800Y9275500D01*
X37445200Y9275500D01*
X37445198Y9275500D01*
X37343940Y9233556D01*
X37266444Y9156060D01*
X37266443Y9156059D01*
X37266443Y9156058D01*
X37263130Y9148059D01*
X37224500Y9054802D01*
X35759376Y9054802D01*
X35857749Y9095550D01*
X35857751Y9095552D01*
X35857752Y9095552D01*
X35935246Y9173046D01*
X35935246Y9173047D01*
X35935248Y9173049D01*
X35977191Y9274307D01*
X35977191Y9310325D01*
X35991543Y9344973D01*
X36026191Y9359325D01*
X36089623Y9359325D01*
X36089625Y9359325D01*
X36190883Y9401268D01*
X36190885Y9401270D01*
X36190886Y9401270D01*
X36268380Y9478764D01*
X36268380Y9478765D01*
X36268382Y9478767D01*
X36310325Y9580025D01*
X36310325Y9620675D01*
X36324677Y9655323D01*
X36359325Y9669675D01*
X36399973Y9669675D01*
X36399975Y9669675D01*
X36501233Y9711618D01*
X36501235Y9711620D01*
X36501236Y9711620D01*
X36578730Y9789114D01*
X36578730Y9789115D01*
X36578732Y9789117D01*
X36620675Y9890375D01*
X36620675Y9960435D01*
X36635027Y9995083D01*
X36669675Y10009435D01*
X36714364Y10009435D01*
X36714366Y10009435D01*
X36815624Y10051378D01*
X36815626Y10051380D01*
X36815627Y10051380D01*
X36893121Y10128874D01*
X36893121Y10128875D01*
X36893123Y10128877D01*
X36935066Y10230135D01*
X36935066Y10339735D01*
X36893123Y10440993D01*
X36893121Y10440995D01*
X36893121Y10440996D01*
X36815627Y10518490D01*
X36815625Y10518491D01*
X36815624Y10518492D01*
X36744237Y10548062D01*
X36714367Y10560435D01*
X36714366Y10560435D01*
X36604766Y10560435D01*
X36604764Y10560435D01*
X36503506Y10518491D01*
X36426010Y10440995D01*
X36384066Y10339737D01*
X36384066Y10269675D01*
X36369714Y10235027D01*
X36335066Y10220675D01*
X36290373Y10220675D01*
X36189115Y10178731D01*
X36111619Y10101235D01*
X36069675Y9999977D01*
X36069675Y9959325D01*
X36055323Y9924677D01*
X36020675Y9910325D01*
X35980023Y9910325D01*
X35878765Y9868381D01*
X35801269Y9790885D01*
X35801268Y9790884D01*
X35801268Y9790883D01*
X35800536Y9789116D01*
X35759325Y9689627D01*
X35759325Y9653607D01*
X35744973Y9618959D01*
X35710325Y9604607D01*
X35646889Y9604607D01*
X35545631Y9562663D01*
X35468135Y9485167D01*
X35468134Y9485166D01*
X35468134Y9485165D01*
X35462880Y9472480D01*
X35426191Y9383909D01*
X34578512Y9383909D01*
X34605249Y9394984D01*
X34605251Y9394986D01*
X34605252Y9394986D01*
X34682746Y9472480D01*
X34682746Y9472481D01*
X34682748Y9472483D01*
X34724691Y9573741D01*
X34724691Y9683341D01*
X34682748Y9784599D01*
X34682746Y9784601D01*
X34682746Y9784602D01*
X34605252Y9862096D01*
X34605250Y9862097D01*
X34605249Y9862098D01*
X34536976Y9890378D01*
X34503992Y9904041D01*
X34503991Y9904041D01*
X34394391Y9904041D01*
X34394389Y9904041D01*
X34293131Y9862097D01*
X34215635Y9784601D01*
X34173691Y9683343D01*
X31735010Y9683343D01*
X31701426Y9716927D01*
X31701424Y9716928D01*
X31701423Y9716929D01*
X31606959Y9756058D01*
X31600166Y9758872D01*
X31600165Y9758872D01*
X31490565Y9758872D01*
X31490563Y9758872D01*
X31389305Y9716928D01*
X31311809Y9639432D01*
X31269865Y9538174D01*
X6822590Y9538174D01*
X6825500Y9545200D01*
X6825500Y9654800D01*
X6783557Y9756058D01*
X6783555Y9756060D01*
X6783555Y9756061D01*
X6706061Y9833555D01*
X6706059Y9833556D01*
X6706058Y9833557D01*
X6637155Y9862098D01*
X6604801Y9875500D01*
X6604800Y9875500D01*
X6495200Y9875500D01*
X6495198Y9875500D01*
X6393940Y9833556D01*
X6316444Y9756060D01*
X6274500Y9654802D01*
X127500Y9654802D01*
X127500Y10528602D01*
X10327999Y10528602D01*
X10327999Y10418999D01*
X10337029Y10397200D01*
X10369942Y10317742D01*
X10369943Y10317741D01*
X10369944Y10317739D01*
X10447438Y10240245D01*
X10447439Y10240245D01*
X10447441Y10240243D01*
X10548699Y10198300D01*
X10548701Y10198300D01*
X10658297Y10198300D01*
X10658299Y10198300D01*
X10759557Y10240243D01*
X10759559Y10240245D01*
X10759560Y10240245D01*
X10837054Y10317739D01*
X10837054Y10317740D01*
X10837056Y10317742D01*
X10878999Y10419000D01*
X10878999Y10446803D01*
X13058114Y10446803D01*
X13058114Y10337200D01*
X13074326Y10298062D01*
X13100057Y10235943D01*
X13100058Y10235942D01*
X13100059Y10235940D01*
X13177553Y10158446D01*
X13177554Y10158446D01*
X13177556Y10158444D01*
X13278814Y10116501D01*
X13278816Y10116501D01*
X13388412Y10116501D01*
X13388414Y10116501D01*
X13489672Y10158444D01*
X13489674Y10158446D01*
X13489675Y10158446D01*
X13567169Y10235940D01*
X13567169Y10235941D01*
X13567171Y10235943D01*
X13609114Y10337201D01*
X13609114Y10446801D01*
X13609113Y10446803D01*
X14458114Y10446803D01*
X14458114Y10337200D01*
X14474326Y10298062D01*
X14500057Y10235943D01*
X14500058Y10235942D01*
X14500059Y10235940D01*
X14577553Y10158446D01*
X14577554Y10158446D01*
X14577556Y10158444D01*
X14678814Y10116501D01*
X14678816Y10116501D01*
X14788412Y10116501D01*
X14788414Y10116501D01*
X14889672Y10158444D01*
X14889674Y10158446D01*
X14889675Y10158446D01*
X14967169Y10235940D01*
X14967169Y10235941D01*
X14967171Y10235943D01*
X15009114Y10337201D01*
X15009114Y10446801D01*
X14984260Y10506803D01*
X17508114Y10506803D01*
X17508114Y10397200D01*
X17517079Y10375558D01*
X17550057Y10295943D01*
X17550058Y10295942D01*
X17550059Y10295940D01*
X17627553Y10218446D01*
X17627554Y10218446D01*
X17627556Y10218444D01*
X17728814Y10176501D01*
X17728816Y10176501D01*
X17838412Y10176501D01*
X17838414Y10176501D01*
X17939672Y10218444D01*
X17939674Y10218446D01*
X17939675Y10218446D01*
X18017169Y10295940D01*
X18017169Y10295941D01*
X18017171Y10295943D01*
X18059114Y10397201D01*
X18059114Y10446803D01*
X26458114Y10446803D01*
X26458114Y10337200D01*
X26474326Y10298062D01*
X26500057Y10235943D01*
X26500058Y10235942D01*
X26500059Y10235940D01*
X26577553Y10158446D01*
X26577554Y10158446D01*
X26577556Y10158444D01*
X26678814Y10116501D01*
X26678816Y10116501D01*
X26788412Y10116501D01*
X26788414Y10116501D01*
X26889672Y10158444D01*
X26889674Y10158446D01*
X26889675Y10158446D01*
X26967169Y10235940D01*
X26967169Y10235941D01*
X26967171Y10235943D01*
X27009114Y10337201D01*
X27009114Y10446801D01*
X27009113Y10446803D01*
X27858114Y10446803D01*
X27858114Y10337200D01*
X27874326Y10298062D01*
X27900057Y10235943D01*
X27900058Y10235942D01*
X27900059Y10235940D01*
X27977553Y10158446D01*
X27977554Y10158446D01*
X27977556Y10158444D01*
X28078814Y10116501D01*
X28078816Y10116501D01*
X28188412Y10116501D01*
X28188414Y10116501D01*
X28289672Y10158444D01*
X28289674Y10158446D01*
X28289675Y10158446D01*
X28328032Y10196803D01*
X30658114Y10196803D01*
X30658114Y10196801D01*
X30658114Y10087201D01*
X30700057Y9985943D01*
X30700058Y9985942D01*
X30700059Y9985940D01*
X30777553Y9908446D01*
X30777554Y9908446D01*
X30777556Y9908444D01*
X30878814Y9866501D01*
X30878816Y9866501D01*
X30988412Y9866501D01*
X30988414Y9866501D01*
X31089672Y9908444D01*
X31089674Y9908446D01*
X31089675Y9908446D01*
X31167169Y9985940D01*
X31167169Y9985941D01*
X31167171Y9985943D01*
X31209114Y10087201D01*
X31209114Y10196801D01*
X31167171Y10298059D01*
X31167169Y10298061D01*
X31167169Y10298062D01*
X31089675Y10375556D01*
X31089673Y10375557D01*
X31089672Y10375558D01*
X31030358Y10400127D01*
X30988415Y10417501D01*
X30988414Y10417501D01*
X30878814Y10417501D01*
X30878812Y10417501D01*
X30794926Y10382753D01*
X30782530Y10377618D01*
X30777554Y10375557D01*
X30700058Y10298061D01*
X30658114Y10196803D01*
X28328032Y10196803D01*
X28367169Y10235940D01*
X28367169Y10235941D01*
X28367171Y10235943D01*
X28409114Y10337201D01*
X28409114Y10446801D01*
X28367171Y10548059D01*
X28367169Y10548061D01*
X28367169Y10548062D01*
X28289675Y10625556D01*
X28289673Y10625557D01*
X28289672Y10625558D01*
X28188469Y10667479D01*
X28188415Y10667501D01*
X28188414Y10667501D01*
X28078814Y10667501D01*
X28078812Y10667501D01*
X27977554Y10625557D01*
X27900058Y10548061D01*
X27858114Y10446803D01*
X27009113Y10446803D01*
X26967171Y10548059D01*
X26967169Y10548061D01*
X26967169Y10548062D01*
X26889675Y10625556D01*
X26889673Y10625557D01*
X26889672Y10625558D01*
X26830358Y10650127D01*
X26788415Y10667501D01*
X26788414Y10667501D01*
X26678814Y10667501D01*
X26678812Y10667501D01*
X26577554Y10625557D01*
X26500058Y10548061D01*
X26458114Y10446803D01*
X18059114Y10446803D01*
X18059114Y10506801D01*
X18017171Y10608059D01*
X18017169Y10608061D01*
X18017169Y10608062D01*
X17939675Y10685556D01*
X17939673Y10685557D01*
X17939672Y10685558D01*
X17865110Y10716443D01*
X17838415Y10727501D01*
X17838414Y10727501D01*
X17728814Y10727501D01*
X17728812Y10727501D01*
X17627554Y10685557D01*
X17550058Y10608061D01*
X17508114Y10506803D01*
X14984260Y10506803D01*
X14967171Y10548059D01*
X14967169Y10548061D01*
X14967169Y10548062D01*
X14889675Y10625556D01*
X14889673Y10625557D01*
X14889672Y10625558D01*
X14830358Y10650127D01*
X14788415Y10667501D01*
X14788414Y10667501D01*
X14678814Y10667501D01*
X14678812Y10667501D01*
X14577554Y10625557D01*
X14500058Y10548061D01*
X14458114Y10446803D01*
X13609113Y10446803D01*
X13567171Y10548059D01*
X13567169Y10548061D01*
X13567169Y10548062D01*
X13489675Y10625556D01*
X13489673Y10625557D01*
X13489672Y10625558D01*
X13430358Y10650127D01*
X13388415Y10667501D01*
X13388414Y10667501D01*
X13278814Y10667501D01*
X13278812Y10667501D01*
X13177554Y10625557D01*
X13100058Y10548061D01*
X13058114Y10446803D01*
X10878999Y10446803D01*
X10878999Y10528600D01*
X10837056Y10629858D01*
X10837054Y10629860D01*
X10837054Y10629861D01*
X10759560Y10707355D01*
X10759558Y10707356D01*
X10759557Y10707357D01*
X10700243Y10731926D01*
X10658300Y10749300D01*
X10658299Y10749300D01*
X10548699Y10749300D01*
X10548697Y10749300D01*
X10496072Y10727501D01*
X10448796Y10707918D01*
X10447439Y10707356D01*
X10369943Y10629860D01*
X10369942Y10629859D01*
X10369942Y10629858D01*
X10368160Y10625556D01*
X10327999Y10528602D01*
X127500Y10528602D01*
X127500Y11004802D01*
X1224500Y11004802D01*
X1224500Y11004800D01*
X1224500Y10895200D01*
X1266443Y10793942D01*
X1266444Y10793941D01*
X1266445Y10793939D01*
X1343939Y10716445D01*
X1343940Y10716445D01*
X1343942Y10716443D01*
X1445200Y10674500D01*
X1445202Y10674500D01*
X1554798Y10674500D01*
X1554800Y10674500D01*
X1656058Y10716443D01*
X1656060Y10716445D01*
X1656061Y10716445D01*
X1733555Y10793939D01*
X1733556Y10793941D01*
X1733557Y10793942D01*
X1738884Y10806803D01*
X23648114Y10806803D01*
X23648114Y10697200D01*
X23657517Y10674501D01*
X23690057Y10595943D01*
X23690058Y10595942D01*
X23690059Y10595940D01*
X23767553Y10518446D01*
X23767554Y10518446D01*
X23767556Y10518444D01*
X23868814Y10476501D01*
X23868816Y10476501D01*
X23978412Y10476501D01*
X23978414Y10476501D01*
X24079672Y10518444D01*
X24079674Y10518446D01*
X24079675Y10518446D01*
X24157169Y10595940D01*
X24157169Y10595941D01*
X24157171Y10595943D01*
X24199114Y10697201D01*
X24199114Y10707920D01*
X34187281Y10707920D01*
X34187281Y10598317D01*
X34188265Y10595942D01*
X34229224Y10497060D01*
X34229225Y10497059D01*
X34229226Y10497057D01*
X34306720Y10419563D01*
X34306721Y10419563D01*
X34306723Y10419561D01*
X34407981Y10377618D01*
X34407983Y10377618D01*
X34517579Y10377618D01*
X34517581Y10377618D01*
X34618839Y10419561D01*
X34618841Y10419563D01*
X34618842Y10419563D01*
X34696336Y10497057D01*
X34696336Y10497058D01*
X34696338Y10497060D01*
X34738281Y10598318D01*
X34738281Y10707918D01*
X34696338Y10809176D01*
X34669659Y10835855D01*
X34655308Y10870501D01*
X34669657Y10905148D01*
X34700454Y10935943D01*
X34742397Y11037201D01*
X34742397Y11146801D01*
X34700454Y11248059D01*
X34700452Y11248061D01*
X34700452Y11248062D01*
X34664636Y11283878D01*
X34650284Y11318526D01*
X34664635Y11353173D01*
X34703308Y11391845D01*
X34742820Y11487234D01*
X35878529Y11487234D01*
X35878529Y11377631D01*
X35888660Y11353174D01*
X35920472Y11276374D01*
X35920473Y11276373D01*
X35920474Y11276371D01*
X35997968Y11198877D01*
X35997969Y11198877D01*
X35997971Y11198875D01*
X36099229Y11156932D01*
X36099231Y11156932D01*
X36208827Y11156932D01*
X36208829Y11156932D01*
X36310087Y11198875D01*
X36310089Y11198877D01*
X36310090Y11198877D01*
X36387584Y11276371D01*
X36387584Y11276372D01*
X36387586Y11276374D01*
X36429529Y11377632D01*
X36429529Y11487232D01*
X36387586Y11588490D01*
X36387584Y11588492D01*
X36387584Y11588493D01*
X36310090Y11665987D01*
X36310088Y11665988D01*
X36310087Y11665989D01*
X36250773Y11690558D01*
X36208830Y11707932D01*
X36208829Y11707932D01*
X36099229Y11707932D01*
X36099227Y11707932D01*
X36015341Y11673184D01*
X36001622Y11667501D01*
X35997969Y11665988D01*
X35920473Y11588492D01*
X35878529Y11487234D01*
X34742820Y11487234D01*
X34745251Y11493103D01*
X34745251Y11602703D01*
X34703308Y11703961D01*
X34703306Y11703963D01*
X34703306Y11703964D01*
X34652468Y11754802D01*
X37774500Y11754802D01*
X37774500Y11645199D01*
X37782637Y11625556D01*
X37816443Y11543942D01*
X37816444Y11543941D01*
X37816445Y11543939D01*
X37893939Y11466445D01*
X37893940Y11466445D01*
X37893942Y11466443D01*
X37995200Y11424500D01*
X37995202Y11424500D01*
X38104798Y11424500D01*
X38104800Y11424500D01*
X38206058Y11466443D01*
X38206060Y11466445D01*
X38206061Y11466445D01*
X38283555Y11543939D01*
X38283555Y11543940D01*
X38283557Y11543942D01*
X38325500Y11645200D01*
X38325500Y11754800D01*
X38283557Y11856058D01*
X38283555Y11856060D01*
X38283555Y11856061D01*
X38206061Y11933555D01*
X38206059Y11933556D01*
X38206058Y11933557D01*
X38127455Y11966116D01*
X38104801Y11975500D01*
X38104800Y11975500D01*
X37995200Y11975500D01*
X37995198Y11975500D01*
X37893940Y11933556D01*
X37816444Y11856060D01*
X37774500Y11754802D01*
X34652468Y11754802D01*
X34625812Y11781458D01*
X34625810Y11781459D01*
X34625809Y11781460D01*
X34566495Y11806029D01*
X34524552Y11823403D01*
X34524551Y11823403D01*
X34414951Y11823403D01*
X34414949Y11823403D01*
X34331063Y11788655D01*
X34327942Y11787362D01*
X34313691Y11781459D01*
X34236195Y11703963D01*
X34194251Y11602705D01*
X34194251Y11493102D01*
X34196696Y11487200D01*
X34236194Y11391845D01*
X34236195Y11391844D01*
X34236196Y11391842D01*
X34272011Y11356027D01*
X34286363Y11321379D01*
X34272011Y11286731D01*
X34233341Y11248061D01*
X34191397Y11146803D01*
X34191397Y11146801D01*
X34191397Y11037201D01*
X34233340Y10935943D01*
X34233341Y10935942D01*
X34233342Y10935940D01*
X34260016Y10909266D01*
X34274368Y10874618D01*
X34260017Y10839971D01*
X34229224Y10809178D01*
X34187281Y10707920D01*
X24199114Y10707920D01*
X24199114Y10806801D01*
X24157171Y10908059D01*
X24157169Y10908061D01*
X24157169Y10908062D01*
X24079675Y10985556D01*
X24079673Y10985557D01*
X24079672Y10985558D01*
X24004968Y11016502D01*
X23978415Y11027501D01*
X23978414Y11027501D01*
X23868814Y11027501D01*
X23868812Y11027501D01*
X23767554Y10985557D01*
X23690058Y10908061D01*
X23690057Y10908060D01*
X23690057Y10908059D01*
X23688852Y10905150D01*
X23648114Y10806803D01*
X1738884Y10806803D01*
X1775500Y10895200D01*
X1775500Y11004800D01*
X1733557Y11106058D01*
X1733555Y11106060D01*
X1733555Y11106061D01*
X1656061Y11183555D01*
X1656059Y11183556D01*
X1656058Y11183557D01*
X1596744Y11208126D01*
X1554801Y11225500D01*
X1554800Y11225500D01*
X1445200Y11225500D01*
X1445198Y11225500D01*
X1343940Y11183556D01*
X1266444Y11106060D01*
X1224500Y11004802D01*
X127500Y11004802D01*
X127500Y11446803D01*
X4874500Y11446803D01*
X4874500Y11337200D01*
X4882236Y11318525D01*
X4916443Y11235943D01*
X4916444Y11235942D01*
X4916445Y11235940D01*
X4993939Y11158446D01*
X4993940Y11158446D01*
X4993942Y11158444D01*
X5095200Y11116501D01*
X5095202Y11116501D01*
X5204798Y11116501D01*
X5204800Y11116501D01*
X5306058Y11158444D01*
X5306060Y11158446D01*
X5306061Y11158446D01*
X5383555Y11235940D01*
X5383555Y11235941D01*
X5383557Y11235943D01*
X5391369Y11254802D01*
X6274500Y11254802D01*
X6274500Y11145199D01*
X6286387Y11116502D01*
X6316443Y11043942D01*
X6316444Y11043941D01*
X6316445Y11043939D01*
X6393939Y10966445D01*
X6393940Y10966445D01*
X6393942Y10966443D01*
X6495200Y10924500D01*
X6495202Y10924500D01*
X6604798Y10924500D01*
X6604800Y10924500D01*
X6706058Y10966443D01*
X6706060Y10966445D01*
X6706061Y10966445D01*
X6783555Y11043939D01*
X6783555Y11043940D01*
X6783557Y11043942D01*
X6825500Y11145200D01*
X6825500Y11254800D01*
X6799104Y11318525D01*
X6793160Y11332875D01*
X6787391Y11346803D01*
X26398114Y11346803D01*
X26398114Y11237200D01*
X26413989Y11198875D01*
X26440057Y11135943D01*
X26440058Y11135942D01*
X26440059Y11135940D01*
X26517553Y11058446D01*
X26517554Y11058446D01*
X26517556Y11058444D01*
X26618814Y11016501D01*
X26618816Y11016501D01*
X26728412Y11016501D01*
X26728414Y11016501D01*
X26829672Y11058444D01*
X26829674Y11058446D01*
X26829675Y11058446D01*
X26907169Y11135940D01*
X26907169Y11135941D01*
X26907171Y11135943D01*
X26949114Y11237201D01*
X26949114Y11346801D01*
X26907171Y11448059D01*
X26907169Y11448061D01*
X26907169Y11448062D01*
X26829675Y11525556D01*
X26829673Y11525557D01*
X26829672Y11525558D01*
X26744871Y11560685D01*
X26728415Y11567501D01*
X26728414Y11567501D01*
X26618814Y11567501D01*
X26618812Y11567501D01*
X26517554Y11525557D01*
X26440058Y11448061D01*
X26398114Y11346803D01*
X6787391Y11346803D01*
X6783557Y11356058D01*
X6783556Y11356059D01*
X6783556Y11356060D01*
X6706061Y11433555D01*
X6706059Y11433556D01*
X6706058Y11433557D01*
X6646744Y11458126D01*
X6604801Y11475500D01*
X6604800Y11475500D01*
X6495200Y11475500D01*
X6495198Y11475500D01*
X6393940Y11433556D01*
X6316444Y11356060D01*
X6316443Y11356059D01*
X6316443Y11356058D01*
X6312609Y11346803D01*
X6274500Y11254802D01*
X5391369Y11254802D01*
X5425500Y11337201D01*
X5425500Y11446801D01*
X5383557Y11548059D01*
X5383555Y11548061D01*
X5383555Y11548062D01*
X5334814Y11596803D01*
X29598114Y11596803D01*
X29598114Y11487200D01*
X29606712Y11466443D01*
X29640057Y11385943D01*
X29640058Y11385942D01*
X29640059Y11385940D01*
X29717553Y11308446D01*
X29717554Y11308446D01*
X29717556Y11308444D01*
X29818814Y11266501D01*
X29818816Y11266501D01*
X29928412Y11266501D01*
X29928414Y11266501D01*
X30029672Y11308444D01*
X30029674Y11308446D01*
X30029675Y11308446D01*
X30107169Y11385940D01*
X30107169Y11385941D01*
X30107171Y11385943D01*
X30149114Y11487201D01*
X30149114Y11596801D01*
X30107171Y11698059D01*
X30107169Y11698061D01*
X30107169Y11698062D01*
X30029675Y11775556D01*
X30029673Y11775557D01*
X30029672Y11775558D01*
X29970358Y11800127D01*
X29928415Y11817501D01*
X29928414Y11817501D01*
X29818814Y11817501D01*
X29818812Y11817501D01*
X29746053Y11787362D01*
X29731805Y11781460D01*
X29717554Y11775557D01*
X29640058Y11698061D01*
X29598114Y11596803D01*
X5334814Y11596803D01*
X5306061Y11625556D01*
X5306059Y11625557D01*
X5306058Y11625558D01*
X5246744Y11650127D01*
X5204801Y11667501D01*
X5204800Y11667501D01*
X5095200Y11667501D01*
X5095198Y11667501D01*
X4993940Y11625557D01*
X4916444Y11548061D01*
X4916443Y11548060D01*
X4916443Y11548059D01*
X4909248Y11530689D01*
X4874500Y11446803D01*
X127500Y11446803D01*
X127500Y12075719D01*
X10228539Y12075719D01*
X10228539Y12075717D01*
X10228539Y11966117D01*
X10270482Y11864859D01*
X10270483Y11864858D01*
X10270484Y11864856D01*
X10347978Y11787362D01*
X10347979Y11787362D01*
X10347981Y11787360D01*
X10449239Y11745417D01*
X10449241Y11745417D01*
X10558837Y11745417D01*
X10558839Y11745417D01*
X10660097Y11787360D01*
X10660099Y11787362D01*
X10660100Y11787362D01*
X10737594Y11864856D01*
X10737594Y11864857D01*
X10737596Y11864859D01*
X10779539Y11966117D01*
X10779539Y11966803D01*
X20948114Y11966803D01*
X20948114Y11857200D01*
X20948587Y11856058D01*
X20990057Y11755943D01*
X20990058Y11755942D01*
X20990059Y11755940D01*
X21067553Y11678446D01*
X21067554Y11678446D01*
X21067556Y11678444D01*
X21168814Y11636501D01*
X21168816Y11636501D01*
X21278412Y11636501D01*
X21278414Y11636501D01*
X21379672Y11678444D01*
X21379674Y11678446D01*
X21379675Y11678446D01*
X21457169Y11755940D01*
X21457169Y11755941D01*
X21457171Y11755943D01*
X21499114Y11857201D01*
X21499114Y11966801D01*
X21457171Y12068059D01*
X21457169Y12068061D01*
X21457169Y12068062D01*
X21422939Y12102292D01*
X30588143Y12102292D01*
X30588143Y11992689D01*
X30599149Y11966120D01*
X30630086Y11891432D01*
X30630087Y11891431D01*
X30630088Y11891429D01*
X30707582Y11813935D01*
X30707583Y11813935D01*
X30707585Y11813933D01*
X30808843Y11771990D01*
X30808845Y11771990D01*
X30918441Y11771990D01*
X30918443Y11771990D01*
X31019701Y11813933D01*
X31019703Y11813935D01*
X31019704Y11813935D01*
X31097198Y11891429D01*
X31097198Y11891430D01*
X31097200Y11891432D01*
X31139143Y11992690D01*
X31139143Y12102290D01*
X31097200Y12203548D01*
X31097198Y12203550D01*
X31097198Y12203551D01*
X31019704Y12281045D01*
X31019702Y12281046D01*
X31019701Y12281047D01*
X30952647Y12308822D01*
X30918444Y12322990D01*
X30918443Y12322990D01*
X30808843Y12322990D01*
X30808841Y12322990D01*
X30740857Y12294829D01*
X30712641Y12283141D01*
X30707583Y12281046D01*
X30630087Y12203550D01*
X30588143Y12102292D01*
X21422939Y12102292D01*
X21379675Y12145556D01*
X21379673Y12145557D01*
X21379672Y12145558D01*
X21310680Y12174136D01*
X21278415Y12187501D01*
X21278414Y12187501D01*
X21168814Y12187501D01*
X21168812Y12187501D01*
X21113302Y12164507D01*
X21077771Y12149789D01*
X21067554Y12145557D01*
X20990058Y12068061D01*
X20948114Y11966803D01*
X10779539Y11966803D01*
X10779539Y12075717D01*
X10737596Y12176975D01*
X10737594Y12176977D01*
X10737594Y12176978D01*
X10660100Y12254472D01*
X10660098Y12254473D01*
X10660097Y12254474D01*
X10600394Y12279204D01*
X10558840Y12296417D01*
X10558839Y12296417D01*
X10449239Y12296417D01*
X10449237Y12296417D01*
X10347979Y12254473D01*
X10270483Y12176977D01*
X10270482Y12176976D01*
X10270482Y12176975D01*
X10265829Y12165742D01*
X10228539Y12075719D01*
X127500Y12075719D01*
X127500Y12826033D01*
X4797500Y12826033D01*
X4797500Y12673968D01*
X4836855Y12527095D01*
X4836856Y12527091D01*
X4900321Y12417169D01*
X4912885Y12395407D01*
X5020407Y12287885D01*
X5046282Y12272946D01*
X5152090Y12211857D01*
X5152092Y12211857D01*
X5152093Y12211856D01*
X5252112Y12185056D01*
X5298967Y12172501D01*
X5298968Y12172500D01*
X5298971Y12172500D01*
X5451032Y12172500D01*
X5451032Y12172501D01*
X5597907Y12211856D01*
X5607174Y12217206D01*
X5627606Y12229003D01*
X5729593Y12287885D01*
X5837115Y12395407D01*
X5913144Y12527093D01*
X5952499Y12673968D01*
X5952500Y12673968D01*
X5952500Y12826032D01*
X5952499Y12826033D01*
X5949040Y12838945D01*
X5946934Y12846803D01*
X12758114Y12846803D01*
X12758114Y12737200D01*
X12771652Y12704518D01*
X12800057Y12635943D01*
X12800058Y12635942D01*
X12800059Y12635940D01*
X12877553Y12558446D01*
X12877554Y12558446D01*
X12877556Y12558444D01*
X12978814Y12516501D01*
X12978816Y12516501D01*
X13088412Y12516501D01*
X13088414Y12516501D01*
X13189672Y12558444D01*
X13189674Y12558446D01*
X13189675Y12558446D01*
X13267169Y12635940D01*
X13267169Y12635941D01*
X13267171Y12635943D01*
X13309114Y12737201D01*
X13309114Y12760295D01*
X31269615Y12760295D01*
X31269615Y12650692D01*
X31279601Y12626585D01*
X31311558Y12549435D01*
X31311559Y12549434D01*
X31311560Y12549432D01*
X31389054Y12471938D01*
X31389055Y12471938D01*
X31389057Y12471936D01*
X31490315Y12429993D01*
X31490317Y12429993D01*
X31599913Y12429993D01*
X31599915Y12429993D01*
X31701173Y12471936D01*
X31701175Y12471938D01*
X31701176Y12471938D01*
X31778670Y12549432D01*
X31778670Y12549433D01*
X31778672Y12549435D01*
X31820615Y12650693D01*
X31820615Y12760293D01*
X31778672Y12861551D01*
X31778670Y12861553D01*
X31778670Y12861554D01*
X31701176Y12939048D01*
X31701174Y12939049D01*
X31701173Y12939050D01*
X31640961Y12963991D01*
X31599916Y12980993D01*
X31599915Y12980993D01*
X31490315Y12980993D01*
X31490313Y12980993D01*
X31389055Y12939049D01*
X31311559Y12861553D01*
X31311558Y12861552D01*
X31311558Y12861551D01*
X31308872Y12855066D01*
X31269615Y12760295D01*
X13309114Y12760295D01*
X13309114Y12846801D01*
X13267171Y12948059D01*
X13267169Y12948061D01*
X13267169Y12948062D01*
X13189675Y13025556D01*
X13189673Y13025557D01*
X13189672Y13025558D01*
X13113821Y13056977D01*
X13088415Y13067501D01*
X13088414Y13067501D01*
X12978814Y13067501D01*
X12978812Y13067501D01*
X12900631Y13035116D01*
X12881808Y13027319D01*
X12877554Y13025557D01*
X12800058Y12948061D01*
X12800057Y12948060D01*
X12800057Y12948059D01*
X12796132Y12938583D01*
X12758114Y12846803D01*
X5946934Y12846803D01*
X5917674Y12956002D01*
X5913144Y12972907D01*
X5913143Y12972908D01*
X5913143Y12972910D01*
X5855589Y13072595D01*
X5837115Y13104593D01*
X5729593Y13212115D01*
X5597909Y13288144D01*
X5597905Y13288145D01*
X5451032Y13327500D01*
X5451029Y13327500D01*
X5298971Y13327500D01*
X5298968Y13327500D01*
X5152094Y13288145D01*
X5152090Y13288144D01*
X5020406Y13212115D01*
X5020406Y13212114D01*
X4912886Y13104594D01*
X4912885Y13104594D01*
X4836856Y12972910D01*
X4836855Y12972906D01*
X4797500Y12826033D01*
X127500Y12826033D01*
X127500Y13204802D01*
X3324500Y13204802D01*
X3324500Y13095199D01*
X3335393Y13068903D01*
X3366443Y12993942D01*
X3366444Y12993941D01*
X3366445Y12993939D01*
X3443939Y12916445D01*
X3443940Y12916445D01*
X3443942Y12916443D01*
X3545200Y12874500D01*
X3545202Y12874500D01*
X3654798Y12874500D01*
X3654800Y12874500D01*
X3756058Y12916443D01*
X3756060Y12916445D01*
X3756061Y12916445D01*
X3833555Y12993939D01*
X3833555Y12993940D01*
X3833557Y12993942D01*
X3875500Y13095200D01*
X3875500Y13204800D01*
X3833557Y13306058D01*
X3833555Y13306060D01*
X3833555Y13306061D01*
X3756061Y13383555D01*
X3756059Y13383556D01*
X3756058Y13383557D01*
X3679746Y13415167D01*
X3654801Y13425500D01*
X3654800Y13425500D01*
X3545200Y13425500D01*
X3545198Y13425500D01*
X3461312Y13390752D01*
X3448001Y13385238D01*
X3443940Y13383556D01*
X3366444Y13306060D01*
X3324500Y13204802D01*
X127500Y13204802D01*
X127500Y13646803D01*
X15558114Y13646803D01*
X15558114Y13646801D01*
X15558114Y13537201D01*
X15600057Y13435943D01*
X15600058Y13435942D01*
X15600059Y13435940D01*
X15677553Y13358446D01*
X15677554Y13358446D01*
X15677556Y13358444D01*
X15778814Y13316501D01*
X15778816Y13316501D01*
X15888412Y13316501D01*
X15888414Y13316501D01*
X15989672Y13358444D01*
X15989674Y13358446D01*
X15989675Y13358446D01*
X16067169Y13435940D01*
X16067169Y13435941D01*
X16067171Y13435943D01*
X16109114Y13537201D01*
X16109114Y13646801D01*
X16109113Y13646803D01*
X19058114Y13646803D01*
X19058114Y13646801D01*
X19058114Y13537201D01*
X19100057Y13435943D01*
X19100058Y13435942D01*
X19100059Y13435940D01*
X19177553Y13358446D01*
X19177554Y13358446D01*
X19177556Y13358444D01*
X19278814Y13316501D01*
X19278816Y13316501D01*
X19388412Y13316501D01*
X19388414Y13316501D01*
X19489672Y13358444D01*
X19489674Y13358446D01*
X19489675Y13358446D01*
X19567169Y13435940D01*
X19567169Y13435941D01*
X19567171Y13435943D01*
X19609114Y13537201D01*
X19609114Y13556803D01*
X28558114Y13556803D01*
X28558114Y13447200D01*
X28569459Y13419811D01*
X28600057Y13345943D01*
X28600058Y13345942D01*
X28600059Y13345940D01*
X28677553Y13268446D01*
X28677554Y13268446D01*
X28677556Y13268444D01*
X28778814Y13226501D01*
X28778816Y13226501D01*
X28888412Y13226501D01*
X28888414Y13226501D01*
X28989672Y13268444D01*
X28989674Y13268446D01*
X28989675Y13268446D01*
X29041611Y13320383D01*
X31819507Y13320383D01*
X31819507Y13319618D01*
X31819584Y13315569D01*
X31820584Y13289579D01*
X31820685Y13287483D01*
X31820700Y13287220D01*
X31820839Y13285152D01*
X31822840Y13259132D01*
X31823031Y13256942D01*
X31823062Y13256633D01*
X31823260Y13254763D01*
X31826261Y13228751D01*
X31826787Y13224851D01*
X31826907Y13224069D01*
X31827576Y13220197D01*
X31832573Y13194211D01*
X31833040Y13191918D01*
X31833134Y13191482D01*
X31833695Y13189020D01*
X31839692Y13164027D01*
X31840055Y13162564D01*
X31840133Y13162259D01*
X31840459Y13161017D01*
X31847474Y13134965D01*
X31848907Y13130108D01*
X31849199Y13129202D01*
X31850858Y13124432D01*
X31859866Y13100412D01*
X31860467Y13098849D01*
X31860610Y13098488D01*
X31861381Y13096584D01*
X31871376Y13072595D01*
X31872076Y13070952D01*
X31872181Y13070712D01*
X31872206Y13070657D01*
X31873003Y13068876D01*
X31884003Y13044876D01*
X31885949Y13040856D01*
X31886334Y13040102D01*
X31886342Y13040087D01*
X31888457Y13036153D01*
X31899351Y13016881D01*
X31901450Y13013167D01*
X31902846Y13010770D01*
X31902860Y13010746D01*
X31903105Y13010338D01*
X31904565Y13007977D01*
X31932556Y12963992D01*
X31935079Y12960209D01*
X31935395Y12959758D01*
X31935576Y12959499D01*
X31936957Y12957607D01*
X31938158Y12955961D01*
X31954083Y12935060D01*
X31954112Y12935023D01*
X31954128Y12935002D01*
X31955877Y12932770D01*
X31955897Y12932745D01*
X31955923Y12932712D01*
X31956216Y12932349D01*
X31957969Y12930229D01*
X31957988Y12930206D01*
X31957996Y12930197D01*
X31974996Y12910197D01*
X31975822Y12909251D01*
X31976799Y12908131D01*
X31977136Y12907755D01*
X31979160Y12905557D01*
X31990397Y12893696D01*
X31997152Y12886566D01*
X31998656Y12885020D01*
X31999168Y12884494D01*
X31999493Y12884169D01*
X31999523Y12884140D01*
X32001566Y12882152D01*
X32009629Y12874513D01*
X32020556Y12864161D01*
X32022754Y12862137D01*
X32023130Y12861800D01*
X32023151Y12861782D01*
X32023154Y12861779D01*
X32025197Y12859996D01*
X32040721Y12846801D01*
X32045228Y12842970D01*
X32047348Y12841217D01*
X32047711Y12840924D01*
X32047734Y12840906D01*
X32047770Y12840877D01*
X32050002Y12839128D01*
X32050032Y12839105D01*
X32050059Y12839084D01*
X32070960Y12823159D01*
X32070990Y12823137D01*
X32071002Y12823128D01*
X32074499Y12820576D01*
X32074945Y12820264D01*
X32075208Y12820080D01*
X32078991Y12817557D01*
X32122976Y12789566D01*
X32122991Y12789557D01*
X32125322Y12788115D01*
X32125770Y12787846D01*
X32128167Y12786450D01*
X32139579Y12780000D01*
X32151152Y12773458D01*
X32151167Y12773450D01*
X32155102Y12771334D01*
X32155856Y12770949D01*
X32159876Y12769003D01*
X32183876Y12758003D01*
X32185657Y12757206D01*
X32185711Y12757182D01*
X32185951Y12757077D01*
X32187056Y12756606D01*
X32187577Y12756384D01*
X32211577Y12746384D01*
X32213478Y12745614D01*
X32213748Y12745508D01*
X32213848Y12745468D01*
X32215411Y12744867D01*
X32215445Y12744854D01*
X32223504Y12741832D01*
X32239431Y12735859D01*
X32239440Y12735856D01*
X32239445Y12735854D01*
X32244187Y12734204D01*
X32244950Y12733959D01*
X32245107Y12733908D01*
X32247535Y12733192D01*
X32249973Y12732472D01*
X32260418Y12729660D01*
X32276016Y12725460D01*
X32277258Y12725134D01*
X32277563Y12725056D01*
X32279026Y12724693D01*
X32289629Y12722149D01*
X32304045Y12718689D01*
X32306466Y12718138D01*
X32306912Y12718042D01*
X32309189Y12717578D01*
X32335189Y12712578D01*
X32339091Y12711904D01*
X32339833Y12711790D01*
X32341314Y12711591D01*
X32343750Y12711262D01*
X32361958Y12709162D01*
X32369761Y12708261D01*
X32371603Y12708065D01*
X32371982Y12708028D01*
X32374142Y12707840D01*
X32400142Y12705840D01*
X32402183Y12705703D01*
X32402566Y12705681D01*
X32404561Y12705585D01*
X32423931Y12704840D01*
X32430583Y12704584D01*
X32431468Y12704560D01*
X32432693Y12704525D01*
X32433077Y12704518D01*
X32435000Y12704500D01*
X32815350Y12704500D01*
X32828849Y12698909D01*
X32843142Y12695856D01*
X32845406Y12692050D01*
X32849998Y12690148D01*
X32863538Y12664384D01*
X32863896Y12662441D01*
X32863935Y12661995D01*
X32864365Y12657949D01*
X32864463Y12657171D01*
X32865071Y12653012D01*
X32869071Y12629012D01*
X32869522Y12626497D01*
X32869614Y12626017D01*
X32870136Y12623465D01*
X32875136Y12600465D01*
X32875950Y12597052D01*
X32876182Y12595798D01*
X32872511Y12578611D01*
X32869740Y12561257D01*
X32868634Y12560457D01*
X32868350Y12559122D01*
X32853604Y12549566D01*
X32839371Y12539253D01*
X32837874Y12539372D01*
X32836878Y12538726D01*
X32831476Y12539880D01*
X32809242Y12541644D01*
X32705515Y12584610D01*
X32705514Y12584610D01*
X32595914Y12584610D01*
X32595912Y12584610D01*
X32494654Y12542666D01*
X32469905Y12517917D01*
X32435257Y12503565D01*
X32400609Y12517917D01*
X32322602Y12595924D01*
X32322600Y12595925D01*
X32322599Y12595926D01*
X32248583Y12626585D01*
X32221342Y12637869D01*
X32221341Y12637869D01*
X32111741Y12637869D01*
X32111739Y12637869D01*
X32010481Y12595925D01*
X31932985Y12518429D01*
X31932984Y12518428D01*
X31932984Y12518427D01*
X31929563Y12510168D01*
X31891041Y12417171D01*
X31891041Y12307568D01*
X31908415Y12265625D01*
X31932984Y12206311D01*
X31932985Y12206310D01*
X31932986Y12206308D01*
X32010480Y12128814D01*
X32010481Y12128814D01*
X32010483Y12128812D01*
X32111741Y12086869D01*
X32111743Y12086869D01*
X32221339Y12086869D01*
X32221341Y12086869D01*
X32322599Y12128812D01*
X32347349Y12153563D01*
X32381995Y12167915D01*
X32416644Y12153564D01*
X32494653Y12075555D01*
X32494654Y12075555D01*
X32494656Y12075553D01*
X32595914Y12033610D01*
X32595916Y12033610D01*
X32684502Y12033610D01*
X32719150Y12019258D01*
X32733502Y11984610D01*
X32733502Y11929914D01*
X32775445Y11828656D01*
X32775446Y11828655D01*
X32775447Y11828653D01*
X32852941Y11751159D01*
X32852942Y11751159D01*
X32852944Y11751157D01*
X32954202Y11709214D01*
X32954204Y11709214D01*
X33063800Y11709214D01*
X33063802Y11709214D01*
X33165060Y11751157D01*
X33165062Y11751159D01*
X33165063Y11751159D01*
X33242557Y11828653D01*
X33242557Y11828654D01*
X33242559Y11828656D01*
X33284502Y11929914D01*
X33284502Y12039514D01*
X33254910Y12110955D01*
X33254910Y12148457D01*
X33281428Y12174976D01*
X33310590Y12177587D01*
X33313406Y12176975D01*
X33326441Y12174141D01*
X33326457Y12174138D01*
X33326465Y12174136D01*
X33329017Y12173614D01*
X33329497Y12173522D01*
X33331436Y12173175D01*
X33332050Y12173064D01*
X33355982Y12169076D01*
X33356012Y12169071D01*
X33360171Y12168463D01*
X33360949Y12168365D01*
X33363772Y12168065D01*
X33364956Y12167939D01*
X33364963Y12167939D01*
X33364995Y12167935D01*
X33387995Y12165935D01*
X33390553Y12165743D01*
X33391049Y12165712D01*
X33393725Y12165579D01*
X33393778Y12165578D01*
X33393799Y12165576D01*
X33404868Y12165167D01*
X33420725Y12164579D01*
X33424630Y12164507D01*
X33424651Y12164507D01*
X33425382Y12164507D01*
X33425384Y12164507D01*
X33429439Y12164585D01*
X33455439Y12165585D01*
X33457434Y12165681D01*
X33457817Y12165703D01*
X33459858Y12165840D01*
X33485858Y12167840D01*
X33488018Y12168028D01*
X33488397Y12168065D01*
X33490239Y12168261D01*
X33505844Y12170062D01*
X33516249Y12171262D01*
X33518003Y12171499D01*
X33520167Y12171790D01*
X33520909Y12171904D01*
X33524811Y12172578D01*
X33550811Y12177578D01*
X33553088Y12178042D01*
X33553534Y12178138D01*
X33555955Y12178689D01*
X33574914Y12183240D01*
X33580973Y12184693D01*
X33582436Y12185056D01*
X33582443Y12185058D01*
X33582464Y12185063D01*
X33582730Y12185131D01*
X33582989Y12185200D01*
X33583983Y12185460D01*
X33591574Y12187504D01*
X33610027Y12192472D01*
X33614902Y12193911D01*
X33615813Y12194204D01*
X33620555Y12195854D01*
X33644555Y12204854D01*
X33646187Y12205482D01*
X33646522Y12205614D01*
X33648423Y12206384D01*
X33672423Y12216384D01*
X33674022Y12217066D01*
X33674048Y12217077D01*
X33674288Y12217182D01*
X33674289Y12217183D01*
X33674343Y12217206D01*
X33676124Y12218003D01*
X33700124Y12229003D01*
X33704144Y12230949D01*
X33704898Y12231334D01*
X33708833Y12233450D01*
X33731833Y12246450D01*
X33734230Y12247846D01*
X33734678Y12248115D01*
X33737009Y12249557D01*
X33781009Y12277557D01*
X33784810Y12280093D01*
X33785501Y12280576D01*
X33788998Y12283128D01*
X33809998Y12299128D01*
X33810046Y12299166D01*
X33810141Y12299238D01*
X33846399Y12308822D01*
X33878814Y12289961D01*
X33887169Y12272946D01*
X33895271Y12242711D01*
X33895271Y12242709D01*
X33948914Y12149796D01*
X33948917Y12149792D01*
X33948919Y12149789D01*
X34024789Y12073919D01*
X34024792Y12073918D01*
X34024795Y12073915D01*
X34084384Y12039512D01*
X34117711Y12020271D01*
X34165808Y12007384D01*
X34221350Y11992500D01*
X34221352Y11992500D01*
X34328650Y11992500D01*
X34364811Y12002191D01*
X34432289Y12020271D01*
X34525211Y12073919D01*
X34601081Y12149789D01*
X34615138Y12174136D01*
X34654728Y12242709D01*
X34654728Y12242710D01*
X34654729Y12242711D01*
X34680082Y12337329D01*
X34682500Y12346351D01*
X34682500Y12453650D01*
X34670762Y12497455D01*
X34654729Y12557289D01*
X34654728Y12557291D01*
X34654728Y12557292D01*
X34601085Y12650205D01*
X34601082Y12650208D01*
X34601081Y12650211D01*
X34525211Y12726081D01*
X34525208Y12726083D01*
X34525204Y12726086D01*
X34503108Y12738843D01*
X34480278Y12768596D01*
X34485173Y12805778D01*
X34508855Y12826548D01*
X34562004Y12848562D01*
X34562005Y12848564D01*
X34562007Y12848564D01*
X34639501Y12926058D01*
X34639501Y12926059D01*
X34639503Y12926061D01*
X34681446Y13027319D01*
X34681446Y13136919D01*
X34639503Y13238177D01*
X34639501Y13238179D01*
X34639501Y13238180D01*
X34562005Y13315676D01*
X34497010Y13342598D01*
X34470492Y13369117D01*
X34470492Y13406620D01*
X34481111Y13422514D01*
X34507433Y13448835D01*
X34549376Y13550093D01*
X34549376Y13659693D01*
X34507433Y13760951D01*
X34507431Y13760953D01*
X34507431Y13760954D01*
X34429937Y13838448D01*
X34429935Y13838449D01*
X34429934Y13838450D01*
X34364850Y13865409D01*
X34328677Y13880393D01*
X34328676Y13880393D01*
X34219076Y13880393D01*
X34219074Y13880393D01*
X34117816Y13838449D01*
X34040321Y13760954D01*
X34040319Y13760953D01*
X34010483Y13688923D01*
X33983964Y13662405D01*
X33946461Y13662405D01*
X33925048Y13679608D01*
X33924425Y13680499D01*
X33923916Y13681196D01*
X33921872Y13683998D01*
X33921863Y13684009D01*
X33921841Y13684040D01*
X33905916Y13704941D01*
X33905895Y13704968D01*
X33905872Y13704998D01*
X33904123Y13707230D01*
X33904094Y13707266D01*
X33904076Y13707289D01*
X33903783Y13707652D01*
X33902030Y13709772D01*
X33902004Y13709803D01*
X33885004Y13729803D01*
X33883221Y13731846D01*
X33882862Y13732247D01*
X33880848Y13734434D01*
X33880595Y13734701D01*
X33864790Y13751384D01*
X33862848Y13753434D01*
X33860860Y13755477D01*
X33860831Y13755507D01*
X33860506Y13755832D01*
X33859296Y13757009D01*
X33858434Y13757848D01*
X33851304Y13764603D01*
X33839443Y13775840D01*
X33837245Y13777864D01*
X33836869Y13778201D01*
X33836722Y13778329D01*
X33834803Y13780004D01*
X33814803Y13797004D01*
X33814794Y13797012D01*
X33814771Y13797031D01*
X33812651Y13798784D01*
X33812288Y13799077D01*
X33812255Y13799103D01*
X33812230Y13799123D01*
X33809998Y13800872D01*
X33809977Y13800888D01*
X33809940Y13800917D01*
X33789039Y13816842D01*
X33788998Y13816872D01*
X33785501Y13819424D01*
X33785242Y13819605D01*
X33784791Y13819921D01*
X33781008Y13822444D01*
X33737023Y13850435D01*
X33734662Y13851895D01*
X33734254Y13852140D01*
X33734230Y13852154D01*
X33731833Y13853550D01*
X33730152Y13854500D01*
X33708847Y13866543D01*
X33704913Y13868658D01*
X33704910Y13868660D01*
X33704898Y13868666D01*
X33704144Y13869051D01*
X33700124Y13870997D01*
X33676124Y13881997D01*
X33675779Y13882152D01*
X33674288Y13882819D01*
X33674048Y13882924D01*
X33672405Y13883624D01*
X33648416Y13893619D01*
X33646512Y13894390D01*
X33646151Y13894533D01*
X33644588Y13895134D01*
X33620568Y13904142D01*
X33617206Y13905312D01*
X33615813Y13905796D01*
X33615804Y13905799D01*
X33615798Y13905801D01*
X33614892Y13906093D01*
X33610035Y13907526D01*
X33583983Y13914541D01*
X33582741Y13914867D01*
X33582436Y13914945D01*
X33580973Y13915308D01*
X33555980Y13921305D01*
X33555955Y13921311D01*
X33554837Y13921566D01*
X33553518Y13921866D01*
X33553082Y13921960D01*
X33550789Y13922427D01*
X33524803Y13927424D01*
X33520931Y13928093D01*
X33520149Y13928213D01*
X33516249Y13928739D01*
X33490237Y13931740D01*
X33488733Y13931900D01*
X33488397Y13931935D01*
X33488375Y13931938D01*
X33488367Y13931938D01*
X33488058Y13931969D01*
X33485868Y13932160D01*
X33459848Y13934161D01*
X33457780Y13934300D01*
X33457517Y13934315D01*
X33455425Y13934416D01*
X33429416Y13935417D01*
X33427287Y13935476D01*
X33426938Y13935482D01*
X33425813Y13935493D01*
X33425000Y13935500D01*
X32435000Y13935500D01*
X32434216Y13935493D01*
X32433061Y13935482D01*
X32432712Y13935476D01*
X32430583Y13935417D01*
X32404574Y13934416D01*
X32402482Y13934315D01*
X32402219Y13934300D01*
X32400151Y13934161D01*
X32374131Y13932160D01*
X32371941Y13931969D01*
X32371632Y13931938D01*
X32371611Y13931936D01*
X32371603Y13931935D01*
X32371468Y13931921D01*
X32369762Y13931740D01*
X32343750Y13928739D01*
X32339850Y13928213D01*
X32339068Y13928093D01*
X32335196Y13927424D01*
X32309210Y13922427D01*
X32306917Y13921960D01*
X32306481Y13921866D01*
X32304019Y13921305D01*
X32279026Y13915308D01*
X32277563Y13914945D01*
X32277258Y13914867D01*
X32276016Y13914541D01*
X32249964Y13907526D01*
X32245107Y13906093D01*
X32244201Y13905801D01*
X32239431Y13904142D01*
X32215411Y13895134D01*
X32213848Y13894533D01*
X32213487Y13894390D01*
X32211583Y13893619D01*
X32187594Y13883624D01*
X32185951Y13882924D01*
X32185711Y13882819D01*
X32183902Y13882009D01*
X32159880Y13870999D01*
X32155856Y13869051D01*
X32155086Y13868658D01*
X32151152Y13866543D01*
X32128205Y13853572D01*
X32125745Y13852140D01*
X32125337Y13851895D01*
X32122976Y13850435D01*
X32078991Y13822444D01*
X32075208Y13819921D01*
X32074520Y13819439D01*
X32070960Y13816842D01*
X32050059Y13800917D01*
X32047711Y13799077D01*
X32047348Y13798784D01*
X32045228Y13797031D01*
X32025212Y13780017D01*
X32023130Y13778201D01*
X32022754Y13777864D01*
X32020556Y13775840D01*
X32001578Y13757860D01*
X31999493Y13755832D01*
X31999168Y13755507D01*
X31997140Y13753422D01*
X31979160Y13734444D01*
X31977136Y13732246D01*
X31976799Y13731870D01*
X31974983Y13729788D01*
X31957969Y13709772D01*
X31956216Y13707652D01*
X31955923Y13707289D01*
X31954083Y13704941D01*
X31938158Y13684040D01*
X31936957Y13682394D01*
X31936089Y13681203D01*
X31935575Y13680499D01*
X31935079Y13679792D01*
X31932556Y13676009D01*
X31904565Y13632024D01*
X31903105Y13629663D01*
X31902860Y13629255D01*
X31901428Y13626795D01*
X31888457Y13603848D01*
X31886342Y13599914D01*
X31886334Y13599898D01*
X31885949Y13599144D01*
X31884003Y13595124D01*
X31873993Y13573284D01*
X31872991Y13571098D01*
X31872181Y13569289D01*
X31872076Y13569049D01*
X31871376Y13567406D01*
X31861381Y13543417D01*
X31860610Y13541513D01*
X31860467Y13541152D01*
X31859866Y13539589D01*
X31850858Y13515569D01*
X31849199Y13510799D01*
X31848907Y13509893D01*
X31847474Y13505036D01*
X31840459Y13478984D01*
X31840133Y13477742D01*
X31840055Y13477437D01*
X31839692Y13475974D01*
X31833695Y13450981D01*
X31833134Y13448519D01*
X31833040Y13448083D01*
X31832573Y13445790D01*
X31827576Y13419804D01*
X31826907Y13415932D01*
X31826787Y13415150D01*
X31826261Y13411250D01*
X31823260Y13385238D01*
X31823062Y13383368D01*
X31823031Y13383059D01*
X31822841Y13380874D01*
X31820839Y13354849D01*
X31820700Y13352781D01*
X31820689Y13352578D01*
X31820681Y13352434D01*
X31820612Y13350997D01*
X31820584Y13350422D01*
X31819584Y13324432D01*
X31819507Y13320383D01*
X29041611Y13320383D01*
X29067167Y13345939D01*
X29067168Y13345940D01*
X29067171Y13345943D01*
X29109114Y13447201D01*
X29109114Y13556801D01*
X29067171Y13658059D01*
X29067169Y13658061D01*
X29067169Y13658062D01*
X28989675Y13735556D01*
X28989673Y13735557D01*
X28989672Y13735558D01*
X28928364Y13760953D01*
X28888415Y13777501D01*
X28888414Y13777501D01*
X28778814Y13777501D01*
X28778812Y13777501D01*
X28705997Y13747339D01*
X28681214Y13737073D01*
X28677554Y13735557D01*
X28600058Y13658061D01*
X28600057Y13658060D01*
X28600057Y13658059D01*
X28599193Y13655973D01*
X28558114Y13556803D01*
X19609114Y13556803D01*
X19609114Y13646801D01*
X19567171Y13748059D01*
X19567169Y13748061D01*
X19567169Y13748062D01*
X19489675Y13825556D01*
X19489673Y13825557D01*
X19489672Y13825558D01*
X19425498Y13852140D01*
X19388415Y13867501D01*
X19388414Y13867501D01*
X19278814Y13867501D01*
X19278812Y13867501D01*
X19195163Y13832851D01*
X19185917Y13829021D01*
X19177554Y13825557D01*
X19100058Y13748061D01*
X19058114Y13646803D01*
X16109113Y13646803D01*
X16067171Y13748059D01*
X16067169Y13748061D01*
X16067169Y13748062D01*
X15989675Y13825556D01*
X15989673Y13825557D01*
X15989672Y13825558D01*
X15925498Y13852140D01*
X15888415Y13867501D01*
X15888414Y13867501D01*
X15778814Y13867501D01*
X15778812Y13867501D01*
X15695163Y13832851D01*
X15685917Y13829021D01*
X15677554Y13825557D01*
X15600058Y13748061D01*
X15558114Y13646803D01*
X127500Y13646803D01*
X127500Y14467720D01*
X524500Y14467720D01*
X524500Y14392280D01*
X527689Y14368059D01*
X539312Y14279765D01*
X597299Y14139772D01*
X597302Y14139767D01*
X682360Y14028917D01*
X689549Y14019549D01*
X809767Y13927302D01*
X809769Y13927302D01*
X809771Y13927300D01*
X930146Y13877439D01*
X949764Y13869313D01*
X1062280Y13854500D01*
X1062284Y13854500D01*
X1987716Y13854500D01*
X1987720Y13854500D01*
X2100236Y13869313D01*
X2240233Y13927302D01*
X2360451Y14019549D01*
X2452698Y14139767D01*
X2510687Y14279764D01*
X2525500Y14392280D01*
X2525500Y14467720D01*
X4924500Y14467720D01*
X4924500Y14392280D01*
X4927689Y14368059D01*
X4939312Y14279765D01*
X4997299Y14139772D01*
X4997302Y14139767D01*
X5082360Y14028917D01*
X5089549Y14019549D01*
X5209767Y13927302D01*
X5209769Y13927302D01*
X5209771Y13927300D01*
X5330146Y13877439D01*
X5349764Y13869313D01*
X5462280Y13854500D01*
X5462284Y13854500D01*
X6587716Y13854500D01*
X6587720Y13854500D01*
X6700236Y13869313D01*
X6840233Y13927302D01*
X6840697Y13927658D01*
X22774463Y13927658D01*
X22774463Y13818055D01*
X22788183Y13784934D01*
X22816406Y13716798D01*
X22816407Y13716797D01*
X22816408Y13716795D01*
X22893902Y13639301D01*
X22893903Y13639301D01*
X22893905Y13639299D01*
X22995163Y13597356D01*
X22995165Y13597356D01*
X23104761Y13597356D01*
X23104763Y13597356D01*
X23206021Y13639299D01*
X23206023Y13639301D01*
X23206024Y13639301D01*
X23283518Y13716795D01*
X23283518Y13716796D01*
X23283520Y13716798D01*
X23325463Y13818056D01*
X23325463Y13927656D01*
X23283520Y14028914D01*
X23283518Y14028916D01*
X23283518Y14028917D01*
X23207566Y14104869D01*
X35869565Y14104869D01*
X35869565Y13995266D01*
X35876820Y13977752D01*
X35911508Y13894009D01*
X35911509Y13894008D01*
X35911510Y13894006D01*
X35989004Y13816512D01*
X35989005Y13816512D01*
X35989007Y13816510D01*
X36090265Y13774567D01*
X36090267Y13774567D01*
X36191111Y13774567D01*
X36198633Y13771452D01*
X36206757Y13772002D01*
X36215293Y13764551D01*
X36225759Y13760215D01*
X36228874Y13752695D01*
X36235009Y13747339D01*
X36235345Y13737073D01*
X36240111Y13725567D01*
X36237546Y13709921D01*
X36237001Y13708305D01*
X36235384Y13704423D01*
X36234762Y13702896D01*
X36234660Y13702640D01*
X36234199Y13701462D01*
X36229199Y13688462D01*
X36227067Y13682368D01*
X36226699Y13681203D01*
X36224947Y13675006D01*
X36222701Y13666022D01*
X36222138Y13664195D01*
X36222121Y13664142D01*
X36219608Y13655974D01*
X36217615Y13648542D01*
X36217290Y13647126D01*
X36215844Y13639572D01*
X36211846Y13613589D01*
X36211306Y13609582D01*
X36211225Y13608882D01*
X36210842Y13604885D01*
X36209838Y13591831D01*
X36209604Y13587770D01*
X36209573Y13586950D01*
X36209500Y13583024D01*
X36209500Y13056977D01*
X36209573Y13053051D01*
X36209604Y13052231D01*
X36209838Y13048170D01*
X36209840Y13048142D01*
X36210460Y13040087D01*
X36210842Y13035116D01*
X36211225Y13031119D01*
X36211306Y13030419D01*
X36211846Y13026412D01*
X36215844Y13000429D01*
X36217290Y12992875D01*
X36217614Y12991462D01*
X36219609Y12984025D01*
X36222318Y12975221D01*
X36223022Y12972696D01*
X36224951Y12964976D01*
X36226695Y12958811D01*
X36227075Y12957607D01*
X36229194Y12951551D01*
X36234181Y12938583D01*
X36234676Y12937318D01*
X36234714Y12937224D01*
X36234762Y12937104D01*
X36235295Y12935796D01*
X36235392Y12935557D01*
X36240376Y12923596D01*
X36241036Y12922045D01*
X36241157Y12921767D01*
X36241851Y12920207D01*
X36246831Y12909251D01*
X36246850Y12909209D01*
X36246852Y12909206D01*
X36247750Y12907283D01*
X36247910Y12906949D01*
X36248694Y12905347D01*
X36248711Y12905313D01*
X36254689Y12893356D01*
X36257216Y12888608D01*
X36257709Y12887736D01*
X36257719Y12887719D01*
X36260557Y12882991D01*
X36260571Y12882968D01*
X36267561Y12871984D01*
X36269384Y12869217D01*
X36269768Y12868654D01*
X36271607Y12866043D01*
X36279587Y12855070D01*
X36280950Y12853239D01*
X36280971Y12853212D01*
X36280984Y12853194D01*
X36281262Y12852829D01*
X36282809Y12850848D01*
X36290514Y12841217D01*
X36298786Y12830876D01*
X36298806Y12830851D01*
X36298809Y12830848D01*
X36300757Y12828484D01*
X36301133Y12828041D01*
X36303149Y12825734D01*
X36303152Y12825731D01*
X36312149Y12815733D01*
X36314473Y12813284D01*
X36315967Y12811710D01*
X36316710Y12810967D01*
X36318414Y12809350D01*
X36320732Y12807150D01*
X36322257Y12805778D01*
X36330734Y12798149D01*
X36333041Y12796133D01*
X36333484Y12795757D01*
X36333764Y12795526D01*
X36335875Y12793787D01*
X36337990Y12792095D01*
X36355848Y12777809D01*
X36357829Y12776262D01*
X36358194Y12775984D01*
X36358223Y12775962D01*
X36358238Y12775951D01*
X36360069Y12774588D01*
X36371042Y12766608D01*
X36373653Y12764769D01*
X36374216Y12764385D01*
X36376983Y12762562D01*
X36385619Y12757066D01*
X36387991Y12755557D01*
X36392719Y12752719D01*
X36393616Y12752212D01*
X36398347Y12749694D01*
X36410347Y12743694D01*
X36411949Y12742910D01*
X36412283Y12742750D01*
X36414206Y12741852D01*
X36414250Y12741832D01*
X36425206Y12736852D01*
X36426766Y12736158D01*
X36427020Y12736047D01*
X36427057Y12736032D01*
X36427076Y12736023D01*
X36428577Y12735384D01*
X36440577Y12730384D01*
X36442104Y12729762D01*
X36442360Y12729660D01*
X36443538Y12729199D01*
X36456538Y12724199D01*
X36462632Y12722067D01*
X36463797Y12721699D01*
X36469994Y12719947D01*
X36477714Y12718018D01*
X36480213Y12717322D01*
X36489027Y12714609D01*
X36496453Y12712617D01*
X36497873Y12712291D01*
X36505437Y12710843D01*
X36531437Y12706843D01*
X36535386Y12706311D01*
X36535402Y12706310D01*
X36535418Y12706307D01*
X36536118Y12706226D01*
X36536970Y12706145D01*
X36540142Y12705840D01*
X36553142Y12704840D01*
X36557247Y12704604D01*
X36558014Y12704575D01*
X36558033Y12704575D01*
X36558050Y12704574D01*
X36561976Y12704500D01*
X36562000Y12704500D01*
X38388024Y12704500D01*
X38391949Y12704574D01*
X38391964Y12704575D01*
X38391986Y12704575D01*
X38392753Y12704604D01*
X38396858Y12704840D01*
X38409858Y12705840D01*
X38413860Y12706224D01*
X38413859Y12706224D01*
X38413881Y12706226D01*
X38414581Y12706307D01*
X38414590Y12706309D01*
X38414614Y12706311D01*
X38418563Y12706843D01*
X38444563Y12710843D01*
X38452127Y12712291D01*
X38453547Y12712617D01*
X38460973Y12714609D01*
X38469771Y12717318D01*
X38472286Y12718018D01*
X38472818Y12718151D01*
X38480006Y12719947D01*
X38484789Y12721300D01*
X38486179Y12721692D01*
X38486185Y12721695D01*
X38486203Y12721699D01*
X38487368Y12722067D01*
X38493462Y12724199D01*
X38506462Y12729199D01*
X38507640Y12729660D01*
X38507896Y12729762D01*
X38509423Y12730384D01*
X38521423Y12735384D01*
X38522924Y12736023D01*
X38522943Y12736032D01*
X38522980Y12736047D01*
X38523073Y12736089D01*
X38523216Y12736150D01*
X38524794Y12736852D01*
X38535794Y12741852D01*
X38537717Y12742750D01*
X38538051Y12742910D01*
X38539653Y12743694D01*
X38551653Y12749694D01*
X38556384Y12752212D01*
X38557281Y12752719D01*
X38562009Y12755557D01*
X38573009Y12762557D01*
X38575827Y12764414D01*
X38576340Y12764764D01*
X38578934Y12766591D01*
X38589934Y12774591D01*
X38591806Y12775984D01*
X38592171Y12776262D01*
X38594152Y12777809D01*
X38614152Y12793809D01*
X38616516Y12795757D01*
X38616959Y12796133D01*
X38619266Y12798149D01*
X38629266Y12807149D01*
X38633290Y12810967D01*
X38634033Y12811710D01*
X38637851Y12815734D01*
X38646851Y12825734D01*
X38648867Y12828041D01*
X38649243Y12828484D01*
X38651191Y12830848D01*
X38667191Y12850848D01*
X38668738Y12852829D01*
X38669016Y12853194D01*
X38670409Y12855066D01*
X38678409Y12866066D01*
X38680236Y12868660D01*
X38680586Y12869173D01*
X38682443Y12871991D01*
X38689443Y12882991D01*
X38692281Y12887719D01*
X38692788Y12888616D01*
X38695306Y12893347D01*
X38701306Y12905347D01*
X38702090Y12906949D01*
X38702250Y12907283D01*
X38703148Y12909206D01*
X38708148Y12920206D01*
X38708850Y12921784D01*
X38708977Y12922076D01*
X38709616Y12923577D01*
X38714616Y12935577D01*
X38715238Y12937104D01*
X38715340Y12937360D01*
X38715801Y12938538D01*
X38720801Y12951538D01*
X38722933Y12957632D01*
X38723301Y12958797D01*
X38723500Y12959499D01*
X38724769Y12963991D01*
X38725053Y12964994D01*
X38726849Y12972182D01*
X38726982Y12972714D01*
X38727682Y12975229D01*
X38730391Y12984027D01*
X38732383Y12991453D01*
X38732709Y12992873D01*
X38734157Y13000437D01*
X38738157Y13026437D01*
X38738689Y13030386D01*
X38738776Y13031140D01*
X38739160Y13035142D01*
X38740160Y13048142D01*
X38740396Y13052247D01*
X38740425Y13053014D01*
X38740500Y13057000D01*
X38740500Y13583000D01*
X38740425Y13586986D01*
X38740396Y13587753D01*
X38740160Y13591858D01*
X38739160Y13604858D01*
X38738776Y13608860D01*
X38738774Y13608882D01*
X38738693Y13609582D01*
X38738153Y13613589D01*
X38736115Y13626833D01*
X38734157Y13639563D01*
X38732709Y13647127D01*
X38732383Y13648547D01*
X38730391Y13655973D01*
X38727678Y13664787D01*
X38726982Y13667286D01*
X38725053Y13675006D01*
X38723301Y13681203D01*
X38722933Y13682368D01*
X38720801Y13688462D01*
X38715801Y13701462D01*
X38715340Y13702640D01*
X38715303Y13702735D01*
X38715291Y13702763D01*
X38715279Y13702793D01*
X38715238Y13702896D01*
X38714616Y13704423D01*
X38709616Y13716423D01*
X38708977Y13717924D01*
X38708850Y13718216D01*
X38708148Y13719794D01*
X38703148Y13730794D01*
X38702250Y13732717D01*
X38702090Y13733051D01*
X38701306Y13734653D01*
X38695306Y13746653D01*
X38692788Y13751384D01*
X38692281Y13752281D01*
X38689443Y13757009D01*
X38688901Y13757860D01*
X38682438Y13768017D01*
X38680615Y13770784D01*
X38680231Y13771347D01*
X38678392Y13773958D01*
X38670412Y13784931D01*
X38669049Y13786762D01*
X38669038Y13786777D01*
X38669016Y13786806D01*
X38668738Y13787171D01*
X38667191Y13789152D01*
X38651191Y13809152D01*
X38649243Y13811516D01*
X38648867Y13811959D01*
X38646851Y13814266D01*
X38642209Y13819424D01*
X38637850Y13824268D01*
X38635650Y13826586D01*
X38634033Y13828290D01*
X38633290Y13829033D01*
X38631716Y13830527D01*
X38629267Y13832851D01*
X38623045Y13838450D01*
X38619266Y13841851D01*
X38616959Y13843867D01*
X38616516Y13844243D01*
X38614152Y13846191D01*
X38614149Y13846194D01*
X38614124Y13846214D01*
X38603764Y13854501D01*
X38594152Y13862191D01*
X38592171Y13863738D01*
X38591806Y13864016D01*
X38591788Y13864029D01*
X38591761Y13864050D01*
X38589930Y13865413D01*
X38578957Y13873393D01*
X38576346Y13875232D01*
X38575783Y13875616D01*
X38573016Y13877439D01*
X38562032Y13884429D01*
X38557264Y13887291D01*
X38556392Y13887784D01*
X38551644Y13890311D01*
X38539701Y13896282D01*
X38539653Y13896306D01*
X38538051Y13897090D01*
X38537717Y13897250D01*
X38535794Y13898148D01*
X38535791Y13898150D01*
X38535749Y13898169D01*
X38524793Y13903149D01*
X38523233Y13903843D01*
X38522960Y13903962D01*
X38521404Y13904624D01*
X38509443Y13909608D01*
X38509152Y13909727D01*
X38507896Y13910238D01*
X38507820Y13910269D01*
X38507774Y13910287D01*
X38507682Y13910324D01*
X38506417Y13910819D01*
X38493449Y13915806D01*
X38487393Y13917925D01*
X38487368Y13917933D01*
X38486203Y13918301D01*
X38486189Y13918305D01*
X38480024Y13920049D01*
X38474973Y13921311D01*
X38472294Y13921981D01*
X38469779Y13922682D01*
X38460975Y13925391D01*
X38453538Y13927386D01*
X38452125Y13927710D01*
X38444571Y13929156D01*
X38418588Y13933154D01*
X38414581Y13933694D01*
X38413881Y13933775D01*
X38409884Y13934158D01*
X38407791Y13934319D01*
X38396858Y13935160D01*
X38396850Y13935161D01*
X38396830Y13935162D01*
X38392769Y13935396D01*
X38391949Y13935427D01*
X38388024Y13935500D01*
X38388000Y13935500D01*
X36562000Y13935500D01*
X36561976Y13935500D01*
X36558050Y13935427D01*
X36557230Y13935396D01*
X36553169Y13935162D01*
X36553145Y13935161D01*
X36553142Y13935160D01*
X36546642Y13934660D01*
X36540115Y13934158D01*
X36536118Y13933775D01*
X36535418Y13933694D01*
X36531411Y13933154D01*
X36505428Y13929156D01*
X36497874Y13927710D01*
X36496458Y13927385D01*
X36489026Y13925392D01*
X36480229Y13922685D01*
X36477710Y13921983D01*
X36474491Y13921178D01*
X36437396Y13926695D01*
X36415067Y13956826D01*
X36417333Y13987467D01*
X36420565Y13995267D01*
X36420565Y14104867D01*
X36378622Y14206125D01*
X36378620Y14206127D01*
X36378620Y14206128D01*
X36301126Y14283622D01*
X36301124Y14283623D01*
X36301123Y14283624D01*
X36241809Y14308193D01*
X36199866Y14325567D01*
X36199865Y14325567D01*
X36090265Y14325567D01*
X36090263Y14325567D01*
X35989005Y14283623D01*
X35911509Y14206127D01*
X35869565Y14104869D01*
X23207566Y14104869D01*
X23206024Y14106411D01*
X23206022Y14106412D01*
X23206021Y14106413D01*
X23146707Y14130982D01*
X23104764Y14148356D01*
X23104763Y14148356D01*
X22995163Y14148356D01*
X22995161Y14148356D01*
X22893903Y14106412D01*
X22816407Y14028916D01*
X22774463Y13927658D01*
X6840697Y13927658D01*
X6960451Y14019549D01*
X7052698Y14139767D01*
X7105318Y14266803D01*
X9988114Y14266803D01*
X9988114Y14157200D01*
X9995333Y14139772D01*
X10030057Y14055943D01*
X10030058Y14055942D01*
X10030059Y14055940D01*
X10107553Y13978446D01*
X10107554Y13978446D01*
X10107556Y13978444D01*
X10208814Y13936501D01*
X10208816Y13936501D01*
X10318412Y13936501D01*
X10318414Y13936501D01*
X10419672Y13978444D01*
X10419673Y13978446D01*
X10419675Y13978446D01*
X10497169Y14055940D01*
X10497169Y14055941D01*
X10497171Y14055943D01*
X10539114Y14157201D01*
X10539114Y14266801D01*
X10497171Y14368059D01*
X10497169Y14368061D01*
X10497169Y14368062D01*
X10419675Y14445556D01*
X10419673Y14445557D01*
X10419672Y14445558D01*
X10360358Y14470127D01*
X10318415Y14487501D01*
X10318414Y14487501D01*
X10208814Y14487501D01*
X10208812Y14487501D01*
X10107554Y14445557D01*
X10030058Y14368061D01*
X9988114Y14266803D01*
X7105318Y14266803D01*
X7110687Y14279764D01*
X7125500Y14392280D01*
X7125500Y14467720D01*
X7110687Y14580236D01*
X7052698Y14720233D01*
X6960451Y14840451D01*
X6948800Y14849391D01*
X6840233Y14932698D01*
X6840228Y14932701D01*
X6700235Y14990688D01*
X6622894Y15000870D01*
X6587720Y15005500D01*
X5462280Y15005500D01*
X5430425Y15001307D01*
X5349764Y14990688D01*
X5209771Y14932701D01*
X5209766Y14932698D01*
X5089549Y14840452D01*
X5089548Y14840451D01*
X4997302Y14720234D01*
X4997299Y14720229D01*
X4939312Y14580236D01*
X4928693Y14499575D01*
X4924500Y14467720D01*
X2525500Y14467720D01*
X2510687Y14580236D01*
X2452698Y14720233D01*
X2360451Y14840451D01*
X2348800Y14849391D01*
X2240233Y14932698D01*
X2240228Y14932701D01*
X2100235Y14990688D01*
X2022894Y15000870D01*
X1987720Y15005500D01*
X1062280Y15005500D01*
X1030425Y15001307D01*
X949764Y14990688D01*
X809771Y14932701D01*
X809766Y14932698D01*
X689549Y14840452D01*
X689548Y14840451D01*
X597302Y14720234D01*
X597299Y14720229D01*
X539312Y14580236D01*
X528693Y14499575D01*
X524500Y14467720D01*
X127500Y14467720D01*
X127500Y15304802D01*
X3174500Y15304802D01*
X3174500Y15195199D01*
X3180925Y15179688D01*
X3216443Y15093942D01*
X3216444Y15093941D01*
X3216445Y15093939D01*
X3293939Y15016445D01*
X3293940Y15016445D01*
X3293942Y15016443D01*
X3395200Y14974500D01*
X3395202Y14974500D01*
X3504798Y14974500D01*
X3504800Y14974500D01*
X3606058Y15016443D01*
X3606060Y15016445D01*
X3606061Y15016445D01*
X3683555Y15093939D01*
X3683555Y15093940D01*
X3683557Y15093942D01*
X3725500Y15195200D01*
X3725500Y15304800D01*
X3683557Y15406058D01*
X3683555Y15406060D01*
X3683555Y15406061D01*
X3642813Y15446803D01*
X7208114Y15446803D01*
X7208114Y15337200D01*
X7208636Y15335940D01*
X7250057Y15235943D01*
X7250058Y15235942D01*
X7250059Y15235940D01*
X7327553Y15158446D01*
X7327554Y15158446D01*
X7327556Y15158444D01*
X7428814Y15116501D01*
X7428816Y15116501D01*
X7538412Y15116501D01*
X7538414Y15116501D01*
X7639672Y15158444D01*
X7639674Y15158446D01*
X7639675Y15158446D01*
X7717169Y15235940D01*
X7717169Y15235941D01*
X7717171Y15235943D01*
X7759114Y15337201D01*
X7759114Y15376803D01*
X12928114Y15376803D01*
X12928114Y15376801D01*
X12928114Y15267201D01*
X12970057Y15165943D01*
X12970058Y15165942D01*
X12970059Y15165940D01*
X13047553Y15088446D01*
X13047554Y15088446D01*
X13047556Y15088444D01*
X13148814Y15046501D01*
X13148816Y15046501D01*
X13258412Y15046501D01*
X13258414Y15046501D01*
X13359672Y15088444D01*
X13359674Y15088446D01*
X13359675Y15088446D01*
X13437169Y15165940D01*
X13437169Y15165942D01*
X13437171Y15165943D01*
X13442866Y15179692D01*
X34566257Y15179692D01*
X34566257Y15070089D01*
X34576028Y15046501D01*
X34608200Y14968832D01*
X34608201Y14968831D01*
X34608202Y14968829D01*
X34685696Y14891335D01*
X34685697Y14891335D01*
X34685699Y14891333D01*
X34786957Y14849390D01*
X34786959Y14849390D01*
X34896555Y14849390D01*
X34896557Y14849390D01*
X34997815Y14891333D01*
X34997817Y14891335D01*
X34997818Y14891335D01*
X35075312Y14968829D01*
X35075312Y14968830D01*
X35075314Y14968832D01*
X35117257Y15070090D01*
X35117257Y15179690D01*
X35075314Y15280948D01*
X35075312Y15280950D01*
X35075312Y15280951D01*
X34997818Y15358445D01*
X34997816Y15358446D01*
X34997815Y15358447D01*
X34938501Y15383016D01*
X34896558Y15400390D01*
X34896557Y15400390D01*
X34786957Y15400390D01*
X34786955Y15400390D01*
X34685697Y15358446D01*
X34608201Y15280950D01*
X34566257Y15179692D01*
X13442866Y15179692D01*
X13479114Y15267201D01*
X13479114Y15376801D01*
X13437171Y15478059D01*
X13437169Y15478061D01*
X13437169Y15478062D01*
X13368428Y15546803D01*
X37858114Y15546803D01*
X37858114Y15546801D01*
X37858114Y15437201D01*
X37900057Y15335943D01*
X37900058Y15335942D01*
X37900059Y15335940D01*
X37977553Y15258446D01*
X37977554Y15258446D01*
X37977556Y15258444D01*
X38078814Y15216501D01*
X38078816Y15216501D01*
X38188412Y15216501D01*
X38188414Y15216501D01*
X38289672Y15258444D01*
X38289674Y15258446D01*
X38289675Y15258446D01*
X38367169Y15335940D01*
X38367169Y15335941D01*
X38367171Y15335943D01*
X38409114Y15437201D01*
X38409114Y15546801D01*
X38367171Y15648059D01*
X38367169Y15648061D01*
X38367169Y15648062D01*
X38289675Y15725556D01*
X38289673Y15725557D01*
X38289672Y15725558D01*
X38230358Y15750127D01*
X38188415Y15767501D01*
X38188414Y15767501D01*
X38078814Y15767501D01*
X38078812Y15767501D01*
X37977554Y15725557D01*
X37900058Y15648061D01*
X37858114Y15546803D01*
X13368428Y15546803D01*
X13359675Y15555556D01*
X13359673Y15555557D01*
X13359672Y15555558D01*
X13300358Y15580127D01*
X13258415Y15597501D01*
X13258414Y15597501D01*
X13148814Y15597501D01*
X13148812Y15597501D01*
X13047554Y15555557D01*
X12970058Y15478061D01*
X12928114Y15376803D01*
X7759114Y15376803D01*
X7759114Y15446801D01*
X7717171Y15548059D01*
X7717169Y15548061D01*
X7717169Y15548062D01*
X7639675Y15625556D01*
X7639673Y15625557D01*
X7639672Y15625558D01*
X7580358Y15650127D01*
X7538415Y15667501D01*
X7538414Y15667501D01*
X7428814Y15667501D01*
X7428812Y15667501D01*
X7327554Y15625557D01*
X7250058Y15548061D01*
X7208114Y15446803D01*
X3642813Y15446803D01*
X3606061Y15483555D01*
X3606059Y15483556D01*
X3606058Y15483557D01*
X3546744Y15508126D01*
X3504801Y15525500D01*
X3504800Y15525500D01*
X3395200Y15525500D01*
X3395198Y15525500D01*
X3293940Y15483556D01*
X3216444Y15406060D01*
X3174500Y15304802D01*
X127500Y15304802D01*
X127500Y16046803D01*
X20858114Y16046803D01*
X20858114Y16046801D01*
X20858114Y15937201D01*
X20900057Y15835943D01*
X20900058Y15835942D01*
X20900059Y15835940D01*
X20977553Y15758446D01*
X20977554Y15758446D01*
X20977556Y15758444D01*
X21078814Y15716501D01*
X21078816Y15716501D01*
X21188412Y15716501D01*
X21188414Y15716501D01*
X21289672Y15758444D01*
X21289674Y15758446D01*
X21289675Y15758446D01*
X21367169Y15835940D01*
X21367169Y15835941D01*
X21367171Y15835943D01*
X21409114Y15937201D01*
X21409114Y16046801D01*
X21367171Y16148059D01*
X21367169Y16148061D01*
X21367169Y16148062D01*
X21289675Y16225556D01*
X21289673Y16225557D01*
X21289672Y16225558D01*
X21230358Y16250127D01*
X21188415Y16267501D01*
X21188414Y16267501D01*
X21078814Y16267501D01*
X21078812Y16267501D01*
X20977554Y16225557D01*
X20900058Y16148061D01*
X20858114Y16046803D01*
X127500Y16046803D01*
X127500Y17498074D01*
X127651Y17501919D01*
X135091Y17596449D01*
X274500Y17596449D01*
X274500Y17403552D01*
X304675Y17213031D01*
X304676Y17213028D01*
X354903Y17058444D01*
X364285Y17029571D01*
X451859Y16857698D01*
X553718Y16717501D01*
X565242Y16701640D01*
X565246Y16701635D01*
X701635Y16565246D01*
X701639Y16565243D01*
X701641Y16565241D01*
X857698Y16451859D01*
X1029571Y16364285D01*
X1213028Y16304676D01*
X1403551Y16274500D01*
X1403552Y16274500D01*
X1596448Y16274500D01*
X1596449Y16274500D01*
X1786972Y16304676D01*
X1970429Y16364285D01*
X2142302Y16451859D01*
X2204162Y16496803D01*
X9658114Y16496803D01*
X9658114Y16496801D01*
X9658114Y16387201D01*
X9700057Y16285943D01*
X9700058Y16285942D01*
X9700059Y16285940D01*
X9777553Y16208446D01*
X9777554Y16208446D01*
X9777556Y16208444D01*
X9878814Y16166501D01*
X9878816Y16166501D01*
X9988412Y16166501D01*
X9988414Y16166501D01*
X10089672Y16208444D01*
X10089674Y16208446D01*
X10089675Y16208446D01*
X10167169Y16285940D01*
X10167169Y16285941D01*
X10167171Y16285943D01*
X10209114Y16387201D01*
X10209114Y16496801D01*
X10167171Y16598059D01*
X10167169Y16598061D01*
X10167169Y16598062D01*
X10089675Y16675556D01*
X10089673Y16675557D01*
X10089672Y16675558D01*
X10026703Y16701641D01*
X9988415Y16717501D01*
X9988414Y16717501D01*
X9878814Y16717501D01*
X9878812Y16717501D01*
X9777554Y16675557D01*
X9700058Y16598061D01*
X9658114Y16496803D01*
X2204162Y16496803D01*
X2298359Y16565241D01*
X2298362Y16565245D01*
X2298365Y16565246D01*
X2434754Y16701635D01*
X2434755Y16701638D01*
X2434759Y16701641D01*
X2548141Y16857698D01*
X2635715Y17029571D01*
X2695324Y17213028D01*
X2716512Y17346803D01*
X3083114Y17346803D01*
X3083114Y17346801D01*
X3083114Y17237201D01*
X3125057Y17135943D01*
X3125058Y17135942D01*
X3125059Y17135940D01*
X3202553Y17058446D01*
X3202554Y17058446D01*
X3202556Y17058444D01*
X3303814Y17016501D01*
X3303816Y17016501D01*
X3413412Y17016501D01*
X3413414Y17016501D01*
X3514672Y17058444D01*
X3514674Y17058446D01*
X3514675Y17058446D01*
X3592169Y17135940D01*
X3592169Y17135941D01*
X3592171Y17135943D01*
X3634114Y17237201D01*
X3634114Y17346801D01*
X3592171Y17448059D01*
X3592169Y17448061D01*
X3592169Y17448062D01*
X3514675Y17525556D01*
X3514673Y17525557D01*
X3514672Y17525558D01*
X3463383Y17546803D01*
X13258114Y17546803D01*
X13258114Y17437200D01*
X13258636Y17435940D01*
X13300057Y17335943D01*
X13300058Y17335942D01*
X13300059Y17335940D01*
X13377553Y17258446D01*
X13377554Y17258446D01*
X13377556Y17258444D01*
X13478814Y17216501D01*
X13478816Y17216501D01*
X13588412Y17216501D01*
X13588414Y17216501D01*
X13689672Y17258444D01*
X13689674Y17258446D01*
X13689675Y17258446D01*
X13767169Y17335940D01*
X13767169Y17335941D01*
X13767171Y17335943D01*
X13809114Y17437201D01*
X13809114Y17546801D01*
X13767171Y17648059D01*
X13767169Y17648061D01*
X13767169Y17648062D01*
X13689675Y17725556D01*
X13689673Y17725557D01*
X13689672Y17725558D01*
X13630358Y17750127D01*
X13588415Y17767501D01*
X13588414Y17767501D01*
X13478814Y17767501D01*
X13478812Y17767501D01*
X13377554Y17725557D01*
X13300058Y17648061D01*
X13258114Y17546803D01*
X3463383Y17546803D01*
X3455358Y17550127D01*
X3413415Y17567501D01*
X3413414Y17567501D01*
X3303814Y17567501D01*
X3303812Y17567501D01*
X3202554Y17525557D01*
X3125058Y17448061D01*
X3083114Y17346803D01*
X2716512Y17346803D01*
X2725500Y17403551D01*
X2725500Y17596449D01*
X2695324Y17786972D01*
X2635715Y17970429D01*
X2548141Y18142302D01*
X2544871Y18146803D01*
X15858114Y18146803D01*
X15858114Y18146801D01*
X15858114Y18037201D01*
X15900057Y17935943D01*
X15900058Y17935942D01*
X15900059Y17935940D01*
X15959350Y17876649D01*
X15973702Y17842001D01*
X15959350Y17807353D01*
X15900058Y17748061D01*
X15858114Y17646803D01*
X15858114Y17537200D01*
X15863018Y17525361D01*
X15900057Y17435943D01*
X15900058Y17435942D01*
X15900059Y17435940D01*
X15959350Y17376649D01*
X15973702Y17342001D01*
X15959350Y17307353D01*
X15900058Y17248061D01*
X15858114Y17146803D01*
X15858114Y17037200D01*
X15866688Y17016502D01*
X15900057Y16935943D01*
X15900058Y16935942D01*
X15900059Y16935940D01*
X15977553Y16858446D01*
X15977554Y16858446D01*
X15977556Y16858444D01*
X16078814Y16816501D01*
X16078816Y16816501D01*
X16188412Y16816501D01*
X16188414Y16816501D01*
X16289672Y16858444D01*
X16289672Y16858445D01*
X16294130Y16860291D01*
X16295025Y16858129D01*
X16323492Y16863810D01*
X16354688Y16842995D01*
X16359234Y16834497D01*
X16400057Y16735943D01*
X16400058Y16735942D01*
X16400059Y16735940D01*
X16477553Y16658446D01*
X16477554Y16658446D01*
X16477556Y16658444D01*
X16578814Y16616501D01*
X16578816Y16616501D01*
X16688412Y16616501D01*
X16688414Y16616501D01*
X16789672Y16658444D01*
X16789674Y16658446D01*
X16789675Y16658446D01*
X16867169Y16735940D01*
X16867169Y16735941D01*
X16867171Y16735943D01*
X16909114Y16837201D01*
X16909114Y16846803D01*
X24758114Y16846803D01*
X24758114Y16737200D01*
X24758636Y16735940D01*
X24800057Y16635943D01*
X24800058Y16635942D01*
X24800059Y16635940D01*
X24877553Y16558446D01*
X24877554Y16558446D01*
X24877556Y16558444D01*
X24978814Y16516501D01*
X24978816Y16516501D01*
X25088412Y16516501D01*
X25088414Y16516501D01*
X25189672Y16558444D01*
X25189674Y16558446D01*
X25189675Y16558446D01*
X25267169Y16635940D01*
X25267169Y16635941D01*
X25267171Y16635943D01*
X25309114Y16737201D01*
X25309114Y16766803D01*
X32358114Y16766803D01*
X32358114Y16766801D01*
X32358114Y16657201D01*
X32400057Y16555943D01*
X32400058Y16555942D01*
X32400059Y16555940D01*
X32477553Y16478446D01*
X32477554Y16478446D01*
X32477556Y16478444D01*
X32578814Y16436501D01*
X32578816Y16436501D01*
X32688412Y16436501D01*
X32688414Y16436501D01*
X32789672Y16478444D01*
X32789674Y16478446D01*
X32789675Y16478446D01*
X32867169Y16555940D01*
X32867169Y16555941D01*
X32867171Y16555943D01*
X32909114Y16657201D01*
X32909114Y16746803D01*
X35558114Y16746803D01*
X35558114Y16637200D01*
X35558636Y16635940D01*
X35600057Y16535943D01*
X35600058Y16535942D01*
X35600059Y16535940D01*
X35677553Y16458446D01*
X35677554Y16458446D01*
X35677556Y16458444D01*
X35778814Y16416501D01*
X35778816Y16416501D01*
X35888412Y16416501D01*
X35888414Y16416501D01*
X35989672Y16458444D01*
X35989674Y16458446D01*
X35989675Y16458446D01*
X36067169Y16535940D01*
X36067169Y16535941D01*
X36067171Y16535943D01*
X36109114Y16637201D01*
X36109114Y16746801D01*
X36067171Y16848059D01*
X36067169Y16848061D01*
X36067169Y16848062D01*
X35989675Y16925556D01*
X35989673Y16925557D01*
X35989672Y16925558D01*
X35930358Y16950127D01*
X35888415Y16967501D01*
X35888414Y16967501D01*
X35778814Y16967501D01*
X35778812Y16967501D01*
X35677554Y16925557D01*
X35600058Y16848061D01*
X35600057Y16848060D01*
X35600057Y16848059D01*
X35595561Y16837204D01*
X35558114Y16746803D01*
X32909114Y16746803D01*
X32909114Y16766801D01*
X32867171Y16868059D01*
X32867169Y16868061D01*
X32867169Y16868062D01*
X32789675Y16945556D01*
X32789673Y16945557D01*
X32789672Y16945558D01*
X32730358Y16970127D01*
X32688415Y16987501D01*
X32688414Y16987501D01*
X32578814Y16987501D01*
X32578812Y16987501D01*
X32477554Y16945557D01*
X32400058Y16868061D01*
X32358114Y16766803D01*
X25309114Y16766803D01*
X25309114Y16846801D01*
X25267171Y16948059D01*
X25267169Y16948061D01*
X25267169Y16948062D01*
X25189675Y17025556D01*
X25189673Y17025557D01*
X25189672Y17025558D01*
X25130358Y17050127D01*
X25088415Y17067501D01*
X25088414Y17067501D01*
X24978814Y17067501D01*
X24978812Y17067501D01*
X24877554Y17025557D01*
X24800058Y16948061D01*
X24758114Y16846803D01*
X16909114Y16846803D01*
X16909114Y16946801D01*
X16867171Y17048059D01*
X16867169Y17048061D01*
X16867169Y17048062D01*
X16789675Y17125556D01*
X16789673Y17125557D01*
X16789672Y17125558D01*
X16730358Y17150127D01*
X16688415Y17167501D01*
X16688414Y17167501D01*
X16578814Y17167501D01*
X16578812Y17167501D01*
X16528845Y17146803D01*
X16477556Y17125558D01*
X16477555Y17125558D01*
X16473098Y17123711D01*
X16472205Y17125865D01*
X16443684Y17120203D01*
X16412510Y17141052D01*
X16407995Y17149502D01*
X16367171Y17248059D01*
X16367169Y17248061D01*
X16367169Y17248062D01*
X16307878Y17307353D01*
X16293526Y17342001D01*
X16307878Y17376649D01*
X16367169Y17435940D01*
X16367169Y17435941D01*
X16367171Y17435943D01*
X16409114Y17537201D01*
X16409114Y17596449D01*
X36274500Y17596449D01*
X36274500Y17403552D01*
X36304675Y17213031D01*
X36304676Y17213028D01*
X36354903Y17058444D01*
X36364285Y17029571D01*
X36451859Y16857698D01*
X36553718Y16717501D01*
X36565242Y16701640D01*
X36565246Y16701635D01*
X36701635Y16565246D01*
X36701639Y16565243D01*
X36701641Y16565241D01*
X36857698Y16451859D01*
X37029571Y16364285D01*
X37213028Y16304676D01*
X37403551Y16274500D01*
X37403552Y16274500D01*
X37596448Y16274500D01*
X37596449Y16274500D01*
X37786972Y16304676D01*
X37970429Y16364285D01*
X38142302Y16451859D01*
X38298359Y16565241D01*
X38298362Y16565245D01*
X38298365Y16565246D01*
X38434754Y16701635D01*
X38434755Y16701638D01*
X38434759Y16701641D01*
X38548141Y16857698D01*
X38635715Y17029571D01*
X38695324Y17213028D01*
X38725500Y17403551D01*
X38725500Y17596449D01*
X38695324Y17786972D01*
X38635715Y17970429D01*
X38548141Y18142302D01*
X38434759Y18298359D01*
X38434757Y18298361D01*
X38434754Y18298365D01*
X38298365Y18434754D01*
X38298360Y18434758D01*
X38298359Y18434759D01*
X38142302Y18548141D01*
X37970429Y18635715D01*
X37970428Y18635716D01*
X37970427Y18635716D01*
X37786972Y18695324D01*
X37786969Y18695325D01*
X37625555Y18720890D01*
X37596449Y18725500D01*
X37403551Y18725500D01*
X37374445Y18720890D01*
X37213030Y18695325D01*
X37213027Y18695324D01*
X37029572Y18635716D01*
X36857698Y18548141D01*
X36701639Y18434758D01*
X36565242Y18298361D01*
X36451859Y18142302D01*
X36364284Y17970428D01*
X36304676Y17786973D01*
X36304675Y17786970D01*
X36274500Y17596449D01*
X16409114Y17596449D01*
X16409114Y17646801D01*
X16367171Y17748059D01*
X16367169Y17748061D01*
X16367169Y17748062D01*
X16307878Y17807353D01*
X16293526Y17842001D01*
X16307878Y17876649D01*
X16367169Y17935940D01*
X16367169Y17935941D01*
X16367171Y17935943D01*
X16407994Y18034499D01*
X16434512Y18061015D01*
X16472015Y18061015D01*
X16474301Y18059793D01*
X16477554Y18058446D01*
X16477556Y18058444D01*
X16578814Y18016501D01*
X16578816Y18016501D01*
X16688412Y18016501D01*
X16688414Y18016501D01*
X16789672Y18058444D01*
X16789674Y18058446D01*
X16789675Y18058446D01*
X16867169Y18135940D01*
X16867169Y18135941D01*
X16867171Y18135943D01*
X16909114Y18237201D01*
X16909114Y18258270D01*
X20745262Y18258270D01*
X20745262Y18148667D01*
X20754488Y18126394D01*
X20787205Y18047410D01*
X20787206Y18047409D01*
X20787207Y18047407D01*
X20864701Y17969913D01*
X20864702Y17969913D01*
X20864704Y17969911D01*
X20965962Y17927968D01*
X20965964Y17927968D01*
X21075560Y17927968D01*
X21075562Y17927968D01*
X21176820Y17969911D01*
X21176822Y17969913D01*
X21176823Y17969913D01*
X21254317Y18047407D01*
X21254317Y18047408D01*
X21254319Y18047410D01*
X21296262Y18148668D01*
X21296262Y18258268D01*
X21259589Y18346803D01*
X24758114Y18346803D01*
X24758114Y18346801D01*
X24758114Y18237201D01*
X24800057Y18135943D01*
X24800058Y18135942D01*
X24800059Y18135940D01*
X24877553Y18058446D01*
X24877554Y18058446D01*
X24877556Y18058444D01*
X24978814Y18016501D01*
X24978816Y18016501D01*
X25088412Y18016501D01*
X25088414Y18016501D01*
X25189672Y18058444D01*
X25189674Y18058446D01*
X25189675Y18058446D01*
X25267169Y18135940D01*
X25267169Y18135941D01*
X25267171Y18135943D01*
X25309114Y18237201D01*
X25309114Y18346801D01*
X25309113Y18346803D01*
X27158114Y18346803D01*
X27158114Y18346801D01*
X27158114Y18237201D01*
X27200057Y18135943D01*
X27200058Y18135942D01*
X27200059Y18135940D01*
X27277553Y18058446D01*
X27277554Y18058446D01*
X27277556Y18058444D01*
X27378814Y18016501D01*
X27378816Y18016501D01*
X27488412Y18016501D01*
X27488414Y18016501D01*
X27589672Y18058444D01*
X27589674Y18058446D01*
X27589675Y18058446D01*
X27667169Y18135940D01*
X27667169Y18135941D01*
X27667171Y18135943D01*
X27709114Y18237201D01*
X27709114Y18346801D01*
X27667171Y18448059D01*
X27667169Y18448061D01*
X27667169Y18448062D01*
X27589675Y18525556D01*
X27589673Y18525557D01*
X27589672Y18525558D01*
X27530358Y18550127D01*
X27488415Y18567501D01*
X27488414Y18567501D01*
X27378814Y18567501D01*
X27378812Y18567501D01*
X27277554Y18525557D01*
X27200058Y18448061D01*
X27200057Y18448060D01*
X27200057Y18448059D01*
X27194546Y18434754D01*
X27158114Y18346803D01*
X25309113Y18346803D01*
X25267171Y18448059D01*
X25267169Y18448061D01*
X25267169Y18448062D01*
X25189675Y18525556D01*
X25189673Y18525557D01*
X25189672Y18525558D01*
X25130358Y18550127D01*
X25088415Y18567501D01*
X25088414Y18567501D01*
X24978814Y18567501D01*
X24978812Y18567501D01*
X24877554Y18525557D01*
X24800058Y18448061D01*
X24800057Y18448060D01*
X24800057Y18448059D01*
X24794546Y18434754D01*
X24758114Y18346803D01*
X21259589Y18346803D01*
X21254319Y18359526D01*
X21254317Y18359528D01*
X21254317Y18359529D01*
X21176823Y18437023D01*
X21176821Y18437024D01*
X21176820Y18437025D01*
X21095996Y18470504D01*
X21075563Y18478968D01*
X21075562Y18478968D01*
X20965962Y18478968D01*
X20965960Y18478968D01*
X20864702Y18437024D01*
X20787206Y18359528D01*
X20745262Y18258270D01*
X16909114Y18258270D01*
X16909114Y18346801D01*
X16867171Y18448059D01*
X16867169Y18448061D01*
X16867169Y18448062D01*
X16789675Y18525556D01*
X16789673Y18525557D01*
X16789672Y18525558D01*
X16730358Y18550127D01*
X16688415Y18567501D01*
X16688414Y18567501D01*
X16578814Y18567501D01*
X16578812Y18567501D01*
X16477554Y18525557D01*
X16400059Y18448062D01*
X16400057Y18448061D01*
X16359234Y18349506D01*
X16332715Y18322988D01*
X16295212Y18322988D01*
X16292928Y18324209D01*
X16289672Y18325558D01*
X16248814Y18342483D01*
X16188415Y18367501D01*
X16188414Y18367501D01*
X16078814Y18367501D01*
X16078812Y18367501D01*
X15977554Y18325557D01*
X15900058Y18248061D01*
X15858114Y18146803D01*
X2544871Y18146803D01*
X2434759Y18298359D01*
X2434757Y18298361D01*
X2434754Y18298365D01*
X2298365Y18434754D01*
X2298360Y18434758D01*
X2298359Y18434759D01*
X2142302Y18548141D01*
X1970429Y18635715D01*
X1970428Y18635716D01*
X1970427Y18635716D01*
X1786972Y18695324D01*
X1786969Y18695325D01*
X1625555Y18720890D01*
X1596449Y18725500D01*
X1403551Y18725500D01*
X1374445Y18720890D01*
X1213030Y18695325D01*
X1213027Y18695324D01*
X1029572Y18635716D01*
X857698Y18548141D01*
X701639Y18434758D01*
X565242Y18298361D01*
X451859Y18142302D01*
X364284Y17970428D01*
X304676Y17786973D01*
X304675Y17786970D01*
X274500Y17596449D01*
X135091Y17596449D01*
X135545Y17602219D01*
X135545Y17602220D01*
X136661Y17616401D01*
X144096Y17710870D01*
X145296Y17718449D01*
X193776Y17920385D01*
X196150Y17927688D01*
X196266Y17927968D01*
X275623Y18119552D01*
X279103Y18126382D01*
X387614Y18303456D01*
X392116Y18309654D01*
X526996Y18467578D01*
X532422Y18473004D01*
X690346Y18607884D01*
X696544Y18612386D01*
X873618Y18720897D01*
X880448Y18724377D01*
X1072316Y18803852D01*
X1079615Y18806224D01*
X1281551Y18854704D01*
X1289130Y18855904D01*
X1481250Y18871025D01*
X1498082Y18872349D01*
X1501926Y18872500D01*
X1529101Y18872500D01*
X37470899Y18872500D01*
X37498074Y18872500D01*
X37501918Y18872349D01*
G37*
%TD.AperFunction*%
M02*
