M48
; DRILL file {KiCad 9.0.0-rc3} date 2025-02-11T14:32:31-0500
; FORMAT={-:-/ absolute / inch / decimal}
; #@! TF.CreationDate,2025-02-11T14:32:31-05:00
; #@! TF.GenerationSoftware,Kicad,Pcbnew,9.0.0-rc3
; #@! TF.FileFunction,Plated,1,4,PTH
FMAT,2
INCH
; #@! TA.AperFunction,Plated,PTH,ViaDrill
T1C0.0079
; #@! TA.AperFunction,Plated,PTH,ComponentDrill
T2C0.0217
; #@! TA.AperFunction,Plated,PTH,ComponentDrill
T3C0.0236
; #@! TA.AperFunction,Plated,PTH,ViaDrill
T4C0.0591
%
G90
G05
T1
X0.0591Y0.4311
X0.063Y0.2717
X0.1037Y0.0863
X0.1322Y0.6808
X0.1358Y0.6004
X0.1398Y0.3583
X0.1417Y0.5177
X0.1417Y0.2028
X0.1655Y0.0241
X0.1969Y0.2776
X0.2028Y0.4485
X0.2539Y0.0787
X0.2573Y-0.0148
X0.2579Y0.4409
X0.2579Y0.378
X0.2579Y0.3307
X0.2579Y0.2835
X0.2579Y0.2362
X0.2946Y0.606
X0.3005Y0.1965
X0.3701Y0.3543
X0.3701Y0.2362
X0.3911Y0.6473
X0.3911Y0.169
X0.4041Y0.5595
X0.4135Y0.4733
X0.4147Y0.354
X0.4147Y0.295
X0.4147Y0.2359
X0.4175Y0.4124
X0.4856Y0.0981
X0.5131Y0.5036
X0.5135Y0.3202
X0.5151Y0.2489
X0.5155Y0.1784
X0.5198Y0.6032
X0.5249Y0.4091
X0.5249Y0.0784
X0.5328Y0.6887
X0.5407Y-0.0121
X0.5801Y0.4091
X0.5801Y0.0784
X0.5872Y0.356
X0.5872Y0.2839
X0.5875Y0.2143
X0.5875Y0.1422
X0.6234Y0.5351
X0.6352Y0.7123
X0.6352Y0.6926
X0.6352Y0.6729
X0.6549Y0.7202
X0.6549Y0.665
X0.6903Y0.0627
X0.6919Y0.6598
X0.6919Y0.6441
X0.6919Y0.6283
X0.7001Y0.4115
X0.7077Y0.6598
X0.7077Y0.6441
X0.7077Y0.6283
X0.7257Y-0.0161
X0.7612Y0.5351
X0.7769Y0.293
X0.7769Y0.2536
X0.7769Y0.2143
X0.7876Y0.1136
X0.8163Y0.293
X0.8163Y0.2536
X0.8163Y0.2143
X0.8276Y0.7167
X0.832Y0.6296
X0.8356Y0.469
X0.8478Y0.041
X0.8557Y0.293
X0.8557Y0.2536
X0.8557Y0.2143
X0.858Y0.0662
X0.8675Y0.041
X0.9075Y0.5462
X0.9419Y0.4233
X0.9856Y0.7202
X0.9856Y0.6611
X0.9934Y-0.0161
X1.045Y0.2887
X1.045Y0.2158
X1.045Y0.1457
X1.0454Y0.3583
X1.0454Y0.0359
X1.0486Y0.0847
X1.0486Y0.0674
X1.0501Y0.4446
X1.0525Y0.4091
X1.0801Y0.7202
X1.1076Y0.4091
X1.1206Y0.2532
X1.121Y0.182
X1.1214Y0.3249
X1.1273Y0.0733
X1.1352Y0.5316
X1.1576Y-0.0138
X1.1761Y0.4544
X1.182Y0.1162
X1.1997Y0.2076
X1.2013Y0.3639
X1.2151Y0.4743
X1.2179Y0.3993
X1.2419Y0.5002
X1.2419Y0.3734
X1.2428Y0.3102
X1.2428Y0.3297
X1.2429Y0.4086
X1.2445Y0.1962
X1.248Y0.2362
X1.2535Y0.2146
X1.2663Y0.2304
X1.2664Y0.4867
X1.2848Y0.658
X1.285Y0.2203
X1.2855Y0.4846
X1.2942Y0.238
X1.2966Y0.4032
X1.2966Y0.3048
X1.2968Y0.3266
X1.2996Y0.4718
X1.3478Y0.0745
X1.3478Y0.0194
X1.3494Y0.5356
X1.3546Y0.515
X1.3563Y0.3791
X1.3564Y0.3985
X1.3568Y0.4194
X1.357Y0.4367
X1.3571Y0.4546
X1.3717Y0.5955
X1.3743Y0.2369
X1.3972Y0.2642
X1.399Y-0.0121
X1.4056Y0.3673
X1.4108Y0.6572
X1.4114Y0.1181
X1.4187Y0.3793
X1.423Y0.5532
X1.4234Y0.4501
X1.4309Y0.3915
X1.4433Y0.4049
X1.4764Y0.3543
X1.4902Y0.2441
X1.498Y0.4606
X1.5013Y0.6099
X1.5013Y0.1099
T3
X1.2963Y0.1843
X1.2967Y0.5244
X1.4754Y0.5244
X1.4754Y0.1843
T4
X0.0591Y0.689
X0.0591Y0.0197
X1.4764Y0.689
X1.4764Y0.0197
T2
X0.0758Y0.5681G85X0.0443Y0.5681
G05
X0.0758Y0.1406G85X0.0443Y0.1406
G05
X0.2569Y0.5681G85X0.2175Y0.5681
G05
X0.2569Y0.1406G85X0.2175Y0.1406
G05
T3
X1.2766Y0.5244G85X1.3159Y0.5244
G05
X1.3159Y0.1843G85X1.2766Y0.1843
G05
X1.3159Y0.524G85X1.3159Y0.5004
G05
X1.3159Y0.2083G85X1.3159Y0.1846
G05
X1.4498Y0.5244G85X1.501Y0.5244
G05
X1.4498Y0.1843G85X1.501Y0.1843
G05
M30
