%TF.GenerationSoftware,KiCad,Pcbnew,9.0.0-rc3*%
%TF.CreationDate,2025-02-11T14:32:45-05:00*%
%TF.ProjectId,melonHD,6d656c6f-6e48-4442-9e6b-696361645f70,rev?*%
%TF.SameCoordinates,PX7459280PY6422c40*%
%TF.FileFunction,Paste,Top*%
%TF.FilePolarity,Positive*%
%FSLAX46Y46*%
G04 Gerber Fmt 4.6, Leading zero omitted, Abs format (unit mm)*
G04 Created by KiCad (PCBNEW 9.0.0-rc3) date 2025-02-11 14:32:45*
%MOMM*%
%LPD*%
G01*
G04 APERTURE LIST*
%ADD10O,1.600000X0.600000*%
%ADD11O,1.690000X0.600000*%
%ADD12O,0.600000X1.200000*%
G04 APERTURE END LIST*
G36*
G01*
X7187500Y543750D02*
X7187500Y1056250D01*
G75*
G02*
X7406250Y1275000I218750J0D01*
G01*
X7843750Y1275000D01*
G75*
G02*
X8062500Y1056250I0J-218750D01*
G01*
X8062500Y543750D01*
G75*
G02*
X7843750Y325000I-218750J0D01*
G01*
X7406250Y325000D01*
G75*
G02*
X7187500Y543750I0J218750D01*
G01*
G37*
G36*
G01*
X8762500Y543750D02*
X8762500Y1056250D01*
G75*
G02*
X8981250Y1275000I218750J0D01*
G01*
X9418750Y1275000D01*
G75*
G02*
X9637500Y1056250I0J-218750D01*
G01*
X9637500Y543750D01*
G75*
G02*
X9418750Y325000I-218750J0D01*
G01*
X8981250Y325000D01*
G75*
G02*
X8762500Y543750I0J218750D01*
G01*
G37*
G36*
G01*
X18011114Y17167001D02*
X17556114Y17167001D01*
G75*
G02*
X17458614Y17264501I0J97500D01*
G01*
X17458614Y17869501D01*
G75*
G02*
X17556114Y17967001I97500J0D01*
G01*
X18011114Y17967001D01*
G75*
G02*
X18108614Y17869501I0J-97500D01*
G01*
X18108614Y17264501D01*
G75*
G02*
X18011114Y17167001I-97500J0D01*
G01*
G37*
G36*
G01*
X16961114Y17167001D02*
X16506114Y17167001D01*
G75*
G02*
X16408614Y17264501I0J97500D01*
G01*
X16408614Y17869501D01*
G75*
G02*
X16506114Y17967001I97500J0D01*
G01*
X16961114Y17967001D01*
G75*
G02*
X17058614Y17869501I0J-97500D01*
G01*
X17058614Y17264501D01*
G75*
G02*
X16961114Y17167001I-97500J0D01*
G01*
G37*
G36*
G01*
X14433614Y10619501D02*
X14433614Y10164501D01*
G75*
G02*
X14336114Y10067001I-97500J0D01*
G01*
X13731114Y10067001D01*
G75*
G02*
X13633614Y10164501I0J97500D01*
G01*
X13633614Y10619501D01*
G75*
G02*
X13731114Y10717001I97500J0D01*
G01*
X14336114Y10717001D01*
G75*
G02*
X14433614Y10619501I0J-97500D01*
G01*
G37*
G36*
G01*
X14433614Y9669501D02*
X14433614Y9214501D01*
G75*
G02*
X14336114Y9117001I-97500J0D01*
G01*
X13731114Y9117001D01*
G75*
G02*
X13633614Y9214501I0J97500D01*
G01*
X13633614Y9669501D01*
G75*
G02*
X13731114Y9767001I97500J0D01*
G01*
X14336114Y9767001D01*
G75*
G02*
X14433614Y9669501I0J-97500D01*
G01*
G37*
G36*
G01*
X14433614Y8819501D02*
X14433614Y8364501D01*
G75*
G02*
X14336114Y8267001I-97500J0D01*
G01*
X13731114Y8267001D01*
G75*
G02*
X13633614Y8364501I0J97500D01*
G01*
X13633614Y8819501D01*
G75*
G02*
X13731114Y8917001I97500J0D01*
G01*
X14336114Y8917001D01*
G75*
G02*
X14433614Y8819501I0J-97500D01*
G01*
G37*
G36*
G01*
X14433614Y7869501D02*
X14433614Y7414501D01*
G75*
G02*
X14336114Y7317001I-97500J0D01*
G01*
X13731114Y7317001D01*
G75*
G02*
X13633614Y7414501I0J97500D01*
G01*
X13633614Y7869501D01*
G75*
G02*
X13731114Y7967001I97500J0D01*
G01*
X14336114Y7967001D01*
G75*
G02*
X14433614Y7869501I0J-97500D01*
G01*
G37*
G36*
G01*
X14433614Y7019501D02*
X14433614Y6564501D01*
G75*
G02*
X14336114Y6467001I-97500J0D01*
G01*
X13731114Y6467001D01*
G75*
G02*
X13633614Y6564501I0J97500D01*
G01*
X13633614Y7019501D01*
G75*
G02*
X13731114Y7117001I97500J0D01*
G01*
X14336114Y7117001D01*
G75*
G02*
X14433614Y7019501I0J-97500D01*
G01*
G37*
G36*
G01*
X14433614Y6069501D02*
X14433614Y5614501D01*
G75*
G02*
X14336114Y5517001I-97500J0D01*
G01*
X13731114Y5517001D01*
G75*
G02*
X13633614Y5614501I0J97500D01*
G01*
X13633614Y6069501D01*
G75*
G02*
X13731114Y6167001I97500J0D01*
G01*
X14336114Y6167001D01*
G75*
G02*
X14433614Y6069501I0J-97500D01*
G01*
G37*
G36*
G01*
X14433614Y5219501D02*
X14433614Y4764501D01*
G75*
G02*
X14336114Y4667001I-97500J0D01*
G01*
X13731114Y4667001D01*
G75*
G02*
X13633614Y4764501I0J97500D01*
G01*
X13633614Y5219501D01*
G75*
G02*
X13731114Y5317001I97500J0D01*
G01*
X14336114Y5317001D01*
G75*
G02*
X14433614Y5219501I0J-97500D01*
G01*
G37*
G36*
G01*
X14433614Y4269501D02*
X14433614Y3814501D01*
G75*
G02*
X14336114Y3717001I-97500J0D01*
G01*
X13731114Y3717001D01*
G75*
G02*
X13633614Y3814501I0J97500D01*
G01*
X13633614Y4269501D01*
G75*
G02*
X13731114Y4367001I97500J0D01*
G01*
X14336114Y4367001D01*
G75*
G02*
X14433614Y4269501I0J-97500D01*
G01*
G37*
G36*
G01*
X14433614Y3419501D02*
X14433614Y2964501D01*
G75*
G02*
X14336114Y2867001I-97500J0D01*
G01*
X13731114Y2867001D01*
G75*
G02*
X13633614Y2964501I0J97500D01*
G01*
X13633614Y3419501D01*
G75*
G02*
X13731114Y3517001I97500J0D01*
G01*
X14336114Y3517001D01*
G75*
G02*
X14433614Y3419501I0J-97500D01*
G01*
G37*
G36*
G01*
X14433614Y2219501D02*
X14433614Y1764501D01*
G75*
G02*
X14336114Y1667001I-97500J0D01*
G01*
X13731114Y1667001D01*
G75*
G02*
X13633614Y1764501I0J97500D01*
G01*
X13633614Y2219501D01*
G75*
G02*
X13731114Y2317001I97500J0D01*
G01*
X14336114Y2317001D01*
G75*
G02*
X14433614Y2219501I0J-97500D01*
G01*
G37*
G36*
G01*
X21131114Y617001D02*
X21586114Y617001D01*
G75*
G02*
X21683614Y519501I0J-97500D01*
G01*
X21683614Y-85499D01*
G75*
G02*
X21586114Y-182999I-97500J0D01*
G01*
X21131114Y-182999D01*
G75*
G02*
X21033614Y-85499I0J97500D01*
G01*
X21033614Y519501D01*
G75*
G02*
X21131114Y617001I97500J0D01*
G01*
G37*
G36*
G01*
X21981114Y617001D02*
X22436114Y617001D01*
G75*
G02*
X22533614Y519501I0J-97500D01*
G01*
X22533614Y-85499D01*
G75*
G02*
X22436114Y-182999I-97500J0D01*
G01*
X21981114Y-182999D01*
G75*
G02*
X21883614Y-85499I0J97500D01*
G01*
X21883614Y519501D01*
G75*
G02*
X21981114Y617001I97500J0D01*
G01*
G37*
G36*
G01*
X27033614Y1264501D02*
X27033614Y1719501D01*
G75*
G02*
X27131114Y1817001I97500J0D01*
G01*
X27736114Y1817001D01*
G75*
G02*
X27833614Y1719501I0J-97500D01*
G01*
X27833614Y1264501D01*
G75*
G02*
X27736114Y1167001I-97500J0D01*
G01*
X27131114Y1167001D01*
G75*
G02*
X27033614Y1264501I0J97500D01*
G01*
G37*
G36*
G01*
X27033614Y2114501D02*
X27033614Y2569501D01*
G75*
G02*
X27131114Y2667001I97500J0D01*
G01*
X27736114Y2667001D01*
G75*
G02*
X27833614Y2569501I0J-97500D01*
G01*
X27833614Y2114501D01*
G75*
G02*
X27736114Y2017001I-97500J0D01*
G01*
X27131114Y2017001D01*
G75*
G02*
X27033614Y2114501I0J97500D01*
G01*
G37*
G36*
G01*
X27033614Y3064501D02*
X27033614Y3519501D01*
G75*
G02*
X27131114Y3617001I97500J0D01*
G01*
X27736114Y3617001D01*
G75*
G02*
X27833614Y3519501I0J-97500D01*
G01*
X27833614Y3064501D01*
G75*
G02*
X27736114Y2967001I-97500J0D01*
G01*
X27131114Y2967001D01*
G75*
G02*
X27033614Y3064501I0J97500D01*
G01*
G37*
G36*
G01*
X27033614Y3914501D02*
X27033614Y4369501D01*
G75*
G02*
X27131114Y4467001I97500J0D01*
G01*
X27736114Y4467001D01*
G75*
G02*
X27833614Y4369501I0J-97500D01*
G01*
X27833614Y3914501D01*
G75*
G02*
X27736114Y3817001I-97500J0D01*
G01*
X27131114Y3817001D01*
G75*
G02*
X27033614Y3914501I0J97500D01*
G01*
G37*
G36*
G01*
X27033614Y4864501D02*
X27033614Y5319501D01*
G75*
G02*
X27131114Y5417001I97500J0D01*
G01*
X27736114Y5417001D01*
G75*
G02*
X27833614Y5319501I0J-97500D01*
G01*
X27833614Y4864501D01*
G75*
G02*
X27736114Y4767001I-97500J0D01*
G01*
X27131114Y4767001D01*
G75*
G02*
X27033614Y4864501I0J97500D01*
G01*
G37*
G36*
G01*
X27033614Y5714501D02*
X27033614Y6169501D01*
G75*
G02*
X27131114Y6267001I97500J0D01*
G01*
X27736114Y6267001D01*
G75*
G02*
X27833614Y6169501I0J-97500D01*
G01*
X27833614Y5714501D01*
G75*
G02*
X27736114Y5617001I-97500J0D01*
G01*
X27131114Y5617001D01*
G75*
G02*
X27033614Y5714501I0J97500D01*
G01*
G37*
G36*
G01*
X27033614Y6664501D02*
X27033614Y7119501D01*
G75*
G02*
X27131114Y7217001I97500J0D01*
G01*
X27736114Y7217001D01*
G75*
G02*
X27833614Y7119501I0J-97500D01*
G01*
X27833614Y6664501D01*
G75*
G02*
X27736114Y6567001I-97500J0D01*
G01*
X27131114Y6567001D01*
G75*
G02*
X27033614Y6664501I0J97500D01*
G01*
G37*
G36*
G01*
X27033614Y7514501D02*
X27033614Y7969501D01*
G75*
G02*
X27131114Y8067001I97500J0D01*
G01*
X27736114Y8067001D01*
G75*
G02*
X27833614Y7969501I0J-97500D01*
G01*
X27833614Y7514501D01*
G75*
G02*
X27736114Y7417001I-97500J0D01*
G01*
X27131114Y7417001D01*
G75*
G02*
X27033614Y7514501I0J97500D01*
G01*
G37*
G36*
G01*
X27033614Y8464501D02*
X27033614Y8919501D01*
G75*
G02*
X27131114Y9017001I97500J0D01*
G01*
X27736114Y9017001D01*
G75*
G02*
X27833614Y8919501I0J-97500D01*
G01*
X27833614Y8464501D01*
G75*
G02*
X27736114Y8367001I-97500J0D01*
G01*
X27131114Y8367001D01*
G75*
G02*
X27033614Y8464501I0J97500D01*
G01*
G37*
G36*
G01*
X27033614Y9314501D02*
X27033614Y9769501D01*
G75*
G02*
X27131114Y9867001I97500J0D01*
G01*
X27736114Y9867001D01*
G75*
G02*
X27833614Y9769501I0J-97500D01*
G01*
X27833614Y9314501D01*
G75*
G02*
X27736114Y9217001I-97500J0D01*
G01*
X27131114Y9217001D01*
G75*
G02*
X27033614Y9314501I0J97500D01*
G01*
G37*
G36*
G01*
X27033614Y10214501D02*
X27033614Y10669501D01*
G75*
G02*
X27131114Y10767001I97500J0D01*
G01*
X27736114Y10767001D01*
G75*
G02*
X27833614Y10669501I0J-97500D01*
G01*
X27833614Y10214501D01*
G75*
G02*
X27736114Y10117001I-97500J0D01*
G01*
X27131114Y10117001D01*
G75*
G02*
X27033614Y10214501I0J97500D01*
G01*
G37*
G36*
G01*
X27033614Y11064501D02*
X27033614Y11519501D01*
G75*
G02*
X27131114Y11617001I97500J0D01*
G01*
X27736114Y11617001D01*
G75*
G02*
X27833614Y11519501I0J-97500D01*
G01*
X27833614Y11064501D01*
G75*
G02*
X27736114Y10967001I-97500J0D01*
G01*
X27131114Y10967001D01*
G75*
G02*
X27033614Y11064501I0J97500D01*
G01*
G37*
G36*
G01*
X27033614Y11914501D02*
X27033614Y12369501D01*
G75*
G02*
X27131114Y12467001I97500J0D01*
G01*
X27736114Y12467001D01*
G75*
G02*
X27833614Y12369501I0J-97500D01*
G01*
X27833614Y11914501D01*
G75*
G02*
X27736114Y11817001I-97500J0D01*
G01*
X27131114Y11817001D01*
G75*
G02*
X27033614Y11914501I0J97500D01*
G01*
G37*
G36*
G01*
X27033614Y12764501D02*
X27033614Y13219501D01*
G75*
G02*
X27131114Y13317001I97500J0D01*
G01*
X27736114Y13317001D01*
G75*
G02*
X27833614Y13219501I0J-97500D01*
G01*
X27833614Y12764501D01*
G75*
G02*
X27736114Y12667001I-97500J0D01*
G01*
X27131114Y12667001D01*
G75*
G02*
X27033614Y12764501I0J97500D01*
G01*
G37*
G36*
G01*
X27033614Y13614501D02*
X27033614Y14069501D01*
G75*
G02*
X27131114Y14167001I97500J0D01*
G01*
X27736114Y14167001D01*
G75*
G02*
X27833614Y14069501I0J-97500D01*
G01*
X27833614Y13614501D01*
G75*
G02*
X27736114Y13517001I-97500J0D01*
G01*
X27131114Y13517001D01*
G75*
G02*
X27033614Y13614501I0J97500D01*
G01*
G37*
G36*
G01*
X25236114Y17167001D02*
X24781114Y17167001D01*
G75*
G02*
X24683614Y17264501I0J97500D01*
G01*
X24683614Y17869501D01*
G75*
G02*
X24781114Y17967001I97500J0D01*
G01*
X25236114Y17967001D01*
G75*
G02*
X25333614Y17869501I0J-97500D01*
G01*
X25333614Y17264501D01*
G75*
G02*
X25236114Y17167001I-97500J0D01*
G01*
G37*
G36*
G01*
X18083614Y3907001D02*
X18083614Y8977001D01*
G75*
G02*
X18348614Y9242001I265000J0D01*
G01*
X23118614Y9242001D01*
G75*
G02*
X23383614Y8977001I0J-265000D01*
G01*
X23383614Y3907001D01*
G75*
G02*
X23118614Y3642001I-265000J0D01*
G01*
X18348614Y3642001D01*
G75*
G02*
X18083614Y3907001I0J265000D01*
G01*
G37*
G36*
G01*
X6842000Y5515000D02*
X7758000Y5515000D01*
G75*
G02*
X7850000Y5423000I0J-92000D01*
G01*
X7850000Y5377000D01*
G75*
G02*
X7758000Y5285000I-92000J0D01*
G01*
X6842000Y5285000D01*
G75*
G02*
X6750000Y5377000I0J92000D01*
G01*
X6750000Y5423000D01*
G75*
G02*
X6842000Y5515000I92000J0D01*
G01*
G37*
G36*
G01*
X6842000Y5915000D02*
X7758000Y5915000D01*
G75*
G02*
X7850000Y5823000I0J-92000D01*
G01*
X7850000Y5777000D01*
G75*
G02*
X7758000Y5685000I-92000J0D01*
G01*
X6842000Y5685000D01*
G75*
G02*
X6750000Y5777000I0J92000D01*
G01*
X6750000Y5823000D01*
G75*
G02*
X6842000Y5915000I92000J0D01*
G01*
G37*
G36*
G01*
X6842000Y6315000D02*
X7758000Y6315000D01*
G75*
G02*
X7850000Y6223000I0J-92000D01*
G01*
X7850000Y6177000D01*
G75*
G02*
X7758000Y6085000I-92000J0D01*
G01*
X6842000Y6085000D01*
G75*
G02*
X6750000Y6177000I0J92000D01*
G01*
X6750000Y6223000D01*
G75*
G02*
X6842000Y6315000I92000J0D01*
G01*
G37*
G36*
G01*
X6842000Y6715000D02*
X7758000Y6715000D01*
G75*
G02*
X7850000Y6623000I0J-92000D01*
G01*
X7850000Y6577000D01*
G75*
G02*
X7758000Y6485000I-92000J0D01*
G01*
X6842000Y6485000D01*
G75*
G02*
X6750000Y6577000I0J92000D01*
G01*
X6750000Y6623000D01*
G75*
G02*
X6842000Y6715000I92000J0D01*
G01*
G37*
G36*
G01*
X6842000Y7115000D02*
X7758000Y7115000D01*
G75*
G02*
X7850000Y7023000I0J-92000D01*
G01*
X7850000Y6977000D01*
G75*
G02*
X7758000Y6885000I-92000J0D01*
G01*
X6842000Y6885000D01*
G75*
G02*
X6750000Y6977000I0J92000D01*
G01*
X6750000Y7023000D01*
G75*
G02*
X6842000Y7115000I92000J0D01*
G01*
G37*
G36*
G01*
X6842000Y7515000D02*
X7758000Y7515000D01*
G75*
G02*
X7850000Y7423000I0J-92000D01*
G01*
X7850000Y7377000D01*
G75*
G02*
X7758000Y7285000I-92000J0D01*
G01*
X6842000Y7285000D01*
G75*
G02*
X6750000Y7377000I0J92000D01*
G01*
X6750000Y7423000D01*
G75*
G02*
X6842000Y7515000I92000J0D01*
G01*
G37*
G36*
G01*
X6842000Y7915000D02*
X7758000Y7915000D01*
G75*
G02*
X7850000Y7823000I0J-92000D01*
G01*
X7850000Y7777000D01*
G75*
G02*
X7758000Y7685000I-92000J0D01*
G01*
X6842000Y7685000D01*
G75*
G02*
X6750000Y7777000I0J92000D01*
G01*
X6750000Y7823000D01*
G75*
G02*
X6842000Y7915000I92000J0D01*
G01*
G37*
G36*
G01*
X6842000Y8315000D02*
X7758000Y8315000D01*
G75*
G02*
X7850000Y8223000I0J-92000D01*
G01*
X7850000Y8177000D01*
G75*
G02*
X7758000Y8085000I-92000J0D01*
G01*
X6842000Y8085000D01*
G75*
G02*
X6750000Y8177000I0J92000D01*
G01*
X6750000Y8223000D01*
G75*
G02*
X6842000Y8315000I92000J0D01*
G01*
G37*
G36*
G01*
X6842000Y8715000D02*
X7758000Y8715000D01*
G75*
G02*
X7850000Y8623000I0J-92000D01*
G01*
X7850000Y8577000D01*
G75*
G02*
X7758000Y8485000I-92000J0D01*
G01*
X6842000Y8485000D01*
G75*
G02*
X6750000Y8577000I0J92000D01*
G01*
X6750000Y8623000D01*
G75*
G02*
X6842000Y8715000I92000J0D01*
G01*
G37*
G36*
G01*
X6842000Y9115000D02*
X7758000Y9115000D01*
G75*
G02*
X7850000Y9023000I0J-92000D01*
G01*
X7850000Y8977000D01*
G75*
G02*
X7758000Y8885000I-92000J0D01*
G01*
X6842000Y8885000D01*
G75*
G02*
X6750000Y8977000I0J92000D01*
G01*
X6750000Y9023000D01*
G75*
G02*
X6842000Y9115000I92000J0D01*
G01*
G37*
G36*
G01*
X6842000Y9515000D02*
X7758000Y9515000D01*
G75*
G02*
X7850000Y9423000I0J-92000D01*
G01*
X7850000Y9377000D01*
G75*
G02*
X7758000Y9285000I-92000J0D01*
G01*
X6842000Y9285000D01*
G75*
G02*
X6750000Y9377000I0J92000D01*
G01*
X6750000Y9423000D01*
G75*
G02*
X6842000Y9515000I92000J0D01*
G01*
G37*
G36*
G01*
X6842000Y9915000D02*
X7758000Y9915000D01*
G75*
G02*
X7850000Y9823000I0J-92000D01*
G01*
X7850000Y9777000D01*
G75*
G02*
X7758000Y9685000I-92000J0D01*
G01*
X6842000Y9685000D01*
G75*
G02*
X6750000Y9777000I0J92000D01*
G01*
X6750000Y9823000D01*
G75*
G02*
X6842000Y9915000I92000J0D01*
G01*
G37*
G36*
G01*
X6842000Y10315000D02*
X7758000Y10315000D01*
G75*
G02*
X7850000Y10223000I0J-92000D01*
G01*
X7850000Y10177000D01*
G75*
G02*
X7758000Y10085000I-92000J0D01*
G01*
X6842000Y10085000D01*
G75*
G02*
X6750000Y10177000I0J92000D01*
G01*
X6750000Y10223000D01*
G75*
G02*
X6842000Y10315000I92000J0D01*
G01*
G37*
G36*
G01*
X6842000Y10715000D02*
X7758000Y10715000D01*
G75*
G02*
X7850000Y10623000I0J-92000D01*
G01*
X7850000Y10577000D01*
G75*
G02*
X7758000Y10485000I-92000J0D01*
G01*
X6842000Y10485000D01*
G75*
G02*
X6750000Y10577000I0J92000D01*
G01*
X6750000Y10623000D01*
G75*
G02*
X6842000Y10715000I92000J0D01*
G01*
G37*
G36*
G01*
X6842000Y11115000D02*
X7758000Y11115000D01*
G75*
G02*
X7850000Y11023000I0J-92000D01*
G01*
X7850000Y10977000D01*
G75*
G02*
X7758000Y10885000I-92000J0D01*
G01*
X6842000Y10885000D01*
G75*
G02*
X6750000Y10977000I0J92000D01*
G01*
X6750000Y11023000D01*
G75*
G02*
X6842000Y11115000I92000J0D01*
G01*
G37*
G36*
G01*
X6842000Y11515000D02*
X7758000Y11515000D01*
G75*
G02*
X7850000Y11423000I0J-92000D01*
G01*
X7850000Y11377000D01*
G75*
G02*
X7758000Y11285000I-92000J0D01*
G01*
X6842000Y11285000D01*
G75*
G02*
X6750000Y11377000I0J92000D01*
G01*
X6750000Y11423000D01*
G75*
G02*
X6842000Y11515000I92000J0D01*
G01*
G37*
G36*
G01*
X6842000Y11915000D02*
X7758000Y11915000D01*
G75*
G02*
X7850000Y11823000I0J-92000D01*
G01*
X7850000Y11777000D01*
G75*
G02*
X7758000Y11685000I-92000J0D01*
G01*
X6842000Y11685000D01*
G75*
G02*
X6750000Y11777000I0J92000D01*
G01*
X6750000Y11823000D01*
G75*
G02*
X6842000Y11915000I92000J0D01*
G01*
G37*
G36*
G01*
X6842000Y12315000D02*
X7758000Y12315000D01*
G75*
G02*
X7850000Y12223000I0J-92000D01*
G01*
X7850000Y12177000D01*
G75*
G02*
X7758000Y12085000I-92000J0D01*
G01*
X6842000Y12085000D01*
G75*
G02*
X6750000Y12177000I0J92000D01*
G01*
X6750000Y12223000D01*
G75*
G02*
X6842000Y12315000I92000J0D01*
G01*
G37*
G36*
G01*
X6842000Y12715000D02*
X7758000Y12715000D01*
G75*
G02*
X7850000Y12623000I0J-92000D01*
G01*
X7850000Y12577000D01*
G75*
G02*
X7758000Y12485000I-92000J0D01*
G01*
X6842000Y12485000D01*
G75*
G02*
X6750000Y12577000I0J92000D01*
G01*
X6750000Y12623000D01*
G75*
G02*
X6842000Y12715000I92000J0D01*
G01*
G37*
G36*
G01*
X5500000Y14905000D02*
X6550000Y14905000D01*
G75*
G02*
X7025000Y14430000I0J-475000D01*
G01*
X7025000Y14430000D01*
G75*
G02*
X6550000Y13955000I-475000J0D01*
G01*
X5500000Y13955000D01*
G75*
G02*
X5025000Y14430000I0J475000D01*
G01*
X5025000Y14430000D01*
G75*
G02*
X5500000Y14905000I475000J0D01*
G01*
G37*
G36*
G01*
X5500000Y4045000D02*
X6550000Y4045000D01*
G75*
G02*
X7025000Y3570000I0J-475000D01*
G01*
X7025000Y3570000D01*
G75*
G02*
X6550000Y3095000I-475000J0D01*
G01*
X5500000Y3095000D01*
G75*
G02*
X5025000Y3570000I0J475000D01*
G01*
X5025000Y3570000D01*
G75*
G02*
X5500000Y4045000I475000J0D01*
G01*
G37*
G36*
G01*
X1100000Y14905000D02*
X1950000Y14905000D01*
G75*
G02*
X2425000Y14430000I0J-475000D01*
G01*
X2425000Y14430000D01*
G75*
G02*
X1950000Y13955000I-475000J0D01*
G01*
X1100000Y13955000D01*
G75*
G02*
X625000Y14430000I0J475000D01*
G01*
X625000Y14430000D01*
G75*
G02*
X1100000Y14905000I475000J0D01*
G01*
G37*
G36*
G01*
X1100000Y4045000D02*
X1950000Y4045000D01*
G75*
G02*
X2425000Y3570000I0J-475000D01*
G01*
X2425000Y3570000D01*
G75*
G02*
X1950000Y3095000I-475000J0D01*
G01*
X1100000Y3095000D01*
G75*
G02*
X625000Y3570000I0J475000D01*
G01*
X625000Y3570000D01*
G75*
G02*
X1100000Y4045000I475000J0D01*
G01*
G37*
G36*
G01*
X10250000Y525000D02*
X10250000Y1075000D01*
G75*
G02*
X10450000Y1275000I200000J0D01*
G01*
X10850000Y1275000D01*
G75*
G02*
X11050000Y1075000I0J-200000D01*
G01*
X11050000Y525000D01*
G75*
G02*
X10850000Y325000I-200000J0D01*
G01*
X10450000Y325000D01*
G75*
G02*
X10250000Y525000I0J200000D01*
G01*
G37*
G36*
G01*
X11900000Y525000D02*
X11900000Y1075000D01*
G75*
G02*
X12100000Y1275000I200000J0D01*
G01*
X12500000Y1275000D01*
G75*
G02*
X12700000Y1075000I0J-200000D01*
G01*
X12700000Y525000D01*
G75*
G02*
X12500000Y325000I-200000J0D01*
G01*
X12100000Y325000D01*
G75*
G02*
X11900000Y525000I0J200000D01*
G01*
G37*
G36*
G01*
X10037500Y4875000D02*
X9537500Y4875000D01*
G75*
G02*
X9475000Y4937500I0J62500D01*
G01*
X9475000Y5062500D01*
G75*
G02*
X9537500Y5125000I62500J0D01*
G01*
X10037500Y5125000D01*
G75*
G02*
X10100000Y5062500I0J-62500D01*
G01*
X10100000Y4937500D01*
G75*
G02*
X10037500Y4875000I-62500J0D01*
G01*
G37*
G36*
G01*
X10037500Y5375000D02*
X9537500Y5375000D01*
G75*
G02*
X9475000Y5437500I0J62500D01*
G01*
X9475000Y5562500D01*
G75*
G02*
X9537500Y5625000I62500J0D01*
G01*
X10037500Y5625000D01*
G75*
G02*
X10100000Y5562500I0J-62500D01*
G01*
X10100000Y5437500D01*
G75*
G02*
X10037500Y5375000I-62500J0D01*
G01*
G37*
G36*
G01*
X9987500Y5775000D02*
X9512500Y5775000D01*
G75*
G02*
X9400000Y5887500I0J112500D01*
G01*
X9400000Y6112500D01*
G75*
G02*
X9512500Y6225000I112500J0D01*
G01*
X9987500Y6225000D01*
G75*
G02*
X10100000Y6112500I0J-112500D01*
G01*
X10100000Y5887500D01*
G75*
G02*
X9987500Y5775000I-112500J0D01*
G01*
G37*
G36*
G01*
X10037500Y6375000D02*
X9537500Y6375000D01*
G75*
G02*
X9475000Y6437500I0J62500D01*
G01*
X9475000Y6562500D01*
G75*
G02*
X9537500Y6625000I62500J0D01*
G01*
X10037500Y6625000D01*
G75*
G02*
X10100000Y6562500I0J-62500D01*
G01*
X10100000Y6437500D01*
G75*
G02*
X10037500Y6375000I-62500J0D01*
G01*
G37*
G36*
G01*
X10037500Y6875000D02*
X9537500Y6875000D01*
G75*
G02*
X9475000Y6937500I0J62500D01*
G01*
X9475000Y7062500D01*
G75*
G02*
X9537500Y7125000I62500J0D01*
G01*
X10037500Y7125000D01*
G75*
G02*
X10100000Y7062500I0J-62500D01*
G01*
X10100000Y6937500D01*
G75*
G02*
X10037500Y6875000I-62500J0D01*
G01*
G37*
G36*
G01*
X9262500Y6875000D02*
X8762500Y6875000D01*
G75*
G02*
X8700000Y6937500I0J62500D01*
G01*
X8700000Y7062500D01*
G75*
G02*
X8762500Y7125000I62500J0D01*
G01*
X9262500Y7125000D01*
G75*
G02*
X9325000Y7062500I0J-62500D01*
G01*
X9325000Y6937500D01*
G75*
G02*
X9262500Y6875000I-62500J0D01*
G01*
G37*
G36*
G01*
X9262500Y6375000D02*
X8762500Y6375000D01*
G75*
G02*
X8700000Y6437500I0J62500D01*
G01*
X8700000Y6562500D01*
G75*
G02*
X8762500Y6625000I62500J0D01*
G01*
X9262500Y6625000D01*
G75*
G02*
X9325000Y6562500I0J-62500D01*
G01*
X9325000Y6437500D01*
G75*
G02*
X9262500Y6375000I-62500J0D01*
G01*
G37*
G36*
G01*
X9162500Y5775000D02*
X8812500Y5775000D01*
G75*
G02*
X8700000Y5887500I0J112500D01*
G01*
X8700000Y6112500D01*
G75*
G02*
X8812500Y6225000I112500J0D01*
G01*
X9162500Y6225000D01*
G75*
G02*
X9275000Y6112500I0J-112500D01*
G01*
X9275000Y5887500D01*
G75*
G02*
X9162500Y5775000I-112500J0D01*
G01*
G37*
G36*
G01*
X9262500Y5375000D02*
X8762500Y5375000D01*
G75*
G02*
X8700000Y5437500I0J62500D01*
G01*
X8700000Y5562500D01*
G75*
G02*
X8762500Y5625000I62500J0D01*
G01*
X9262500Y5625000D01*
G75*
G02*
X9325000Y5562500I0J-62500D01*
G01*
X9325000Y5437500D01*
G75*
G02*
X9262500Y5375000I-62500J0D01*
G01*
G37*
G36*
G01*
X9262500Y4875000D02*
X8762500Y4875000D01*
G75*
G02*
X8700000Y4937500I0J62500D01*
G01*
X8700000Y5062500D01*
G75*
G02*
X8762500Y5125000I62500J0D01*
G01*
X9262500Y5125000D01*
G75*
G02*
X9325000Y5062500I0J-62500D01*
G01*
X9325000Y4937500D01*
G75*
G02*
X9262500Y4875000I-62500J0D01*
G01*
G37*
G36*
G01*
X10037500Y7875000D02*
X9537500Y7875000D01*
G75*
G02*
X9475000Y7937500I0J62500D01*
G01*
X9475000Y8062500D01*
G75*
G02*
X9537500Y8125000I62500J0D01*
G01*
X10037500Y8125000D01*
G75*
G02*
X10100000Y8062500I0J-62500D01*
G01*
X10100000Y7937500D01*
G75*
G02*
X10037500Y7875000I-62500J0D01*
G01*
G37*
G36*
G01*
X10037500Y8375000D02*
X9537500Y8375000D01*
G75*
G02*
X9475000Y8437500I0J62500D01*
G01*
X9475000Y8562500D01*
G75*
G02*
X9537500Y8625000I62500J0D01*
G01*
X10037500Y8625000D01*
G75*
G02*
X10100000Y8562500I0J-62500D01*
G01*
X10100000Y8437500D01*
G75*
G02*
X10037500Y8375000I-62500J0D01*
G01*
G37*
G36*
G01*
X9987500Y8775000D02*
X9512500Y8775000D01*
G75*
G02*
X9400000Y8887500I0J112500D01*
G01*
X9400000Y9112500D01*
G75*
G02*
X9512500Y9225000I112500J0D01*
G01*
X9987500Y9225000D01*
G75*
G02*
X10100000Y9112500I0J-112500D01*
G01*
X10100000Y8887500D01*
G75*
G02*
X9987500Y8775000I-112500J0D01*
G01*
G37*
G36*
G01*
X10037500Y9375000D02*
X9537500Y9375000D01*
G75*
G02*
X9475000Y9437500I0J62500D01*
G01*
X9475000Y9562500D01*
G75*
G02*
X9537500Y9625000I62500J0D01*
G01*
X10037500Y9625000D01*
G75*
G02*
X10100000Y9562500I0J-62500D01*
G01*
X10100000Y9437500D01*
G75*
G02*
X10037500Y9375000I-62500J0D01*
G01*
G37*
G36*
G01*
X10037500Y9875000D02*
X9537500Y9875000D01*
G75*
G02*
X9475000Y9937500I0J62500D01*
G01*
X9475000Y10062500D01*
G75*
G02*
X9537500Y10125000I62500J0D01*
G01*
X10037500Y10125000D01*
G75*
G02*
X10100000Y10062500I0J-62500D01*
G01*
X10100000Y9937500D01*
G75*
G02*
X10037500Y9875000I-62500J0D01*
G01*
G37*
G36*
G01*
X9262500Y9875000D02*
X8762500Y9875000D01*
G75*
G02*
X8700000Y9937500I0J62500D01*
G01*
X8700000Y10062500D01*
G75*
G02*
X8762500Y10125000I62500J0D01*
G01*
X9262500Y10125000D01*
G75*
G02*
X9325000Y10062500I0J-62500D01*
G01*
X9325000Y9937500D01*
G75*
G02*
X9262500Y9875000I-62500J0D01*
G01*
G37*
G36*
G01*
X9262500Y9375000D02*
X8762500Y9375000D01*
G75*
G02*
X8700000Y9437500I0J62500D01*
G01*
X8700000Y9562500D01*
G75*
G02*
X8762500Y9625000I62500J0D01*
G01*
X9262500Y9625000D01*
G75*
G02*
X9325000Y9562500I0J-62500D01*
G01*
X9325000Y9437500D01*
G75*
G02*
X9262500Y9375000I-62500J0D01*
G01*
G37*
G36*
G01*
X9162500Y8775000D02*
X8812500Y8775000D01*
G75*
G02*
X8700000Y8887500I0J112500D01*
G01*
X8700000Y9112500D01*
G75*
G02*
X8812500Y9225000I112500J0D01*
G01*
X9162500Y9225000D01*
G75*
G02*
X9275000Y9112500I0J-112500D01*
G01*
X9275000Y8887500D01*
G75*
G02*
X9162500Y8775000I-112500J0D01*
G01*
G37*
G36*
G01*
X9262500Y8375000D02*
X8762500Y8375000D01*
G75*
G02*
X8700000Y8437500I0J62500D01*
G01*
X8700000Y8562500D01*
G75*
G02*
X8762500Y8625000I62500J0D01*
G01*
X9262500Y8625000D01*
G75*
G02*
X9325000Y8562500I0J-62500D01*
G01*
X9325000Y8437500D01*
G75*
G02*
X9262500Y8375000I-62500J0D01*
G01*
G37*
G36*
G01*
X9262500Y7875000D02*
X8762500Y7875000D01*
G75*
G02*
X8700000Y7937500I0J62500D01*
G01*
X8700000Y8062500D01*
G75*
G02*
X8762500Y8125000I62500J0D01*
G01*
X9262500Y8125000D01*
G75*
G02*
X9325000Y8062500I0J-62500D01*
G01*
X9325000Y7937500D01*
G75*
G02*
X9262500Y7875000I-62500J0D01*
G01*
G37*
G36*
G01*
X8762500Y13125000D02*
X9262500Y13125000D01*
G75*
G02*
X9325000Y13062500I0J-62500D01*
G01*
X9325000Y12937500D01*
G75*
G02*
X9262500Y12875000I-62500J0D01*
G01*
X8762500Y12875000D01*
G75*
G02*
X8700000Y12937500I0J62500D01*
G01*
X8700000Y13062500D01*
G75*
G02*
X8762500Y13125000I62500J0D01*
G01*
G37*
G36*
G01*
X8762500Y12625000D02*
X9262500Y12625000D01*
G75*
G02*
X9325000Y12562500I0J-62500D01*
G01*
X9325000Y12437500D01*
G75*
G02*
X9262500Y12375000I-62500J0D01*
G01*
X8762500Y12375000D01*
G75*
G02*
X8700000Y12437500I0J62500D01*
G01*
X8700000Y12562500D01*
G75*
G02*
X8762500Y12625000I62500J0D01*
G01*
G37*
G36*
G01*
X8812500Y12225000D02*
X9287500Y12225000D01*
G75*
G02*
X9400000Y12112500I0J-112500D01*
G01*
X9400000Y11887500D01*
G75*
G02*
X9287500Y11775000I-112500J0D01*
G01*
X8812500Y11775000D01*
G75*
G02*
X8700000Y11887500I0J112500D01*
G01*
X8700000Y12112500D01*
G75*
G02*
X8812500Y12225000I112500J0D01*
G01*
G37*
G36*
G01*
X8762500Y11625000D02*
X9262500Y11625000D01*
G75*
G02*
X9325000Y11562500I0J-62500D01*
G01*
X9325000Y11437500D01*
G75*
G02*
X9262500Y11375000I-62500J0D01*
G01*
X8762500Y11375000D01*
G75*
G02*
X8700000Y11437500I0J62500D01*
G01*
X8700000Y11562500D01*
G75*
G02*
X8762500Y11625000I62500J0D01*
G01*
G37*
G36*
G01*
X8762500Y11125000D02*
X9262500Y11125000D01*
G75*
G02*
X9325000Y11062500I0J-62500D01*
G01*
X9325000Y10937500D01*
G75*
G02*
X9262500Y10875000I-62500J0D01*
G01*
X8762500Y10875000D01*
G75*
G02*
X8700000Y10937500I0J62500D01*
G01*
X8700000Y11062500D01*
G75*
G02*
X8762500Y11125000I62500J0D01*
G01*
G37*
G36*
G01*
X9537500Y11125000D02*
X10037500Y11125000D01*
G75*
G02*
X10100000Y11062500I0J-62500D01*
G01*
X10100000Y10937500D01*
G75*
G02*
X10037500Y10875000I-62500J0D01*
G01*
X9537500Y10875000D01*
G75*
G02*
X9475000Y10937500I0J62500D01*
G01*
X9475000Y11062500D01*
G75*
G02*
X9537500Y11125000I62500J0D01*
G01*
G37*
G36*
G01*
X9537500Y11625000D02*
X10037500Y11625000D01*
G75*
G02*
X10100000Y11562500I0J-62500D01*
G01*
X10100000Y11437500D01*
G75*
G02*
X10037500Y11375000I-62500J0D01*
G01*
X9537500Y11375000D01*
G75*
G02*
X9475000Y11437500I0J62500D01*
G01*
X9475000Y11562500D01*
G75*
G02*
X9537500Y11625000I62500J0D01*
G01*
G37*
G36*
G01*
X9637500Y12225000D02*
X9987500Y12225000D01*
G75*
G02*
X10100000Y12112500I0J-112500D01*
G01*
X10100000Y11887500D01*
G75*
G02*
X9987500Y11775000I-112500J0D01*
G01*
X9637500Y11775000D01*
G75*
G02*
X9525000Y11887500I0J112500D01*
G01*
X9525000Y12112500D01*
G75*
G02*
X9637500Y12225000I112500J0D01*
G01*
G37*
G36*
G01*
X9537500Y12625000D02*
X10037500Y12625000D01*
G75*
G02*
X10100000Y12562500I0J-62500D01*
G01*
X10100000Y12437500D01*
G75*
G02*
X10037500Y12375000I-62500J0D01*
G01*
X9537500Y12375000D01*
G75*
G02*
X9475000Y12437500I0J62500D01*
G01*
X9475000Y12562500D01*
G75*
G02*
X9537500Y12625000I62500J0D01*
G01*
G37*
G36*
G01*
X9537500Y13125000D02*
X10037500Y13125000D01*
G75*
G02*
X10100000Y13062500I0J-62500D01*
G01*
X10100000Y12937500D01*
G75*
G02*
X10037500Y12875000I-62500J0D01*
G01*
X9537500Y12875000D01*
G75*
G02*
X9475000Y12937500I0J62500D01*
G01*
X9475000Y13062500D01*
G75*
G02*
X9537500Y13125000I62500J0D01*
G01*
G37*
D10*
X32925000Y4680000D03*
D11*
X37475000Y4680000D03*
D12*
X33425000Y4990000D03*
X33425000Y13010000D03*
D10*
X32925000Y13320000D03*
D11*
X37475000Y13320000D03*
G36*
G01*
X32600000Y6230000D02*
X31900000Y6230000D01*
G75*
G02*
X31825000Y6305000I0J75000D01*
G01*
X31825000Y6455000D01*
G75*
G02*
X31900000Y6530000I75000J0D01*
G01*
X32600000Y6530000D01*
G75*
G02*
X32675000Y6455000I0J-75000D01*
G01*
X32675000Y6305000D01*
G75*
G02*
X32600000Y6230000I-75000J0D01*
G01*
G37*
G36*
G01*
X32600000Y6730000D02*
X31900000Y6730000D01*
G75*
G02*
X31825000Y6805000I0J75000D01*
G01*
X31825000Y6955000D01*
G75*
G02*
X31900000Y7030000I75000J0D01*
G01*
X32600000Y7030000D01*
G75*
G02*
X32675000Y6955000I0J-75000D01*
G01*
X32675000Y6805000D01*
G75*
G02*
X32600000Y6730000I-75000J0D01*
G01*
G37*
G36*
G01*
X32600000Y7230000D02*
X31900000Y7230000D01*
G75*
G02*
X31825000Y7305000I0J75000D01*
G01*
X31825000Y7455000D01*
G75*
G02*
X31900000Y7530000I75000J0D01*
G01*
X32600000Y7530000D01*
G75*
G02*
X32675000Y7455000I0J-75000D01*
G01*
X32675000Y7305000D01*
G75*
G02*
X32600000Y7230000I-75000J0D01*
G01*
G37*
G36*
G01*
X32600000Y7730000D02*
X31900000Y7730000D01*
G75*
G02*
X31825000Y7805000I0J75000D01*
G01*
X31825000Y7955000D01*
G75*
G02*
X31900000Y8030000I75000J0D01*
G01*
X32600000Y8030000D01*
G75*
G02*
X32675000Y7955000I0J-75000D01*
G01*
X32675000Y7805000D01*
G75*
G02*
X32600000Y7730000I-75000J0D01*
G01*
G37*
G36*
G01*
X32600000Y8230000D02*
X31900000Y8230000D01*
G75*
G02*
X31825000Y8305000I0J75000D01*
G01*
X31825000Y8455000D01*
G75*
G02*
X31900000Y8530000I75000J0D01*
G01*
X32600000Y8530000D01*
G75*
G02*
X32675000Y8455000I0J-75000D01*
G01*
X32675000Y8305000D01*
G75*
G02*
X32600000Y8230000I-75000J0D01*
G01*
G37*
G36*
G01*
X32600000Y8730000D02*
X31900000Y8730000D01*
G75*
G02*
X31825000Y8805000I0J75000D01*
G01*
X31825000Y8955000D01*
G75*
G02*
X31900000Y9030000I75000J0D01*
G01*
X32600000Y9030000D01*
G75*
G02*
X32675000Y8955000I0J-75000D01*
G01*
X32675000Y8805000D01*
G75*
G02*
X32600000Y8730000I-75000J0D01*
G01*
G37*
G36*
G01*
X32600000Y9230000D02*
X31900000Y9230000D01*
G75*
G02*
X31825000Y9305000I0J75000D01*
G01*
X31825000Y9455000D01*
G75*
G02*
X31900000Y9530000I75000J0D01*
G01*
X32600000Y9530000D01*
G75*
G02*
X32675000Y9455000I0J-75000D01*
G01*
X32675000Y9305000D01*
G75*
G02*
X32600000Y9230000I-75000J0D01*
G01*
G37*
G36*
G01*
X32600000Y9730000D02*
X31900000Y9730000D01*
G75*
G02*
X31825000Y9805000I0J75000D01*
G01*
X31825000Y9955000D01*
G75*
G02*
X31900000Y10030000I75000J0D01*
G01*
X32600000Y10030000D01*
G75*
G02*
X32675000Y9955000I0J-75000D01*
G01*
X32675000Y9805000D01*
G75*
G02*
X32600000Y9730000I-75000J0D01*
G01*
G37*
G36*
G01*
X32600000Y10230000D02*
X31900000Y10230000D01*
G75*
G02*
X31825000Y10305000I0J75000D01*
G01*
X31825000Y10455000D01*
G75*
G02*
X31900000Y10530000I75000J0D01*
G01*
X32600000Y10530000D01*
G75*
G02*
X32675000Y10455000I0J-75000D01*
G01*
X32675000Y10305000D01*
G75*
G02*
X32600000Y10230000I-75000J0D01*
G01*
G37*
G36*
G01*
X32600000Y10730000D02*
X31900000Y10730000D01*
G75*
G02*
X31825000Y10805000I0J75000D01*
G01*
X31825000Y10955000D01*
G75*
G02*
X31900000Y11030000I75000J0D01*
G01*
X32600000Y11030000D01*
G75*
G02*
X32675000Y10955000I0J-75000D01*
G01*
X32675000Y10805000D01*
G75*
G02*
X32600000Y10730000I-75000J0D01*
G01*
G37*
G36*
G01*
X32600000Y11230000D02*
X31900000Y11230000D01*
G75*
G02*
X31825000Y11305000I0J75000D01*
G01*
X31825000Y11455000D01*
G75*
G02*
X31900000Y11530000I75000J0D01*
G01*
X32600000Y11530000D01*
G75*
G02*
X32675000Y11455000I0J-75000D01*
G01*
X32675000Y11305000D01*
G75*
G02*
X32600000Y11230000I-75000J0D01*
G01*
G37*
G36*
G01*
X32600000Y11730000D02*
X31900000Y11730000D01*
G75*
G02*
X31825000Y11805000I0J75000D01*
G01*
X31825000Y11955000D01*
G75*
G02*
X31900000Y12030000I75000J0D01*
G01*
X32600000Y12030000D01*
G75*
G02*
X32675000Y11955000I0J-75000D01*
G01*
X32675000Y11805000D01*
G75*
G02*
X32600000Y11730000I-75000J0D01*
G01*
G37*
G36*
G01*
X34000000Y11480000D02*
X33300000Y11480000D01*
G75*
G02*
X33225000Y11555000I0J75000D01*
G01*
X33225000Y11705000D01*
G75*
G02*
X33300000Y11780000I75000J0D01*
G01*
X34000000Y11780000D01*
G75*
G02*
X34075000Y11705000I0J-75000D01*
G01*
X34075000Y11555000D01*
G75*
G02*
X34000000Y11480000I-75000J0D01*
G01*
G37*
G36*
G01*
X34000000Y10980000D02*
X33300000Y10980000D01*
G75*
G02*
X33225000Y11055000I0J75000D01*
G01*
X33225000Y11205000D01*
G75*
G02*
X33300000Y11280000I75000J0D01*
G01*
X34000000Y11280000D01*
G75*
G02*
X34075000Y11205000I0J-75000D01*
G01*
X34075000Y11055000D01*
G75*
G02*
X34000000Y10980000I-75000J0D01*
G01*
G37*
G36*
G01*
X34000000Y10480000D02*
X33300000Y10480000D01*
G75*
G02*
X33225000Y10555000I0J75000D01*
G01*
X33225000Y10705000D01*
G75*
G02*
X33300000Y10780000I75000J0D01*
G01*
X34000000Y10780000D01*
G75*
G02*
X34075000Y10705000I0J-75000D01*
G01*
X34075000Y10555000D01*
G75*
G02*
X34000000Y10480000I-75000J0D01*
G01*
G37*
G36*
G01*
X34000000Y9980000D02*
X33300000Y9980000D01*
G75*
G02*
X33225000Y10055000I0J75000D01*
G01*
X33225000Y10205000D01*
G75*
G02*
X33300000Y10280000I75000J0D01*
G01*
X34000000Y10280000D01*
G75*
G02*
X34075000Y10205000I0J-75000D01*
G01*
X34075000Y10055000D01*
G75*
G02*
X34000000Y9980000I-75000J0D01*
G01*
G37*
G36*
G01*
X34000000Y9480000D02*
X33300000Y9480000D01*
G75*
G02*
X33225000Y9555000I0J75000D01*
G01*
X33225000Y9705000D01*
G75*
G02*
X33300000Y9780000I75000J0D01*
G01*
X34000000Y9780000D01*
G75*
G02*
X34075000Y9705000I0J-75000D01*
G01*
X34075000Y9555000D01*
G75*
G02*
X34000000Y9480000I-75000J0D01*
G01*
G37*
G36*
G01*
X34000000Y8980000D02*
X33300000Y8980000D01*
G75*
G02*
X33225000Y9055000I0J75000D01*
G01*
X33225000Y9205000D01*
G75*
G02*
X33300000Y9280000I75000J0D01*
G01*
X34000000Y9280000D01*
G75*
G02*
X34075000Y9205000I0J-75000D01*
G01*
X34075000Y9055000D01*
G75*
G02*
X34000000Y8980000I-75000J0D01*
G01*
G37*
G36*
G01*
X34000000Y8480000D02*
X33300000Y8480000D01*
G75*
G02*
X33225000Y8555000I0J75000D01*
G01*
X33225000Y8705000D01*
G75*
G02*
X33300000Y8780000I75000J0D01*
G01*
X34000000Y8780000D01*
G75*
G02*
X34075000Y8705000I0J-75000D01*
G01*
X34075000Y8555000D01*
G75*
G02*
X34000000Y8480000I-75000J0D01*
G01*
G37*
G36*
G01*
X34000000Y7980000D02*
X33300000Y7980000D01*
G75*
G02*
X33225000Y8055000I0J75000D01*
G01*
X33225000Y8205000D01*
G75*
G02*
X33300000Y8280000I75000J0D01*
G01*
X34000000Y8280000D01*
G75*
G02*
X34075000Y8205000I0J-75000D01*
G01*
X34075000Y8055000D01*
G75*
G02*
X34000000Y7980000I-75000J0D01*
G01*
G37*
G36*
G01*
X34000000Y7480000D02*
X33300000Y7480000D01*
G75*
G02*
X33225000Y7555000I0J75000D01*
G01*
X33225000Y7705000D01*
G75*
G02*
X33300000Y7780000I75000J0D01*
G01*
X34000000Y7780000D01*
G75*
G02*
X34075000Y7705000I0J-75000D01*
G01*
X34075000Y7555000D01*
G75*
G02*
X34000000Y7480000I-75000J0D01*
G01*
G37*
G36*
G01*
X34000000Y6980000D02*
X33300000Y6980000D01*
G75*
G02*
X33225000Y7055000I0J75000D01*
G01*
X33225000Y7205000D01*
G75*
G02*
X33300000Y7280000I75000J0D01*
G01*
X34000000Y7280000D01*
G75*
G02*
X34075000Y7205000I0J-75000D01*
G01*
X34075000Y7055000D01*
G75*
G02*
X34000000Y6980000I-75000J0D01*
G01*
G37*
G36*
G01*
X34000000Y6480000D02*
X33300000Y6480000D01*
G75*
G02*
X33225000Y6555000I0J75000D01*
G01*
X33225000Y6705000D01*
G75*
G02*
X33300000Y6780000I75000J0D01*
G01*
X34000000Y6780000D01*
G75*
G02*
X34075000Y6705000I0J-75000D01*
G01*
X34075000Y6555000D01*
G75*
G02*
X34000000Y6480000I-75000J0D01*
G01*
G37*
G36*
G01*
X34000000Y5980000D02*
X33300000Y5980000D01*
G75*
G02*
X33225000Y6055000I0J75000D01*
G01*
X33225000Y6205000D01*
G75*
G02*
X33300000Y6280000I75000J0D01*
G01*
X34000000Y6280000D01*
G75*
G02*
X34075000Y6205000I0J-75000D01*
G01*
X34075000Y6055000D01*
G75*
G02*
X34000000Y5980000I-75000J0D01*
G01*
G37*
G36*
X31921004Y4706192D02*
G01*
X31921015Y4706383D01*
X31923015Y4732383D01*
X31923033Y4732573D01*
X31926033Y4758573D01*
X31926090Y4758944D01*
X31931090Y4784944D01*
X31931138Y4785167D01*
X31937138Y4810167D01*
X31937172Y4810300D01*
X31944172Y4836300D01*
X31944318Y4836756D01*
X31953318Y4860756D01*
X31953385Y4860923D01*
X31963385Y4884923D01*
X31963455Y4885083D01*
X31974455Y4909083D01*
X31974647Y4909460D01*
X31987647Y4932460D01*
X31987782Y4932684D01*
X32015782Y4976684D01*
X32016023Y4977030D01*
X32032023Y4998030D01*
X32032190Y4998238D01*
X32049190Y5018238D01*
X32049370Y5018439D01*
X32067370Y5037439D01*
X32067561Y5037630D01*
X32086561Y5055630D01*
X32086762Y5055810D01*
X32106762Y5072810D01*
X32106970Y5072977D01*
X32127970Y5088977D01*
X32128316Y5089218D01*
X32172316Y5117218D01*
X32172540Y5117353D01*
X32195540Y5130353D01*
X32195917Y5130545D01*
X32219917Y5141545D01*
X32220077Y5141615D01*
X32244077Y5151615D01*
X32244244Y5151682D01*
X32268244Y5160682D01*
X32268700Y5160828D01*
X32294700Y5167828D01*
X32294833Y5167862D01*
X32319833Y5173862D01*
X32320056Y5173910D01*
X32346056Y5178910D01*
X32346427Y5178967D01*
X32372427Y5181967D01*
X32372617Y5181985D01*
X32398617Y5183985D01*
X32398808Y5183996D01*
X32424808Y5184996D01*
X32425000Y5185000D01*
X32929820Y5185000D01*
X32930764Y5185472D01*
X32933000Y5186000D01*
X32933820Y5186000D01*
X32936764Y5187472D01*
X32939000Y5188000D01*
X32939820Y5188000D01*
X32944036Y5190108D01*
X32946464Y5192536D01*
X32947764Y5193472D01*
X32948273Y5193726D01*
X32948528Y5194236D01*
X32950764Y5196472D01*
X32951273Y5196726D01*
X32951528Y5197236D01*
X32952464Y5198536D01*
X32954892Y5200964D01*
X32957000Y5205180D01*
X32957000Y5206000D01*
X32957528Y5208236D01*
X32959000Y5211180D01*
X32959000Y5212000D01*
X32959528Y5214236D01*
X32960000Y5215180D01*
X32960000Y5260000D01*
X32960004Y5260208D01*
X32961004Y5284208D01*
X32961017Y5284415D01*
X32963017Y5308415D01*
X32963039Y5308620D01*
X32966039Y5332620D01*
X32966068Y5332822D01*
X32970068Y5356822D01*
X32970162Y5357262D01*
X32976162Y5380262D01*
X32976217Y5380456D01*
X32983217Y5403456D01*
X32983278Y5403643D01*
X32991278Y5426643D01*
X32991372Y5426893D01*
X33000372Y5448893D01*
X33000448Y5449069D01*
X33010448Y5471069D01*
X33010659Y5471481D01*
X33034659Y5513481D01*
X33034975Y5513966D01*
X33048975Y5532966D01*
X33049076Y5533098D01*
X33079076Y5571098D01*
X33079464Y5571536D01*
X33113464Y5605536D01*
X33113902Y5605924D01*
X33151902Y5635924D01*
X33152034Y5636025D01*
X33171034Y5650025D01*
X33171519Y5650341D01*
X33213519Y5674341D01*
X33213931Y5674552D01*
X33235931Y5684552D01*
X33236107Y5684628D01*
X33258107Y5693628D01*
X33258357Y5693722D01*
X33281357Y5701722D01*
X33281544Y5701783D01*
X33304544Y5708783D01*
X33304738Y5708838D01*
X33327738Y5714838D01*
X33328178Y5714932D01*
X33352178Y5718932D01*
X33352380Y5718961D01*
X33376380Y5721961D01*
X33376585Y5721983D01*
X33400585Y5723983D01*
X33400792Y5723996D01*
X33424792Y5724996D01*
X33425192Y5724996D01*
X33451192Y5723996D01*
X33451383Y5723985D01*
X33477383Y5721985D01*
X33477573Y5721967D01*
X33503573Y5718967D01*
X33503944Y5718910D01*
X33529944Y5713910D01*
X33530167Y5713862D01*
X33555167Y5707862D01*
X33555300Y5707828D01*
X33581300Y5700828D01*
X33581756Y5700682D01*
X33605756Y5691682D01*
X33605923Y5691615D01*
X33629923Y5681615D01*
X33630083Y5681545D01*
X33654083Y5670545D01*
X33654460Y5670353D01*
X33677460Y5657353D01*
X33677684Y5657218D01*
X33721684Y5629218D01*
X33722030Y5628977D01*
X33743030Y5612977D01*
X33743238Y5612810D01*
X33763238Y5595810D01*
X33763439Y5595630D01*
X33782439Y5577630D01*
X33782630Y5577439D01*
X33800630Y5558439D01*
X33800810Y5558238D01*
X33817810Y5538238D01*
X33817977Y5538030D01*
X33833977Y5517030D01*
X33834218Y5516684D01*
X33862218Y5472684D01*
X33862353Y5472460D01*
X33875353Y5449460D01*
X33875545Y5449083D01*
X33886545Y5425083D01*
X33886615Y5424923D01*
X33896615Y5400923D01*
X33896682Y5400756D01*
X33905682Y5376756D01*
X33905828Y5376300D01*
X33912828Y5350300D01*
X33912862Y5350167D01*
X33918862Y5325167D01*
X33918910Y5324944D01*
X33923910Y5298944D01*
X33923967Y5298573D01*
X33926967Y5272573D01*
X33926985Y5272383D01*
X33928985Y5246383D01*
X33928996Y5246192D01*
X33929996Y5220192D01*
X33930000Y5220000D01*
X33930000Y4680000D01*
X33929996Y4679808D01*
X33928996Y4653808D01*
X33928985Y4653617D01*
X33926985Y4627617D01*
X33926967Y4627427D01*
X33923967Y4601427D01*
X33923910Y4601056D01*
X33918910Y4575056D01*
X33918862Y4574833D01*
X33912862Y4549833D01*
X33912828Y4549700D01*
X33905828Y4523700D01*
X33905682Y4523244D01*
X33896682Y4499244D01*
X33896615Y4499077D01*
X33886615Y4475077D01*
X33886545Y4474917D01*
X33875545Y4450917D01*
X33875353Y4450540D01*
X33862353Y4427540D01*
X33862218Y4427316D01*
X33834218Y4383316D01*
X33833977Y4382970D01*
X33817977Y4361970D01*
X33817810Y4361762D01*
X33800810Y4341762D01*
X33800630Y4341561D01*
X33782630Y4322561D01*
X33782439Y4322370D01*
X33763439Y4304370D01*
X33763238Y4304190D01*
X33743238Y4287190D01*
X33743030Y4287023D01*
X33722030Y4271023D01*
X33721684Y4270782D01*
X33677684Y4242782D01*
X33677460Y4242647D01*
X33654460Y4229647D01*
X33654083Y4229455D01*
X33630083Y4218455D01*
X33629923Y4218385D01*
X33605923Y4208385D01*
X33605756Y4208318D01*
X33581756Y4199318D01*
X33581300Y4199172D01*
X33555300Y4192172D01*
X33555167Y4192138D01*
X33530167Y4186138D01*
X33529944Y4186090D01*
X33503944Y4181090D01*
X33503573Y4181033D01*
X33477573Y4178033D01*
X33477383Y4178015D01*
X33451383Y4176015D01*
X33451192Y4176004D01*
X33425192Y4175004D01*
X33425000Y4175000D01*
X32425000Y4175000D01*
X32424808Y4175004D01*
X32398808Y4176004D01*
X32398617Y4176015D01*
X32372617Y4178015D01*
X32372427Y4178033D01*
X32346427Y4181033D01*
X32346056Y4181090D01*
X32320056Y4186090D01*
X32319833Y4186138D01*
X32294833Y4192138D01*
X32294700Y4192172D01*
X32268700Y4199172D01*
X32268244Y4199318D01*
X32244244Y4208318D01*
X32244077Y4208385D01*
X32220077Y4218385D01*
X32219917Y4218455D01*
X32195917Y4229455D01*
X32195540Y4229647D01*
X32172540Y4242647D01*
X32172316Y4242782D01*
X32128316Y4270782D01*
X32127970Y4271023D01*
X32106970Y4287023D01*
X32106762Y4287190D01*
X32086762Y4304190D01*
X32086561Y4304370D01*
X32067561Y4322370D01*
X32067370Y4322561D01*
X32049370Y4341561D01*
X32049190Y4341762D01*
X32032190Y4361762D01*
X32032023Y4361970D01*
X32016023Y4382970D01*
X32015782Y4383316D01*
X31987782Y4427316D01*
X31987647Y4427540D01*
X31974647Y4450540D01*
X31974455Y4450917D01*
X31963455Y4474917D01*
X31963385Y4475077D01*
X31953385Y4499077D01*
X31953318Y4499244D01*
X31944318Y4523244D01*
X31944172Y4523700D01*
X31937172Y4549700D01*
X31937138Y4549833D01*
X31931138Y4574833D01*
X31931090Y4575056D01*
X31926090Y4601056D01*
X31926033Y4601427D01*
X31923033Y4627427D01*
X31923015Y4627617D01*
X31921015Y4653617D01*
X31921004Y4653808D01*
X31920004Y4679808D01*
X31920004Y4680192D01*
X31921004Y4706192D01*
G37*
G36*
X31931004Y13346192D02*
G01*
X31931015Y13346383D01*
X31933015Y13372383D01*
X31933033Y13372573D01*
X31936033Y13398573D01*
X31936090Y13398944D01*
X31941090Y13424944D01*
X31941138Y13425167D01*
X31947138Y13450167D01*
X31947172Y13450300D01*
X31954172Y13476300D01*
X31954318Y13476756D01*
X31963318Y13500756D01*
X31963385Y13500923D01*
X31973385Y13524923D01*
X31973455Y13525083D01*
X31984455Y13549083D01*
X31984647Y13549460D01*
X31997647Y13572460D01*
X31997782Y13572684D01*
X32025782Y13616684D01*
X32026023Y13617030D01*
X32042023Y13638030D01*
X32042190Y13638238D01*
X32059190Y13658238D01*
X32059370Y13658439D01*
X32077370Y13677439D01*
X32077561Y13677630D01*
X32096561Y13695630D01*
X32096762Y13695810D01*
X32116762Y13712810D01*
X32116970Y13712977D01*
X32137970Y13728977D01*
X32138316Y13729218D01*
X32182316Y13757218D01*
X32182540Y13757353D01*
X32205540Y13770353D01*
X32205917Y13770545D01*
X32229917Y13781545D01*
X32230077Y13781615D01*
X32254077Y13791615D01*
X32254244Y13791682D01*
X32278244Y13800682D01*
X32278700Y13800828D01*
X32304700Y13807828D01*
X32304833Y13807862D01*
X32329833Y13813862D01*
X32330056Y13813910D01*
X32356056Y13818910D01*
X32356427Y13818967D01*
X32382427Y13821967D01*
X32382617Y13821985D01*
X32408617Y13823985D01*
X32408808Y13823996D01*
X32434808Y13824996D01*
X32435000Y13825000D01*
X33425000Y13825000D01*
X33425192Y13824996D01*
X33451192Y13823996D01*
X33451383Y13823985D01*
X33477383Y13821985D01*
X33477573Y13821967D01*
X33503573Y13818967D01*
X33503944Y13818910D01*
X33529944Y13813910D01*
X33530167Y13813862D01*
X33555167Y13807862D01*
X33555300Y13807828D01*
X33581300Y13800828D01*
X33581756Y13800682D01*
X33605756Y13791682D01*
X33605923Y13791615D01*
X33629923Y13781615D01*
X33630083Y13781545D01*
X33654083Y13770545D01*
X33654460Y13770353D01*
X33677460Y13757353D01*
X33677684Y13757218D01*
X33721684Y13729218D01*
X33722030Y13728977D01*
X33743030Y13712977D01*
X33743238Y13712810D01*
X33763238Y13695810D01*
X33763439Y13695630D01*
X33782439Y13677630D01*
X33782630Y13677439D01*
X33800630Y13658439D01*
X33800810Y13658238D01*
X33817810Y13638238D01*
X33817977Y13638030D01*
X33833977Y13617030D01*
X33834218Y13616684D01*
X33862218Y13572684D01*
X33862353Y13572460D01*
X33875353Y13549460D01*
X33875545Y13549083D01*
X33886545Y13525083D01*
X33886615Y13524923D01*
X33896615Y13500923D01*
X33896682Y13500756D01*
X33905682Y13476756D01*
X33905828Y13476300D01*
X33912828Y13450300D01*
X33912862Y13450167D01*
X33918862Y13425167D01*
X33918910Y13424944D01*
X33923910Y13398944D01*
X33923967Y13398573D01*
X33926967Y13372573D01*
X33926985Y13372383D01*
X33928985Y13346383D01*
X33928996Y13346192D01*
X33929996Y13320192D01*
X33930000Y13320000D01*
X33930000Y12780000D01*
X33929996Y12779808D01*
X33928996Y12753808D01*
X33928985Y12753617D01*
X33926985Y12727617D01*
X33926967Y12727427D01*
X33923967Y12701427D01*
X33923910Y12701056D01*
X33918910Y12675056D01*
X33918862Y12674833D01*
X33912862Y12649833D01*
X33912828Y12649700D01*
X33905828Y12623700D01*
X33905682Y12623244D01*
X33896682Y12599244D01*
X33896615Y12599077D01*
X33886615Y12575077D01*
X33886545Y12574917D01*
X33875545Y12550917D01*
X33875353Y12550540D01*
X33862353Y12527540D01*
X33862218Y12527316D01*
X33834218Y12483316D01*
X33833977Y12482970D01*
X33817977Y12461970D01*
X33817810Y12461762D01*
X33800810Y12441762D01*
X33800630Y12441561D01*
X33782630Y12422561D01*
X33782439Y12422370D01*
X33763439Y12404370D01*
X33763238Y12404190D01*
X33743238Y12387190D01*
X33743030Y12387023D01*
X33722030Y12371023D01*
X33721684Y12370782D01*
X33677684Y12342782D01*
X33677460Y12342647D01*
X33654460Y12329647D01*
X33654083Y12329455D01*
X33630083Y12318455D01*
X33629923Y12318385D01*
X33605923Y12308385D01*
X33605756Y12308318D01*
X33581756Y12299318D01*
X33581300Y12299172D01*
X33555300Y12292172D01*
X33555167Y12292138D01*
X33530167Y12286138D01*
X33529944Y12286090D01*
X33503944Y12281090D01*
X33503573Y12281033D01*
X33477573Y12278033D01*
X33477383Y12278015D01*
X33451383Y12276015D01*
X33451192Y12276004D01*
X33425192Y12275004D01*
X33424815Y12275003D01*
X33397815Y12276003D01*
X33397567Y12276019D01*
X33374567Y12278019D01*
X33374178Y12278068D01*
X33350178Y12282068D01*
X33349938Y12282114D01*
X33326938Y12287114D01*
X33326738Y12287162D01*
X33303738Y12293162D01*
X33303544Y12293217D01*
X33280544Y12300217D01*
X33280291Y12300301D01*
X33258291Y12308301D01*
X33257931Y12308448D01*
X33213931Y12328448D01*
X33213428Y12328713D01*
X33193428Y12340713D01*
X33193275Y12340808D01*
X33173275Y12353808D01*
X33173133Y12353904D01*
X33153133Y12367904D01*
X33152930Y12368053D01*
X33134930Y12382053D01*
X33134678Y12382263D01*
X33116678Y12398263D01*
X33116464Y12398464D01*
X33099464Y12415464D01*
X33099359Y12415573D01*
X33083359Y12432573D01*
X33083175Y12432779D01*
X33067175Y12451779D01*
X33066975Y12452034D01*
X33052975Y12471034D01*
X33052808Y12471275D01*
X33039808Y12491275D01*
X33039713Y12491428D01*
X33027713Y12511428D01*
X33027528Y12511764D01*
X33016528Y12533764D01*
X33016486Y12533850D01*
X33006486Y12554850D01*
X33006372Y12555107D01*
X32997372Y12577107D01*
X32997217Y12577544D01*
X32983217Y12623544D01*
X32983114Y12623938D01*
X32978114Y12646938D01*
X32978068Y12647178D01*
X32974068Y12671178D01*
X32974019Y12671567D01*
X32972017Y12694585D01*
X32970017Y12718585D01*
X32970000Y12719000D01*
X32970000Y12784820D01*
X32969528Y12785764D01*
X32969000Y12788000D01*
X32969000Y12788820D01*
X32967528Y12791764D01*
X32967000Y12794000D01*
X32967000Y12794820D01*
X32964892Y12799036D01*
X32962464Y12801464D01*
X32961528Y12802764D01*
X32961273Y12803274D01*
X32960764Y12803528D01*
X32958528Y12805764D01*
X32958273Y12806274D01*
X32957764Y12806528D01*
X32956464Y12807464D01*
X32954036Y12809892D01*
X32949820Y12812000D01*
X32949000Y12812000D01*
X32946764Y12812528D01*
X32943820Y12814000D01*
X32943000Y12814000D01*
X32940764Y12814528D01*
X32939820Y12815000D01*
X32435000Y12815000D01*
X32434808Y12815004D01*
X32408808Y12816004D01*
X32408617Y12816015D01*
X32382617Y12818015D01*
X32382427Y12818033D01*
X32356427Y12821033D01*
X32356056Y12821090D01*
X32330056Y12826090D01*
X32329833Y12826138D01*
X32304833Y12832138D01*
X32304700Y12832172D01*
X32278700Y12839172D01*
X32278244Y12839318D01*
X32254244Y12848318D01*
X32254077Y12848385D01*
X32230077Y12858385D01*
X32229917Y12858455D01*
X32205917Y12869455D01*
X32205540Y12869647D01*
X32182540Y12882647D01*
X32182316Y12882782D01*
X32138316Y12910782D01*
X32137970Y12911023D01*
X32116970Y12927023D01*
X32116762Y12927190D01*
X32096762Y12944190D01*
X32096561Y12944370D01*
X32077561Y12962370D01*
X32077370Y12962561D01*
X32059370Y12981561D01*
X32059190Y12981762D01*
X32042190Y13001762D01*
X32042023Y13001970D01*
X32026023Y13022970D01*
X32025782Y13023316D01*
X31997782Y13067316D01*
X31997647Y13067540D01*
X31984647Y13090540D01*
X31984455Y13090917D01*
X31973455Y13114917D01*
X31973385Y13115077D01*
X31963385Y13139077D01*
X31963318Y13139244D01*
X31954318Y13163244D01*
X31954172Y13163700D01*
X31947172Y13189700D01*
X31947138Y13189833D01*
X31941138Y13214833D01*
X31941090Y13215056D01*
X31936090Y13241056D01*
X31936033Y13241427D01*
X31933033Y13267427D01*
X31933015Y13267617D01*
X31931015Y13293617D01*
X31931004Y13293808D01*
X31930004Y13319808D01*
X31930004Y13320192D01*
X31931004Y13346192D01*
G37*
G36*
X36320015Y4943383D02*
G01*
X36321015Y4956383D01*
X36321058Y4956760D01*
X36325058Y4982760D01*
X36325221Y4983470D01*
X36329180Y4996335D01*
X36332149Y5008213D01*
X36332333Y5008795D01*
X36337333Y5021795D01*
X36337385Y5021923D01*
X36342385Y5033923D01*
X36342448Y5034069D01*
X36347448Y5045069D01*
X36347528Y5045236D01*
X36353528Y5057236D01*
X36353782Y5057684D01*
X36360782Y5068684D01*
X36360956Y5068941D01*
X36368956Y5079941D01*
X36369096Y5080123D01*
X36385096Y5100123D01*
X36385284Y5100345D01*
X36394284Y5110345D01*
X36394655Y5110716D01*
X36404655Y5119716D01*
X36404877Y5119904D01*
X36424877Y5135904D01*
X36425059Y5136044D01*
X36436059Y5144044D01*
X36436316Y5144218D01*
X36447316Y5151218D01*
X36447764Y5151472D01*
X36459764Y5157472D01*
X36459931Y5157552D01*
X36470931Y5162552D01*
X36471077Y5162615D01*
X36483077Y5167615D01*
X36483205Y5167667D01*
X36496205Y5172667D01*
X36496787Y5172851D01*
X36508665Y5175820D01*
X36521530Y5179779D01*
X36522240Y5179942D01*
X36548240Y5183942D01*
X36548617Y5183985D01*
X36561617Y5184985D01*
X36562000Y5185000D01*
X38388000Y5185000D01*
X38388383Y5184985D01*
X38401383Y5183985D01*
X38401760Y5183942D01*
X38427760Y5179942D01*
X38428470Y5179779D01*
X38441335Y5175820D01*
X38453213Y5172851D01*
X38453795Y5172667D01*
X38466795Y5167667D01*
X38466923Y5167615D01*
X38478923Y5162615D01*
X38479069Y5162552D01*
X38490069Y5157552D01*
X38490236Y5157472D01*
X38502236Y5151472D01*
X38502684Y5151218D01*
X38513684Y5144218D01*
X38513941Y5144044D01*
X38524941Y5136044D01*
X38525123Y5135904D01*
X38545123Y5119904D01*
X38545345Y5119716D01*
X38555345Y5110716D01*
X38555716Y5110345D01*
X38564716Y5100345D01*
X38564904Y5100123D01*
X38580904Y5080123D01*
X38581044Y5079941D01*
X38589044Y5068941D01*
X38589218Y5068684D01*
X38596218Y5057684D01*
X38596472Y5057236D01*
X38602472Y5045236D01*
X38602552Y5045069D01*
X38607552Y5034069D01*
X38607615Y5033923D01*
X38612615Y5021923D01*
X38612667Y5021795D01*
X38617667Y5008795D01*
X38617851Y5008213D01*
X38620820Y4996335D01*
X38624779Y4983470D01*
X38624942Y4982760D01*
X38628942Y4956760D01*
X38628985Y4956383D01*
X38629985Y4943383D01*
X38630000Y4943000D01*
X38630000Y4417000D01*
X38629985Y4416617D01*
X38628985Y4403617D01*
X38628942Y4403240D01*
X38624942Y4377240D01*
X38624779Y4376530D01*
X38620820Y4363665D01*
X38617851Y4351787D01*
X38617667Y4351205D01*
X38612667Y4338205D01*
X38612615Y4338077D01*
X38607615Y4326077D01*
X38607552Y4325931D01*
X38602552Y4314931D01*
X38602472Y4314764D01*
X38596472Y4302764D01*
X38596218Y4302316D01*
X38589218Y4291316D01*
X38589044Y4291059D01*
X38581044Y4280059D01*
X38580904Y4279877D01*
X38564904Y4259877D01*
X38564716Y4259655D01*
X38555716Y4249655D01*
X38555345Y4249284D01*
X38545345Y4240284D01*
X38545123Y4240096D01*
X38525123Y4224096D01*
X38524941Y4223956D01*
X38513941Y4215956D01*
X38513684Y4215782D01*
X38502684Y4208782D01*
X38502236Y4208528D01*
X38490236Y4202528D01*
X38490069Y4202448D01*
X38479069Y4197448D01*
X38478923Y4197385D01*
X38466923Y4192385D01*
X38466795Y4192333D01*
X38453795Y4187333D01*
X38453213Y4187149D01*
X38441335Y4184180D01*
X38428470Y4180221D01*
X38427760Y4180058D01*
X38401760Y4176058D01*
X38401383Y4176015D01*
X38388383Y4175015D01*
X38388000Y4175000D01*
X36562000Y4175000D01*
X36561617Y4175015D01*
X36548617Y4176015D01*
X36548240Y4176058D01*
X36522240Y4180058D01*
X36521530Y4180221D01*
X36508665Y4184180D01*
X36496787Y4187149D01*
X36496205Y4187333D01*
X36483205Y4192333D01*
X36483077Y4192385D01*
X36471077Y4197385D01*
X36470931Y4197448D01*
X36459931Y4202448D01*
X36459764Y4202528D01*
X36447764Y4208528D01*
X36447316Y4208782D01*
X36436316Y4215782D01*
X36436059Y4215956D01*
X36425059Y4223956D01*
X36424877Y4224096D01*
X36404877Y4240096D01*
X36404655Y4240284D01*
X36394655Y4249284D01*
X36394284Y4249655D01*
X36385284Y4259655D01*
X36385096Y4259877D01*
X36369096Y4279877D01*
X36368956Y4280059D01*
X36360956Y4291059D01*
X36360782Y4291316D01*
X36353782Y4302316D01*
X36353528Y4302764D01*
X36347528Y4314764D01*
X36347448Y4314931D01*
X36342448Y4325931D01*
X36342385Y4326077D01*
X36337385Y4338077D01*
X36337333Y4338205D01*
X36332333Y4351205D01*
X36332149Y4351787D01*
X36329180Y4363665D01*
X36325221Y4376530D01*
X36325058Y4377240D01*
X36321058Y4403240D01*
X36321015Y4403617D01*
X36320015Y4416617D01*
X36320000Y4417000D01*
X36320000Y4943000D01*
X36320015Y4943383D01*
G37*
G36*
X36320015Y13583383D02*
G01*
X36321015Y13596383D01*
X36321058Y13596760D01*
X36325058Y13622760D01*
X36325221Y13623470D01*
X36329180Y13636335D01*
X36332149Y13648213D01*
X36332333Y13648795D01*
X36337333Y13661795D01*
X36337385Y13661923D01*
X36342385Y13673923D01*
X36342448Y13674069D01*
X36347448Y13685069D01*
X36347528Y13685236D01*
X36353528Y13697236D01*
X36353782Y13697684D01*
X36360782Y13708684D01*
X36360956Y13708941D01*
X36368956Y13719941D01*
X36369096Y13720123D01*
X36385096Y13740123D01*
X36385284Y13740345D01*
X36394284Y13750345D01*
X36394655Y13750716D01*
X36404655Y13759716D01*
X36404877Y13759904D01*
X36424877Y13775904D01*
X36425059Y13776044D01*
X36436059Y13784044D01*
X36436316Y13784218D01*
X36447316Y13791218D01*
X36447764Y13791472D01*
X36459764Y13797472D01*
X36459931Y13797552D01*
X36470931Y13802552D01*
X36471077Y13802615D01*
X36483077Y13807615D01*
X36483205Y13807667D01*
X36496205Y13812667D01*
X36496787Y13812851D01*
X36508665Y13815820D01*
X36521530Y13819779D01*
X36522240Y13819942D01*
X36548240Y13823942D01*
X36548617Y13823985D01*
X36561617Y13824985D01*
X36562000Y13825000D01*
X38388000Y13825000D01*
X38388383Y13824985D01*
X38401383Y13823985D01*
X38401760Y13823942D01*
X38427760Y13819942D01*
X38428470Y13819779D01*
X38441335Y13815820D01*
X38453213Y13812851D01*
X38453795Y13812667D01*
X38466795Y13807667D01*
X38466923Y13807615D01*
X38478923Y13802615D01*
X38479069Y13802552D01*
X38490069Y13797552D01*
X38490236Y13797472D01*
X38502236Y13791472D01*
X38502684Y13791218D01*
X38513684Y13784218D01*
X38513941Y13784044D01*
X38524941Y13776044D01*
X38525123Y13775904D01*
X38545123Y13759904D01*
X38545345Y13759716D01*
X38555345Y13750716D01*
X38555716Y13750345D01*
X38564716Y13740345D01*
X38564904Y13740123D01*
X38580904Y13720123D01*
X38581044Y13719941D01*
X38589044Y13708941D01*
X38589218Y13708684D01*
X38596218Y13697684D01*
X38596472Y13697236D01*
X38602472Y13685236D01*
X38602552Y13685069D01*
X38607552Y13674069D01*
X38607615Y13673923D01*
X38612615Y13661923D01*
X38612667Y13661795D01*
X38617667Y13648795D01*
X38617851Y13648213D01*
X38620820Y13636335D01*
X38624779Y13623470D01*
X38624942Y13622760D01*
X38628942Y13596760D01*
X38628985Y13596383D01*
X38629985Y13583383D01*
X38630000Y13583000D01*
X38630000Y13057000D01*
X38629985Y13056617D01*
X38628985Y13043617D01*
X38628942Y13043240D01*
X38624942Y13017240D01*
X38624779Y13016530D01*
X38620820Y13003665D01*
X38617851Y12991787D01*
X38617667Y12991205D01*
X38612667Y12978205D01*
X38612615Y12978077D01*
X38607615Y12966077D01*
X38607552Y12965931D01*
X38602552Y12954931D01*
X38602472Y12954764D01*
X38596472Y12942764D01*
X38596218Y12942316D01*
X38589218Y12931316D01*
X38589044Y12931059D01*
X38581044Y12920059D01*
X38580904Y12919877D01*
X38564904Y12899877D01*
X38564716Y12899655D01*
X38555716Y12889655D01*
X38555345Y12889284D01*
X38545345Y12880284D01*
X38545123Y12880096D01*
X38525123Y12864096D01*
X38524941Y12863956D01*
X38513941Y12855956D01*
X38513684Y12855782D01*
X38502684Y12848782D01*
X38502236Y12848528D01*
X38490236Y12842528D01*
X38490069Y12842448D01*
X38479069Y12837448D01*
X38478923Y12837385D01*
X38466923Y12832385D01*
X38466795Y12832333D01*
X38453795Y12827333D01*
X38453213Y12827149D01*
X38441335Y12824180D01*
X38428470Y12820221D01*
X38427760Y12820058D01*
X38401760Y12816058D01*
X38401383Y12816015D01*
X38388383Y12815015D01*
X38388000Y12815000D01*
X36562000Y12815000D01*
X36561617Y12815015D01*
X36548617Y12816015D01*
X36548240Y12816058D01*
X36522240Y12820058D01*
X36521530Y12820221D01*
X36508665Y12824180D01*
X36496787Y12827149D01*
X36496205Y12827333D01*
X36483205Y12832333D01*
X36483077Y12832385D01*
X36471077Y12837385D01*
X36470931Y12837448D01*
X36459931Y12842448D01*
X36459764Y12842528D01*
X36447764Y12848528D01*
X36447316Y12848782D01*
X36436316Y12855782D01*
X36436059Y12855956D01*
X36425059Y12863956D01*
X36424877Y12864096D01*
X36404877Y12880096D01*
X36404655Y12880284D01*
X36394655Y12889284D01*
X36394284Y12889655D01*
X36385284Y12899655D01*
X36385096Y12899877D01*
X36369096Y12919877D01*
X36368956Y12920059D01*
X36360956Y12931059D01*
X36360782Y12931316D01*
X36353782Y12942316D01*
X36353528Y12942764D01*
X36347528Y12954764D01*
X36347448Y12954931D01*
X36342448Y12965931D01*
X36342385Y12966077D01*
X36337385Y12978077D01*
X36337333Y12978205D01*
X36332333Y12991205D01*
X36332149Y12991787D01*
X36329180Y13003665D01*
X36325221Y13016530D01*
X36325058Y13017240D01*
X36321058Y13043240D01*
X36321015Y13043617D01*
X36320015Y13056617D01*
X36320000Y13057000D01*
X36320000Y13583000D01*
X36320015Y13583383D01*
G37*
M02*
