%TF.GenerationSoftware,KiCad,Pcbnew,9.0.0-rc3*%
%TF.CreationDate,2025-02-11T14:32:45-05:00*%
%TF.ProjectId,melonHD,6d656c6f-6e48-4442-9e6b-696361645f70,rev?*%
%TF.SameCoordinates,PX7459280PY6422c40*%
%TF.FileFunction,Soldermask,Bot*%
%TF.FilePolarity,Negative*%
%FSLAX46Y46*%
G04 Gerber Fmt 4.6, Leading zero omitted, Abs format (unit mm)*
G04 Created by KiCad (PCBNEW 9.0.0-rc3) date 2025-02-11 14:32:45*
%MOMM*%
%LPD*%
G01*
G04 APERTURE LIST*
%ADD10C,0.010000*%
%ADD11C,2.250000*%
G04 APERTURE END LIST*
D10*
X38401000Y13819000D02*
X38414000Y13817000D01*
X38427000Y13815000D01*
X38440000Y13811000D01*
X38452000Y13808000D01*
X38465000Y13803000D01*
X38477000Y13798000D01*
X38488000Y13793000D01*
X38500000Y13787000D01*
X38511000Y13780000D01*
X38522000Y13772000D01*
X38532000Y13764000D01*
X38542000Y13756000D01*
X38552000Y13747000D01*
X38561000Y13737000D01*
X38569000Y13727000D01*
X38577000Y13717000D01*
X38585000Y13706000D01*
X38592000Y13695000D01*
X38598000Y13683000D01*
X38603000Y13672000D01*
X38608000Y13660000D01*
X38613000Y13647000D01*
X38616000Y13635000D01*
X38620000Y13622000D01*
X38622000Y13609000D01*
X38624000Y13596000D01*
X38625000Y13583000D01*
X38625000Y13570000D01*
X38625000Y13070000D01*
X38625000Y13057000D01*
X38624000Y13044000D01*
X38622000Y13031000D01*
X38620000Y13018000D01*
X38616000Y13005000D01*
X38613000Y12993000D01*
X38608000Y12980000D01*
X38603000Y12968000D01*
X38598000Y12957000D01*
X38592000Y12945000D01*
X38585000Y12934000D01*
X38577000Y12923000D01*
X38569000Y12913000D01*
X38561000Y12903000D01*
X38552000Y12893000D01*
X38542000Y12884000D01*
X38532000Y12876000D01*
X38522000Y12868000D01*
X38511000Y12860000D01*
X38500000Y12853000D01*
X38488000Y12847000D01*
X38477000Y12842000D01*
X38465000Y12837000D01*
X38452000Y12832000D01*
X38440000Y12829000D01*
X38427000Y12825000D01*
X38414000Y12823000D01*
X38401000Y12821000D01*
X38388000Y12820000D01*
X38375000Y12820000D01*
X36575000Y12820000D01*
X36562000Y12820000D01*
X36549000Y12821000D01*
X36536000Y12823000D01*
X36523000Y12825000D01*
X36510000Y12829000D01*
X36498000Y12832000D01*
X36485000Y12837000D01*
X36473000Y12842000D01*
X36462000Y12847000D01*
X36450000Y12853000D01*
X36439000Y12860000D01*
X36428000Y12868000D01*
X36418000Y12876000D01*
X36408000Y12884000D01*
X36398000Y12893000D01*
X36389000Y12903000D01*
X36381000Y12913000D01*
X36373000Y12923000D01*
X36365000Y12934000D01*
X36358000Y12945000D01*
X36352000Y12957000D01*
X36347000Y12968000D01*
X36342000Y12980000D01*
X36337000Y12993000D01*
X36334000Y13005000D01*
X36330000Y13018000D01*
X36328000Y13031000D01*
X36326000Y13044000D01*
X36325000Y13057000D01*
X36325000Y13070000D01*
X36325000Y13570000D01*
X36325000Y13583000D01*
X36326000Y13596000D01*
X36328000Y13609000D01*
X36330000Y13622000D01*
X36334000Y13635000D01*
X36337000Y13647000D01*
X36342000Y13660000D01*
X36347000Y13672000D01*
X36352000Y13683000D01*
X36358000Y13695000D01*
X36365000Y13706000D01*
X36373000Y13717000D01*
X36381000Y13727000D01*
X36389000Y13737000D01*
X36398000Y13747000D01*
X36408000Y13756000D01*
X36418000Y13764000D01*
X36428000Y13772000D01*
X36439000Y13780000D01*
X36450000Y13787000D01*
X36462000Y13793000D01*
X36473000Y13798000D01*
X36485000Y13803000D01*
X36498000Y13808000D01*
X36510000Y13811000D01*
X36523000Y13815000D01*
X36536000Y13817000D01*
X36549000Y13819000D01*
X36562000Y13820000D01*
X36575000Y13820000D01*
X38375000Y13820000D01*
X38388000Y13820000D01*
X38401000Y13819000D01*
G36*
X38401000Y13819000D02*
G01*
X38414000Y13817000D01*
X38427000Y13815000D01*
X38440000Y13811000D01*
X38452000Y13808000D01*
X38465000Y13803000D01*
X38477000Y13798000D01*
X38488000Y13793000D01*
X38500000Y13787000D01*
X38511000Y13780000D01*
X38522000Y13772000D01*
X38532000Y13764000D01*
X38542000Y13756000D01*
X38552000Y13747000D01*
X38561000Y13737000D01*
X38569000Y13727000D01*
X38577000Y13717000D01*
X38585000Y13706000D01*
X38592000Y13695000D01*
X38598000Y13683000D01*
X38603000Y13672000D01*
X38608000Y13660000D01*
X38613000Y13647000D01*
X38616000Y13635000D01*
X38620000Y13622000D01*
X38622000Y13609000D01*
X38624000Y13596000D01*
X38625000Y13583000D01*
X38625000Y13570000D01*
X38625000Y13070000D01*
X38625000Y13057000D01*
X38624000Y13044000D01*
X38622000Y13031000D01*
X38620000Y13018000D01*
X38616000Y13005000D01*
X38613000Y12993000D01*
X38608000Y12980000D01*
X38603000Y12968000D01*
X38598000Y12957000D01*
X38592000Y12945000D01*
X38585000Y12934000D01*
X38577000Y12923000D01*
X38569000Y12913000D01*
X38561000Y12903000D01*
X38552000Y12893000D01*
X38542000Y12884000D01*
X38532000Y12876000D01*
X38522000Y12868000D01*
X38511000Y12860000D01*
X38500000Y12853000D01*
X38488000Y12847000D01*
X38477000Y12842000D01*
X38465000Y12837000D01*
X38452000Y12832000D01*
X38440000Y12829000D01*
X38427000Y12825000D01*
X38414000Y12823000D01*
X38401000Y12821000D01*
X38388000Y12820000D01*
X38375000Y12820000D01*
X36575000Y12820000D01*
X36562000Y12820000D01*
X36549000Y12821000D01*
X36536000Y12823000D01*
X36523000Y12825000D01*
X36510000Y12829000D01*
X36498000Y12832000D01*
X36485000Y12837000D01*
X36473000Y12842000D01*
X36462000Y12847000D01*
X36450000Y12853000D01*
X36439000Y12860000D01*
X36428000Y12868000D01*
X36418000Y12876000D01*
X36408000Y12884000D01*
X36398000Y12893000D01*
X36389000Y12903000D01*
X36381000Y12913000D01*
X36373000Y12923000D01*
X36365000Y12934000D01*
X36358000Y12945000D01*
X36352000Y12957000D01*
X36347000Y12968000D01*
X36342000Y12980000D01*
X36337000Y12993000D01*
X36334000Y13005000D01*
X36330000Y13018000D01*
X36328000Y13031000D01*
X36326000Y13044000D01*
X36325000Y13057000D01*
X36325000Y13070000D01*
X36325000Y13570000D01*
X36325000Y13583000D01*
X36326000Y13596000D01*
X36328000Y13609000D01*
X36330000Y13622000D01*
X36334000Y13635000D01*
X36337000Y13647000D01*
X36342000Y13660000D01*
X36347000Y13672000D01*
X36352000Y13683000D01*
X36358000Y13695000D01*
X36365000Y13706000D01*
X36373000Y13717000D01*
X36381000Y13727000D01*
X36389000Y13737000D01*
X36398000Y13747000D01*
X36408000Y13756000D01*
X36418000Y13764000D01*
X36428000Y13772000D01*
X36439000Y13780000D01*
X36450000Y13787000D01*
X36462000Y13793000D01*
X36473000Y13798000D01*
X36485000Y13803000D01*
X36498000Y13808000D01*
X36510000Y13811000D01*
X36523000Y13815000D01*
X36536000Y13817000D01*
X36549000Y13819000D01*
X36562000Y13820000D01*
X36575000Y13820000D01*
X38375000Y13820000D01*
X38388000Y13820000D01*
X38401000Y13819000D01*
G37*
X38401000Y5179000D02*
X38414000Y5177000D01*
X38427000Y5175000D01*
X38440000Y5171000D01*
X38452000Y5168000D01*
X38465000Y5163000D01*
X38477000Y5158000D01*
X38488000Y5153000D01*
X38500000Y5147000D01*
X38511000Y5140000D01*
X38522000Y5132000D01*
X38532000Y5124000D01*
X38542000Y5116000D01*
X38552000Y5107000D01*
X38561000Y5097000D01*
X38569000Y5087000D01*
X38577000Y5077000D01*
X38585000Y5066000D01*
X38592000Y5055000D01*
X38598000Y5043000D01*
X38603000Y5032000D01*
X38608000Y5020000D01*
X38613000Y5007000D01*
X38616000Y4995000D01*
X38620000Y4982000D01*
X38622000Y4969000D01*
X38624000Y4956000D01*
X38625000Y4943000D01*
X38625000Y4930000D01*
X38625000Y4430000D01*
X38625000Y4417000D01*
X38624000Y4404000D01*
X38622000Y4391000D01*
X38620000Y4378000D01*
X38616000Y4365000D01*
X38613000Y4353000D01*
X38608000Y4340000D01*
X38603000Y4328000D01*
X38598000Y4317000D01*
X38592000Y4305000D01*
X38585000Y4294000D01*
X38577000Y4283000D01*
X38569000Y4273000D01*
X38561000Y4263000D01*
X38552000Y4253000D01*
X38542000Y4244000D01*
X38532000Y4236000D01*
X38522000Y4228000D01*
X38511000Y4220000D01*
X38500000Y4213000D01*
X38488000Y4207000D01*
X38477000Y4202000D01*
X38465000Y4197000D01*
X38452000Y4192000D01*
X38440000Y4189000D01*
X38427000Y4185000D01*
X38414000Y4183000D01*
X38401000Y4181000D01*
X38388000Y4180000D01*
X38375000Y4180000D01*
X36575000Y4180000D01*
X36562000Y4180000D01*
X36549000Y4181000D01*
X36536000Y4183000D01*
X36523000Y4185000D01*
X36510000Y4189000D01*
X36498000Y4192000D01*
X36485000Y4197000D01*
X36473000Y4202000D01*
X36462000Y4207000D01*
X36450000Y4213000D01*
X36439000Y4220000D01*
X36428000Y4228000D01*
X36418000Y4236000D01*
X36408000Y4244000D01*
X36398000Y4253000D01*
X36389000Y4263000D01*
X36381000Y4273000D01*
X36373000Y4283000D01*
X36365000Y4294000D01*
X36358000Y4305000D01*
X36352000Y4317000D01*
X36347000Y4328000D01*
X36342000Y4340000D01*
X36337000Y4353000D01*
X36334000Y4365000D01*
X36330000Y4378000D01*
X36328000Y4391000D01*
X36326000Y4404000D01*
X36325000Y4417000D01*
X36325000Y4430000D01*
X36325000Y4930000D01*
X36325000Y4943000D01*
X36326000Y4956000D01*
X36328000Y4969000D01*
X36330000Y4982000D01*
X36334000Y4995000D01*
X36337000Y5007000D01*
X36342000Y5020000D01*
X36347000Y5032000D01*
X36352000Y5043000D01*
X36358000Y5055000D01*
X36365000Y5066000D01*
X36373000Y5077000D01*
X36381000Y5087000D01*
X36389000Y5097000D01*
X36398000Y5107000D01*
X36408000Y5116000D01*
X36418000Y5124000D01*
X36428000Y5132000D01*
X36439000Y5140000D01*
X36450000Y5147000D01*
X36462000Y5153000D01*
X36473000Y5158000D01*
X36485000Y5163000D01*
X36498000Y5168000D01*
X36510000Y5171000D01*
X36523000Y5175000D01*
X36536000Y5177000D01*
X36549000Y5179000D01*
X36562000Y5180000D01*
X36575000Y5180000D01*
X38375000Y5180000D01*
X38388000Y5180000D01*
X38401000Y5179000D01*
G36*
X38401000Y5179000D02*
G01*
X38414000Y5177000D01*
X38427000Y5175000D01*
X38440000Y5171000D01*
X38452000Y5168000D01*
X38465000Y5163000D01*
X38477000Y5158000D01*
X38488000Y5153000D01*
X38500000Y5147000D01*
X38511000Y5140000D01*
X38522000Y5132000D01*
X38532000Y5124000D01*
X38542000Y5116000D01*
X38552000Y5107000D01*
X38561000Y5097000D01*
X38569000Y5087000D01*
X38577000Y5077000D01*
X38585000Y5066000D01*
X38592000Y5055000D01*
X38598000Y5043000D01*
X38603000Y5032000D01*
X38608000Y5020000D01*
X38613000Y5007000D01*
X38616000Y4995000D01*
X38620000Y4982000D01*
X38622000Y4969000D01*
X38624000Y4956000D01*
X38625000Y4943000D01*
X38625000Y4930000D01*
X38625000Y4430000D01*
X38625000Y4417000D01*
X38624000Y4404000D01*
X38622000Y4391000D01*
X38620000Y4378000D01*
X38616000Y4365000D01*
X38613000Y4353000D01*
X38608000Y4340000D01*
X38603000Y4328000D01*
X38598000Y4317000D01*
X38592000Y4305000D01*
X38585000Y4294000D01*
X38577000Y4283000D01*
X38569000Y4273000D01*
X38561000Y4263000D01*
X38552000Y4253000D01*
X38542000Y4244000D01*
X38532000Y4236000D01*
X38522000Y4228000D01*
X38511000Y4220000D01*
X38500000Y4213000D01*
X38488000Y4207000D01*
X38477000Y4202000D01*
X38465000Y4197000D01*
X38452000Y4192000D01*
X38440000Y4189000D01*
X38427000Y4185000D01*
X38414000Y4183000D01*
X38401000Y4181000D01*
X38388000Y4180000D01*
X38375000Y4180000D01*
X36575000Y4180000D01*
X36562000Y4180000D01*
X36549000Y4181000D01*
X36536000Y4183000D01*
X36523000Y4185000D01*
X36510000Y4189000D01*
X36498000Y4192000D01*
X36485000Y4197000D01*
X36473000Y4202000D01*
X36462000Y4207000D01*
X36450000Y4213000D01*
X36439000Y4220000D01*
X36428000Y4228000D01*
X36418000Y4236000D01*
X36408000Y4244000D01*
X36398000Y4253000D01*
X36389000Y4263000D01*
X36381000Y4273000D01*
X36373000Y4283000D01*
X36365000Y4294000D01*
X36358000Y4305000D01*
X36352000Y4317000D01*
X36347000Y4328000D01*
X36342000Y4340000D01*
X36337000Y4353000D01*
X36334000Y4365000D01*
X36330000Y4378000D01*
X36328000Y4391000D01*
X36326000Y4404000D01*
X36325000Y4417000D01*
X36325000Y4430000D01*
X36325000Y4930000D01*
X36325000Y4943000D01*
X36326000Y4956000D01*
X36328000Y4969000D01*
X36330000Y4982000D01*
X36334000Y4995000D01*
X36337000Y5007000D01*
X36342000Y5020000D01*
X36347000Y5032000D01*
X36352000Y5043000D01*
X36358000Y5055000D01*
X36365000Y5066000D01*
X36373000Y5077000D01*
X36381000Y5087000D01*
X36389000Y5097000D01*
X36398000Y5107000D01*
X36408000Y5116000D01*
X36418000Y5124000D01*
X36428000Y5132000D01*
X36439000Y5140000D01*
X36450000Y5147000D01*
X36462000Y5153000D01*
X36473000Y5158000D01*
X36485000Y5163000D01*
X36498000Y5168000D01*
X36510000Y5171000D01*
X36523000Y5175000D01*
X36536000Y5177000D01*
X36549000Y5179000D01*
X36562000Y5180000D01*
X36575000Y5180000D01*
X38375000Y5180000D01*
X38388000Y5180000D01*
X38401000Y5179000D01*
G37*
X33451000Y13819000D02*
X33477000Y13817000D01*
X33503000Y13814000D01*
X33529000Y13809000D01*
X33554000Y13803000D01*
X33580000Y13796000D01*
X33604000Y13787000D01*
X33628000Y13777000D01*
X33652000Y13766000D01*
X33675000Y13753000D01*
X33697000Y13739000D01*
X33719000Y13725000D01*
X33740000Y13709000D01*
X33760000Y13692000D01*
X33779000Y13674000D01*
X33797000Y13655000D01*
X33814000Y13635000D01*
X33830000Y13614000D01*
X33844000Y13592000D01*
X33858000Y13570000D01*
X33871000Y13547000D01*
X33882000Y13523000D01*
X33892000Y13499000D01*
X33901000Y13475000D01*
X33908000Y13449000D01*
X33914000Y13424000D01*
X33919000Y13398000D01*
X33922000Y13372000D01*
X33924000Y13346000D01*
X33925000Y13320000D01*
X33925000Y12780000D01*
X33925000Y12758000D01*
X33923000Y12732000D01*
X33920000Y12706000D01*
X33916000Y12681000D01*
X33910000Y12655000D01*
X33903000Y12630000D01*
X33895000Y12606000D01*
X33886000Y12582000D01*
X33875000Y12558000D01*
X33863000Y12535000D01*
X33850000Y12513000D01*
X33836000Y12491000D01*
X33820000Y12470000D01*
X33804000Y12450000D01*
X33786000Y12431000D01*
X33768000Y12413000D01*
X33748000Y12396000D01*
X33728000Y12380000D01*
X33707000Y12365000D01*
X33685000Y12351000D01*
X33662000Y12338000D01*
X33639000Y12326000D01*
X33615000Y12316000D01*
X33591000Y12307000D01*
X33566000Y12299000D01*
X33541000Y12293000D01*
X33516000Y12287000D01*
X33490000Y12284000D01*
X33465000Y12281000D01*
X33435000Y12280000D01*
X33411000Y12281000D01*
X33387000Y12283000D01*
X33363000Y12286000D01*
X33339000Y12290000D01*
X33316000Y12296000D01*
X33293000Y12303000D01*
X33270000Y12311000D01*
X33248000Y12320000D01*
X33226000Y12330000D01*
X33205000Y12342000D01*
X33184000Y12354000D01*
X33165000Y12368000D01*
X33146000Y12383000D01*
X33127000Y12398000D01*
X33110000Y12415000D01*
X33093000Y12432000D01*
X33078000Y12451000D01*
X33063000Y12470000D01*
X33049000Y12489000D01*
X33037000Y12510000D01*
X33025000Y12531000D01*
X33015000Y12553000D01*
X33006000Y12575000D01*
X32998000Y12598000D01*
X32991000Y12621000D01*
X32985000Y12644000D01*
X32981000Y12668000D01*
X32978000Y12692000D01*
X32976000Y12716000D01*
X32975000Y12740000D01*
X32975000Y12780000D01*
X32975000Y12782000D01*
X32975000Y12784000D01*
X32975000Y12786000D01*
X32974000Y12788000D01*
X32974000Y12790000D01*
X32973000Y12792000D01*
X32972000Y12794000D01*
X32972000Y12796000D01*
X32971000Y12798000D01*
X32970000Y12800000D01*
X32969000Y12802000D01*
X32967000Y12804000D01*
X32966000Y12805000D01*
X32965000Y12807000D01*
X32963000Y12808000D01*
X32962000Y12810000D01*
X32960000Y12811000D01*
X32959000Y12812000D01*
X32957000Y12814000D01*
X32955000Y12815000D01*
X32953000Y12816000D01*
X32951000Y12817000D01*
X32949000Y12817000D01*
X32947000Y12818000D01*
X32945000Y12819000D01*
X32943000Y12819000D01*
X32941000Y12820000D01*
X32939000Y12820000D01*
X32937000Y12820000D01*
X32935000Y12820000D01*
X32435000Y12820000D01*
X32409000Y12821000D01*
X32383000Y12823000D01*
X32357000Y12826000D01*
X32331000Y12831000D01*
X32306000Y12837000D01*
X32280000Y12844000D01*
X32256000Y12853000D01*
X32232000Y12863000D01*
X32208000Y12874000D01*
X32185000Y12887000D01*
X32163000Y12901000D01*
X32141000Y12915000D01*
X32120000Y12931000D01*
X32100000Y12948000D01*
X32081000Y12966000D01*
X32063000Y12985000D01*
X32046000Y13005000D01*
X32030000Y13026000D01*
X32016000Y13048000D01*
X32002000Y13070000D01*
X31989000Y13093000D01*
X31978000Y13117000D01*
X31968000Y13141000D01*
X31959000Y13165000D01*
X31952000Y13191000D01*
X31946000Y13216000D01*
X31941000Y13242000D01*
X31938000Y13268000D01*
X31936000Y13294000D01*
X31935000Y13320000D01*
X31936000Y13346000D01*
X31938000Y13372000D01*
X31941000Y13398000D01*
X31946000Y13424000D01*
X31952000Y13449000D01*
X31959000Y13475000D01*
X31968000Y13499000D01*
X31978000Y13523000D01*
X31989000Y13547000D01*
X32002000Y13570000D01*
X32016000Y13592000D01*
X32030000Y13614000D01*
X32046000Y13635000D01*
X32063000Y13655000D01*
X32081000Y13674000D01*
X32100000Y13692000D01*
X32120000Y13709000D01*
X32141000Y13725000D01*
X32163000Y13739000D01*
X32185000Y13753000D01*
X32208000Y13766000D01*
X32232000Y13777000D01*
X32256000Y13787000D01*
X32280000Y13796000D01*
X32306000Y13803000D01*
X32331000Y13809000D01*
X32357000Y13814000D01*
X32383000Y13817000D01*
X32409000Y13819000D01*
X32435000Y13820000D01*
X33425000Y13820000D01*
X33451000Y13819000D01*
G36*
X33451000Y13819000D02*
G01*
X33477000Y13817000D01*
X33503000Y13814000D01*
X33529000Y13809000D01*
X33554000Y13803000D01*
X33580000Y13796000D01*
X33604000Y13787000D01*
X33628000Y13777000D01*
X33652000Y13766000D01*
X33675000Y13753000D01*
X33697000Y13739000D01*
X33719000Y13725000D01*
X33740000Y13709000D01*
X33760000Y13692000D01*
X33779000Y13674000D01*
X33797000Y13655000D01*
X33814000Y13635000D01*
X33830000Y13614000D01*
X33844000Y13592000D01*
X33858000Y13570000D01*
X33871000Y13547000D01*
X33882000Y13523000D01*
X33892000Y13499000D01*
X33901000Y13475000D01*
X33908000Y13449000D01*
X33914000Y13424000D01*
X33919000Y13398000D01*
X33922000Y13372000D01*
X33924000Y13346000D01*
X33925000Y13320000D01*
X33925000Y12780000D01*
X33925000Y12758000D01*
X33923000Y12732000D01*
X33920000Y12706000D01*
X33916000Y12681000D01*
X33910000Y12655000D01*
X33903000Y12630000D01*
X33895000Y12606000D01*
X33886000Y12582000D01*
X33875000Y12558000D01*
X33863000Y12535000D01*
X33850000Y12513000D01*
X33836000Y12491000D01*
X33820000Y12470000D01*
X33804000Y12450000D01*
X33786000Y12431000D01*
X33768000Y12413000D01*
X33748000Y12396000D01*
X33728000Y12380000D01*
X33707000Y12365000D01*
X33685000Y12351000D01*
X33662000Y12338000D01*
X33639000Y12326000D01*
X33615000Y12316000D01*
X33591000Y12307000D01*
X33566000Y12299000D01*
X33541000Y12293000D01*
X33516000Y12287000D01*
X33490000Y12284000D01*
X33465000Y12281000D01*
X33435000Y12280000D01*
X33411000Y12281000D01*
X33387000Y12283000D01*
X33363000Y12286000D01*
X33339000Y12290000D01*
X33316000Y12296000D01*
X33293000Y12303000D01*
X33270000Y12311000D01*
X33248000Y12320000D01*
X33226000Y12330000D01*
X33205000Y12342000D01*
X33184000Y12354000D01*
X33165000Y12368000D01*
X33146000Y12383000D01*
X33127000Y12398000D01*
X33110000Y12415000D01*
X33093000Y12432000D01*
X33078000Y12451000D01*
X33063000Y12470000D01*
X33049000Y12489000D01*
X33037000Y12510000D01*
X33025000Y12531000D01*
X33015000Y12553000D01*
X33006000Y12575000D01*
X32998000Y12598000D01*
X32991000Y12621000D01*
X32985000Y12644000D01*
X32981000Y12668000D01*
X32978000Y12692000D01*
X32976000Y12716000D01*
X32975000Y12740000D01*
X32975000Y12780000D01*
X32975000Y12782000D01*
X32975000Y12784000D01*
X32975000Y12786000D01*
X32974000Y12788000D01*
X32974000Y12790000D01*
X32973000Y12792000D01*
X32972000Y12794000D01*
X32972000Y12796000D01*
X32971000Y12798000D01*
X32970000Y12800000D01*
X32969000Y12802000D01*
X32967000Y12804000D01*
X32966000Y12805000D01*
X32965000Y12807000D01*
X32963000Y12808000D01*
X32962000Y12810000D01*
X32960000Y12811000D01*
X32959000Y12812000D01*
X32957000Y12814000D01*
X32955000Y12815000D01*
X32953000Y12816000D01*
X32951000Y12817000D01*
X32949000Y12817000D01*
X32947000Y12818000D01*
X32945000Y12819000D01*
X32943000Y12819000D01*
X32941000Y12820000D01*
X32939000Y12820000D01*
X32937000Y12820000D01*
X32935000Y12820000D01*
X32435000Y12820000D01*
X32409000Y12821000D01*
X32383000Y12823000D01*
X32357000Y12826000D01*
X32331000Y12831000D01*
X32306000Y12837000D01*
X32280000Y12844000D01*
X32256000Y12853000D01*
X32232000Y12863000D01*
X32208000Y12874000D01*
X32185000Y12887000D01*
X32163000Y12901000D01*
X32141000Y12915000D01*
X32120000Y12931000D01*
X32100000Y12948000D01*
X32081000Y12966000D01*
X32063000Y12985000D01*
X32046000Y13005000D01*
X32030000Y13026000D01*
X32016000Y13048000D01*
X32002000Y13070000D01*
X31989000Y13093000D01*
X31978000Y13117000D01*
X31968000Y13141000D01*
X31959000Y13165000D01*
X31952000Y13191000D01*
X31946000Y13216000D01*
X31941000Y13242000D01*
X31938000Y13268000D01*
X31936000Y13294000D01*
X31935000Y13320000D01*
X31936000Y13346000D01*
X31938000Y13372000D01*
X31941000Y13398000D01*
X31946000Y13424000D01*
X31952000Y13449000D01*
X31959000Y13475000D01*
X31968000Y13499000D01*
X31978000Y13523000D01*
X31989000Y13547000D01*
X32002000Y13570000D01*
X32016000Y13592000D01*
X32030000Y13614000D01*
X32046000Y13635000D01*
X32063000Y13655000D01*
X32081000Y13674000D01*
X32100000Y13692000D01*
X32120000Y13709000D01*
X32141000Y13725000D01*
X32163000Y13739000D01*
X32185000Y13753000D01*
X32208000Y13766000D01*
X32232000Y13777000D01*
X32256000Y13787000D01*
X32280000Y13796000D01*
X32306000Y13803000D01*
X32331000Y13809000D01*
X32357000Y13814000D01*
X32383000Y13817000D01*
X32409000Y13819000D01*
X32435000Y13820000D01*
X33425000Y13820000D01*
X33451000Y13819000D01*
G37*
X33451000Y5719000D02*
X33477000Y5717000D01*
X33503000Y5714000D01*
X33529000Y5709000D01*
X33554000Y5703000D01*
X33580000Y5696000D01*
X33604000Y5687000D01*
X33628000Y5677000D01*
X33652000Y5666000D01*
X33675000Y5653000D01*
X33697000Y5639000D01*
X33719000Y5625000D01*
X33740000Y5609000D01*
X33760000Y5592000D01*
X33779000Y5574000D01*
X33797000Y5555000D01*
X33814000Y5535000D01*
X33830000Y5514000D01*
X33844000Y5492000D01*
X33858000Y5470000D01*
X33871000Y5447000D01*
X33882000Y5423000D01*
X33892000Y5399000D01*
X33901000Y5375000D01*
X33908000Y5349000D01*
X33914000Y5324000D01*
X33919000Y5298000D01*
X33922000Y5272000D01*
X33924000Y5246000D01*
X33925000Y5220000D01*
X33925000Y4680000D01*
X33924000Y4654000D01*
X33922000Y4628000D01*
X33919000Y4602000D01*
X33914000Y4576000D01*
X33908000Y4551000D01*
X33901000Y4525000D01*
X33892000Y4501000D01*
X33882000Y4477000D01*
X33871000Y4453000D01*
X33858000Y4430000D01*
X33844000Y4408000D01*
X33830000Y4386000D01*
X33814000Y4365000D01*
X33797000Y4345000D01*
X33779000Y4326000D01*
X33760000Y4308000D01*
X33740000Y4291000D01*
X33719000Y4275000D01*
X33697000Y4261000D01*
X33675000Y4247000D01*
X33652000Y4234000D01*
X33628000Y4223000D01*
X33604000Y4213000D01*
X33580000Y4204000D01*
X33554000Y4197000D01*
X33529000Y4191000D01*
X33503000Y4186000D01*
X33477000Y4183000D01*
X33451000Y4181000D01*
X33425000Y4180000D01*
X32925000Y4180000D01*
X32425000Y4180000D01*
X32399000Y4181000D01*
X32373000Y4183000D01*
X32347000Y4186000D01*
X32321000Y4191000D01*
X32296000Y4197000D01*
X32270000Y4204000D01*
X32246000Y4213000D01*
X32222000Y4223000D01*
X32198000Y4234000D01*
X32175000Y4247000D01*
X32153000Y4261000D01*
X32131000Y4275000D01*
X32110000Y4291000D01*
X32090000Y4308000D01*
X32071000Y4326000D01*
X32053000Y4345000D01*
X32036000Y4365000D01*
X32020000Y4386000D01*
X32006000Y4408000D01*
X31992000Y4430000D01*
X31979000Y4453000D01*
X31968000Y4477000D01*
X31958000Y4501000D01*
X31949000Y4525000D01*
X31942000Y4551000D01*
X31936000Y4576000D01*
X31931000Y4602000D01*
X31928000Y4628000D01*
X31926000Y4654000D01*
X31925000Y4680000D01*
X31926000Y4706000D01*
X31928000Y4732000D01*
X31931000Y4758000D01*
X31936000Y4784000D01*
X31942000Y4809000D01*
X31949000Y4835000D01*
X31958000Y4859000D01*
X31968000Y4883000D01*
X31979000Y4907000D01*
X31992000Y4930000D01*
X32006000Y4952000D01*
X32020000Y4974000D01*
X32036000Y4995000D01*
X32053000Y5015000D01*
X32071000Y5034000D01*
X32090000Y5052000D01*
X32110000Y5069000D01*
X32131000Y5085000D01*
X32153000Y5099000D01*
X32175000Y5113000D01*
X32198000Y5126000D01*
X32222000Y5137000D01*
X32246000Y5147000D01*
X32270000Y5156000D01*
X32296000Y5163000D01*
X32321000Y5169000D01*
X32347000Y5174000D01*
X32373000Y5177000D01*
X32399000Y5179000D01*
X32425000Y5180000D01*
X32925000Y5180000D01*
X32927000Y5180000D01*
X32929000Y5180000D01*
X32931000Y5180000D01*
X32933000Y5181000D01*
X32935000Y5181000D01*
X32937000Y5182000D01*
X32939000Y5183000D01*
X32941000Y5183000D01*
X32943000Y5184000D01*
X32945000Y5185000D01*
X32947000Y5186000D01*
X32949000Y5188000D01*
X32950000Y5189000D01*
X32952000Y5190000D01*
X32953000Y5192000D01*
X32955000Y5193000D01*
X32956000Y5195000D01*
X32957000Y5196000D01*
X32959000Y5198000D01*
X32960000Y5200000D01*
X32961000Y5202000D01*
X32962000Y5204000D01*
X32962000Y5206000D01*
X32963000Y5208000D01*
X32964000Y5210000D01*
X32964000Y5212000D01*
X32965000Y5214000D01*
X32965000Y5216000D01*
X32965000Y5218000D01*
X32965000Y5220000D01*
X32965000Y5260000D01*
X32966000Y5284000D01*
X32968000Y5308000D01*
X32971000Y5332000D01*
X32975000Y5356000D01*
X32981000Y5379000D01*
X32988000Y5402000D01*
X32996000Y5425000D01*
X33005000Y5447000D01*
X33015000Y5469000D01*
X33027000Y5490000D01*
X33039000Y5511000D01*
X33053000Y5530000D01*
X33068000Y5549000D01*
X33083000Y5568000D01*
X33100000Y5585000D01*
X33117000Y5602000D01*
X33136000Y5617000D01*
X33155000Y5632000D01*
X33174000Y5646000D01*
X33195000Y5658000D01*
X33216000Y5670000D01*
X33238000Y5680000D01*
X33260000Y5689000D01*
X33283000Y5697000D01*
X33306000Y5704000D01*
X33329000Y5710000D01*
X33353000Y5714000D01*
X33377000Y5717000D01*
X33401000Y5719000D01*
X33425000Y5720000D01*
X33451000Y5719000D01*
G36*
X33451000Y5719000D02*
G01*
X33477000Y5717000D01*
X33503000Y5714000D01*
X33529000Y5709000D01*
X33554000Y5703000D01*
X33580000Y5696000D01*
X33604000Y5687000D01*
X33628000Y5677000D01*
X33652000Y5666000D01*
X33675000Y5653000D01*
X33697000Y5639000D01*
X33719000Y5625000D01*
X33740000Y5609000D01*
X33760000Y5592000D01*
X33779000Y5574000D01*
X33797000Y5555000D01*
X33814000Y5535000D01*
X33830000Y5514000D01*
X33844000Y5492000D01*
X33858000Y5470000D01*
X33871000Y5447000D01*
X33882000Y5423000D01*
X33892000Y5399000D01*
X33901000Y5375000D01*
X33908000Y5349000D01*
X33914000Y5324000D01*
X33919000Y5298000D01*
X33922000Y5272000D01*
X33924000Y5246000D01*
X33925000Y5220000D01*
X33925000Y4680000D01*
X33924000Y4654000D01*
X33922000Y4628000D01*
X33919000Y4602000D01*
X33914000Y4576000D01*
X33908000Y4551000D01*
X33901000Y4525000D01*
X33892000Y4501000D01*
X33882000Y4477000D01*
X33871000Y4453000D01*
X33858000Y4430000D01*
X33844000Y4408000D01*
X33830000Y4386000D01*
X33814000Y4365000D01*
X33797000Y4345000D01*
X33779000Y4326000D01*
X33760000Y4308000D01*
X33740000Y4291000D01*
X33719000Y4275000D01*
X33697000Y4261000D01*
X33675000Y4247000D01*
X33652000Y4234000D01*
X33628000Y4223000D01*
X33604000Y4213000D01*
X33580000Y4204000D01*
X33554000Y4197000D01*
X33529000Y4191000D01*
X33503000Y4186000D01*
X33477000Y4183000D01*
X33451000Y4181000D01*
X33425000Y4180000D01*
X32925000Y4180000D01*
X32425000Y4180000D01*
X32399000Y4181000D01*
X32373000Y4183000D01*
X32347000Y4186000D01*
X32321000Y4191000D01*
X32296000Y4197000D01*
X32270000Y4204000D01*
X32246000Y4213000D01*
X32222000Y4223000D01*
X32198000Y4234000D01*
X32175000Y4247000D01*
X32153000Y4261000D01*
X32131000Y4275000D01*
X32110000Y4291000D01*
X32090000Y4308000D01*
X32071000Y4326000D01*
X32053000Y4345000D01*
X32036000Y4365000D01*
X32020000Y4386000D01*
X32006000Y4408000D01*
X31992000Y4430000D01*
X31979000Y4453000D01*
X31968000Y4477000D01*
X31958000Y4501000D01*
X31949000Y4525000D01*
X31942000Y4551000D01*
X31936000Y4576000D01*
X31931000Y4602000D01*
X31928000Y4628000D01*
X31926000Y4654000D01*
X31925000Y4680000D01*
X31926000Y4706000D01*
X31928000Y4732000D01*
X31931000Y4758000D01*
X31936000Y4784000D01*
X31942000Y4809000D01*
X31949000Y4835000D01*
X31958000Y4859000D01*
X31968000Y4883000D01*
X31979000Y4907000D01*
X31992000Y4930000D01*
X32006000Y4952000D01*
X32020000Y4974000D01*
X32036000Y4995000D01*
X32053000Y5015000D01*
X32071000Y5034000D01*
X32090000Y5052000D01*
X32110000Y5069000D01*
X32131000Y5085000D01*
X32153000Y5099000D01*
X32175000Y5113000D01*
X32198000Y5126000D01*
X32222000Y5137000D01*
X32246000Y5147000D01*
X32270000Y5156000D01*
X32296000Y5163000D01*
X32321000Y5169000D01*
X32347000Y5174000D01*
X32373000Y5177000D01*
X32399000Y5179000D01*
X32425000Y5180000D01*
X32925000Y5180000D01*
X32927000Y5180000D01*
X32929000Y5180000D01*
X32931000Y5180000D01*
X32933000Y5181000D01*
X32935000Y5181000D01*
X32937000Y5182000D01*
X32939000Y5183000D01*
X32941000Y5183000D01*
X32943000Y5184000D01*
X32945000Y5185000D01*
X32947000Y5186000D01*
X32949000Y5188000D01*
X32950000Y5189000D01*
X32952000Y5190000D01*
X32953000Y5192000D01*
X32955000Y5193000D01*
X32956000Y5195000D01*
X32957000Y5196000D01*
X32959000Y5198000D01*
X32960000Y5200000D01*
X32961000Y5202000D01*
X32962000Y5204000D01*
X32962000Y5206000D01*
X32963000Y5208000D01*
X32964000Y5210000D01*
X32964000Y5212000D01*
X32965000Y5214000D01*
X32965000Y5216000D01*
X32965000Y5218000D01*
X32965000Y5220000D01*
X32965000Y5260000D01*
X32966000Y5284000D01*
X32968000Y5308000D01*
X32971000Y5332000D01*
X32975000Y5356000D01*
X32981000Y5379000D01*
X32988000Y5402000D01*
X32996000Y5425000D01*
X33005000Y5447000D01*
X33015000Y5469000D01*
X33027000Y5490000D01*
X33039000Y5511000D01*
X33053000Y5530000D01*
X33068000Y5549000D01*
X33083000Y5568000D01*
X33100000Y5585000D01*
X33117000Y5602000D01*
X33136000Y5617000D01*
X33155000Y5632000D01*
X33174000Y5646000D01*
X33195000Y5658000D01*
X33216000Y5670000D01*
X33238000Y5680000D01*
X33260000Y5689000D01*
X33283000Y5697000D01*
X33306000Y5704000D01*
X33329000Y5710000D01*
X33353000Y5714000D01*
X33377000Y5717000D01*
X33401000Y5719000D01*
X33425000Y5720000D01*
X33451000Y5719000D01*
G37*
G36*
G01*
X5500000Y14905000D02*
X6550000Y14905000D01*
G75*
G02*
X7025000Y14430000I0J-475000D01*
G01*
X7025000Y14430000D01*
G75*
G02*
X6550000Y13955000I-475000J0D01*
G01*
X5500000Y13955000D01*
G75*
G02*
X5025000Y14430000I0J475000D01*
G01*
X5025000Y14430000D01*
G75*
G02*
X5500000Y14905000I475000J0D01*
G01*
G37*
G36*
G01*
X5500000Y4045000D02*
X6550000Y4045000D01*
G75*
G02*
X7025000Y3570000I0J-475000D01*
G01*
X7025000Y3570000D01*
G75*
G02*
X6550000Y3095000I-475000J0D01*
G01*
X5500000Y3095000D01*
G75*
G02*
X5025000Y3570000I0J475000D01*
G01*
X5025000Y3570000D01*
G75*
G02*
X5500000Y4045000I475000J0D01*
G01*
G37*
G36*
G01*
X1100000Y14905000D02*
X1950000Y14905000D01*
G75*
G02*
X2425000Y14430000I0J-475000D01*
G01*
X2425000Y14430000D01*
G75*
G02*
X1950000Y13955000I-475000J0D01*
G01*
X1100000Y13955000D01*
G75*
G02*
X625000Y14430000I0J475000D01*
G01*
X625000Y14430000D01*
G75*
G02*
X1100000Y14905000I475000J0D01*
G01*
G37*
G36*
G01*
X1100000Y4045000D02*
X1950000Y4045000D01*
G75*
G02*
X2425000Y3570000I0J-475000D01*
G01*
X2425000Y3570000D01*
G75*
G02*
X1950000Y3095000I-475000J0D01*
G01*
X1100000Y3095000D01*
G75*
G02*
X625000Y3570000I0J475000D01*
G01*
X625000Y3570000D01*
G75*
G02*
X1100000Y4045000I475000J0D01*
G01*
G37*
G36*
X31921004Y4706192D02*
G01*
X31921015Y4706383D01*
X31923015Y4732383D01*
X31923033Y4732573D01*
X31926033Y4758573D01*
X31926090Y4758944D01*
X31931090Y4784944D01*
X31931138Y4785167D01*
X31937138Y4810167D01*
X31937172Y4810300D01*
X31944172Y4836300D01*
X31944318Y4836756D01*
X31953318Y4860756D01*
X31953385Y4860923D01*
X31963385Y4884923D01*
X31963455Y4885083D01*
X31974455Y4909083D01*
X31974647Y4909460D01*
X31987647Y4932460D01*
X31987782Y4932684D01*
X32015782Y4976684D01*
X32016023Y4977030D01*
X32032023Y4998030D01*
X32032190Y4998238D01*
X32049190Y5018238D01*
X32049370Y5018439D01*
X32067370Y5037439D01*
X32067561Y5037630D01*
X32086561Y5055630D01*
X32086762Y5055810D01*
X32106762Y5072810D01*
X32106970Y5072977D01*
X32127970Y5088977D01*
X32128316Y5089218D01*
X32172316Y5117218D01*
X32172540Y5117353D01*
X32195540Y5130353D01*
X32195917Y5130545D01*
X32219917Y5141545D01*
X32220077Y5141615D01*
X32244077Y5151615D01*
X32244244Y5151682D01*
X32268244Y5160682D01*
X32268700Y5160828D01*
X32294700Y5167828D01*
X32294833Y5167862D01*
X32319833Y5173862D01*
X32320056Y5173910D01*
X32346056Y5178910D01*
X32346427Y5178967D01*
X32372427Y5181967D01*
X32372617Y5181985D01*
X32398617Y5183985D01*
X32398808Y5183996D01*
X32424808Y5184996D01*
X32425000Y5185000D01*
X32929820Y5185000D01*
X32930764Y5185472D01*
X32933000Y5186000D01*
X32933820Y5186000D01*
X32936764Y5187472D01*
X32939000Y5188000D01*
X32939820Y5188000D01*
X32944036Y5190108D01*
X32946464Y5192536D01*
X32947764Y5193472D01*
X32948273Y5193726D01*
X32948528Y5194236D01*
X32950764Y5196472D01*
X32951273Y5196726D01*
X32951528Y5197236D01*
X32952464Y5198536D01*
X32954892Y5200964D01*
X32957000Y5205180D01*
X32957000Y5206000D01*
X32957528Y5208236D01*
X32959000Y5211180D01*
X32959000Y5212000D01*
X32959528Y5214236D01*
X32960000Y5215180D01*
X32960000Y5260000D01*
X32960004Y5260208D01*
X32961004Y5284208D01*
X32961017Y5284415D01*
X32963017Y5308415D01*
X32963039Y5308620D01*
X32966039Y5332620D01*
X32966068Y5332822D01*
X32970068Y5356822D01*
X32970162Y5357262D01*
X32976162Y5380262D01*
X32976217Y5380456D01*
X32983217Y5403456D01*
X32983278Y5403643D01*
X32991278Y5426643D01*
X32991372Y5426893D01*
X33000372Y5448893D01*
X33000448Y5449069D01*
X33010448Y5471069D01*
X33010659Y5471481D01*
X33034659Y5513481D01*
X33034975Y5513966D01*
X33048975Y5532966D01*
X33049076Y5533098D01*
X33079076Y5571098D01*
X33079464Y5571536D01*
X33113464Y5605536D01*
X33113902Y5605924D01*
X33151902Y5635924D01*
X33152034Y5636025D01*
X33171034Y5650025D01*
X33171519Y5650341D01*
X33213519Y5674341D01*
X33213931Y5674552D01*
X33235931Y5684552D01*
X33236107Y5684628D01*
X33258107Y5693628D01*
X33258357Y5693722D01*
X33281357Y5701722D01*
X33281544Y5701783D01*
X33304544Y5708783D01*
X33304738Y5708838D01*
X33327738Y5714838D01*
X33328178Y5714932D01*
X33352178Y5718932D01*
X33352380Y5718961D01*
X33376380Y5721961D01*
X33376585Y5721983D01*
X33400585Y5723983D01*
X33400792Y5723996D01*
X33424792Y5724996D01*
X33425192Y5724996D01*
X33451192Y5723996D01*
X33451383Y5723985D01*
X33477383Y5721985D01*
X33477573Y5721967D01*
X33503573Y5718967D01*
X33503944Y5718910D01*
X33529944Y5713910D01*
X33530167Y5713862D01*
X33555167Y5707862D01*
X33555300Y5707828D01*
X33581300Y5700828D01*
X33581756Y5700682D01*
X33605756Y5691682D01*
X33605923Y5691615D01*
X33629923Y5681615D01*
X33630083Y5681545D01*
X33654083Y5670545D01*
X33654460Y5670353D01*
X33677460Y5657353D01*
X33677684Y5657218D01*
X33721684Y5629218D01*
X33722030Y5628977D01*
X33743030Y5612977D01*
X33743238Y5612810D01*
X33763238Y5595810D01*
X33763439Y5595630D01*
X33782439Y5577630D01*
X33782630Y5577439D01*
X33800630Y5558439D01*
X33800810Y5558238D01*
X33817810Y5538238D01*
X33817977Y5538030D01*
X33833977Y5517030D01*
X33834218Y5516684D01*
X33862218Y5472684D01*
X33862353Y5472460D01*
X33875353Y5449460D01*
X33875545Y5449083D01*
X33886545Y5425083D01*
X33886615Y5424923D01*
X33896615Y5400923D01*
X33896682Y5400756D01*
X33905682Y5376756D01*
X33905828Y5376300D01*
X33912828Y5350300D01*
X33912862Y5350167D01*
X33918862Y5325167D01*
X33918910Y5324944D01*
X33923910Y5298944D01*
X33923967Y5298573D01*
X33926967Y5272573D01*
X33926985Y5272383D01*
X33928985Y5246383D01*
X33928996Y5246192D01*
X33929996Y5220192D01*
X33930000Y5220000D01*
X33930000Y4680000D01*
X33929996Y4679808D01*
X33928996Y4653808D01*
X33928985Y4653617D01*
X33926985Y4627617D01*
X33926967Y4627427D01*
X33923967Y4601427D01*
X33923910Y4601056D01*
X33918910Y4575056D01*
X33918862Y4574833D01*
X33912862Y4549833D01*
X33912828Y4549700D01*
X33905828Y4523700D01*
X33905682Y4523244D01*
X33896682Y4499244D01*
X33896615Y4499077D01*
X33886615Y4475077D01*
X33886545Y4474917D01*
X33875545Y4450917D01*
X33875353Y4450540D01*
X33862353Y4427540D01*
X33862218Y4427316D01*
X33834218Y4383316D01*
X33833977Y4382970D01*
X33817977Y4361970D01*
X33817810Y4361762D01*
X33800810Y4341762D01*
X33800630Y4341561D01*
X33782630Y4322561D01*
X33782439Y4322370D01*
X33763439Y4304370D01*
X33763238Y4304190D01*
X33743238Y4287190D01*
X33743030Y4287023D01*
X33722030Y4271023D01*
X33721684Y4270782D01*
X33677684Y4242782D01*
X33677460Y4242647D01*
X33654460Y4229647D01*
X33654083Y4229455D01*
X33630083Y4218455D01*
X33629923Y4218385D01*
X33605923Y4208385D01*
X33605756Y4208318D01*
X33581756Y4199318D01*
X33581300Y4199172D01*
X33555300Y4192172D01*
X33555167Y4192138D01*
X33530167Y4186138D01*
X33529944Y4186090D01*
X33503944Y4181090D01*
X33503573Y4181033D01*
X33477573Y4178033D01*
X33477383Y4178015D01*
X33451383Y4176015D01*
X33451192Y4176004D01*
X33425192Y4175004D01*
X33425000Y4175000D01*
X32425000Y4175000D01*
X32424808Y4175004D01*
X32398808Y4176004D01*
X32398617Y4176015D01*
X32372617Y4178015D01*
X32372427Y4178033D01*
X32346427Y4181033D01*
X32346056Y4181090D01*
X32320056Y4186090D01*
X32319833Y4186138D01*
X32294833Y4192138D01*
X32294700Y4192172D01*
X32268700Y4199172D01*
X32268244Y4199318D01*
X32244244Y4208318D01*
X32244077Y4208385D01*
X32220077Y4218385D01*
X32219917Y4218455D01*
X32195917Y4229455D01*
X32195540Y4229647D01*
X32172540Y4242647D01*
X32172316Y4242782D01*
X32128316Y4270782D01*
X32127970Y4271023D01*
X32106970Y4287023D01*
X32106762Y4287190D01*
X32086762Y4304190D01*
X32086561Y4304370D01*
X32067561Y4322370D01*
X32067370Y4322561D01*
X32049370Y4341561D01*
X32049190Y4341762D01*
X32032190Y4361762D01*
X32032023Y4361970D01*
X32016023Y4382970D01*
X32015782Y4383316D01*
X31987782Y4427316D01*
X31987647Y4427540D01*
X31974647Y4450540D01*
X31974455Y4450917D01*
X31963455Y4474917D01*
X31963385Y4475077D01*
X31953385Y4499077D01*
X31953318Y4499244D01*
X31944318Y4523244D01*
X31944172Y4523700D01*
X31937172Y4549700D01*
X31937138Y4549833D01*
X31931138Y4574833D01*
X31931090Y4575056D01*
X31926090Y4601056D01*
X31926033Y4601427D01*
X31923033Y4627427D01*
X31923015Y4627617D01*
X31921015Y4653617D01*
X31921004Y4653808D01*
X31920004Y4679808D01*
X31920004Y4680192D01*
X31921004Y4706192D01*
G37*
G36*
X31931004Y13346192D02*
G01*
X31931015Y13346383D01*
X31933015Y13372383D01*
X31933033Y13372573D01*
X31936033Y13398573D01*
X31936090Y13398944D01*
X31941090Y13424944D01*
X31941138Y13425167D01*
X31947138Y13450167D01*
X31947172Y13450300D01*
X31954172Y13476300D01*
X31954318Y13476756D01*
X31963318Y13500756D01*
X31963385Y13500923D01*
X31973385Y13524923D01*
X31973455Y13525083D01*
X31984455Y13549083D01*
X31984647Y13549460D01*
X31997647Y13572460D01*
X31997782Y13572684D01*
X32025782Y13616684D01*
X32026023Y13617030D01*
X32042023Y13638030D01*
X32042190Y13638238D01*
X32059190Y13658238D01*
X32059370Y13658439D01*
X32077370Y13677439D01*
X32077561Y13677630D01*
X32096561Y13695630D01*
X32096762Y13695810D01*
X32116762Y13712810D01*
X32116970Y13712977D01*
X32137970Y13728977D01*
X32138316Y13729218D01*
X32182316Y13757218D01*
X32182540Y13757353D01*
X32205540Y13770353D01*
X32205917Y13770545D01*
X32229917Y13781545D01*
X32230077Y13781615D01*
X32254077Y13791615D01*
X32254244Y13791682D01*
X32278244Y13800682D01*
X32278700Y13800828D01*
X32304700Y13807828D01*
X32304833Y13807862D01*
X32329833Y13813862D01*
X32330056Y13813910D01*
X32356056Y13818910D01*
X32356427Y13818967D01*
X32382427Y13821967D01*
X32382617Y13821985D01*
X32408617Y13823985D01*
X32408808Y13823996D01*
X32434808Y13824996D01*
X32435000Y13825000D01*
X33425000Y13825000D01*
X33425192Y13824996D01*
X33451192Y13823996D01*
X33451383Y13823985D01*
X33477383Y13821985D01*
X33477573Y13821967D01*
X33503573Y13818967D01*
X33503944Y13818910D01*
X33529944Y13813910D01*
X33530167Y13813862D01*
X33555167Y13807862D01*
X33555300Y13807828D01*
X33581300Y13800828D01*
X33581756Y13800682D01*
X33605756Y13791682D01*
X33605923Y13791615D01*
X33629923Y13781615D01*
X33630083Y13781545D01*
X33654083Y13770545D01*
X33654460Y13770353D01*
X33677460Y13757353D01*
X33677684Y13757218D01*
X33721684Y13729218D01*
X33722030Y13728977D01*
X33743030Y13712977D01*
X33743238Y13712810D01*
X33763238Y13695810D01*
X33763439Y13695630D01*
X33782439Y13677630D01*
X33782630Y13677439D01*
X33800630Y13658439D01*
X33800810Y13658238D01*
X33817810Y13638238D01*
X33817977Y13638030D01*
X33833977Y13617030D01*
X33834218Y13616684D01*
X33862218Y13572684D01*
X33862353Y13572460D01*
X33875353Y13549460D01*
X33875545Y13549083D01*
X33886545Y13525083D01*
X33886615Y13524923D01*
X33896615Y13500923D01*
X33896682Y13500756D01*
X33905682Y13476756D01*
X33905828Y13476300D01*
X33912828Y13450300D01*
X33912862Y13450167D01*
X33918862Y13425167D01*
X33918910Y13424944D01*
X33923910Y13398944D01*
X33923967Y13398573D01*
X33926967Y13372573D01*
X33926985Y13372383D01*
X33928985Y13346383D01*
X33928996Y13346192D01*
X33929996Y13320192D01*
X33930000Y13320000D01*
X33930000Y12780000D01*
X33929996Y12779808D01*
X33928996Y12753808D01*
X33928985Y12753617D01*
X33926985Y12727617D01*
X33926967Y12727427D01*
X33923967Y12701427D01*
X33923910Y12701056D01*
X33918910Y12675056D01*
X33918862Y12674833D01*
X33912862Y12649833D01*
X33912828Y12649700D01*
X33905828Y12623700D01*
X33905682Y12623244D01*
X33896682Y12599244D01*
X33896615Y12599077D01*
X33886615Y12575077D01*
X33886545Y12574917D01*
X33875545Y12550917D01*
X33875353Y12550540D01*
X33862353Y12527540D01*
X33862218Y12527316D01*
X33834218Y12483316D01*
X33833977Y12482970D01*
X33817977Y12461970D01*
X33817810Y12461762D01*
X33800810Y12441762D01*
X33800630Y12441561D01*
X33782630Y12422561D01*
X33782439Y12422370D01*
X33763439Y12404370D01*
X33763238Y12404190D01*
X33743238Y12387190D01*
X33743030Y12387023D01*
X33722030Y12371023D01*
X33721684Y12370782D01*
X33677684Y12342782D01*
X33677460Y12342647D01*
X33654460Y12329647D01*
X33654083Y12329455D01*
X33630083Y12318455D01*
X33629923Y12318385D01*
X33605923Y12308385D01*
X33605756Y12308318D01*
X33581756Y12299318D01*
X33581300Y12299172D01*
X33555300Y12292172D01*
X33555167Y12292138D01*
X33530167Y12286138D01*
X33529944Y12286090D01*
X33503944Y12281090D01*
X33503573Y12281033D01*
X33477573Y12278033D01*
X33477383Y12278015D01*
X33451383Y12276015D01*
X33451192Y12276004D01*
X33425192Y12275004D01*
X33424815Y12275003D01*
X33397815Y12276003D01*
X33397567Y12276019D01*
X33374567Y12278019D01*
X33374178Y12278068D01*
X33350178Y12282068D01*
X33349938Y12282114D01*
X33326938Y12287114D01*
X33326738Y12287162D01*
X33303738Y12293162D01*
X33303544Y12293217D01*
X33280544Y12300217D01*
X33280291Y12300301D01*
X33258291Y12308301D01*
X33257931Y12308448D01*
X33213931Y12328448D01*
X33213428Y12328713D01*
X33193428Y12340713D01*
X33193275Y12340808D01*
X33173275Y12353808D01*
X33173133Y12353904D01*
X33153133Y12367904D01*
X33152930Y12368053D01*
X33134930Y12382053D01*
X33134678Y12382263D01*
X33116678Y12398263D01*
X33116464Y12398464D01*
X33099464Y12415464D01*
X33099359Y12415573D01*
X33083359Y12432573D01*
X33083175Y12432779D01*
X33067175Y12451779D01*
X33066975Y12452034D01*
X33052975Y12471034D01*
X33052808Y12471275D01*
X33039808Y12491275D01*
X33039713Y12491428D01*
X33027713Y12511428D01*
X33027528Y12511764D01*
X33016528Y12533764D01*
X33016486Y12533850D01*
X33006486Y12554850D01*
X33006372Y12555107D01*
X32997372Y12577107D01*
X32997217Y12577544D01*
X32983217Y12623544D01*
X32983114Y12623938D01*
X32978114Y12646938D01*
X32978068Y12647178D01*
X32974068Y12671178D01*
X32974019Y12671567D01*
X32972017Y12694585D01*
X32970017Y12718585D01*
X32970000Y12719000D01*
X32970000Y12784820D01*
X32969528Y12785764D01*
X32969000Y12788000D01*
X32969000Y12788820D01*
X32967528Y12791764D01*
X32967000Y12794000D01*
X32967000Y12794820D01*
X32964892Y12799036D01*
X32962464Y12801464D01*
X32961528Y12802764D01*
X32961273Y12803274D01*
X32960764Y12803528D01*
X32958528Y12805764D01*
X32958273Y12806274D01*
X32957764Y12806528D01*
X32956464Y12807464D01*
X32954036Y12809892D01*
X32949820Y12812000D01*
X32949000Y12812000D01*
X32946764Y12812528D01*
X32943820Y12814000D01*
X32943000Y12814000D01*
X32940764Y12814528D01*
X32939820Y12815000D01*
X32435000Y12815000D01*
X32434808Y12815004D01*
X32408808Y12816004D01*
X32408617Y12816015D01*
X32382617Y12818015D01*
X32382427Y12818033D01*
X32356427Y12821033D01*
X32356056Y12821090D01*
X32330056Y12826090D01*
X32329833Y12826138D01*
X32304833Y12832138D01*
X32304700Y12832172D01*
X32278700Y12839172D01*
X32278244Y12839318D01*
X32254244Y12848318D01*
X32254077Y12848385D01*
X32230077Y12858385D01*
X32229917Y12858455D01*
X32205917Y12869455D01*
X32205540Y12869647D01*
X32182540Y12882647D01*
X32182316Y12882782D01*
X32138316Y12910782D01*
X32137970Y12911023D01*
X32116970Y12927023D01*
X32116762Y12927190D01*
X32096762Y12944190D01*
X32096561Y12944370D01*
X32077561Y12962370D01*
X32077370Y12962561D01*
X32059370Y12981561D01*
X32059190Y12981762D01*
X32042190Y13001762D01*
X32042023Y13001970D01*
X32026023Y13022970D01*
X32025782Y13023316D01*
X31997782Y13067316D01*
X31997647Y13067540D01*
X31984647Y13090540D01*
X31984455Y13090917D01*
X31973455Y13114917D01*
X31973385Y13115077D01*
X31963385Y13139077D01*
X31963318Y13139244D01*
X31954318Y13163244D01*
X31954172Y13163700D01*
X31947172Y13189700D01*
X31947138Y13189833D01*
X31941138Y13214833D01*
X31941090Y13215056D01*
X31936090Y13241056D01*
X31936033Y13241427D01*
X31933033Y13267427D01*
X31933015Y13267617D01*
X31931015Y13293617D01*
X31931004Y13293808D01*
X31930004Y13319808D01*
X31930004Y13320192D01*
X31931004Y13346192D01*
G37*
G36*
X36320015Y4943383D02*
G01*
X36321015Y4956383D01*
X36321058Y4956760D01*
X36325058Y4982760D01*
X36325221Y4983470D01*
X36329180Y4996335D01*
X36332149Y5008213D01*
X36332333Y5008795D01*
X36337333Y5021795D01*
X36337385Y5021923D01*
X36342385Y5033923D01*
X36342448Y5034069D01*
X36347448Y5045069D01*
X36347528Y5045236D01*
X36353528Y5057236D01*
X36353782Y5057684D01*
X36360782Y5068684D01*
X36360956Y5068941D01*
X36368956Y5079941D01*
X36369096Y5080123D01*
X36385096Y5100123D01*
X36385284Y5100345D01*
X36394284Y5110345D01*
X36394655Y5110716D01*
X36404655Y5119716D01*
X36404877Y5119904D01*
X36424877Y5135904D01*
X36425059Y5136044D01*
X36436059Y5144044D01*
X36436316Y5144218D01*
X36447316Y5151218D01*
X36447764Y5151472D01*
X36459764Y5157472D01*
X36459931Y5157552D01*
X36470931Y5162552D01*
X36471077Y5162615D01*
X36483077Y5167615D01*
X36483205Y5167667D01*
X36496205Y5172667D01*
X36496787Y5172851D01*
X36508665Y5175820D01*
X36521530Y5179779D01*
X36522240Y5179942D01*
X36548240Y5183942D01*
X36548617Y5183985D01*
X36561617Y5184985D01*
X36562000Y5185000D01*
X38388000Y5185000D01*
X38388383Y5184985D01*
X38401383Y5183985D01*
X38401760Y5183942D01*
X38427760Y5179942D01*
X38428470Y5179779D01*
X38441335Y5175820D01*
X38453213Y5172851D01*
X38453795Y5172667D01*
X38466795Y5167667D01*
X38466923Y5167615D01*
X38478923Y5162615D01*
X38479069Y5162552D01*
X38490069Y5157552D01*
X38490236Y5157472D01*
X38502236Y5151472D01*
X38502684Y5151218D01*
X38513684Y5144218D01*
X38513941Y5144044D01*
X38524941Y5136044D01*
X38525123Y5135904D01*
X38545123Y5119904D01*
X38545345Y5119716D01*
X38555345Y5110716D01*
X38555716Y5110345D01*
X38564716Y5100345D01*
X38564904Y5100123D01*
X38580904Y5080123D01*
X38581044Y5079941D01*
X38589044Y5068941D01*
X38589218Y5068684D01*
X38596218Y5057684D01*
X38596472Y5057236D01*
X38602472Y5045236D01*
X38602552Y5045069D01*
X38607552Y5034069D01*
X38607615Y5033923D01*
X38612615Y5021923D01*
X38612667Y5021795D01*
X38617667Y5008795D01*
X38617851Y5008213D01*
X38620820Y4996335D01*
X38624779Y4983470D01*
X38624942Y4982760D01*
X38628942Y4956760D01*
X38628985Y4956383D01*
X38629985Y4943383D01*
X38630000Y4943000D01*
X38630000Y4417000D01*
X38629985Y4416617D01*
X38628985Y4403617D01*
X38628942Y4403240D01*
X38624942Y4377240D01*
X38624779Y4376530D01*
X38620820Y4363665D01*
X38617851Y4351787D01*
X38617667Y4351205D01*
X38612667Y4338205D01*
X38612615Y4338077D01*
X38607615Y4326077D01*
X38607552Y4325931D01*
X38602552Y4314931D01*
X38602472Y4314764D01*
X38596472Y4302764D01*
X38596218Y4302316D01*
X38589218Y4291316D01*
X38589044Y4291059D01*
X38581044Y4280059D01*
X38580904Y4279877D01*
X38564904Y4259877D01*
X38564716Y4259655D01*
X38555716Y4249655D01*
X38555345Y4249284D01*
X38545345Y4240284D01*
X38545123Y4240096D01*
X38525123Y4224096D01*
X38524941Y4223956D01*
X38513941Y4215956D01*
X38513684Y4215782D01*
X38502684Y4208782D01*
X38502236Y4208528D01*
X38490236Y4202528D01*
X38490069Y4202448D01*
X38479069Y4197448D01*
X38478923Y4197385D01*
X38466923Y4192385D01*
X38466795Y4192333D01*
X38453795Y4187333D01*
X38453213Y4187149D01*
X38441335Y4184180D01*
X38428470Y4180221D01*
X38427760Y4180058D01*
X38401760Y4176058D01*
X38401383Y4176015D01*
X38388383Y4175015D01*
X38388000Y4175000D01*
X36562000Y4175000D01*
X36561617Y4175015D01*
X36548617Y4176015D01*
X36548240Y4176058D01*
X36522240Y4180058D01*
X36521530Y4180221D01*
X36508665Y4184180D01*
X36496787Y4187149D01*
X36496205Y4187333D01*
X36483205Y4192333D01*
X36483077Y4192385D01*
X36471077Y4197385D01*
X36470931Y4197448D01*
X36459931Y4202448D01*
X36459764Y4202528D01*
X36447764Y4208528D01*
X36447316Y4208782D01*
X36436316Y4215782D01*
X36436059Y4215956D01*
X36425059Y4223956D01*
X36424877Y4224096D01*
X36404877Y4240096D01*
X36404655Y4240284D01*
X36394655Y4249284D01*
X36394284Y4249655D01*
X36385284Y4259655D01*
X36385096Y4259877D01*
X36369096Y4279877D01*
X36368956Y4280059D01*
X36360956Y4291059D01*
X36360782Y4291316D01*
X36353782Y4302316D01*
X36353528Y4302764D01*
X36347528Y4314764D01*
X36347448Y4314931D01*
X36342448Y4325931D01*
X36342385Y4326077D01*
X36337385Y4338077D01*
X36337333Y4338205D01*
X36332333Y4351205D01*
X36332149Y4351787D01*
X36329180Y4363665D01*
X36325221Y4376530D01*
X36325058Y4377240D01*
X36321058Y4403240D01*
X36321015Y4403617D01*
X36320015Y4416617D01*
X36320000Y4417000D01*
X36320000Y4943000D01*
X36320015Y4943383D01*
G37*
G36*
X36320015Y13583383D02*
G01*
X36321015Y13596383D01*
X36321058Y13596760D01*
X36325058Y13622760D01*
X36325221Y13623470D01*
X36329180Y13636335D01*
X36332149Y13648213D01*
X36332333Y13648795D01*
X36337333Y13661795D01*
X36337385Y13661923D01*
X36342385Y13673923D01*
X36342448Y13674069D01*
X36347448Y13685069D01*
X36347528Y13685236D01*
X36353528Y13697236D01*
X36353782Y13697684D01*
X36360782Y13708684D01*
X36360956Y13708941D01*
X36368956Y13719941D01*
X36369096Y13720123D01*
X36385096Y13740123D01*
X36385284Y13740345D01*
X36394284Y13750345D01*
X36394655Y13750716D01*
X36404655Y13759716D01*
X36404877Y13759904D01*
X36424877Y13775904D01*
X36425059Y13776044D01*
X36436059Y13784044D01*
X36436316Y13784218D01*
X36447316Y13791218D01*
X36447764Y13791472D01*
X36459764Y13797472D01*
X36459931Y13797552D01*
X36470931Y13802552D01*
X36471077Y13802615D01*
X36483077Y13807615D01*
X36483205Y13807667D01*
X36496205Y13812667D01*
X36496787Y13812851D01*
X36508665Y13815820D01*
X36521530Y13819779D01*
X36522240Y13819942D01*
X36548240Y13823942D01*
X36548617Y13823985D01*
X36561617Y13824985D01*
X36562000Y13825000D01*
X38388000Y13825000D01*
X38388383Y13824985D01*
X38401383Y13823985D01*
X38401760Y13823942D01*
X38427760Y13819942D01*
X38428470Y13819779D01*
X38441335Y13815820D01*
X38453213Y13812851D01*
X38453795Y13812667D01*
X38466795Y13807667D01*
X38466923Y13807615D01*
X38478923Y13802615D01*
X38479069Y13802552D01*
X38490069Y13797552D01*
X38490236Y13797472D01*
X38502236Y13791472D01*
X38502684Y13791218D01*
X38513684Y13784218D01*
X38513941Y13784044D01*
X38524941Y13776044D01*
X38525123Y13775904D01*
X38545123Y13759904D01*
X38545345Y13759716D01*
X38555345Y13750716D01*
X38555716Y13750345D01*
X38564716Y13740345D01*
X38564904Y13740123D01*
X38580904Y13720123D01*
X38581044Y13719941D01*
X38589044Y13708941D01*
X38589218Y13708684D01*
X38596218Y13697684D01*
X38596472Y13697236D01*
X38602472Y13685236D01*
X38602552Y13685069D01*
X38607552Y13674069D01*
X38607615Y13673923D01*
X38612615Y13661923D01*
X38612667Y13661795D01*
X38617667Y13648795D01*
X38617851Y13648213D01*
X38620820Y13636335D01*
X38624779Y13623470D01*
X38624942Y13622760D01*
X38628942Y13596760D01*
X38628985Y13596383D01*
X38629985Y13583383D01*
X38630000Y13583000D01*
X38630000Y13057000D01*
X38629985Y13056617D01*
X38628985Y13043617D01*
X38628942Y13043240D01*
X38624942Y13017240D01*
X38624779Y13016530D01*
X38620820Y13003665D01*
X38617851Y12991787D01*
X38617667Y12991205D01*
X38612667Y12978205D01*
X38612615Y12978077D01*
X38607615Y12966077D01*
X38607552Y12965931D01*
X38602552Y12954931D01*
X38602472Y12954764D01*
X38596472Y12942764D01*
X38596218Y12942316D01*
X38589218Y12931316D01*
X38589044Y12931059D01*
X38581044Y12920059D01*
X38580904Y12919877D01*
X38564904Y12899877D01*
X38564716Y12899655D01*
X38555716Y12889655D01*
X38555345Y12889284D01*
X38545345Y12880284D01*
X38545123Y12880096D01*
X38525123Y12864096D01*
X38524941Y12863956D01*
X38513941Y12855956D01*
X38513684Y12855782D01*
X38502684Y12848782D01*
X38502236Y12848528D01*
X38490236Y12842528D01*
X38490069Y12842448D01*
X38479069Y12837448D01*
X38478923Y12837385D01*
X38466923Y12832385D01*
X38466795Y12832333D01*
X38453795Y12827333D01*
X38453213Y12827149D01*
X38441335Y12824180D01*
X38428470Y12820221D01*
X38427760Y12820058D01*
X38401760Y12816058D01*
X38401383Y12816015D01*
X38388383Y12815015D01*
X38388000Y12815000D01*
X36562000Y12815000D01*
X36561617Y12815015D01*
X36548617Y12816015D01*
X36548240Y12816058D01*
X36522240Y12820058D01*
X36521530Y12820221D01*
X36508665Y12824180D01*
X36496787Y12827149D01*
X36496205Y12827333D01*
X36483205Y12832333D01*
X36483077Y12832385D01*
X36471077Y12837385D01*
X36470931Y12837448D01*
X36459931Y12842448D01*
X36459764Y12842528D01*
X36447764Y12848528D01*
X36447316Y12848782D01*
X36436316Y12855782D01*
X36436059Y12855956D01*
X36425059Y12863956D01*
X36424877Y12864096D01*
X36404877Y12880096D01*
X36404655Y12880284D01*
X36394655Y12889284D01*
X36394284Y12889655D01*
X36385284Y12899655D01*
X36385096Y12899877D01*
X36369096Y12919877D01*
X36368956Y12920059D01*
X36360956Y12931059D01*
X36360782Y12931316D01*
X36353782Y12942316D01*
X36353528Y12942764D01*
X36347528Y12954764D01*
X36347448Y12954931D01*
X36342448Y12965931D01*
X36342385Y12966077D01*
X36337385Y12978077D01*
X36337333Y12978205D01*
X36332333Y12991205D01*
X36332149Y12991787D01*
X36329180Y13003665D01*
X36325221Y13016530D01*
X36325058Y13017240D01*
X36321058Y13043240D01*
X36321015Y13043617D01*
X36320015Y13056617D01*
X36320000Y13057000D01*
X36320000Y13583000D01*
X36320015Y13583383D01*
G37*
D11*
X37500000Y500000D03*
X37500000Y17500000D03*
X1500000Y500000D03*
X1500000Y17500000D03*
M02*
